<svg width="20" height="20" viewBox="0 0 20 20" fill="none" xmlns="http://www.w3.org/2000/svg">
<path d="M18.3334 10H16.2667C15.9026 9.99924 15.5481 10.1178 15.2577 10.3375C14.9672 10.5572 14.7567 10.866 14.6584 11.2167L12.7001 18.1834C12.6875 18.2266 12.6611 18.2646 12.6251 18.2917C12.589 18.3187 12.5452 18.3334 12.5001 18.3334C12.455 18.3334 12.4111 18.3187 12.3751 18.2917C12.339 18.2646 12.3127 18.2266 12.3001 18.1834L7.70008 1.81669C7.68746 1.77341 7.66114 1.7354 7.62508 1.70835C7.58902 1.68131 7.54516 1.66669 7.50008 1.66669C7.455 1.66669 7.41114 1.68131 7.37508 1.70835C7.33902 1.7354 7.3127 1.77341 7.30008 1.81669L5.34175 8.78335C5.2438 9.13265 5.03457 9.44045 4.7458 9.66003C4.45704 9.87961 4.10451 9.99898 3.74175 10H1.66675" stroke="#364153" stroke-width="1.66667" stroke-linecap="round" stroke-linejoin="round"/>
</svg>
