<svg width="14" height="14" viewBox="0 0 14 14" fill="none" xmlns="http://www.w3.org/2000/svg">
<path d="M4.20898 7.66113C5.36043 7.66113 6.29186 8.60121 6.29199 9.75879V11.9033C6.29175 13.0603 5.36023 14 4.20898 14H2.08301C0.931766 14 0.000239505 13.0603 0 11.9033V9.75879C0.000130947 8.60122 0.931563 7.66114 2.08301 7.66113H4.20898ZM11.918 7.66113C13.0687 7.6614 13.9999 8.60151 14 9.75879V11.9033C13.9998 13.06 13.0685 13.9997 11.918 14H9.79102C8.63977 14 7.70825 13.0603 7.70801 11.9033V9.75879C7.70814 8.60122 8.63957 7.66114 9.79102 7.66113H11.918ZM2.08301 8.6377C1.47296 8.6377 0.976693 9.13871 0.976562 9.75879V11.9023C0.976562 12.5219 1.47295 13.0225 2.08301 13.0225H4.20898C4.81904 13.0225 5.31543 12.5219 5.31543 11.9023V9.75879C5.3153 9.13871 4.81903 8.6377 4.20898 8.6377H2.08301ZM9.79102 8.6377C9.18097 8.6377 8.6847 9.13871 8.68457 9.75879V11.9023C8.68457 12.5219 9.18096 13.0225 9.79102 13.0225H11.918C12.5272 13.0222 13.0234 12.5217 13.0234 11.9023V9.75879C13.0233 9.13895 12.5272 8.63796 11.918 8.6377H9.79102ZM4.20898 0C5.36032 0 6.29189 0.939612 6.29199 2.09668V4.24219C6.29175 5.39866 5.36003 6.33887 4.20898 6.33887H2.08301C0.931964 6.33886 0.000239654 5.39866 0 4.24219V2.09668C9.82278e-05 0.939616 0.931678 5.68822e-06 2.08301 0H4.20898ZM11.918 0C13.0685 0.000265776 13.9999 0.939911 14 2.09668V4.24219C13.9998 5.39836 13.0683 6.3386 11.918 6.33887H9.79102C8.63997 6.33886 7.70825 5.39866 7.70801 4.24219V2.09668C7.70811 0.939616 8.63969 5.68822e-06 9.79102 0H11.918ZM2.08301 0.976562C1.47299 0.976562 0.976628 1.47715 0.976562 2.09668V4.24121C0.976562 4.86039 1.47321 5.36133 2.08301 5.36133H4.20898C4.81878 5.36133 5.31543 4.86039 5.31543 4.24121V2.09668C5.31536 1.47715 4.819 0.976562 4.20898 0.976562H2.08301ZM9.79102 0.976562C9.181 0.976562 8.68464 1.47715 8.68457 2.09668V4.24121C8.68457 4.86039 9.18122 5.36133 9.79102 5.36133H11.918C12.5269 5.36106 13.0234 4.86015 13.0234 4.24121V2.09668C13.0234 1.47738 12.5272 0.97683 11.918 0.976562H9.79102Z" fill="white"/>
</svg>
