<svg width="46" height="46" viewBox="0 0 46 46" fill="none" xmlns="http://www.w3.org/2000/svg">
<rect width="46" height="46" rx="23" fill="#7F2E29" fill-opacity="0.81"/>
<g clip-path="url(#clip0_1233_443)">
<path d="M23 16.4194C24.0672 16.4194 24.9355 15.5511 24.9355 14.4839C24.9355 13.4166 24.0672 12.5484 23 12.5484C21.9328 12.5484 21.0645 13.4166 21.0645 14.4839C21.0645 15.5511 21.9328 16.4194 23 16.4194ZM23 13.3226C23.6403 13.3226 24.1613 13.8436 24.1613 14.4839C24.1613 15.1241 23.6403 15.6452 23 15.6452C22.3597 15.6452 21.8387 15.1241 21.8387 14.4839C21.8387 13.8436 22.3597 13.3226 23 13.3226ZM23 20.1359L25.7205 16.7352C26.2139 16.1171 26.483 15.3499 26.4839 14.559V14.4839C26.4839 12.5631 24.9208 11 23 11C21.0792 11 19.5161 12.5631 19.5161 14.4839V14.559C19.5161 15.3471 19.7871 16.1201 20.2795 16.7352L23 20.1359ZM20.2903 14.4839C20.2903 12.9897 21.5058 11.7742 23 11.7742C24.4942 11.7742 25.7097 12.9897 25.7097 14.4839V14.559C25.7089 15.1741 25.4995 15.7709 25.1159 16.2517L23 18.8964L20.8841 16.2514C20.5004 15.7707 20.2911 15.174 20.2903 14.559V14.4839ZM31.5161 12.5484C30.4489 12.5484 29.5806 13.4166 29.5806 14.4839C29.5806 15.5511 30.4489 16.4194 31.5161 16.4194C32.5834 16.4194 33.4516 15.5511 33.4516 14.4839C33.4516 13.4166 32.5834 12.5484 31.5161 12.5484ZM31.5161 15.6452C30.8759 15.6452 30.3548 15.1241 30.3548 14.4839C30.3548 13.8436 30.8759 13.3226 31.5161 13.3226C32.1564 13.3226 32.6774 13.8436 32.6774 14.4839C32.6774 15.1241 32.1564 15.6452 31.5161 15.6452ZM31.5161 11C29.5954 11 28.0323 12.5631 28.0323 14.4839V14.559C28.0323 15.3471 28.3032 16.1201 28.7956 16.7352L31.5161 20.1359L34.2366 16.7352C34.73 16.1171 34.9991 15.3499 35 14.559V14.4839C35 12.5631 33.4369 11 31.5161 11ZM34.2258 14.559C34.225 15.1741 34.0157 15.7709 33.632 16.2517L31.5161 18.8964L29.4003 16.2514C29.0165 15.7707 28.8072 15.174 28.8065 14.559V14.4839C28.8065 12.9897 30.0219 11.7742 31.5161 11.7742C33.0103 11.7742 34.2258 12.9897 34.2258 14.4839V14.559ZM14.4839 16.4194C15.5511 16.4194 16.4194 15.5511 16.4194 14.4839C16.4194 13.4166 15.5511 12.5484 14.4839 12.5484C13.4166 12.5484 12.5484 13.4166 12.5484 14.4839C12.5484 15.5511 13.4166 16.4194 14.4839 16.4194ZM14.4839 13.3226C15.1241 13.3226 15.6452 13.8436 15.6452 14.4839C15.6452 15.1241 15.1241 15.6452 14.4839 15.6452C13.8436 15.6452 13.3226 15.1241 13.3226 14.4839C13.3226 13.8436 13.8436 13.3226 14.4839 13.3226ZM14.4839 20.1359L17.2044 16.7352C17.6977 16.1171 17.9668 15.3499 17.9677 14.559V14.4839C17.9677 12.5631 16.4046 11 14.4839 11C12.5631 11 11 12.5631 11 14.4839V14.559C11 15.3471 11.271 16.1201 11.7634 16.7352L14.4839 20.1359ZM11.7742 14.4839C11.7742 12.9897 12.9897 11.7742 14.4839 11.7742C15.9781 11.7742 17.1935 12.9897 17.1935 14.4839V14.559C17.1927 15.1741 16.9834 15.7709 16.5997 16.2517L14.4839 18.8964L12.368 16.2514C11.9843 15.7707 11.775 15.174 11.7742 14.559V14.4839ZM34.2258 26.5125V22.1267C34.225 21.896 34.149 21.6717 34.0093 21.4881C33.8696 21.3044 33.6738 21.1714 33.4516 21.109V19.5161H32.6774V21.1636L31.9032 21.3959V20.6774H31.129V21.6281L29.5632 22.0981C29.3439 22.1628 29.1516 22.297 29.0151 22.4804C28.8786 22.6639 28.8054 22.8867 28.8065 23.1154V23.3871H26.4839V22.6129C26.4839 22.1859 26.1366 21.8387 25.7097 21.8387H24.9355V21.0645H24.1613V21.8387H23.3871V20.2903H22.6129V21.8387H21.8387V21.0645H21.0645V21.8387H20.2903C19.8634 21.8387 19.5161 22.1859 19.5161 22.6129V23.3871H17.1935V23.1154C17.1945 22.8866 17.1212 22.6638 16.9846 22.4803C16.8481 22.2968 16.6557 22.1625 16.4364 22.0977L14.871 21.6281V20.6774H14.0968V21.3959L13.3226 21.1636V19.5161H12.5484V21.1094C12.3262 21.1717 12.1304 21.3048 11.9907 21.4885C11.851 21.6721 11.775 21.8963 11.7742 22.1271V26.5125C11.5544 26.5639 11.3583 26.688 11.2178 26.8646C11.0773 27.0413 11.0005 27.2603 11 27.4861C11 27.6556 11.0434 27.824 11.1262 27.9726L11.1599 28.0334C13.5475 32.3306 18.0843 35 23 35C27.9157 35 32.4525 32.3306 34.8401 28.0334L34.8742 27.9723C34.9491 27.8368 34.9916 27.6859 34.9983 27.5313C35.0051 27.3766 34.9759 27.2226 34.913 27.0811C34.8502 26.9397 34.7555 26.8147 34.6362 26.7161C34.517 26.6174 34.3765 26.5477 34.2258 26.5125ZM29.5806 23.1154C29.5804 23.0533 29.6002 22.9929 29.6372 22.9431C29.6742 22.8934 29.7263 22.857 29.7858 22.8394L33.0812 21.8507C33.1241 21.8391 33.1691 21.8374 33.2128 21.8457C33.2565 21.854 33.2978 21.8721 33.3334 21.8987C33.3691 21.9253 33.3983 21.9596 33.4188 21.9991C33.4392 22.0386 33.4505 22.0822 33.4516 22.1267V26.4839H31.129V24.1613C31.129 23.7343 30.7818 23.3871 30.3548 23.3871H29.5806V23.1154ZM30.3548 24.1613V26.4839H26.4839V24.1613H30.3548ZM20.2903 22.6129H25.7097V26.4839H20.2903V24.1613V22.6129ZM19.5161 26.4839H15.6452V24.1613H19.5161V26.4839ZM12.9192 21.8511L16.2138 22.8394C16.2733 22.8569 16.3256 22.8933 16.3626 22.943C16.3997 22.9928 16.4196 23.0533 16.4194 23.1154V23.3871H15.6452C15.2182 23.3871 14.871 23.7343 14.871 24.1613V26.4839H12.5484V22.1267C12.5484 21.9401 12.7388 21.7961 12.9192 21.8511ZM11.8365 27.6572L11.8028 27.5964C11.7837 27.5617 11.7739 27.5226 11.7744 27.483C11.7749 27.4434 11.7858 27.4046 11.8058 27.3705C11.8259 27.3363 11.8546 27.308 11.8889 27.2883C11.9233 27.2686 11.9622 27.2582 12.0018 27.2581H18.7419V27.6452C18.7419 27.8585 18.5681 28.0323 18.3548 28.0323H16.0323C15.392 28.0323 14.871 28.5533 14.871 29.1935C14.871 29.8338 15.392 30.3548 16.0323 30.3548H20.6774C20.8907 30.3548 21.0645 30.5286 21.0645 30.7419C21.0645 30.9552 20.8907 31.129 20.6774 31.129H19.9032C19.263 31.129 18.7419 31.6501 18.7419 32.2903C18.7419 32.9306 19.263 33.4516 19.9032 33.4516C20.1165 33.4516 20.2903 33.6254 20.2903 33.8387V33.9305C18.5164 33.5453 16.845 32.7867 15.3873 31.7049C13.9296 30.6232 12.7191 29.2433 11.8365 27.6572ZM21.0645 34.0729V33.8387C21.0645 33.1985 20.5435 32.6774 19.9032 32.6774C19.6899 32.6774 19.5161 32.5036 19.5161 32.2903C19.5161 32.077 19.6899 31.9032 19.9032 31.9032H20.6774C21.3177 31.9032 21.8387 31.3822 21.8387 30.7419C21.8387 30.1017 21.3177 29.5806 20.6774 29.5806H16.0323C15.819 29.5806 15.6452 29.4068 15.6452 29.1935C15.6452 28.9803 15.819 28.8065 16.0323 28.8065H18.3548C18.9951 28.8065 19.5161 28.2854 19.5161 27.6452V27.2581H24.9355V27.6452C24.9355 28.2854 25.4565 28.8065 26.0968 28.8065H29.9677C30.181 28.8065 30.3548 28.9803 30.3548 29.1935C30.3548 29.4068 30.181 29.5806 29.9677 29.5806H27.6452C27.0049 29.5806 26.4839 30.1017 26.4839 30.7419C26.4839 30.9552 26.3101 31.129 26.0968 31.129H24.5484C23.9081 31.129 23.3871 31.6501 23.3871 32.2903C23.3871 32.9306 23.9081 33.4516 24.5484 33.4516C24.7617 33.4516 24.9355 33.6254 24.9355 33.8387V34.0729C24.3003 34.1705 23.6542 34.2258 23 34.2258C22.3458 34.2258 21.6997 34.1705 21.0645 34.0729ZM34.1972 27.5964L34.1635 27.6572C33.2809 29.2433 32.0704 30.6232 30.6127 31.7049C29.155 32.7867 27.4836 33.5453 25.7097 33.9305V33.8387C25.7097 33.1985 25.1886 32.6774 24.5484 32.6774C24.3351 32.6774 24.1613 32.5036 24.1613 32.2903C24.1613 32.077 24.3351 31.9032 24.5484 31.9032H26.0968C26.737 31.9032 27.2581 31.3822 27.2581 30.7419C27.2581 30.5286 27.4319 30.3548 27.6452 30.3548H29.9677C30.608 30.3548 31.129 29.8338 31.129 29.1935C31.129 28.5533 30.608 28.0323 29.9677 28.0323H26.0968C25.8835 28.0323 25.7097 27.8585 25.7097 27.6452V27.2581H33.9982C34.0378 27.2582 34.0767 27.2686 34.1111 27.2883C34.1454 27.308 34.1741 27.3363 34.1942 27.3705C34.2142 27.4046 34.2251 27.4434 34.2256 27.483C34.2261 27.5226 34.2163 27.5617 34.1972 27.5964ZM17.1935 25.7097H16.4194V24.9355H17.1935V25.7097ZM18.7419 25.7097H17.9677V24.9355H18.7419V25.7097ZM21.8387 24.1613H21.0645V23.3871H21.8387V24.1613ZM23.3871 24.1613H22.6129V23.3871H23.3871V24.1613ZM21.8387 25.7097H21.0645V24.9355H21.8387V25.7097ZM23.3871 25.7097H22.6129V24.9355H23.3871V25.7097ZM24.9355 24.1613H24.1613V23.3871H24.9355V24.1613ZM24.9355 25.7097H24.1613V24.9355H24.9355V25.7097ZM14.0968 25.7097H13.3226V24.9355H14.0968V25.7097ZM14.0968 24.1613H13.3226V23.3871H14.0968V24.1613ZM29.5806 25.7097H28.8065V24.9355H29.5806V25.7097ZM28.0323 25.7097H27.2581V24.9355H28.0323V25.7097ZM32.6774 25.7097H31.9032V24.9355H32.6774V25.7097ZM32.6774 24.1613H31.9032V23.3871H32.6774V24.1613Z" fill="white"/>
</g>
<defs>
<clipPath id="clip0_1233_443">
<rect width="24" height="24" fill="white" transform="translate(11 11)"/>
</clipPath>
</defs>
</svg>
