<svg width="279" height="294" viewBox="0 0 279 294" fill="none" xmlns="http://www.w3.org/2000/svg">
<path d="M33.7939 209.292L25.1502 209.47L20.7658 209.549C19.3043 209.549 17.8297 209.549 16.3617 209.582H16.0654V209.285V201.925V201.59H16.4012L25.1173 201.629C28.0204 201.629 30.9236 201.702 33.8334 201.734H33.9848V201.912C33.9848 203.156 33.9255 204.401 33.8992 205.632L33.7939 209.292ZM33.7939 209.292L33.6951 205.566C33.6951 204.341 33.6227 203.13 33.6096 201.925L33.7939 202.103C30.8841 202.136 27.981 202.208 25.0778 202.208L16.3617 202.248L16.6908 201.925L16.6513 209.285L16.3617 208.996C17.7968 208.996 19.2253 208.996 20.6671 208.996L24.9988 209.075L33.7939 209.292Z" fill="#EBEBEB"/>
<path d="M24.0639 218.561L15.4268 218.745L11.0424 218.824C9.57437 218.824 8.10632 218.824 6.63169 218.857H6.33545V218.561V211.214V210.878H6.66461L15.3807 210.918C18.2905 210.918 21.1936 210.99 24.0968 211.023H24.2811V211.201C24.2811 212.445 24.2219 213.689 24.1956 214.92L24.0639 218.561ZM24.0639 218.561L23.9717 214.841C23.9717 213.617 23.8993 212.406 23.8862 211.201L24.0639 211.379C21.1607 211.412 18.2576 211.484 15.3478 211.484L6.63169 211.524L6.96085 211.201L6.92793 218.561L6.63169 218.271C8.0734 218.271 9.50195 218.271 10.9437 218.304L15.2754 218.383L24.0639 218.561Z" fill="#EBEBEB"/>
<path d="M43.9649 218.561L35.3015 218.758L30.9171 218.837C29.4491 218.837 27.981 218.837 26.5064 218.87H26.2167V218.561L26.1772 211.201V210.865H26.5064L35.2225 210.904C38.1323 210.904 41.0354 210.977 43.9386 211.01H44.1229V211.188C44.1229 212.432 44.0637 213.676 44.0374 214.907L43.9649 218.561ZM43.9649 218.561L43.8728 214.841C43.8728 213.617 43.8004 212.405 43.7872 211.201L43.9649 211.378C41.0618 211.411 38.1586 211.484 35.2488 211.484L26.5327 211.523L26.8619 211.201L26.829 218.561L26.5327 218.271C27.9744 218.271 29.403 218.271 30.8447 218.304L35.1764 218.383L43.9649 218.561Z" fill="#EBEBEB"/>
<path d="M217.885 149.359L209.248 149.543L204.864 149.615C203.396 149.615 201.921 149.615 200.453 149.615H200.164V149.319L200.124 141.953V141.623H200.453L209.169 141.663C212.072 141.663 214.982 141.735 217.885 141.775H218.07V141.953C218.07 143.203 218.017 144.448 217.984 145.672L217.885 149.359ZM217.885 149.359L217.793 145.639C217.793 144.408 217.721 143.197 217.708 141.992L217.885 142.17C214.982 142.17 212.072 142.275 209.169 142.282L200.453 142.321L200.782 141.992L200.749 149.359L200.453 149.062C201.888 149.062 203.323 149.062 204.765 149.102L209.097 149.174L217.885 149.359Z" fill="#EBEBEB"/>
<path d="M268.194 218.561L259.557 218.745L255.172 218.824C253.704 218.824 252.23 218.824 250.762 218.857H250.472V218.561L250.433 211.201V210.865H250.762L259.478 210.904C262.388 210.904 265.291 210.977 268.194 211.01H268.378V211.188C268.378 212.432 268.326 213.676 268.293 214.907L268.194 218.561ZM268.194 218.561L268.102 214.841C268.069 213.617 268.029 212.405 268.016 211.201L268.194 211.378C265.291 211.411 262.388 211.484 259.478 211.484L250.762 211.523L251.091 211.201L251.058 218.561L250.762 218.271C252.197 218.271 253.632 218.271 255.074 218.304L259.405 218.383L268.194 218.561Z" fill="#EBEBEB"/>
<path d="M258.471 42.2639L249.834 42.4483L245.443 42.5207C243.981 42.5207 242.507 42.5207 241.039 42.5602H240.749V42.2639L240.696 34.8908V34.5616H241.025L249.742 34.6011C252.645 34.6011 255.554 34.6801 258.458 34.7131H258.642V34.8908C258.642 36.1416 258.589 37.3858 258.556 38.6103L258.471 42.2639ZM258.471 42.2639L258.379 38.5445C258.346 37.3134 258.306 36.1021 258.293 34.8974L258.471 35.0751C255.568 35.0751 252.658 35.1805 249.755 35.187L241.039 35.2265L241.368 34.8974V42.2639L241.072 41.9677C242.507 41.9677 243.942 41.9677 245.383 42.0072L249.709 42.0796L258.471 42.2639Z" fill="#EBEBEB"/>
<path d="M268.194 51.5525L259.557 51.7368L255.179 51.8093C253.711 51.8093 252.237 51.8093 250.769 51.8488H250.479V51.5525L250.439 44.186V43.8568H250.769L259.485 43.8963C262.394 43.8963 265.298 43.9753 268.201 44.0082H268.385V44.186C268.385 45.4368 268.332 46.681 268.3 47.9055L268.194 51.5525ZM268.194 51.5525L268.102 47.833C268.069 46.602 268.03 45.3907 268.016 44.186L268.194 44.3637C265.291 44.3637 262.388 44.469 259.478 44.4756L250.762 44.5151L251.091 44.186L251.058 51.5525L250.762 51.2563C252.197 51.2563 253.632 51.2563 255.074 51.2958L259.406 51.3682L268.194 51.5525Z" fill="#EBEBEB"/>
<path d="M99.6652 98.9582L91.0281 99.1425L86.6437 99.2149C85.1756 99.2149 83.7076 99.2149 82.233 99.2544H81.9433V98.9582L81.9038 91.5916V91.2625H82.233L90.9491 91.3085C93.8588 91.3085 96.762 91.3809 99.6652 91.4139H99.8495V91.5916C99.8495 92.8424 99.7903 94.0866 99.7639 95.3177L99.6652 98.9582ZM99.6652 98.9582L99.573 95.2387C99.573 94.0142 99.5006 92.8029 99.4874 91.5916L99.6652 91.7759C96.762 91.8089 93.8588 91.8813 90.9491 91.8813L82.233 91.9208L82.5621 91.5916V98.9582L82.2659 98.6685C83.7076 98.6685 85.1361 98.6685 86.5779 98.7014L90.9096 98.7738L99.6652 98.9582Z" fill="#EBEBEB"/>
<path d="M109.395 108.247L100.751 108.431L96.3671 108.504C94.899 108.537 93.431 108.504 91.9629 108.543H91.6667V108.247L91.6338 100.88V100.551H91.9695L100.686 100.597C103.589 100.597 106.492 100.67 109.402 100.703H109.579V100.88C109.579 102.131 109.52 103.375 109.494 104.606L109.395 108.247ZM109.395 108.247L109.296 104.527C109.296 103.303 109.224 102.085 109.211 100.88L109.395 101.065C106.485 101.065 103.582 101.17 100.679 101.17L91.9629 101.21L92.2921 100.88L92.2526 108.247L91.9629 107.957C93.3981 107.957 94.8266 107.957 96.2683 107.957L100.6 108.03L109.395 108.247Z" fill="#EBEBEB"/>
<path d="M24.0639 42.2639L15.4268 42.4483L11.0424 42.5207C9.57437 42.5207 8.10632 42.5207 6.63169 42.5602H6.33545V42.2639V34.8908V34.5616H6.66461L15.3807 34.6011C18.2905 34.6011 21.1936 34.6801 24.0968 34.7131H24.2811V34.8908C24.2811 36.1416 24.2219 37.3858 24.1956 38.6103L24.0639 42.2639ZM24.0639 42.2639L23.9717 38.5445C23.9717 37.3134 23.8993 36.1021 23.8862 34.8974L24.0639 35.0751C21.1607 35.0751 18.2576 35.1805 15.3478 35.187L6.63169 35.2265L6.99377 34.8908L6.92793 42.2639L6.63169 41.9677C8.0734 41.9677 9.50195 41.9677 10.9437 42.0072L15.2754 42.0796L24.0639 42.2639Z" fill="#EBEBEB"/>
<path d="M28.5931 0H28.0664V61.7369H28.5931V0Z" fill="#C7C7C7"/>
<path d="M50.0217 82.6514L48.2772 86.4894H8.37663L6.63867 82.6514L23.6232 70.8939H33.0371L50.0217 82.6514Z" fill="#EBEBEB"/>
<path d="M34.215 59.5643L33.0366 70.894H23.6227L22.4443 59.5643H34.215Z" fill="#DBDBDB"/>
<path d="M50.0215 82.6512L48.2769 86.4892H8.37637L6.63184 82.6512H50.0215Z" fill="#DBDBDB"/>
<path d="M75.1761 0H74.6494V49.3671H75.1761V0Z" fill="#C7C7C7"/>
<path d="M96.604 70.2755L94.8594 74.1135H54.9589L53.2144 70.2755L70.2055 58.5179H79.6128L96.604 70.2755Z" fill="#EBEBEB"/>
<path d="M80.791 47.188L79.6126 58.5176H70.2052L69.0269 47.188H80.791Z" fill="#DBDBDB"/>
<path d="M96.5974 70.2754L94.8528 74.1134H54.9523L53.2144 70.2754H96.5974Z" fill="#DBDBDB"/>
<path d="M29.4228 126.127C3.8736 126.127 3.8341 162.453 29.4228 162.453C55.0116 162.453 55.0116 126.127 29.4228 126.127Z" fill="#EBEBEB"/>
<path d="M44.9589 147.693C43.5962 153.941 38.4152 159.365 29.4161 159.365C8.18536 159.365 8.21827 129.214 29.4161 129.214H29.8374C9.88381 129.576 9.98256 158.134 30.2258 158.134C38.4876 158.141 43.4053 153.388 44.9589 147.693Z" fill="#DBDBDB"/>
<path d="M29.5743 133.191C29.7401 133.19 29.9001 133.252 30.0221 133.365C30.1442 133.477 30.2194 133.631 30.2326 133.796V134.804C32.0047 134.925 33.7079 135.538 35.1502 136.575C35.4004 136.752 35.5386 136.904 35.5386 137.16C35.539 137.252 35.5202 137.343 35.4835 137.427C35.4468 137.511 35.3929 137.586 35.3254 137.648C35.2578 137.71 35.1781 137.757 35.0912 137.787C35.0044 137.816 34.9124 137.827 34.8211 137.819C34.6377 137.826 34.4587 137.762 34.3208 137.641C33.1156 136.722 31.6807 136.153 30.1734 135.995V143.052C34.38 143.862 36.1443 145.304 36.1443 147.779C36.1443 150.458 33.6888 152.387 30.2194 152.46V154.435C30.2194 154.609 30.1501 154.777 30.0266 154.9C29.9032 155.024 29.7357 155.093 29.5611 155.093C29.3865 155.093 29.2191 155.024 29.0956 154.9C28.9722 154.777 28.9028 154.609 28.9028 154.435V152.46C26.6249 152.314 24.4506 151.455 22.6883 150.004C22.598 149.948 22.5227 149.871 22.4688 149.779C22.4149 149.687 22.3841 149.584 22.3789 149.478C22.3889 149.301 22.466 149.134 22.5943 149.012C22.7227 148.889 22.8928 148.821 23.0701 148.819C23.2534 148.813 23.4322 148.877 23.5705 148.997C25.0747 150.321 26.9649 151.127 28.9621 151.295V144.086C24.8147 143.256 23.1031 141.861 23.1031 139.333C23.1031 136.805 25.5322 134.83 28.9028 134.725V133.764C28.9239 133.602 29.0043 133.454 29.1284 133.348C29.2524 133.242 29.4113 133.186 29.5743 133.191ZM28.9686 142.796V135.896C26.2827 135.943 24.5184 137.411 24.5184 139.234C24.5184 140.952 25.4269 142.012 28.9686 142.796ZM30.18 144.343V151.321C32.9449 151.268 34.7421 149.8 34.7421 147.884C34.7421 146.146 33.7744 145.073 30.18 144.343Z" fill="#DBDBDB"/>
<path d="M242.447 39.387C219.446 43.5146 225.522 77.5693 248.563 73.4548C271.604 69.3403 265.488 35.2527 242.447 39.387Z" fill="#DBDBDB"/>
<path d="M244.607 38.9987C222.685 42.9486 228.761 77.0099 250.722 73.0665C272.684 69.1232 266.568 35.0554 244.607 38.9987Z" fill="#EBEBEB"/>
<path d="M261.571 56.8327C261.453 62.909 257.918 68.7878 250.202 70.1702C231.98 73.4618 226.931 45.1542 245.127 41.8956L245.482 41.8363C228.425 45.253 233.316 72.0201 250.689 68.8997C257.773 67.6291 261.196 62.3889 261.571 56.8327Z" fill="#DBDBDB"/>
<path d="M248.984 45.5818C249.138 45.6031 249.278 45.6841 249.373 45.8073C249.467 45.9304 249.51 46.0859 249.491 46.2402L249.379 47.1947C250.92 47.5011 252.334 48.2598 253.441 49.3737C253.534 49.4406 253.607 49.5304 253.654 49.6343C253.702 49.7381 253.721 49.8525 253.711 49.9662C253.687 50.1197 253.605 50.2585 253.484 50.3548C253.362 50.4512 253.208 50.4981 253.053 50.4863C252.972 50.4813 252.894 50.4594 252.822 50.422C252.751 50.3845 252.688 50.3324 252.638 50.269C251.723 49.29 250.539 48.603 249.235 48.2941L248.445 54.9958C251.993 56.1873 253.362 57.7278 253.092 60.078C252.789 62.6125 250.459 64.1595 247.45 63.9028L247.227 65.7658C247.196 65.9063 247.115 66.0305 246.998 66.1143C246.881 66.198 246.737 66.2353 246.594 66.2189C246.451 66.2024 246.32 66.1335 246.225 66.0254C246.13 65.9174 246.079 65.7779 246.081 65.6341L246.298 63.7448C244.314 63.355 242.517 62.3149 241.19 60.7889C241.092 60.7042 241.023 60.5902 240.995 60.4636C240.966 60.3371 240.979 60.2047 241.031 60.0861C241.084 59.9674 241.173 59.8686 241.286 59.8044C241.398 59.7401 241.529 59.7137 241.657 59.729C241.793 59.7461 241.918 59.8088 242.013 59.9068C243.129 61.2916 244.686 62.2532 246.424 62.6322L247.279 55.8384C243.784 54.6271 242.454 53.1327 242.737 50.743C243.02 48.3533 245.37 46.7273 248.267 47.0038L248.379 46.0887C248.398 45.9439 248.471 45.8117 248.583 45.7179C248.695 45.6241 248.838 45.5756 248.984 45.5818ZM247.391 54.6403L248.155 48.0571C245.831 47.8333 244.133 49.038 243.935 50.7628C243.744 52.4152 244.389 53.5145 247.391 54.6403ZM248.267 56.2268L247.49 62.81C249.893 63.047 251.611 61.8422 251.822 60.0253C252.019 58.3663 251.302 57.2735 248.267 56.2005V56.2268Z" fill="#DBDBDB"/>
<path d="M261.94 204.44C261.904 205.16 261.677 205.858 261.282 206.461C261.282 206.323 261.229 206.185 261.196 206.04C261.163 205.895 261.124 205.75 261.078 205.605C260.729 204.61 260.195 203.69 259.504 202.893L259.267 202.623L259.208 202.551C259.167 202.512 259.13 202.47 259.096 202.426C252.73 194.361 246.667 207.429 246.542 207.732C246.542 207.732 246.193 194.697 253.125 194.335C258.596 194.058 262.263 200.411 261.94 204.44Z" fill="#EBEBEB"/>
<path d="M261.295 206.461C261.135 206.689 260.942 206.891 260.722 207.06C257.431 209.601 247.214 207.85 246.582 207.719C256.16 208.64 258.787 205.151 259.248 202.531L259.307 202.603L259.544 202.873C260.231 203.673 260.764 204.592 261.117 205.586C261.163 205.73 261.203 205.882 261.236 206.02C261.269 206.158 261.275 206.323 261.295 206.461Z" fill="#EBEBEB"/>
<path opacity="0.2" d="M261.295 206.461C261.135 206.689 260.942 206.891 260.722 207.06C257.431 209.601 247.214 207.85 246.582 207.719C256.16 208.64 258.787 205.151 259.248 202.531L259.307 202.603L259.544 202.873C260.231 203.673 260.764 204.592 261.117 205.586C261.163 205.73 261.203 205.882 261.236 206.02C261.269 206.158 261.275 206.323 261.295 206.461Z" fill="black"/>
<path d="M230.92 205.921C231.018 206.642 231.306 207.324 231.756 207.896C231.756 207.758 231.756 207.613 231.802 207.468C231.82 207.32 231.846 207.172 231.881 207.027C232.132 206.001 232.579 205.033 233.198 204.177L233.402 203.88C233.417 203.855 233.435 203.831 233.455 203.808L233.553 203.676C239.123 195.039 246.404 207.468 246.555 207.758C246.555 207.758 245.66 194.75 238.708 195.052C233.264 195.27 230.216 201.945 230.92 205.921Z" fill="#EBEBEB"/>
<path d="M231.756 207.87C231.935 208.082 232.146 208.264 232.382 208.41C235.924 210.622 245.904 207.916 246.522 207.751C237.069 209.581 234.126 206.362 233.415 203.801C233.396 203.824 233.378 203.848 233.363 203.874L233.159 204.17C232.543 205.028 232.096 205.995 231.842 207.021C231.809 207.172 231.783 207.317 231.763 207.462C231.743 207.606 231.763 207.732 231.756 207.87Z" fill="#EBEBEB"/>
<path opacity="0.2" d="M231.756 207.87C231.935 208.082 232.146 208.264 232.382 208.41C235.924 210.622 245.904 207.916 246.522 207.751C237.069 209.581 234.126 206.362 233.415 203.801C233.396 203.824 233.378 203.848 233.363 203.874L233.159 204.17C232.543 205.028 232.096 205.995 231.842 207.021C231.809 207.172 231.783 207.317 231.763 207.462C231.743 207.606 231.763 207.732 231.756 207.87Z" fill="black"/>
<path d="M265.186 251.062H228.142L231.203 209.279L261.486 210.576L265.186 251.062Z" fill="#DBDBDB"/>
<path d="M273.737 251.062H262.236L260.624 210.576L271.683 211.537L273.737 251.062Z" fill="#A6A6A6"/>
<path d="M227.642 209.279V217.435L260.624 216.428V207.086L227.642 209.279Z" fill="#C7C7C7"/>
<path d="M273.033 217.435L260.624 216.428V207.086L273.737 209.279L273.033 217.435Z" fill="#DBDBDB"/>
<path d="M249.386 251.062H241.638L240.854 208.403L250.012 207.791L249.386 251.062Z" fill="#EBEBEB"/>
<path d="M266.989 251.062H269.623L269.386 208.554L265.706 207.936L266.989 251.062Z" fill="#EBEBEB"/>
<path d="M233.001 223.235C232.889 223.903 232.6 224.528 232.164 225.046C232.164 224.914 232.164 224.782 232.164 224.644C232.164 224.506 232.125 224.368 232.099 224.223C231.889 223.255 231.495 222.337 230.94 221.517L230.756 221.241L230.703 221.168L230.611 221.043C225.594 212.807 218.471 224.295 218.313 224.558C218.313 224.558 219.459 212.38 225.976 212.827C231.052 213.183 233.751 219.522 233.001 223.235Z" fill="#DBDBDB"/>
<path d="M232.138 225.045C231.965 225.239 231.763 225.406 231.539 225.539C228.162 227.514 218.866 224.749 218.287 224.578C227.109 226.52 229.952 223.571 230.677 221.181L230.729 221.253L230.914 221.53C231.464 222.352 231.856 223.27 232.072 224.235C232.072 224.38 232.118 224.519 232.138 224.657C232.158 224.795 232.138 224.914 232.138 225.045Z" fill="#A6A6A6"/>
<path d="M203.923 221.109C203.941 221.783 204.134 222.441 204.482 223.018C204.482 222.886 204.535 222.755 204.575 222.623C204.608 222.487 204.65 222.352 204.7 222.221C205.046 221.294 205.569 220.442 206.24 219.713L206.464 219.463L206.523 219.397L206.635 219.285C212.797 211.866 218.169 224.275 218.281 224.552C218.281 224.552 218.939 212.333 212.409 211.826C207.313 211.445 203.719 217.317 203.923 221.109Z" fill="#DBDBDB"/>
<path d="M204.489 223.018C204.634 223.233 204.809 223.426 205.009 223.59C208.063 226.053 217.668 224.657 218.261 224.571C209.248 225.23 206.865 221.872 206.497 219.404L206.437 219.469L206.214 219.72C205.547 220.451 205.024 221.302 204.673 222.228C204.623 222.359 204.582 222.493 204.548 222.629C204.535 222.754 204.489 222.886 204.489 223.018Z" fill="#A6A6A6"/>
<path d="M201.434 250.97H235.759L234.501 226.665L204.864 225.605L201.434 250.97Z" fill="#EBEBEB"/>
<path opacity="0.6" d="M201.434 250.97H235.759L234.501 226.665L204.864 225.605L201.434 250.97Z" fill="white"/>
<path d="M194.417 250.97H204.173L205.667 225.605L195.608 227.481L194.417 250.97Z" fill="#EBEBEB"/>
<path d="M236.226 225.697V234.183L205.667 233.129V223.426L236.226 225.697Z" fill="#EBEBEB"/>
<path opacity="0.4" d="M236.226 225.697V234.183L205.667 233.129V223.426L236.226 225.697Z" fill="white"/>
<path d="M194.173 234.183L205.667 233.129V223.426L193.515 225.697L194.173 234.183Z" fill="#EBEBEB"/>
<path opacity="0.1" d="M194.173 234.183L205.667 233.129V223.426L193.515 225.697L194.173 234.183Z" fill="black"/>
<path d="M226.378 224.966L226.082 250.97H217.978L217.846 224.334L226.378 224.966Z" fill="#DBDBDB"/>
<path d="M200.822 224.334L197.774 224.9V250.97H200.322L200.822 224.334Z" fill="#DBDBDB"/>
<path d="M40.4234 223.235C40.3107 223.901 40.0246 224.525 39.5939 225.046C39.5939 224.914 39.5939 224.782 39.5939 224.644C39.5811 224.502 39.5591 224.362 39.5281 224.223C39.3181 223.255 38.9248 222.337 38.3694 221.517C38.3102 221.425 38.2509 221.333 38.1851 221.241C38.1697 221.215 38.1521 221.191 38.1324 221.168C38.1324 221.122 38.0732 221.083 38.0469 221.043C33.0239 212.807 25.9009 224.295 25.7495 224.558C25.7495 224.558 26.9016 212.38 33.4189 212.827C38.4813 213.183 41.1804 219.522 40.4234 223.235Z" fill="#DBDBDB"/>
<path d="M39.5936 225.045C39.4189 225.238 39.2171 225.404 38.9946 225.539C35.6174 227.514 26.3154 224.749 25.7427 224.578C34.5641 226.52 37.408 223.571 38.1322 221.181C38.1519 221.203 38.1695 221.228 38.1848 221.253C38.2507 221.345 38.3099 221.438 38.3692 221.53C38.9246 222.349 39.3179 223.268 39.5278 224.235C39.5588 224.374 39.5808 224.515 39.5936 224.657C39.5805 224.782 39.5871 224.914 39.5936 225.045Z" fill="#A6A6A6"/>
<path d="M11.352 221.109C11.3702 221.783 11.563 222.441 11.9116 223.018C11.9116 222.886 11.9643 222.755 11.9972 222.623C12.0301 222.491 12.0762 222.36 12.1222 222.221C12.4717 221.293 12.997 220.442 13.6693 219.713L13.8931 219.463L13.9524 219.397L14.0577 219.285C20.2261 211.866 25.598 224.275 25.7099 224.552C25.7099 224.552 26.3682 212.333 19.8443 211.826C14.7423 211.445 11.1479 217.317 11.352 221.109Z" fill="#DBDBDB"/>
<path d="M11.9116 223.018C12.0546 223.234 12.23 223.427 12.4317 223.59C15.4863 226.053 25.0845 224.657 25.6836 224.571C16.6778 225.23 14.2947 221.872 13.9261 219.404L13.8668 219.469L13.643 219.72C12.9746 220.451 12.4497 221.302 12.0959 222.228C12.0499 222.366 12.0104 222.498 11.9709 222.629C11.9314 222.761 11.9314 222.886 11.9116 223.018Z" fill="#A6A6A6"/>
<path d="M8.86377 250.97H43.1884L41.931 226.665L12.2936 225.605L8.86377 250.97Z" fill="#EBEBEB"/>
<path opacity="0.6" d="M8.86377 250.97H43.1884L41.931 226.665L12.2936 225.605L8.86377 250.97Z" fill="white"/>
<path d="M1.8457 250.97H11.5954L13.0897 225.605L3.03067 227.481L1.8457 250.97Z" fill="#EBEBEB"/>
<path d="M43.6555 225.697V234.183L13.0898 233.129V223.426L43.6555 225.697Z" fill="#EBEBEB"/>
<path opacity="0.4" d="M43.6555 225.697V234.183L13.0898 233.129V223.426L43.6555 225.697Z" fill="white"/>
<path d="M1.59558 234.183L13.0898 233.129V223.426L0.943848 225.697L1.59558 234.183Z" fill="#EBEBEB"/>
<path opacity="0.1" d="M1.59558 234.183L13.0898 233.129V223.426L0.943848 225.697L1.59558 234.183Z" fill="black"/>
<path d="M33.8072 224.966L33.5043 250.97H25.4071L25.2754 224.334L33.8072 224.966Z" fill="#DBDBDB"/>
<path d="M8.25162 224.334L5.20361 224.9V250.97H7.7513L8.25162 224.334Z" fill="#DBDBDB"/>
<path d="M0.0483398 251.029L34.3729 250.871L68.6975 250.812L137.34 250.707L205.983 250.812L240.307 250.871L274.632 251.029L240.307 251.194L205.983 251.253L137.34 251.359L68.6975 251.253L34.3729 251.194L0.0483398 251.029Z" fill="#263238"/>
<path d="M137.34 293.215C199.978 293.215 250.755 288.543 250.755 282.78C250.755 277.018 199.978 272.346 137.34 272.346C74.7033 272.346 23.9258 277.018 23.9258 282.78C23.9258 288.543 74.7033 293.215 137.34 293.215Z" fill="#EBEBEB"/>
<path d="M25.5386 190.642C25.6968 187.944 26.0778 185.265 26.6775 182.63C27.1509 180.204 28.1263 177.903 29.5412 175.876C30.1977 174.95 31.0316 174.165 31.9945 173.565C32.9574 172.965 34.0301 172.562 35.15 172.38C37.3488 172.11 39.4093 173.091 41.0749 174.474C43.1091 176.185 44.6693 178.456 46.1307 180.662C47.7375 183.123 49.1972 185.677 50.502 188.311C50.5116 188.329 50.5138 188.349 50.5083 188.369C50.5027 188.388 50.4898 188.404 50.4723 188.413C50.4549 188.423 50.4343 188.425 50.4152 188.42C50.396 188.414 50.3799 188.401 50.3703 188.384C49.239 186.148 47.9314 184.006 46.4599 181.978C45.1226 180.036 43.6181 178.214 41.9636 176.534C40.4561 175.059 38.5338 173.684 36.3482 173.611C35.276 173.624 34.2215 173.886 33.2685 174.378C32.3154 174.869 31.49 175.576 30.8578 176.442C29.3963 178.312 28.6524 180.655 28.0929 182.933C27.517 185.443 27.1405 187.994 26.9672 190.563C26.5392 195.829 26.4208 201.149 26.3088 206.441C26.243 209.437 26.2035 212.432 26.1706 215.427C26.1706 216.942 26.1706 218.462 26.1706 219.976C26.2269 221.442 26.1674 222.911 25.9928 224.367C25.9468 224.664 25.4596 224.637 25.4135 224.367C25.2335 222.988 25.1652 221.597 25.2094 220.207C25.2094 218.772 25.2094 217.33 25.1634 215.895C25.137 213.099 25.1261 210.301 25.1305 207.501C25.0844 201.879 25.1568 196.244 25.5386 190.642Z" fill="#263238"/>
<path d="M33.0762 186.666C33.3593 185.171 33.8596 183.223 34.7088 182.057C36.2427 179.977 37.8885 180.886 36.3612 183.183C35.2354 184.892 34.5045 186.831 34.2217 188.858C34.2217 188.858 36.7891 192.525 39.8898 194.328C39.7581 192.92 39.3565 190.754 39.633 188.66C40.2255 184.124 42.9707 184.381 42.2663 188.002C41.7629 190.395 41.542 192.839 41.608 195.283C42.6369 195.952 43.7419 196.495 44.8995 196.902C44.7218 196.382 44.5309 195.75 44.3202 194.987C43.2208 190.925 45.9331 189.654 46.0187 191.939C46.1943 193.889 46.5468 195.819 47.072 197.706C48.5598 198.206 49.7908 198.548 50.5479 198.811C52.5002 199.535 54.2452 200.726 55.6301 202.281C57.038 201.003 58.2101 199.488 59.0928 197.804C58.1449 196.988 56.6439 195.777 54.5702 194.309C50.673 191.557 52.0291 188.088 55.1166 190.247C57.3483 191.8 59.0665 194.69 59.8565 196.172C60.9112 193.591 61.5104 190.847 61.6274 188.061C58.5662 185.191 50.9956 181.188 53.2799 181.188C55.3339 181.188 59.9223 184.197 61.6076 185.356C61.5672 184.566 61.4815 183.779 61.3509 182.999C58.4674 181.109 49.1062 178.173 50.594 177.324C52.2332 176.396 58.7703 179.424 60.7452 180.379C60.3725 179.096 59.7872 177.886 59.0138 176.797C55.031 171.465 47.8225 169.628 44.7152 170.642C42.5033 171.36 43.1484 176.988 42.6744 176.797C33.853 173.203 29.8044 175.77 33.0762 186.666ZM54.906 186.047C55.5643 185.283 58.4609 187.528 57.6182 188.759C56.7756 189.99 54.0962 187.028 54.906 186.047ZM39.6396 181.248C40.4032 181.741 39.2709 184.579 38.086 183.723C37.0722 183.012 38.8628 180.754 39.6396 181.248Z" fill="#FFC727"/>
<path opacity="0.1" d="M33.0762 186.666C33.3593 185.171 33.8596 183.223 34.7088 182.057C36.2427 179.977 37.8885 180.886 36.3612 183.183C35.2354 184.892 34.5045 186.831 34.2217 188.858C34.2217 188.858 36.7891 192.525 39.8898 194.328C39.7581 192.92 39.3565 190.754 39.633 188.66C40.2255 184.124 42.9707 184.381 42.2663 188.002C41.7629 190.395 41.542 192.839 41.608 195.283C42.6369 195.952 43.7419 196.495 44.8995 196.902C44.7218 196.382 44.5309 195.75 44.3202 194.987C43.2208 190.925 45.9331 189.654 46.0187 191.939C46.1943 193.889 46.5468 195.819 47.072 197.706C48.5598 198.206 49.7908 198.548 50.5479 198.811C52.5002 199.535 54.2452 200.726 55.6301 202.281C57.038 201.003 58.2101 199.488 59.0928 197.804C58.1449 196.988 56.6439 195.777 54.5702 194.309C50.673 191.557 52.0291 188.088 55.1166 190.247C57.3483 191.8 59.0665 194.69 59.8565 196.172C60.9112 193.591 61.5104 190.847 61.6274 188.061C58.5662 185.191 50.9956 181.188 53.2799 181.188C55.3339 181.188 59.9223 184.197 61.6076 185.356C61.5672 184.566 61.4815 183.779 61.3509 182.999C58.4674 181.109 49.1062 178.173 50.594 177.324C52.2332 176.396 58.7703 179.424 60.7452 180.379C60.3725 179.096 59.7872 177.886 59.0138 176.797C55.031 171.465 47.8225 169.628 44.7152 170.642C42.5033 171.36 43.1484 176.988 42.6744 176.797C33.853 173.203 29.8044 175.77 33.0762 186.666ZM54.906 186.047C55.5643 185.283 58.4609 187.528 57.6182 188.759C56.7756 189.99 54.0962 187.028 54.906 186.047ZM39.6396 181.248C40.4032 181.741 39.2709 184.579 38.086 183.723C37.0722 183.012 38.8628 180.754 39.6396 181.248Z" fill="black"/>
<path d="M40.8047 182.123C41.2062 181.327 41.621 180.537 42.0818 179.773C42.5023 179.016 42.9962 178.301 43.5564 177.64C43.4248 177.482 43.3063 177.324 43.1746 177.173C43.0429 177.021 43.2141 177.021 43.2668 177.081C43.4182 177.252 43.5564 177.423 43.7012 177.601C43.7309 177.616 43.7542 177.642 43.7671 177.673C44.3135 178.331 44.8336 178.99 45.3273 179.701C46.2032 179.902 47.067 180.152 47.9145 180.451C48.79 180.747 49.6524 181.05 50.5016 181.406C50.5938 181.445 50.5477 181.59 50.4622 181.551C49.6195 181.182 48.7637 180.82 47.8947 180.524C47.0257 180.227 46.2292 180.03 45.3931 179.793C45.663 180.181 45.9329 180.563 46.1897 180.958C47.7627 181.457 49.2928 182.082 50.765 182.828C52.3054 183.558 53.7932 184.414 55.2744 185.27C55.36 185.316 55.2744 185.448 55.1954 185.395C53.7391 184.545 52.2406 183.77 50.7057 183.071C49.2772 182.413 47.7894 181.853 46.3477 181.215C49.9816 186.89 52.1672 193.44 55.0835 199.503C55.123 199.588 54.9848 199.661 54.9519 199.575C54.0566 197.449 53.0362 195.375 52.0619 193.282C51.1929 191.406 50.3437 189.516 49.4747 187.64C49.2179 187.094 48.9546 186.541 48.6913 185.994C48.8493 189.029 48.7834 192.11 49.2772 195.105C49.2772 195.125 49.2696 195.143 49.256 195.157C49.2424 195.17 49.224 195.178 49.2048 195.178C49.1856 195.178 49.1671 195.17 49.1536 195.157C49.14 195.143 49.1324 195.125 49.1324 195.105C48.9217 191.86 48.349 188.674 48.3753 185.415C48.3753 185.415 48.3753 185.415 48.3753 185.375C47.7565 184.138 47.0982 182.913 46.4003 181.728C45.1956 184.566 43.9317 187.443 43.3655 190.491C43.3655 190.583 43.1943 190.543 43.2207 190.444C44.0436 187.39 44.8006 184.335 46.2687 181.511C45.4978 180.225 44.6423 178.991 43.7078 177.818C43.3063 178.575 42.7862 179.286 42.3319 180.004C41.8777 180.721 41.4366 181.419 41.0153 182.143C40.1237 183.678 39.3639 185.286 38.7441 186.949C38.7441 187.041 38.5598 186.995 38.5993 186.909C39.3037 185.316 40.0081 183.67 40.8047 182.123Z" fill="#263238"/>
<path d="M12.135 189.022C14.4654 186.679 17.1842 183.611 20.7852 183.617C24.2677 183.617 26.8286 186.422 28.3032 189.318C29.8437 192.34 30.3966 195.763 30.8311 199.094C31.3423 203.083 31.6499 207.095 31.7528 211.115C31.8186 213.347 31.8054 215.585 31.7528 217.817C31.7533 220.078 31.5816 222.336 31.2393 224.571C31.1735 224.933 30.581 224.947 30.581 224.571C30.4756 222.695 30.581 220.806 30.581 218.923C30.581 217.04 30.581 215.217 30.4954 213.367C30.3571 209.621 30.0872 205.882 29.6462 202.175C29.2643 198.93 28.9549 195.592 27.9806 192.445C27.1051 189.608 25.4593 186.369 22.589 185.125C18.6391 183.427 14.8406 186.527 12.2798 189.147C12.181 189.187 12.0691 189.088 12.135 189.022Z" fill="#263238"/>
<path d="M0.226074 194.25C0.226074 194.73 0.272156 195.204 0.305071 195.665C1.42944 194.828 2.7435 194.283 4.12989 194.078C7.42147 193.73 7.23056 196.244 5.01861 196.35C3.46086 196.37 1.92055 196.681 0.476233 197.265C1.01605 201.636 2.21419 205.165 2.39852 205.165C5.33678 205.009 8.26038 204.646 11.1475 204.078C10.3246 202.327 8.44844 199.99 9.403 199.806C10.3576 199.621 11.4109 201.695 11.9375 203.92C14.1019 203.503 16.2303 202.918 18.3034 202.169C16.8486 200.905 14.5905 199.338 15.4529 198.667C16.3153 197.995 18.0862 200.207 19.1724 201.814C20.1497 201.418 21.0741 200.903 21.9242 200.28C19.9492 197.396 15.1764 196.81 15.8018 194.73C16.4272 192.65 20.9038 195.533 22.9116 199.391C25.275 196.949 25.9662 193.466 25.7161 190.524C23.6621 190.287 19.7056 190.714 19.9887 189.24C20.2718 187.765 23.1355 188.048 25.4725 188.904C25.2587 187.732 24.7938 186.621 24.1098 185.645C21.9373 182.867 15.3278 186.402 15.3278 186.402C15.3278 186.402 16.0388 179.76 13.5109 178.608C12.0626 177.95 9.49516 177.95 6.92773 179.47C8.36944 179.589 10.1206 180.043 10.8184 181.044C11.7137 182.321 10.2983 183.019 9.403 182.426C8.74468 182.012 7.58605 180.695 5.4531 180.524C4.54045 181.289 3.73647 182.175 3.06341 183.157C2.81776 183.522 2.59143 183.9 2.38535 184.289C3.60662 183.742 4.93356 183.471 6.27168 183.494C7.6098 183.518 8.92619 183.837 10.1271 184.428C12.9908 185.856 11.3911 188.832 8.92243 187.673C6.45374 186.514 4.11014 185.382 1.49662 186.034C0.574676 188.393 0.146716 190.916 0.239241 193.446C1.51695 192.512 2.95659 191.822 4.48538 191.412C7.33589 190.662 8.19828 192.367 5.0647 192.683C3.36154 192.868 1.71463 193.402 0.226074 194.25ZM3.70198 189.674C3.50449 188.753 5.52552 188.489 5.86126 189.24C6.13775 189.878 3.88631 190.603 3.70198 189.674ZM20.9959 194.789C21.1869 194.289 22.5364 194.862 22.4113 195.487C22.2402 196.323 20.8182 195.296 20.9894 194.789H20.9959ZM11.4504 198.028C12.4313 197.633 13.9717 200.089 12.8987 200.662C11.8256 201.234 10.634 198.351 11.4438 198.028H11.4504Z" fill="#FFC727"/>
<path d="M2.78676 204.736C4.26797 202.248 5.73602 199.753 7.29623 197.317C8.02037 196.178 8.78402 195.066 9.574 193.973C9.4555 193.973 9.33701 193.914 9.21851 193.894L8.62602 193.775C8.17179 193.696 7.71096 193.631 7.25014 193.584C6.78932 193.538 6.38117 193.519 5.93351 193.512C5.46924 193.487 5.00357 193.511 4.54446 193.584C4.53845 193.587 4.53188 193.588 4.52535 193.588C4.51882 193.587 4.51252 193.585 4.50704 193.581C4.50155 193.578 4.49705 193.573 4.49393 193.567C4.49081 193.561 4.48918 193.555 4.48918 193.548C4.48918 193.542 4.49081 193.535 4.49393 193.529C4.49705 193.524 4.50155 193.519 4.50704 193.515C4.51252 193.512 4.51882 193.509 4.52535 193.509C4.53188 193.508 4.53845 193.509 4.54446 193.512C5.00529 193.512 5.47927 193.473 5.94668 193.466C6.41408 193.459 6.84857 193.466 7.30281 193.499C7.7262 193.52 8.14814 193.564 8.56678 193.631L9.22509 193.749C9.36469 193.771 9.50311 193.799 9.63983 193.835C10.443 192.729 11.279 191.649 12.1414 190.583C9.56932 189.334 6.83137 188.46 4.01123 187.989C3.96515 187.989 4.01123 187.91 4.01123 187.916C6.87493 188.313 9.65849 189.157 12.2599 190.418C12.7339 189.839 13.2145 189.253 13.6951 188.68C14.1756 188.107 14.801 187.403 15.2882 186.705C15.2882 186.666 15.3869 186.705 15.3474 186.751C14.6808 187.489 14.0523 188.26 13.4646 189.062C14.5264 189.801 15.536 190.613 16.4863 191.491C17.4738 192.367 18.4613 193.275 19.3763 194.203C19.4158 194.236 19.3763 194.289 19.3237 194.256C18.402 193.334 17.4387 192.457 16.4337 191.623C15.433 190.787 14.3731 190.023 13.3659 189.2L12.6747 190.115L12.3258 190.569C11.9374 191.07 11.5555 191.577 11.1737 192.083C11.6217 192.734 12.0054 193.426 12.3192 194.151C12.6549 194.855 12.9775 195.579 13.2079 196.303C13.7417 197.82 14.1555 199.376 14.4455 200.958C14.4482 200.964 14.4492 200.97 14.4487 200.977C14.4481 200.983 14.446 200.99 14.4424 200.995C14.4388 201.001 14.4339 201.005 14.4281 201.008C14.4223 201.011 14.4159 201.013 14.4093 201.013C14.4028 201.013 14.3963 201.011 14.3906 201.008C14.3848 201.005 14.3799 201.001 14.3763 200.995C14.3727 200.99 14.3705 200.983 14.37 200.977C14.3694 200.97 14.3705 200.964 14.3731 200.958C14.0697 199.403 13.6291 197.879 13.0565 196.402C12.7668 195.638 12.4377 194.901 12.1019 194.164C11.7662 193.426 11.4436 192.847 11.1276 192.189C10.7985 192.636 10.4693 193.078 10.1402 193.505L9.85707 193.9C9.86241 193.906 9.86584 193.914 9.86692 193.922C9.868 193.929 9.86667 193.937 9.86311 193.945C9.85956 193.952 9.85393 193.958 9.84698 193.961C9.84003 193.965 9.83208 193.967 9.82416 193.966C8.80377 195.395 7.84921 196.85 6.88807 198.324C6.94422 198.426 6.9884 198.535 7.01973 198.647C7.07898 198.831 7.13823 199.009 7.1909 199.193C7.2966 199.557 7.38231 199.926 7.44764 200.299C7.51347 200.648 7.55955 200.997 7.59247 201.353C7.60001 201.756 7.63078 202.158 7.68463 202.557C7.68463 202.617 7.59905 202.617 7.61222 202.557C7.63976 202.182 7.61091 201.805 7.52664 201.438C7.47397 201.05 7.40156 200.675 7.31598 200.293C7.2304 199.911 7.14481 199.634 7.03948 199.279C6.9934 199.108 6.93415 198.943 6.88149 198.779L6.77615 198.502C6.33508 199.193 5.89401 199.891 5.45952 200.589C4.60371 201.978 3.75449 203.374 2.90526 204.763C2.85259 204.835 2.74068 204.769 2.78676 204.736Z" fill="#263238"/>
<path d="M25.6899 223.775C25.7294 222.366 25.9533 220.944 26.1047 219.548C26.2561 218.153 26.4141 216.737 26.5655 215.329C26.756 212.596 27.1188 209.878 27.6517 207.192C28.1225 204.881 29.268 202.762 30.9433 201.102C31.8198 200.232 32.967 199.686 34.1954 199.555C35.4295 199.52 36.6404 199.895 37.6384 200.622C38.779 201.46 39.7619 202.495 40.5416 203.676C41.3826 204.842 42.1373 206.067 42.7996 207.343C42.7996 207.396 42.7469 207.422 42.7206 207.376C41.4698 205.244 39.8071 203.382 37.8293 201.899C36.9538 201.173 35.8806 200.725 34.7484 200.615C34.196 200.605 33.6471 200.705 33.1339 200.91C32.6207 201.114 32.1535 201.419 31.7596 201.807C30.1841 203.319 29.0857 205.26 28.5997 207.389C28.0358 209.866 27.6355 212.378 27.4016 214.907C27.2041 216.395 27.0132 217.889 26.8157 219.377C26.6182 220.865 26.4931 222.379 26.1573 223.841C26.1335 223.887 26.096 223.924 26.0499 223.948C26.0039 223.972 25.9516 223.98 25.9003 223.973C25.849 223.966 25.8012 223.943 25.7635 223.907C25.7259 223.872 25.7001 223.826 25.6899 223.775Z" fill="#263238"/>
<path d="M32.6154 212.84C33.0481 213.432 33.5623 213.959 34.1427 214.407C33.9122 213.031 33.6357 210.589 34.327 209.292C35.4066 207.277 36.6772 208.278 36.0386 210.036C35.397 211.617 35.0447 213.3 34.9985 215.006C36.4622 215.926 38.0315 216.667 39.6725 217.211C39.4996 216.423 39.4485 215.613 39.5211 214.809C39.7383 212.649 41.3907 212.689 40.9562 214.934C40.8001 215.803 40.7252 216.684 40.7324 217.567C43.1153 218.303 45.5518 218.853 48.02 219.213C49.2783 217.579 50.2938 215.772 51.035 213.847C49.2773 213.406 45.7224 213.308 45.7685 212.05C45.8673 210.365 49.3103 211.662 51.3247 212.886C51.785 211.418 51.9921 209.882 51.9369 208.344C50.3556 207.902 48.7311 207.633 47.0917 207.541C43.4776 207.231 43.6553 205.177 46.2754 205.23C48.2043 205.263 50.6532 206.448 51.8119 207.06C51.0548 202.143 47.3024 198.989 44.3005 198.871C39.2446 198.667 41.0616 204.96 41.0616 204.96C41.0616 204.96 37.6383 202.551 34.3994 202.617C31.1605 202.682 29.1592 208.028 32.6154 212.84ZM46.1174 203.749C46.0055 203.038 48.2635 202.867 48.382 203.749C48.5137 204.796 46.2359 204.466 46.1174 203.749ZM49.7842 211.129C49.7382 210.668 50.7125 210.582 50.9297 211.168C51.0482 211.543 49.7842 211.583 49.7842 211.129ZM37.6383 211.556C38.402 211.668 38.8364 214.394 37.5264 214.335C36.4928 214.295 36.9602 211.464 37.6054 211.556H37.6383Z" fill="#FFC727"/>
<path opacity="0.1" d="M32.6154 212.84C33.0481 213.432 33.5623 213.959 34.1427 214.407C33.9122 213.031 33.6357 210.589 34.327 209.292C35.4066 207.277 36.6772 208.278 36.0386 210.036C35.397 211.617 35.0447 213.3 34.9985 215.006C36.4622 215.926 38.0315 216.667 39.6725 217.211C39.4996 216.423 39.4485 215.613 39.5211 214.809C39.7383 212.649 41.3907 212.689 40.9562 214.934C40.8001 215.803 40.7252 216.684 40.7324 217.567C43.1153 218.303 45.5518 218.853 48.02 219.213C49.2783 217.579 50.2938 215.772 51.035 213.847C49.2773 213.406 45.7224 213.308 45.7685 212.05C45.8673 210.365 49.3103 211.662 51.3247 212.886C51.785 211.418 51.9921 209.882 51.9369 208.344C50.3556 207.902 48.7311 207.633 47.0917 207.541C43.4776 207.231 43.6553 205.177 46.2754 205.23C48.2043 205.263 50.6532 206.448 51.8119 207.06C51.0548 202.143 47.3024 198.989 44.3005 198.871C39.2446 198.667 41.0616 204.96 41.0616 204.96C41.0616 204.96 37.6383 202.551 34.3994 202.617C31.1605 202.682 29.1592 208.028 32.6154 212.84ZM46.1174 203.749C46.0055 203.038 48.2635 202.867 48.382 203.749C48.5137 204.796 46.2359 204.466 46.1174 203.749ZM49.7842 211.129C49.7382 210.668 50.7125 210.582 50.9297 211.168C51.0482 211.543 49.7842 211.583 49.7842 211.129ZM37.6383 211.556C38.402 211.668 38.8364 214.394 37.5264 214.335C36.4928 214.295 36.9602 211.464 37.6054 211.556H37.6383Z" fill="black"/>
<path d="M38.6653 214.612C38.7905 214.269 38.9024 213.953 39.0078 213.578C38.909 213.933 38.8234 214.282 38.7575 214.638C38.7444 214.677 38.639 214.651 38.6653 214.612Z" fill="#263238"/>
<path d="M39.9951 210.207C40.2321 209.509 40.502 208.818 40.772 208.133C40.9168 207.764 41.0682 207.402 41.2262 207.04C41.3429 206.721 41.4953 206.417 41.6804 206.132C41.5216 205.849 41.3852 205.554 41.2723 205.25C41.2723 205.25 41.2723 205.197 41.3184 205.25C41.687 205.731 42.0151 206.242 42.2992 206.777C42.4441 207.021 42.5757 207.264 42.714 207.501C42.9994 207.528 43.2829 207.572 43.5632 207.633L44.4717 207.817L45.367 208.028C45.6698 208.1 45.9661 208.199 46.2689 208.245C46.3347 208.245 46.3084 208.364 46.2689 208.337C45.9602 208.23 45.6431 208.149 45.3209 208.094C45.0313 208.028 44.7416 207.975 44.4454 207.936C44.1491 207.896 43.8595 207.857 43.5632 207.83L42.9049 207.771C43.03 207.988 43.1551 208.192 43.2736 208.429C43.2885 208.464 43.3061 208.497 43.3262 208.528C43.5702 208.527 43.8134 208.556 44.0504 208.614L44.8338 208.772C45.3604 208.89 45.8871 209.009 46.4071 209.16C47.4999 209.463 48.5796 209.818 49.6592 210.167C49.7185 210.167 49.6592 210.273 49.6197 210.253C48.5396 209.893 47.4408 209.592 46.3281 209.351L44.7745 209.002L43.9911 208.838C43.7887 208.807 43.5886 208.763 43.3921 208.706C43.945 209.733 44.4717 210.78 44.9523 211.846C45.999 214.163 46.8811 216.553 47.783 218.936C47.783 218.995 47.7106 219.035 47.6909 218.976C46.8206 216.586 45.8116 214.25 44.6692 211.978C44.4651 211.563 44.2544 211.155 44.0504 210.747C44.0504 210.826 44.0174 210.911 43.9977 210.997C43.945 211.273 43.899 211.556 43.8463 211.839C43.7541 212.406 43.6554 212.965 43.5764 213.531C43.3359 214.689 43.1993 215.865 43.1682 217.047C43.1682 217.119 43.0563 217.119 43.0695 217.047C43.1409 216.479 43.1826 215.907 43.1946 215.335C43.2341 214.743 43.2736 214.15 43.346 213.564C43.4184 212.978 43.4842 212.425 43.5764 211.866C43.6225 211.583 43.6751 211.3 43.7278 211.017C43.7397 210.804 43.7934 210.596 43.8858 210.404L42.9971 208.627C42.714 208.067 42.4309 207.514 42.1412 206.961L41.7528 206.257C41.6626 206.547 41.5527 206.831 41.4237 207.106L41.0287 208.067C40.739 208.772 40.4691 209.483 40.1992 210.194C39.8174 211.207 39.3961 212.241 39.0801 213.294C39.3895 212.274 39.6528 211.227 39.9951 210.207Z" fill="#263238"/>
<path d="M39.0078 213.551C39.0078 213.472 39.0539 213.393 39.0803 213.308C39.0605 213.393 39.0342 213.472 39.0078 213.551Z" fill="#263238"/>
<path d="M17.2373 221.036L17.5928 228.561L18.5079 247.962H38.5207L39.4357 228.561L39.7912 221.036H17.2373Z" fill="#37474F"/>
<path d="M17.2373 221.036L17.5928 228.561H39.4357L39.7912 221.036H17.2373Z" fill="#263238"/>
<path d="M15.8085 224.071H41.2129V217.988H15.8085V224.071Z" fill="#37474F"/>
<path d="M36.9012 247.962H33.3857V251.148H36.9012V247.962Z" fill="#37474F"/>
<path d="M36.9012 247.962H33.3857V249.555H36.9012V247.962Z" fill="#263238"/>
<path d="M23.6358 247.962H20.127V251.148H23.6358V247.962Z" fill="#37474F"/>
<path d="M23.6358 247.962H20.127V249.555H23.6358V247.962Z" fill="#263238"/>
<path d="M215.022 241.411C215.023 245.821 216.774 250.051 219.891 253.172C223.007 256.293 227.234 258.051 231.644 258.06V279.415H43.0366V258.06C45.2513 258.104 47.4524 257.705 49.5113 256.888C51.5702 256.071 53.4454 254.852 55.0272 253.301C56.609 251.75 57.8656 249.9 58.7234 247.858C59.5813 245.815 60.0231 243.623 60.0231 241.407C60.0231 239.192 59.5813 237 58.7234 234.957C57.8656 232.915 56.609 231.064 55.0272 229.514C53.4454 227.963 51.5702 226.744 49.5113 225.927C47.4524 225.109 45.2513 224.711 43.0366 224.755V183.499H231.644V224.755C227.233 224.764 223.005 226.523 219.888 229.645C216.772 232.768 215.022 236.999 215.022 241.411Z" fill="#FFBD00"/>
<path opacity="0.3" d="M231.644 258.06V279.415H43.0366V258.06C47.4528 258.06 51.6881 256.306 54.8114 253.184C57.9347 250.062 59.6903 245.827 59.692 241.411H215.022C215.023 245.821 216.774 250.051 219.891 253.172C223.007 256.293 227.234 258.051 231.644 258.06Z" fill="white"/>
<g opacity="0.2">
<path d="M61.0093 242.063H59.6922C59.5176 242.063 59.3501 241.994 59.2266 241.87C59.1031 241.747 59.0337 241.579 59.0337 241.405C59.0337 241.23 59.1031 241.062 59.2266 240.939C59.3501 240.815 59.5176 240.746 59.6922 240.746H61.0093C61.184 240.746 61.3515 240.815 61.475 240.939C61.5985 241.062 61.6679 241.23 61.6679 241.405C61.6679 241.579 61.5985 241.747 61.475 241.87C61.3515 241.994 61.184 242.063 61.0093 242.063Z" fill="black"/>
<path d="M207.701 242.063H205.068C204.893 242.063 204.726 241.993 204.603 241.87C204.479 241.746 204.41 241.579 204.41 241.404C204.41 241.23 204.479 241.062 204.603 240.939C204.726 240.815 204.893 240.746 205.068 240.746H207.701C207.876 240.746 208.043 240.815 208.167 240.939C208.29 241.062 208.36 241.23 208.36 241.404C208.36 241.579 208.29 241.746 208.167 241.87C208.043 241.993 207.876 242.063 207.701 242.063ZM199.071 242.063H196.437C196.263 242.063 196.095 241.993 195.972 241.87C195.849 241.746 195.779 241.579 195.779 241.404C195.779 241.23 195.849 241.062 195.972 240.939C196.095 240.815 196.263 240.746 196.437 240.746H199.071C199.245 240.746 199.413 240.815 199.536 240.939C199.66 241.062 199.729 241.23 199.729 241.404C199.729 241.579 199.66 241.746 199.536 241.87C199.413 241.993 199.245 242.063 199.071 242.063ZM190.44 242.063H187.807C187.632 242.063 187.465 241.993 187.341 241.87C187.218 241.746 187.149 241.579 187.149 241.404C187.149 241.23 187.218 241.062 187.341 240.939C187.465 240.815 187.632 240.746 187.807 240.746H190.44C190.615 240.746 190.782 240.815 190.906 240.939C191.029 241.062 191.099 241.23 191.099 241.404C191.099 241.579 191.029 241.746 190.906 241.87C190.782 241.993 190.615 242.063 190.44 242.063ZM181.81 242.063H179.176C179.002 242.063 178.834 241.993 178.711 241.87C178.587 241.746 178.518 241.579 178.518 241.404C178.518 241.23 178.587 241.062 178.711 240.939C178.834 240.815 179.002 240.746 179.176 240.746H181.81C181.984 240.746 182.152 240.815 182.275 240.939C182.399 241.062 182.468 241.23 182.468 241.404C182.468 241.579 182.399 241.746 182.275 241.87C182.152 241.993 181.984 242.063 181.81 242.063ZM173.186 242.063H170.553C170.378 242.063 170.21 241.993 170.087 241.87C169.964 241.746 169.894 241.579 169.894 241.404C169.894 241.23 169.964 241.062 170.087 240.939C170.21 240.815 170.378 240.746 170.553 240.746H173.186C173.36 240.746 173.528 240.815 173.651 240.939C173.775 241.062 173.844 241.23 173.844 241.404C173.844 241.579 173.775 241.746 173.651 241.87C173.528 241.993 173.36 242.063 173.186 242.063ZM164.555 242.063H161.922C161.747 242.063 161.58 241.993 161.456 241.87C161.333 241.746 161.264 241.579 161.264 241.404C161.264 241.23 161.333 241.062 161.456 240.939C161.58 240.815 161.747 240.746 161.922 240.746H164.555C164.73 240.746 164.897 240.815 165.021 240.939C165.144 241.062 165.214 241.23 165.214 241.404C165.214 241.579 165.144 241.746 165.021 241.87C164.897 241.993 164.73 242.063 164.555 242.063ZM155.925 242.063H153.291C153.117 242.063 152.949 241.993 152.826 241.87C152.702 241.746 152.633 241.579 152.633 241.404C152.633 241.23 152.702 241.062 152.826 240.939C152.949 240.815 153.117 240.746 153.291 240.746H155.925C156.099 240.746 156.267 240.815 156.39 240.939C156.514 241.062 156.583 241.23 156.583 241.404C156.583 241.579 156.514 241.746 156.39 241.87C156.267 241.993 156.099 242.063 155.925 242.063ZM147.294 242.063H144.661C144.486 242.063 144.319 241.993 144.195 241.87C144.072 241.746 144.003 241.579 144.003 241.404C144.003 241.23 144.072 241.062 144.195 240.939C144.319 240.815 144.486 240.746 144.661 240.746H147.294C147.469 240.746 147.636 240.815 147.76 240.939C147.883 241.062 147.953 241.23 147.953 241.404C147.953 241.579 147.883 241.746 147.76 241.87C147.636 241.993 147.469 242.063 147.294 242.063ZM138.67 242.063H136.037C135.862 242.063 135.695 241.993 135.571 241.87C135.448 241.746 135.379 241.579 135.379 241.404C135.379 241.23 135.448 241.062 135.571 240.939C135.695 240.815 135.862 240.746 136.037 240.746H138.67C138.845 240.746 139.012 240.815 139.136 240.939C139.259 241.062 139.329 241.23 139.329 241.404C139.329 241.579 139.259 241.746 139.136 241.87C139.012 241.993 138.845 242.063 138.67 242.063ZM130.04 242.063H127.406C127.232 242.063 127.064 241.993 126.941 241.87C126.818 241.746 126.748 241.579 126.748 241.404C126.748 241.23 126.818 241.062 126.941 240.939C127.064 240.815 127.232 240.746 127.406 240.746H130.04C130.214 240.746 130.382 240.815 130.505 240.939C130.629 241.062 130.698 241.23 130.698 241.404C130.698 241.579 130.629 241.746 130.505 241.87C130.382 241.993 130.214 242.063 130.04 242.063ZM121.409 242.063H118.776C118.601 242.063 118.434 241.993 118.31 241.87C118.187 241.746 118.118 241.579 118.118 241.404C118.118 241.23 118.187 241.062 118.31 240.939C118.434 240.815 118.601 240.746 118.776 240.746H121.409C121.584 240.746 121.751 240.815 121.875 240.939C121.998 241.062 122.068 241.23 122.068 241.404C122.068 241.579 121.998 241.746 121.875 241.87C121.751 241.993 121.584 242.063 121.409 242.063ZM112.779 242.063H110.145C109.971 242.063 109.803 241.993 109.68 241.87C109.556 241.746 109.487 241.579 109.487 241.404C109.487 241.23 109.556 241.062 109.68 240.939C109.803 240.815 109.971 240.746 110.145 240.746H112.779C112.953 240.746 113.121 240.815 113.244 240.939C113.368 241.062 113.437 241.23 113.437 241.404C113.437 241.579 113.368 241.746 113.244 241.87C113.121 241.993 112.953 242.063 112.779 242.063ZM104.155 242.063H101.521C101.347 242.063 101.179 241.993 101.056 241.87C100.933 241.746 100.863 241.579 100.863 241.404C100.863 241.23 100.933 241.062 101.056 240.939C101.179 240.815 101.347 240.746 101.521 240.746H104.155C104.329 240.746 104.497 240.815 104.62 240.939C104.744 241.062 104.813 241.23 104.813 241.404C104.813 241.579 104.744 241.746 104.62 241.87C104.497 241.993 104.329 242.063 104.155 242.063ZM95.5242 242.063H92.891C92.7164 242.063 92.5489 241.993 92.4255 241.87C92.302 241.746 92.2326 241.579 92.2326 241.404C92.2326 241.23 92.302 241.062 92.4255 240.939C92.5489 240.815 92.7164 240.746 92.891 240.746H95.5242C95.6988 240.746 95.8663 240.815 95.9897 240.939C96.1132 241.062 96.1825 241.23 96.1825 241.404C96.1825 241.579 96.1132 241.746 95.9897 241.87C95.8663 241.993 95.6988 242.063 95.5242 242.063ZM86.8937 242.063H84.2604C84.0858 242.063 83.9184 241.993 83.7949 241.87C83.6715 241.746 83.6021 241.579 83.6021 241.404C83.6021 241.23 83.6715 241.062 83.7949 240.939C83.9184 240.815 84.0858 240.746 84.2604 240.746H86.8937C87.0683 240.746 87.2357 240.815 87.3592 240.939C87.4827 241.062 87.552 241.23 87.552 241.404C87.552 241.579 87.4827 241.746 87.3592 241.87C87.2357 241.993 87.0683 242.063 86.8937 242.063ZM78.2698 242.063H75.6365C75.4619 242.063 75.2945 241.993 75.171 241.87C75.0475 241.746 74.9782 241.579 74.9782 241.404C74.9782 241.23 75.0475 241.062 75.171 240.939C75.2945 240.815 75.4619 240.746 75.6365 240.746H78.2698C78.4444 240.746 78.6118 240.815 78.7353 240.939C78.8587 241.062 78.9281 241.23 78.9281 241.404C78.9281 241.579 78.8587 241.746 78.7353 241.87C78.6118 241.993 78.4444 242.063 78.2698 242.063ZM69.6392 242.063H67.006C66.8314 242.063 66.6639 241.993 66.5405 241.87C66.417 241.746 66.3477 241.579 66.3477 241.404C66.3477 241.23 66.417 241.062 66.5405 240.939C66.6639 240.815 66.8314 240.746 67.006 240.746H69.6392C69.8138 240.746 69.9813 240.815 70.1047 240.939C70.2282 241.062 70.2976 241.23 70.2976 241.404C70.2976 241.579 70.2282 241.746 70.1047 241.87C69.9813 241.993 69.8138 242.063 69.6392 242.063Z" fill="black"/>
<path d="M215.023 242.063H213.705C213.531 242.063 213.363 241.994 213.24 241.87C213.116 241.747 213.047 241.579 213.047 241.405C213.047 241.23 213.116 241.062 213.24 240.939C213.363 240.815 213.531 240.746 213.705 240.746H215.023C215.197 240.746 215.365 240.815 215.488 240.939C215.612 241.062 215.681 241.23 215.681 241.405C215.681 241.579 215.612 241.747 215.488 241.87C215.365 241.994 215.197 242.063 215.023 242.063Z" fill="black"/>
</g>
<path d="M115.925 221.734V221.609C115.925 215.684 119.987 210.767 125.984 210.767C131.982 210.767 135.925 215.671 135.925 221.491V221.609C135.925 227.488 131.922 232.458 125.866 232.458C119.928 232.458 115.925 227.547 115.925 221.734ZM130.527 221.734V221.609C130.527 218.219 128.591 215.434 125.866 215.434C123.015 215.434 121.317 218.219 121.317 221.491V221.609C121.317 225.065 123.292 227.791 125.984 227.791C128.835 227.778 130.527 225.006 130.527 221.734ZM122.897 250.042L150.704 212.05C150.921 211.704 151.226 211.42 151.588 211.23C151.95 211.039 152.356 210.947 152.765 210.964C153.079 210.958 153.392 211.015 153.685 211.13C153.978 211.246 154.245 211.419 154.47 211.639C154.696 211.859 154.875 212.122 154.998 212.411C155.121 212.701 155.186 213.013 155.187 213.328C155.174 213.895 154.986 214.445 154.647 214.901L126.807 252.879C126.573 253.223 126.256 253.503 125.886 253.692C125.515 253.882 125.103 253.976 124.687 253.965C124.376 253.971 124.066 253.913 123.777 253.796C123.488 253.68 123.225 253.506 123.004 253.285C122.784 253.065 122.61 252.802 122.493 252.513C122.376 252.224 122.319 251.914 122.324 251.602C122.346 251.031 122.546 250.48 122.897 250.029V250.042ZM141.56 243.459V243.334C141.56 237.409 145.615 232.491 151.613 232.491C157.61 232.491 161.553 237.396 161.553 243.215V243.334C161.553 249.212 157.491 254.183 151.494 254.183C145.497 254.183 141.56 249.239 141.56 243.426V243.459ZM156.162 243.459V243.334C156.162 239.943 154.22 237.159 151.494 237.159C148.644 237.159 146.952 239.943 146.952 243.215V243.334C146.952 246.79 148.887 249.515 151.613 249.515C154.457 249.502 156.162 246.698 156.162 243.426V243.459Z" fill="#4C4C4C"/>
<path d="M250.396 123.914L250.942 125.841L249.206 138.112L245.97 139.012L247.684 127.288L243.404 128.467L243.988 130.563L241.357 131.305L240.096 126.78L250.396 123.914Z" fill="#E0E0E0"/>
<path d="M263.582 129.749C264.215 132.031 263.096 134.482 259.423 135.503C257.696 136.02 255.855 136.02 254.128 135.503L254.674 132.894C255.954 133.36 257.349 133.41 258.659 133.035C260.143 132.621 260.891 131.742 260.602 130.694C260.312 129.646 259.472 129.204 257.136 129.853L253.861 130.77L252.507 123.341L260.356 121.158L261.006 123.554L255.635 125.044L256.115 127.55L257.163 127.255C260.968 126.18 262.949 127.473 263.582 129.749Z" fill="#E0E0E0"/>
<path d="M263.344 123.975C262.765 121.879 263.551 120.154 265.282 119.674C267.012 119.193 268.557 120.219 269.157 122.359C269.758 124.499 268.933 126.18 267.219 126.66C265.506 127.141 263.928 126.071 263.344 123.975ZM268.257 122.616C267.793 120.945 266.728 120.17 265.527 120.503C264.326 120.836 263.819 122.064 264.283 123.724C264.747 125.383 265.795 126.175 267.012 125.836C268.229 125.498 268.699 124.291 268.235 122.616H268.257ZM273.12 117.599L274.212 117.299L269.004 132.61L267.913 132.91L273.12 117.599ZM272.94 127.85C272.361 125.754 273.164 124.029 274.872 123.549C276.581 123.069 278.147 124.139 278.753 126.235C279.359 128.331 278.546 130.056 276.816 130.536C275.085 131.016 273.502 129.946 272.918 127.85H272.94ZM277.853 126.491C277.394 124.854 276.341 124.04 275.123 124.379C273.906 124.717 273.409 125.923 273.879 127.594C274.348 129.264 275.407 130.039 276.608 129.706C277.809 129.373 278.267 128.145 277.809 126.491H277.853Z" fill="#E0E0E0"/>
<path d="M53.4825 101L54.0284 103.08L45.7042 105.219L45.2784 103.582L48.4989 98.4781C49.2358 97.299 49.2631 96.6877 49.1266 96.1528C48.9028 95.2849 48.1769 94.9355 47.0142 95.2357C46.568 95.3305 46.1521 95.534 45.8036 95.8283C45.455 96.1225 45.1846 96.4984 45.0164 96.9224L42.833 96.2019C43.3789 94.739 44.6998 93.5436 46.6539 93.0305C49.1103 92.4028 51.0699 93.2434 51.5666 95.2139C51.845 96.3056 51.7958 97.3373 50.6168 99.1658L48.7009 102.206L53.4825 101Z" fill="#E0E0E0"/>
<path d="M53.6232 97.3097C52.6898 93.6689 54.169 91.0925 56.8983 90.3993C59.6275 89.706 62.1493 91.2453 63.0827 94.8807C64.0161 98.516 62.5369 101.092 59.8076 101.791C57.0784 102.49 54.5566 100.945 53.6232 97.3097ZM60.5009 95.5412C59.8568 93.0357 58.7105 92.2279 57.4332 92.5554C56.1559 92.8829 55.5609 94.1438 56.205 96.6438C56.8491 99.1438 57.9954 99.9571 59.2563 99.635C60.5172 99.313 61.145 98.0411 60.5009 95.5412Z" fill="#E0E0E0"/>
<path d="M63.6942 91.9553C63.2302 90.1595 63.9344 88.6802 65.4136 88.3254C66.8929 87.9706 68.2029 88.8713 68.6887 90.678C69.1745 92.4848 68.4322 93.9531 66.9693 94.3079C65.5064 94.6627 64.1527 93.7457 63.6942 91.9553ZM67.8809 90.8636C67.5097 89.428 66.6145 88.7512 65.5938 89.0186C64.573 89.2861 64.1145 90.3178 64.5021 91.7479C64.8896 93.178 65.7466 93.8603 66.7892 93.5928C67.8317 93.3254 68.2466 92.3101 67.8809 90.88V90.8636ZM72.1057 86.6715L73.0337 86.4368L68.3285 99.4007L67.4005 99.6408L72.1057 86.6715ZM71.7782 95.4051C71.3197 93.6092 72.0348 92.13 73.4976 91.7752C74.9605 91.4204 76.2924 92.321 76.7727 94.1278C77.2531 95.9345 76.5326 97.4029 75.0533 97.7522C73.5741 98.1016 72.2422 97.2064 71.7782 95.416V95.4051ZM75.9649 94.3134C75.5992 92.8942 74.7203 92.2009 73.6778 92.4684C72.6352 92.7359 72.1985 93.7511 72.5861 95.1976C72.9736 96.6441 73.8524 97.3046 74.8732 97.0426C75.8939 96.7806 76.3306 95.7544 75.9703 94.3407L75.9649 94.3134Z" fill="#E0E0E0"/>
<path d="M113.206 135.513C113.25 137.768 111.568 139.88 107.747 139.924C105.948 139.99 104.168 139.522 102.633 138.581L103.79 136.196C104.915 136.962 106.25 137.359 107.611 137.331C109.156 137.304 110.1 136.66 110.084 135.568C110.084 134.558 109.309 133.93 107.556 133.974H106.143L106.11 131.933L108.801 128.778L103.113 128.876L103.075 126.392L112.42 126.234L112.458 128.237L109.516 131.742C111.929 132.086 113.173 133.548 113.206 135.513Z" fill="#E0E0E0"/>
<path d="M114.595 132.899C114.518 128.467 116.904 125.95 120.179 125.89C123.454 125.83 125.943 128.292 126.019 132.697C126.096 137.102 123.716 139.651 120.419 139.706C117.122 139.76 114.671 137.304 114.595 132.899ZM122.935 132.752C122.881 129.722 121.789 128.478 120.244 128.505C118.699 128.532 117.673 129.809 117.728 132.872C117.782 135.934 118.869 137.146 120.391 137.118C121.914 137.091 122.984 135.786 122.935 132.752Z" fill="#E0E0E0"/>
<path d="M127.552 129.525C127.514 127.342 128.709 125.879 130.505 125.846C132.301 125.814 133.546 127.227 133.584 129.422C133.622 131.616 132.405 133.068 130.631 133.095C128.857 133.123 127.59 131.698 127.552 129.525ZM132.629 129.438C132.596 127.702 131.761 126.709 130.522 126.709C129.283 126.709 128.475 127.801 128.507 129.515C128.54 131.228 129.353 132.244 130.614 132.244C131.875 132.244 132.656 131.196 132.629 129.438ZM138.595 125.803H139.719L130.833 139.312H129.708L138.595 125.803ZM135.865 135.677C135.833 133.494 137.044 132.031 138.818 132.004C140.592 131.976 141.859 133.401 141.897 135.573C141.935 137.746 140.74 139.22 138.944 139.252C137.148 139.285 135.882 137.855 135.844 135.677H135.865ZM140.942 135.59C140.915 133.876 140.096 132.861 138.835 132.861C137.574 132.861 136.793 133.925 136.821 135.661C136.848 137.397 137.689 138.39 138.928 138.39C140.167 138.39 140.953 137.309 140.92 135.59H140.942Z" fill="#E0E0E0"/>
<path d="M177.809 94.2584C177.547 95.9615 176.068 97.2551 173.317 96.8348C172.015 96.6597 170.793 96.1075 169.801 95.2464L170.942 93.6743C171.652 94.3669 172.564 94.816 173.546 94.9571C174.665 95.1263 175.424 94.766 175.544 93.98C175.664 93.194 175.238 92.6536 173.491 92.3861L171.029 92.0095L172.35 86.6656L178.224 87.5608L177.951 89.3512L173.933 88.7399L173.502 90.5412L174.288 90.6613C177.137 91.0979 178.071 92.5499 177.809 94.2584Z" fill="#EDEBEB"/>
<path d="M178.988 92.6104C179.474 89.4281 181.51 87.8943 183.901 88.2436C186.292 88.593 187.755 90.6726 187.269 93.8549C186.783 97.0372 184.758 98.5656 182.356 98.2217C179.954 97.8778 178.508 95.7872 178.988 92.6104ZM184.993 93.5274C185.326 91.344 184.692 90.3124 183.579 90.1432C182.465 89.974 181.57 90.7654 181.237 92.9543C180.904 95.1431 181.532 96.1639 182.635 96.3331C183.737 96.5023 184.671 95.7163 185.004 93.5329L184.993 93.5274Z" fill="#EDEBEB"/>
<path d="M188.719 91.7692C188.959 90.2026 190.001 89.291 191.295 89.4875C192.589 89.684 193.309 90.8521 193.069 92.4351C192.829 94.0181 191.775 94.9133 190.493 94.7167C189.21 94.5202 188.479 93.3412 188.719 91.7692ZM197.141 90.4482L197.954 90.5738L189.881 99.1982L189.068 99.0726L197.141 90.4482ZM192.409 92.3314C192.6 91.0759 192.119 90.2462 191.224 90.1098C190.329 89.9733 189.625 90.6556 189.434 91.8783C189.243 93.101 189.707 93.958 190.618 94.0999C191.53 94.2419 192.19 93.5814 192.381 92.3314H192.409ZM193.953 97.2113C194.194 95.6447 195.247 94.7331 196.53 94.9296C197.813 95.1261 198.544 96.3106 198.304 97.8772C198.064 99.4438 197.021 100.355 195.727 100.159C194.434 99.9624 193.686 98.7833 193.926 97.2113H193.953ZM197.616 97.7571C197.802 96.518 197.343 95.672 196.432 95.5355C195.52 95.3991 194.832 96.0486 194.641 97.2986C194.45 98.5486 194.93 99.3892 195.826 99.5257C196.721 99.6621 197.398 98.9907 197.589 97.7735L197.616 97.7571Z" fill="#EDEBEB"/>
<path d="M53.6098 153.432L51.612 161.964L49.6579 161.516L51.2954 154.567L49.5869 154.169L49.9581 152.58L53.6098 153.432Z" fill="#EDEBEB"/>
<path d="M54.0991 158.05C54.7541 155.233 56.6918 154 58.7879 154.491C60.884 154.982 62.063 156.947 61.408 159.758C60.7529 162.57 58.8316 163.809 56.7191 163.317C54.6067 162.826 53.4386 160.866 54.0991 158.05ZM59.4265 159.294C59.8796 157.357 59.3829 156.391 58.3949 156.161C57.4069 155.932 56.5499 156.576 56.0969 158.514C55.6438 160.452 56.1351 161.418 57.1121 161.647C58.0892 161.876 58.968 161.232 59.4265 159.294Z" fill="#EDEBEB"/>
<path d="M70.5032 157.389L71.2237 157.558L63.3962 164.725L62.6812 164.556L70.5032 157.389ZM62.8613 157.984C63.1888 156.592 64.1877 155.85 65.334 156.117C66.4803 156.384 67.0425 157.482 66.715 158.884C66.3875 160.287 65.3831 161.013 64.2477 160.751C63.1124 160.489 62.5556 159.37 62.8777 157.984H62.8613ZM66.1036 158.743C66.3656 157.651 65.9945 156.854 65.203 156.668C64.4115 156.483 63.7292 157.029 63.4726 158.126C63.2161 159.223 63.5709 160.014 64.3787 160.2C65.1866 160.386 65.8635 159.878 66.12 158.743H66.1036ZM67.1517 163.229C67.4737 161.837 68.4835 161.101 69.6189 161.363C70.7543 161.625 71.3274 162.744 71.0053 164.13C70.6833 165.516 69.6789 166.264 68.5326 165.997C67.3864 165.729 66.8405 164.616 67.168 163.229H67.1517ZM70.3995 163.988C70.656 162.896 70.3012 162.099 69.4988 161.914C68.6964 161.728 68.025 162.263 67.7685 163.371C67.5119 164.479 67.8776 165.26 68.6691 165.446C69.4606 165.631 70.1538 165.085 70.3995 163.988Z" fill="#EDEBEB"/>
<path d="M238 172.641L242.151 170.253L244.354 166L246.748 170.15L251 172.36L246.85 174.748L244.641 179L242.253 174.85L238 172.641Z" fill="#D37B77"/>
<path d="M197.197 175.427L198.984 174.4L199.933 172.573L200.96 174.353L202.787 175.302L201 176.329L200.051 178.156L199.024 176.376L197.197 175.427Z" fill="#D37B77"/>
<path d="M124.69 169.504L125.727 171.398L127.621 172.435L125.727 173.472L124.69 175.366L123.652 173.472L121.758 172.435L123.652 171.398L124.69 169.504Z" fill="#D37B77"/>
<path d="M131.611 143.565L132.687 143.494L133.555 142.85L133.626 143.931L134.27 144.799L133.189 144.87L132.321 145.509L132.25 144.433L131.611 143.565Z" fill="#D37B77"/>
<path d="M183.221 175.808L184.296 175.737L185.17 175.099L185.241 176.174L185.88 177.042L184.804 177.113L183.931 177.752L183.865 176.677L183.221 175.808Z" fill="#D37B77"/>
<path d="M189.782 129.684L190.857 129.613L191.726 128.974L191.797 130.05L192.435 130.918L191.36 130.989L190.492 131.633L190.421 130.552L189.782 129.684Z" fill="#D37B77"/>
<path d="M156.73 158.309L158.368 157.364L159.236 155.689L160.18 157.326L161.861 158.2L160.224 159.138L159.351 160.82L158.406 159.182L156.73 158.309Z" fill="#D37B77"/>
</svg>
