<svg width="18" height="18" viewBox="0 0 18 18" fill="none" xmlns="http://www.w3.org/2000/svg">
<path fill-rule="evenodd" clip-rule="evenodd" d="M9.83268 1.5013C9.83268 1.28029 9.74489 1.06833 9.5886 0.912046C9.43232 0.755766 9.22036 0.667969 8.99935 0.667969C8.77834 0.667969 8.56637 0.755766 8.41009 0.912046C8.25381 1.06833 8.16602 1.28029 8.16602 1.5013H5.66602C5.66602 1.28029 5.57822 1.06833 5.42194 0.912046C5.26566 0.755766 5.0537 0.667969 4.83268 0.667969C4.61167 0.667969 4.39971 0.755766 4.24343 0.912046C4.08715 1.06833 3.99935 1.28029 3.99935 1.5013C3.11529 1.5013 2.26745 1.85249 1.64233 2.47761C1.01721 3.10273 0.666016 3.95058 0.666016 4.83464V14.0013C0.666016 14.8854 1.01721 15.7332 1.64233 16.3583C2.26745 16.9834 3.11529 17.3346 3.99935 17.3346H13.9993C14.8834 17.3346 15.7313 16.9834 16.3564 16.3583C16.9815 15.7332 17.3327 14.8854 17.3327 14.0013V4.83464C17.3327 3.95058 16.9815 3.10273 16.3564 2.47761C15.7313 1.85249 14.8834 1.5013 13.9993 1.5013C13.9993 1.28029 13.9116 1.06833 13.7553 0.912046C13.599 0.755766 13.387 0.667969 13.166 0.667969C12.945 0.667969 12.733 0.755766 12.5768 0.912046C12.4205 1.06833 12.3327 1.28029 12.3327 1.5013H9.83268ZM8.99935 5.66797C9.22036 5.66797 9.43232 5.75577 9.5886 5.91205C9.74489 6.06833 9.83268 6.28029 9.83268 6.5013V10.668C9.83268 10.889 9.74489 11.1009 9.5886 11.2572C9.43232 11.4135 9.22036 11.5013 8.99935 11.5013C8.77834 11.5013 8.56637 11.4135 8.41009 11.2572C8.25381 11.1009 8.16602 10.889 8.16602 10.668V6.5013C8.16602 6.28029 8.25381 6.06833 8.41009 5.91205C8.56637 5.75577 8.77834 5.66797 8.99935 5.66797ZM8.99935 14.0013C9.22036 14.0013 9.43232 13.9135 9.5886 13.7572C9.74489 13.6009 9.83268 13.389 9.83268 13.168C9.83268 12.947 9.74489 12.735 9.5886 12.5787C9.43232 12.4224 9.22036 12.3346 8.99935 12.3346C8.77834 12.3346 8.56637 12.4224 8.41009 12.5787C8.25381 12.735 8.16602 12.947 8.16602 13.168C8.16602 13.389 8.25381 13.6009 8.41009 13.7572C8.56637 13.9135 8.77834 14.0013 8.99935 14.0013Z" fill="#656565"/>
</svg>
