<svg width="28" height="28" viewBox="0 0 28 28" fill="none" xmlns="http://www.w3.org/2000/svg">
<g clip-path="url(#clip0_1377_564)">
<path d="M22.458 0H5.54134C4.69063 0.000618027 3.87493 0.338836 3.27339 0.940382C2.67184 1.54193 2.33363 2.35762 2.33301 3.20833V24.7917C2.33363 25.6424 2.67184 26.4581 3.27339 27.0596C3.87493 27.6612 4.69063 27.9994 5.54134 28H22.458C23.3087 27.9994 24.1244 27.6612 24.726 27.0596C25.3275 26.4581 25.6657 25.6424 25.6663 24.7917V3.20833C25.6657 2.35762 25.3275 1.54193 24.726 0.940382C24.1244 0.338836 23.3087 0.000618027 22.458 0ZM12.5413 15.1667V9.422C15.3413 9.84783 17.4997 12.25 17.4997 15.1667C17.4997 18.3832 14.8828 21 11.6663 21C10.424 20.9967 9.21581 20.5929 8.22117 19.8485L12.2847 15.785C12.3661 15.7039 12.4307 15.6076 12.4748 15.5015C12.5188 15.3953 12.5414 15.2816 12.5413 15.1667ZM10.7913 9.422V14.805L6.98451 18.6118C6.24009 17.6172 5.83628 16.409 5.83301 15.1667C5.83301 12.25 7.99134 9.84783 10.7913 9.422ZM21.2913 24.7917H6.70801C6.47594 24.7917 6.25338 24.6995 6.08929 24.5354C5.9252 24.3713 5.83301 24.1487 5.83301 23.9167C5.83301 23.6846 5.9252 23.462 6.08929 23.2979C6.25338 23.1339 6.47594 23.0417 6.70801 23.0417H21.2913C21.5234 23.0417 21.746 23.1339 21.9101 23.2979C22.0742 23.462 22.1663 23.6846 22.1663 23.9167C22.1663 24.1487 22.0742 24.3713 21.9101 24.5354C21.746 24.6995 21.5234 24.7917 21.2913 24.7917ZM21.2913 21H19.5413C19.3093 21 19.0867 20.9078 18.9226 20.7437C18.7585 20.5796 18.6663 20.3571 18.6663 20.125C18.6663 19.8929 18.7585 19.6704 18.9226 19.5063C19.0867 19.3422 19.3093 19.25 19.5413 19.25H21.2913C21.5234 19.25 21.746 19.3422 21.9101 19.5063C22.0742 19.6704 22.1663 19.8929 22.1663 20.125C22.1663 20.3571 22.0742 20.5796 21.9101 20.7437C21.746 20.9078 21.5234 21 21.2913 21ZM21.2913 17.7917H19.5413C19.3093 17.7917 19.0867 17.6995 18.9226 17.5354C18.7585 17.3713 18.6663 17.1487 18.6663 16.9167C18.6663 16.6846 18.7585 16.462 18.9226 16.2979C19.0867 16.1339 19.3093 16.0417 19.5413 16.0417H21.2913C21.5234 16.0417 21.746 16.1339 21.9101 16.2979C22.0742 16.462 22.1663 16.6846 22.1663 16.9167C22.1663 17.1487 22.0742 17.3713 21.9101 17.5354C21.746 17.6995 21.5234 17.7917 21.2913 17.7917ZM21.2913 14.2917H19.5413C19.3093 14.2917 19.0867 14.1995 18.9226 14.0354C18.7585 13.8713 18.6663 13.6487 18.6663 13.4167C18.6663 13.1846 18.7585 12.962 18.9226 12.7979C19.0867 12.6339 19.3093 12.5417 19.5413 12.5417H21.2913C21.5234 12.5417 21.746 12.6339 21.9101 12.7979C22.0742 12.962 22.1663 13.1846 22.1663 13.4167C22.1663 13.6487 22.0742 13.8713 21.9101 14.0354C21.746 14.1995 21.5234 14.2917 21.2913 14.2917ZM21.2913 11.0833H19.5413C19.3093 11.0833 19.0867 10.9911 18.9226 10.8271C18.7585 10.663 18.6663 10.4404 18.6663 10.2083C18.6663 9.97627 18.7585 9.75371 18.9226 9.58961C19.0867 9.42552 19.3093 9.33333 19.5413 9.33333H21.2913C21.5234 9.33333 21.746 9.42552 21.9101 9.58961C22.0742 9.75371 22.1663 9.97627 22.1663 10.2083C22.1663 10.4404 22.0742 10.663 21.9101 10.8271C21.746 10.9911 21.5234 11.0833 21.2913 11.0833Z" fill="#CA5351"/>
</g>
<defs>
<clipPath id="clip0_1377_564">
<rect width="28" height="28" fill="white"/>
</clipPath>
</defs>
</svg>
