<svg width="55" height="52" viewBox="0 0 55 52" fill="none" xmlns="http://www.w3.org/2000/svg">
<g clip-path="url(#clip0_1703_907)">
<path d="M26.1595 52C22.6289 52 19.2026 51.3124 15.9763 49.9557C12.8611 48.6459 10.0633 46.7719 7.66178 44.3844C5.26022 41.9969 3.37412 39.2168 2.05627 36.1207C0.69184 32.9141 0 29.5087 0 25.9997C0 22.4906 0.69184 19.0853 2.05689 15.8787C3.37474 12.7826 5.26022 10.0019 7.6624 7.61498C10.0646 5.22808 12.8618 3.3535 15.9769 2.04371C19.2032 0.687614 22.6289 0 26.1595 0C29.6901 0 33.1164 0.687613 36.3427 2.04432C39.4578 3.35412 42.2556 5.22808 44.6572 7.6156C47.0588 10.0031 48.9449 12.7832 50.2627 15.8793C51.6271 19.0859 52.3196 22.4913 52.3196 26.0003C52.3196 29.5094 51.6278 32.9147 50.2627 36.1213C48.9449 39.2174 47.0594 41.9981 44.6572 44.385C42.255 46.7719 39.4578 48.6465 36.3427 49.9563C33.1164 51.3124 29.6901 52.0006 26.1595 52.0006V52ZM26.1595 4.38246C20.3496 4.38246 14.8876 6.63109 10.7794 10.7142C6.67122 14.7973 4.40877 20.226 4.40877 26.0003C4.40877 31.7747 6.67122 37.2033 10.7794 41.2864C14.8876 45.3695 20.3496 47.6182 26.1595 47.6182C31.9693 47.6182 37.4314 45.3695 41.5396 41.2864C45.6477 37.2033 47.9102 31.7747 47.9102 26.0003C47.9102 20.226 45.6477 14.7973 41.5396 10.7142C37.4314 6.63109 31.9693 4.38246 26.1595 4.38246Z" fill="#6B2121"/>
<path d="M54.069 3.11857C53.4635 2.56613 52.6686 2.15566 51.8221 2.19331C51.5408 2.23097 51.2588 2.26862 50.9775 2.30627C50.4391 2.45626 49.972 2.72723 49.5752 3.11857C42.935 8.27135 37.119 14.3278 32.0258 20.9854C29.533 24.2439 27.2227 27.6597 25.1906 31.2268C22.545 27.4227 19.1454 24.1402 15.285 21.5557C14.6267 21.115 13.5815 21.0336 12.8363 21.2372C12.0991 21.4391 11.3004 22.0057 10.9371 22.6884C10.0894 24.2827 10.6024 26.0221 12.0774 27.0097C12.5798 27.3461 13.0723 27.6955 13.5567 28.0572C15.5788 29.6559 17.409 31.4786 19.0169 33.489C20.4142 35.3413 21.6166 37.3289 22.5978 39.4294C23.0561 40.4108 24.3044 40.9935 25.3416 40.9935C26.3787 40.9935 27.6599 40.4151 28.0853 39.4294C28.5089 38.4473 29.0063 37.4931 29.5069 36.5487C30.8639 33.9877 32.3724 31.5064 33.9852 29.0979C35.1621 27.3406 36.3998 25.6234 37.6897 23.9463C41.2768 19.3707 45.267 15.1061 49.633 11.2551C51.0725 9.98544 52.5525 8.76268 54.0697 7.58497C54.6652 7.12265 55.0006 6.06284 55.0006 5.35177C55.0006 4.57712 54.6547 3.65187 54.0697 3.11857H54.069Z" fill="#CA5351"/>
</g>
<defs>
<clipPath id="clip0_1703_907">
<rect width="55" height="52" fill="white"/>
</clipPath>
</defs>
</svg>
