<svg width="238" height="172" viewBox="0 0 238 172" fill="none" xmlns="http://www.w3.org/2000/svg">
<path d="M186.076 29.3711H42.6412C39.1678 29.3711 36.3623 32.1766 36.3623 35.65V128.765C36.3623 132.238 39.1678 135.044 42.6412 135.044H186.076C189.55 135.044 192.355 132.238 192.355 128.765V35.65C192.4 32.1766 189.594 29.3711 186.076 29.3711Z" fill="#B9B9B9"/>
<path d="M51.2352 45.0016C52.6616 45.0016 53.818 43.8452 53.818 42.4188C53.818 40.9923 52.6616 39.8359 51.2352 39.8359C49.8087 39.8359 48.6523 40.9923 48.6523 42.4188C48.6523 43.8452 49.8087 45.0016 51.2352 45.0016Z" fill="white"/>
<path d="M77.865 45.0016C79.2915 45.0016 80.4478 43.8452 80.4478 42.4188C80.4478 40.9923 79.2915 39.8359 77.865 39.8359C76.4386 39.8359 75.2822 40.9923 75.2822 42.4188C75.2822 43.8452 76.4386 45.0016 77.865 45.0016Z" fill="white"/>
<path d="M64.5506 45.0016C65.977 45.0016 67.1334 43.8452 67.1334 42.4188C67.1334 40.9923 65.977 39.8359 64.5506 39.8359C63.1241 39.8359 61.9678 40.9923 61.9678 42.4188C61.9678 43.8452 63.1241 45.0016 64.5506 45.0016Z" fill="white"/>
<path d="M184.651 129.967H44.1104C42.6408 129.967 41.4385 128.765 41.4385 127.295V53.8188H187.367V127.34C187.323 128.809 186.165 129.967 184.651 129.967Z" fill="white"/>
<path d="M119.637 98.216H146.222V100.131H119.637V98.216ZM119.637 88.7754H156.42V90.6902H119.637V88.7754Z" fill="#EDE6FF"/>
<path d="M119.637 98.216H146.222V100.131H119.637V98.216ZM119.637 88.7754H156.42V90.6902H119.637V88.7754Z" fill="#EDE6FF"/>
<path d="M106.945 112.422H77.9104C76.2627 112.422 74.9268 111.086 74.9268 109.438V74.2585C74.9268 72.6108 76.2627 71.2749 77.9104 71.2749H98.3057L109.839 83.0312V109.438C109.928 111.13 108.548 112.422 106.945 112.422Z" fill="#B7B7B7"/>
<path d="M109.928 83.031H98.3057V71.3638L109.928 83.031Z" fill="#9A9A9A"/>
<path d="M193.513 26.2984C198.014 26.2984 201.663 22.6499 201.663 18.1492C201.663 13.6485 198.014 10 193.513 10C189.013 10 185.364 13.6485 185.364 18.1492C185.364 22.6499 189.013 26.2984 193.513 26.2984Z" fill="#B7B7B7"/>
<path d="M189.862 18.0155C190.404 18.0155 190.842 17.5769 190.842 17.0358C190.842 16.4948 190.404 16.0562 189.862 16.0562C189.321 16.0562 188.883 16.4948 188.883 17.0358C188.883 17.5769 189.321 18.0155 189.862 18.0155Z" fill="white"/>
<path d="M197.121 18.0155C197.662 18.0155 198.101 17.5769 198.101 17.0358C198.101 16.4948 197.662 16.0562 197.121 16.0562C196.58 16.0562 196.142 16.4948 196.142 17.0358C196.142 17.5769 196.58 18.0155 197.121 18.0155Z" fill="white"/>
<path d="M195.651 22.3351C195.473 22.3351 195.206 22.246 195.117 22.0233C194.716 21.5335 194.137 21.1772 193.514 21.1772C192.89 21.1772 192.311 21.489 191.911 22.0233C191.688 22.3351 191.287 22.4241 190.975 22.1569C190.664 21.9343 190.575 21.5335 190.842 21.2218C191.465 20.3311 192.445 19.8413 193.514 19.8413C194.582 19.8413 195.562 20.3311 196.186 21.2218C196.542 21.7116 196.186 22.3796 195.651 22.3351Z" fill="white"/>
<path d="M45.4471 139.809C43.5768 138.473 38.4112 142.748 33.9136 149.205C32.2214 151.654 30.7964 154.059 29.8612 156.241C28.8815 154.103 27.501 151.654 25.8089 149.205C21.2667 142.703 16.1011 138.517 14.2753 139.809C12.405 141.145 14.6315 147.423 19.1292 153.881C23.0925 159.491 27.4565 163.366 29.8167 163.499H30.0839C32.444 163.41 36.8081 159.491 40.7714 153.881C45.1354 147.423 47.3175 141.1 45.4471 139.809Z" fill="#E7E7E7"/>
<path d="M41.4391 146.221L40.7711 145.776L29.8164 161.451L18.8617 145.776L18.2383 146.221L29.3711 162.119H30.3062L41.4391 146.221Z" fill="white"/>
<path d="M29.8166 163.321C32.0792 163.321 33.9135 156.901 33.9135 148.982C33.9135 141.063 32.0792 134.643 29.8166 134.643C27.554 134.643 25.7197 141.063 25.7197 148.982C25.7197 156.901 27.554 163.321 29.8166 163.321Z" fill="white"/>
<path d="M34.3588 155.973C34.715 153.836 34.8932 151.431 34.8932 148.937C34.8932 145.018 34.4479 141.322 33.6908 138.561C32.7557 135.355 31.5088 133.708 29.9057 133.708C28.3025 133.708 27.0111 135.355 26.1205 138.561C25.3189 141.322 24.9182 145.063 24.9182 148.937C24.9182 151.431 25.0963 153.791 25.4525 155.973H20.376L25.7197 170.535H33.9135L39.2572 155.973H34.3588ZM26.6549 148.982C26.6549 145.241 27.0557 141.723 27.8127 139.096C28.6588 136.201 29.5049 135.578 29.8166 135.578C30.1283 135.578 30.9744 136.201 31.8205 139.096C32.533 141.723 32.9783 145.241 32.9783 148.982C32.9783 151.52 32.8002 153.88 32.4439 156.018H30.2174V142.258H29.4158V155.973H27.1893C26.8775 153.88 26.6549 151.431 26.6549 148.982Z" fill="#C6C6C6"/>
<path d="M123.199 146.488H152.278V148.403H123.199V146.488ZM123.199 158.289H190.041V160.204H123.199V158.289Z" fill="#EDE6FF"/>
<path d="M93.7193 170.535C101.491 170.535 107.791 164.235 107.791 156.463C107.791 148.691 101.491 142.391 93.7193 142.391C85.9477 142.391 79.6475 148.691 79.6475 156.463C79.6475 164.235 85.9477 170.535 93.7193 170.535Z" fill="#B7B7B7"/>
<path d="M100.131 151.342L98.7502 150.006L93.7182 154.994L88.6416 150.006L87.3057 151.342L92.3822 156.33L87.3057 161.317L88.6416 162.653L93.7182 157.621L98.7502 162.653L100.131 161.317L95.0541 156.33L100.131 151.342Z" fill="white"/>
<path d="M65.3084 170.535C69.3172 170.535 72.567 167.285 72.567 163.277C72.567 159.268 69.3172 156.018 65.3084 156.018C61.2996 156.018 58.0498 159.268 58.0498 163.277C58.0498 167.285 61.2996 170.535 65.3084 170.535Z" fill="#EDE6FF"/>
<path d="M68.6025 161.273L67.3111 159.937L65.3072 161.941L63.2588 159.937L61.9229 161.273L63.9268 163.277L61.9229 165.236L63.2588 166.617L65.3072 164.613L67.3111 166.617L68.6025 165.236L66.5986 163.277L68.6025 161.273Z" fill="#B7B7B7"/>
<path d="M223.973 169.6C224.819 169.155 225.576 168.62 226.244 167.952C230.029 164.167 229.673 157.933 225.353 154.637L205.18 139.096C208.609 134.331 210.569 128.498 210.569 122.174C210.569 106.098 197.566 93.0952 181.49 93.0952C169.199 93.0952 158.734 100.71 154.459 111.442H70.8297V113.357H153.836C152.945 116.118 152.455 119.101 152.455 122.174C152.455 138.25 165.459 151.253 181.534 151.253C187.279 151.253 192.712 149.605 197.165 146.666L212.84 167.017C213.686 168.13 214.755 168.976 215.912 169.555H10V171.47H238V169.555L223.973 169.6Z" fill="#B9B9B9"/>
<path d="M181.667 145.375C194.333 145.375 204.601 135.107 204.601 122.441C204.601 109.776 194.333 99.5078 181.667 99.5078C169.001 99.5078 158.733 109.776 158.733 122.441C158.733 135.107 169.001 145.375 181.667 145.375Z" fill="white"/>
<path d="M188.036 117.32L186.655 115.984L181.623 120.972L176.547 115.984L175.211 117.32L180.287 122.308L175.211 127.295L176.547 128.631L181.623 123.599L186.655 128.631L188.036 127.295L182.959 122.308L188.036 117.32Z" fill="#B9B9B9"/>
<path d="M208 38C211.865 38 215 34.8585 215 31C215 27.1244 211.865 24 208 24C204.133 24 201 27.1244 201 31C201 34.8585 204.133 38 208 38Z" fill="#EAEAEA"/>
<path d="M219 9C221.761 9 224 6.975 224 4.5C224 2.00893 221.761 0 219 0C216.238 0 214 2.00893 214 4.5C214 6.975 216.238 9 219 9Z" fill="#EAEAEA"/>
<path d="M56.5 147C58.9846 147 61 144.975 61 142.5C61 140.009 58.9846 138 56.5 138C54.0138 138 52 140.009 52 142.5C52 144.975 54.0138 147 56.5 147Z" fill="#EAEAEA"/>
<path d="M9 134C13.9708 134 18 129.967 18 125C18 120.015 13.9708 116 9 116C4.02923 116 0 120.015 0 125C0 129.967 4.02923 134 9 134Z" fill="#EAEAEA"/>
</svg>
