<svg width="34" height="34" viewBox="0 0 34 34" fill="none" xmlns="http://www.w3.org/2000/svg">
<path d="M14.8144 1.09082C14.6749 1.09138 14.5368 1.11941 14.4081 1.17332C14.2795 1.22723 14.1626 1.30597 14.0644 1.40502C13.9661 1.50408 13.8883 1.62152 13.8354 1.75064C13.7825 1.87977 13.7556 2.01804 13.7562 2.15757C13.7562 3.94045 13.1367 4.98595 12.3367 6.32257C11.8989 7.05357 11.1977 8.26376 10.8981 9.19238C10.5836 8.55913 10.4029 8.09057 10.1235 7.07588C10.0724 6.88571 9.96947 6.71348 9.82618 6.57841C9.68289 6.44334 9.50489 6.35074 9.31203 6.31096C9.11918 6.27118 8.91906 6.28577 8.73402 6.35311C8.54898 6.42045 8.38629 6.53789 8.26411 6.69232C4.27761 11.6574 3.10674 15.3804 3.19068 19.1459C3.35855 26.7311 9.38718 32.9361 17.0032 32.9361C24.6192 32.9361 30.8136 26.7396 30.8136 19.1236C30.8136 17.1675 30.3609 14.6271 29.4249 12.2386C28.4888 9.85007 27.0778 7.58163 24.9156 6.42563C24.773 6.35003 24.615 6.30792 24.4537 6.30249C24.2923 6.29707 24.1319 6.32848 23.9845 6.39433C23.8371 6.46019 23.7067 6.55876 23.6031 6.68256C23.4995 6.80636 23.4255 6.95214 23.3867 7.10882C23.1784 7.96201 23.1019 8.22444 22.8533 8.94694C22.5484 7.56357 22.0596 6.23757 21.2617 4.95832C19.924 2.80995 17.7182 1.09082 14.8144 1.09082ZM13.4512 15.1381C13.6606 15.1382 13.8679 15.1795 14.0613 15.2597C14.2547 15.3399 14.4304 15.4574 14.5784 15.6055C14.7264 15.7536 14.8438 15.9293 14.9238 16.1228C15.0039 16.3163 15.0451 16.5236 15.045 16.7329C15.0449 16.9423 15.0036 17.1496 14.9234 17.343C14.8432 17.5364 14.7258 17.7121 14.5777 17.8601C14.4296 18.0081 14.2538 18.1255 14.0603 18.2055C13.8669 18.2856 13.6595 18.3268 13.4502 18.3267C13.0273 18.3266 12.6219 18.1585 12.323 17.8594C12.0241 17.5603 11.8563 17.1547 11.8564 16.7319C11.8566 16.3091 12.0247 15.9036 12.3238 15.6047C12.6228 15.3058 13.0284 15.138 13.4512 15.1381ZM20.9907 15.1488C21.133 15.1291 21.278 15.142 21.4145 15.1865C21.5511 15.2311 21.6758 15.3061 21.7791 15.4059C21.9905 15.5911 22.1199 15.8524 22.139 16.1328C22.1582 16.4132 22.0654 16.6897 21.8811 16.9019L13.7169 26.1966C13.5316 26.4087 13.2698 26.5385 12.9889 26.5576C12.708 26.5767 12.431 26.4836 12.2187 26.2986C12.1134 26.2062 12.0274 26.0939 11.9657 25.9682C11.9039 25.8424 11.8677 25.7057 11.859 25.5658C11.8503 25.426 11.8693 25.2858 11.915 25.1534C11.9607 25.021 12.0322 24.8989 12.1252 24.7941L20.281 15.4994C20.4674 15.3005 20.7195 15.1759 20.9907 15.1488ZM20.5487 23.3725C20.7581 23.3726 20.9654 23.4139 21.1588 23.4941C21.3522 23.5743 21.5279 23.6917 21.6759 23.8398C21.8239 23.9879 21.9413 24.1637 22.0213 24.3572C22.1014 24.5506 22.1426 24.758 22.1425 24.9673C22.1424 25.1767 22.1011 25.384 22.0209 25.5774C21.9407 25.7708 21.8233 25.9465 21.6752 26.0945C21.5271 26.2425 21.3513 26.3599 21.1578 26.4399C20.9644 26.52 20.757 26.5611 20.5477 26.5611C20.1248 26.5609 19.7194 26.3928 19.4205 26.0937C19.1216 25.7947 18.9538 25.3891 18.9539 24.9663C18.9541 24.5434 19.1222 24.138 19.4213 23.8391C19.7203 23.5402 20.1259 23.3724 20.5487 23.3725Z" fill="#CA5351"/>
</svg>
