<svg width="140" height="35" viewBox="0 0 140 35" fill="none" xmlns="http://www.w3.org/2000/svg">
<g clip-path="url(#clip0_1318_1301)">
<mask id="mask0_1318_1301" style="mask-type:luminance" maskUnits="userSpaceOnUse" x="0" y="0" width="140" height="35">
<path d="M140 0H0V35H140V0Z" fill="white"/>
</mask>
<g mask="url(#mask0_1318_1301)">
<path d="M48.2676 9.71216H53.5242C54.1326 9.67404 54.7426 9.75679 55.3184 9.95555C55.8941 10.1543 56.4241 10.4651 56.8772 10.8696C57.2088 11.2167 57.4669 11.6262 57.6362 12.0739C57.8055 12.5217 57.8825 12.9985 57.8627 13.4763V13.5089C57.8996 14.2849 57.6784 15.0514 57.2331 15.6905C56.7878 16.3296 56.1431 16.8058 55.3982 17.0458L58.2068 21.121H55.2496L52.7851 17.4701H50.7977V21.121H48.2676V9.71216ZM53.3576 15.2537C54.5895 15.2537 55.295 14.602 55.295 13.6392V13.6067C55.295 12.5314 54.5402 11.9775 53.3068 11.9775H50.7977V15.2529L53.3576 15.2537Z" fill="white"/>
<path d="M62.7917 9.71191H60.2607V21.12H62.7917V9.71191Z" fill="white"/>
<path d="M65.1579 15.45V15.4174C65.1518 14.6342 65.3043 13.8577 65.6061 13.134C65.9079 12.4102 66.3531 11.7539 66.9152 11.2038C67.4773 10.6537 68.1449 10.221 68.8786 9.93136C69.6122 9.64172 70.397 9.50099 71.1865 9.51751C72.8416 9.43081 74.4648 9.99311 75.7056 11.0831L74.1124 12.99C73.3035 12.2276 72.2239 11.8127 71.1083 11.8356C70.1963 11.8751 69.3372 12.271 68.7185 12.9367C68.0998 13.6024 67.7718 14.4839 67.8061 15.3887V15.4213C67.7785 15.8898 67.8484 16.3589 68.0115 16.7994C68.1746 17.24 68.4274 17.6425 68.7541 17.9819C69.0808 18.3213 69.4744 18.5904 69.9106 18.7724C70.3467 18.9544 70.8159 19.0453 71.2889 19.0396C72.1353 19.0638 72.9679 18.8233 73.6689 18.3523V16.7231H71.1223V14.5509H76.1138V19.5059C74.7506 20.678 73.0054 21.3206 71.2013 21.315C70.4078 21.3551 69.6145 21.2318 68.8713 20.9528C68.1282 20.6738 67.4513 20.2453 66.8833 19.6941C66.3153 19.143 65.8685 18.4812 65.571 17.7503C65.2735 17.0195 65.1318 16.2355 65.1547 15.4477" fill="white"/>
<path d="M78.5479 9.71191H81.0788V14.227H85.7442V9.71191H88.2751V21.1161H85.7442V16.5389H81.0788V21.1161H78.5479V9.71191Z" fill="white"/>
<path d="M93.715 12.0269H90.2158V9.71191H99.7452V12.0261H96.2444V21.12H93.715V12.0269Z" fill="white"/>
<path d="M100.796 9.71227H103.508L105.89 17.4376L108.471 9.67969H110.64L113.221 17.4376L115.605 9.71227H118.25L114.318 21.2065H112.116L109.521 13.7425L106.924 21.2065H104.722L100.796 9.71227Z" fill="white"/>
<path d="M122.583 9.62891H124.916L129.843 21.1177H127.197L126.146 18.5575H121.285L120.232 21.1177H117.651L122.583 9.62891ZM125.242 16.3434L123.714 12.6436L122.187 16.3434H125.242Z" fill="white"/>
<path d="M133.052 16.6227L128.633 9.71191H131.59L134.334 14.2891L137.127 9.71191H140.003L135.584 16.5738V21.1215H133.052V16.6227Z" fill="white"/>
<path d="M0 34.9997V19.3922L35.2792 4.22852L36.188 6.30765L2.28536 20.8802V31.535L30.9666 19.0982L31.8817 21.175L0 34.9997Z" fill="white"/>
<path d="M40.6058 31.4353H7.89746V0.0078125H25.2934C29.8704 0.0078125 33.3642 1.17151 35.6777 3.46398C36.6669 4.46138 37.4383 5.65025 37.9439 6.95644C38.4495 8.26263 38.6783 9.65813 38.6161 11.0559V11.1397C38.683 13.0664 38.2027 14.973 37.2302 16.6422C36.2576 18.3113 34.8319 19.6759 33.1154 20.5803L40.6058 31.4353ZM10.1813 29.1684H36.2729L29.6937 19.6362L30.9779 19.0931C32.5998 18.4934 33.99 17.4018 34.9508 15.9736C35.9115 14.5454 36.3941 12.8532 36.33 11.1374V11.0536C36.3861 9.95438 36.2137 8.85548 35.8235 7.82516C35.4333 6.79485 34.8337 5.85514 34.0618 5.06445C32.1925 3.21185 29.2432 2.27158 25.2934 2.27158H10.1828L10.1813 29.1684Z" fill="white"/>
<path d="M10.1828 30.301H7.89746V0L10.1828 2.27308V30.301Z" fill="white"/>
<path d="M0 34.9992V20.1357H2.28536V31.5361L26.4076 21.0745L27.3242 23.1513L0 34.9992Z" fill="white"/>
</g>
</g>
<defs>
<clipPath id="clip0_1318_1301">
<rect width="140" height="35" fill="white"/>
</clipPath>
</defs>
</svg>
