<svg width="35" height="35" viewBox="0 0 35 35" fill="none" xmlns="http://www.w3.org/2000/svg">
<path fill-rule="evenodd" clip-rule="evenodd" d="M20.7267 11.3202C20.7267 15.1757 17.5717 18.2654 13.6348 18.2654C9.69926 18.2654 6.54286 15.1757 6.54286 11.3202C6.54286 7.4647 9.69926 4.375 13.6348 4.375C17.5717 4.375 20.7267 7.4647 20.7267 11.3202ZM2.91699 26.1295C2.91699 22.5605 7.85422 21.6675 13.6348 21.6675C19.4467 21.6675 24.3525 22.5912 24.3525 26.163C24.3525 29.732 19.4153 30.625 13.6348 30.625C7.82283 30.625 2.91699 29.7013 2.91699 26.1295ZM23.5866 11.4461C23.5866 13.4095 22.9844 15.2415 21.9285 16.7633C21.8186 16.9198 21.9156 17.1308 22.1068 17.1643C22.3722 17.2077 22.6448 17.2342 22.923 17.2398C25.6913 17.3111 28.1756 15.5657 28.862 12.9371C29.8794 9.03694 26.8942 5.535 23.0914 5.535C22.679 5.535 22.2838 5.57692 21.8985 5.65378C21.8457 5.66496 21.7886 5.69011 21.7601 5.73483C21.723 5.79212 21.7501 5.86619 21.7872 5.9151C22.9302 7.4844 23.5866 9.39468 23.5866 11.4461ZM28.1713 19.9825C30.0321 20.3389 31.255 21.0641 31.7615 22.122C32.191 22.9884 32.191 23.9945 31.7615 24.8609C30.9867 26.4987 28.4867 27.0255 27.5149 27.1611C27.3137 27.189 27.1525 27.0213 27.1739 26.8229C27.6705 22.2841 23.7221 20.132 22.7004 19.6374C22.6576 19.6136 22.6476 19.5801 22.6519 19.5577C22.6548 19.5437 22.6733 19.5214 22.7061 19.5172C24.9165 19.4753 27.2938 19.7729 28.1713 19.9825Z" fill="#CA5351"/>
</svg>
