<svg width="174" height="182" viewBox="0 0 174 182" fill="none" xmlns="http://www.w3.org/2000/svg">
<path d="M163.479 136.459C170.188 124.11 174 109.955 174 94.9099C174 46.8111 135.049 7.81934 87.0001 7.81934C38.9515 7.81934 0.000488281 46.8111 0.000488281 94.9099C0.000488281 109.956 3.81246 124.11 10.5213 136.459H163.479Z" fill="#0B3CA0"/>
<path d="M74.3438 125.091C82.3339 129.168 91.7926 129.103 99.6566 125.091C105.24 122.243 111.674 118.399 117.44 112.305C115.117 111.529 112.743 110.856 110.3 110.292C106.695 106.683 105.782 99.8414 105.617 95.0547C103.736 97.2483 101.761 99.0832 99.8747 100.55C96.1987 103.407 91.663 104.959 86.9914 104.959C82.3197 104.959 77.7837 103.407 74.1077 100.55C72.2211 99.0829 70.2464 97.2479 68.3651 95.0547C68.2003 99.8414 67.2866 106.683 63.6813 110.292C61.2439 110.855 58.8751 111.526 56.5566 112.3C62.3234 118.397 68.7589 122.242 74.3438 125.091Z" fill="#FFAA7B"/>
<path d="M68.3651 95.0547C68.2003 99.8414 67.2866 106.683 63.6813 110.292C61.2439 110.855 58.8751 111.526 56.5566 112.3C59.9833 115.923 63.6451 118.746 67.2252 121.042C71.3614 117.826 76.6111 117.864 76.6111 117.864C85.5259 117.864 86.9914 104.959 86.9914 104.959C82.3197 104.959 77.7837 103.407 74.1077 100.55C72.2211 99.0832 70.2464 97.2483 68.3651 95.0547Z" fill="#FC9460"/>
<path d="M93.1434 121.404L88.8311 128.198L96.6535 126.096L93.1434 121.404Z" fill="#D3DCFB"/>
<path d="M80.8381 121.404L85.1501 128.198L77.3276 126.096L80.8381 121.404Z" fill="#D3DCFB"/>
<path d="M151.24 124.473C150.021 123.898 148.716 123.405 147.328 122.994L124.481 115.029C121.765 113.828 119 112.777 116.155 111.882C110.609 117.879 104.365 121.614 98.9637 124.369C91.5304 128.161 82.5891 128.222 75.0365 124.369C72.6889 123.171 70.1823 121.788 67.6426 120.115C64.7816 122.038 62.2444 125.286 61.8411 130.787C60.7885 131.05 57.8277 131.897 54.83 133.731C49.9268 136.732 47.335 140.944 47.335 145.912V172.441C59.2293 178.551 72.712 182 87.0001 182C106.101 182 123.764 175.838 138.114 165.391C138.114 158.773 138.114 152.942 138.114 149.138C138.114 137.813 148.234 130.092 154.243 126.147C153.302 125.535 152.302 124.975 151.24 124.473Z" fill="#F37A22"/>
<path d="M47.8678 172.709C47.8678 167.7 47.8678 155.074 47.8678 145.912C47.8678 134.239 62.3476 131.215 62.3476 131.215C62.6498 125.55 65.2278 122.294 68.1098 120.417C64.6565 118.186 61.1286 115.433 57.8446 111.882C54.9999 112.777 52.2351 113.828 49.5186 115.029L26.6724 122.994C25.2843 123.404 23.9786 123.898 22.7599 124.473C21.6978 124.975 20.6982 125.535 19.7568 126.147C25.7658 130.092 35.8854 137.813 35.8854 149.138V165.391C39.6611 168.139 43.668 170.588 47.8678 172.709Z" fill="#DC640D"/>
<path d="M103.841 121.334C102.169 122.331 100.531 123.213 98.9636 124.013C91.5303 127.805 82.5893 127.866 75.0364 124.013C73.4633 123.21 71.8185 122.324 70.1406 121.323V130.517C70.6285 130.774 71.1129 131.025 71.5912 131.269C81.3195 136.232 92.8356 136.153 102.41 131.269C102.882 131.029 103.36 130.78 103.841 130.527V121.334Z" fill="#F39149"/>
<path d="M107.661 102.044C107.252 101.818 106.744 102.054 106.651 102.512C106.043 105.491 103.407 114.875 93.6176 120.445C92.6535 120.993 92.4227 122.281 93.152 123.117L103.044 134.459C105.098 136.827 108.88 136.401 110.362 133.638C112.868 128.967 116.36 121.858 118.945 114.215C119.407 112.846 119.078 111.333 118.103 110.268C115.094 106.982 111.568 104.203 107.661 102.044Z" fill="#DEEEFF"/>
<path d="M80.3639 120.444C78.7173 119.508 77.2774 118.461 76.0107 117.357C73.3876 117.537 63.0046 118.973 61.8906 130.315C62.4993 131.52 63.0827 132.638 63.6192 133.638C65.1018 136.401 68.8832 136.826 70.9371 134.459L80.8294 123.117C81.5588 122.281 81.328 120.993 80.3639 120.444Z" fill="#DEEEFF"/>
<path d="M67.3303 102.512C67.2369 102.054 66.7287 101.818 66.3204 102.044C62.4129 104.203 58.8875 106.982 55.8787 110.268C54.9036 111.333 54.5744 112.846 55.0371 114.214C57.2085 120.636 60.0184 126.675 62.3482 131.213C63.0673 117.761 76.6111 117.864 76.6111 117.864C69.8696 112.334 67.8512 105.067 67.3303 102.512Z" fill="#D3DCFB"/>
<path d="M54.65 55.9778H119.729C119.845 51.2838 120.626 38.8595 125.527 30.009C126.209 28.778 126.33 27.3156 125.856 25.9908C124.077 21.0277 118.766 9.42521 107.182 6.3305C106.565 6.16556 106.402 5.36647 106.904 4.97154L108.64 3.60619C109.427 2.98696 109.124 1.72931 108.142 1.53985C99.5951 -0.110239 71.2104 -4.05879 62.3933 14.0904C61.867 15.1735 60.8752 15.9534 59.7105 16.2552C57.1449 16.9199 52.5304 18.9233 49.5228 24.9269C48.9344 26.101 48.8342 27.4628 49.2557 28.7066C50.7173 33.0187 54.2786 44.5978 54.65 55.9778Z" fill="#945230"/>
<path d="M83.7698 27.2905C73.3754 11.4334 91.5571 0.00683594 91.5571 0.00683594C80.5306 0.149734 67.7929 2.97642 62.3933 14.0909C61.867 15.174 60.8752 15.9539 59.7105 16.2557C57.1449 16.9204 52.5304 18.9238 49.5228 24.9273C48.9344 26.1014 48.8342 27.4632 49.2557 28.707C50.7173 33.0192 54.2786 44.5983 54.65 55.9782H69.7985C79.3861 48.2038 89.9464 36.7133 83.7698 27.2905Z" fill="#753616"/>
<path d="M122.255 54.0796C120.798 52.7431 117.541 53.4206 116.286 54.2389C116.561 55.9526 116.576 57.7058 116.339 59.4369L114.858 70.2332C114.858 71.1034 114.831 71.9572 114.78 72.7961C118.391 73.8864 120.54 70.6413 120.842 68.4143C120.972 67.4556 121.185 66.5107 121.48 65.5887C122.441 62.5864 125.906 57.4285 122.255 54.0796Z" fill="#FFAA7B"/>
<path d="M51.7639 54.0796C53.2209 52.7431 56.4782 53.4206 57.7331 54.2389C57.4582 55.9526 57.4426 57.7058 57.6802 59.4369L59.1609 70.2332C59.1609 71.1034 59.1883 71.9572 59.2387 72.7961C55.6277 73.8864 53.479 70.6413 53.1768 68.4143C53.0469 67.4556 52.8342 66.5107 52.5391 65.5887C51.5785 62.5864 48.1135 57.4285 51.7639 54.0796Z" fill="#FC9460"/>
<path d="M115.75 50.9029C115.417 50.0323 114.996 49.1508 114.467 48.3193C113.57 46.9113 113.176 45.2452 113.296 43.5845C113.642 38.8077 113.456 29.4649 107.192 26.6432C101.87 24.2459 95.3418 25.634 91.1786 27.0196C88.5747 27.8866 85.7616 27.9161 83.1421 27.1131C78.3987 30.7574 78.2872 38.9627 78.6078 43.3318C78.7303 45.0017 78.3198 46.6721 77.4182 48.0883C76.8987 48.9044 76.4829 49.7682 76.1506 50.6231C75.0721 53.3965 74.7575 56.4045 75.1616 59.3499L76.6622 70.2916C76.6622 86.0218 85.0504 96.7136 92.1853 102.26C93.2386 103.079 94.3653 103.783 95.5417 104.384C97.0836 103.7 98.5462 102.83 99.8927 101.784C106.935 96.3098 115.213 85.7573 115.213 70.2326L116.694 59.4363C117.089 56.558 116.79 53.6187 115.75 50.9029Z" fill="#FFC7AB"/>
<path d="M92.236 101.784C85.194 96.3098 76.9157 85.7573 76.9157 70.2326L75.4345 59.4341C75.0358 56.5275 75.3461 53.5586 76.4107 50.8215C76.7388 49.9776 77.149 49.1252 77.6621 48.3197C78.5519 46.922 78.9571 45.2737 78.8364 43.6254C78.5097 39.1763 78.6368 30.6973 83.7701 27.2898C83.458 27.2109 83.148 27.122 82.8408 27.0196C78.6777 25.634 72.1492 24.2459 66.8273 26.6432C60.5449 29.4727 60.3766 38.861 60.7264 43.6254C60.8475 45.2737 60.442 46.922 59.5521 48.3197C59.0393 49.1252 58.6288 49.9776 58.3007 50.8215C57.2365 53.5586 56.9261 56.5275 57.3249 59.4341L58.806 70.2326C58.806 85.7573 67.0848 96.3094 74.1264 101.784C77.802 104.641 82.338 106.193 87.0097 106.193C90.1647 106.193 93.2565 105.482 96.0647 104.143C94.7146 103.499 93.4295 102.711 92.236 101.784Z" fill="#FFAA7B"/>
<path d="M153.876 125.921C147.918 129.794 137.404 137.596 137.404 149.138V165.902C148.176 158.224 157.126 148.151 163.479 136.458C161.25 132.323 158.155 128.599 153.876 125.921Z" fill="#F4944D"/>
<path d="M20.1232 125.921C15.8446 128.599 12.7492 132.324 10.521 136.458C16.8733 148.151 25.8236 158.224 36.5958 165.902C36.5958 159.072 36.5958 153.039 36.5958 149.138C36.5958 137.596 26.0814 129.794 20.1232 125.921Z" fill="#F37A22"/>
<path d="M146.474 31.3545C138.215 37.4664 127.938 47.77 132.295 60.6796C139.041 80.6726 108.503 93.2807 142.592 107.771C156.222 113.566 164.142 119.611 168.744 124.781C172.143 115.464 174 105.404 174 94.9095C174 69.8379 163.413 47.2447 146.474 31.3545Z" fill="#5C81CC"/>
<path d="M27.5258 31.3545C35.7853 37.4664 46.0622 47.77 41.7055 60.6796C34.9587 80.6726 65.4971 93.2807 31.4077 107.771C17.7776 113.566 9.85787 119.611 5.25651 124.781C1.85752 115.464 0 105.404 0 94.9095C0 69.8379 10.5876 47.2447 27.5258 31.3545Z" fill="#5C81CC"/>
<path d="M106.946 82.6741C106.123 77.7586 102.58 72.8368 97.8499 71.763L90.6204 69.6369C89.3638 69.2672 88.1053 69.9127 87.5993 71.0086C87.5069 71.2088 87.2275 71.2088 87.1352 71.0086C86.6291 69.9127 85.3707 69.2676 84.114 69.6369L76.8846 71.763C76.6413 71.818 76.402 71.8863 76.1655 71.9613C75.4684 73.2797 74.3737 75.9102 75.1218 78.3729C75.5423 79.7578 76.4868 80.8697 77.9186 81.6997C79.1867 81.0322 80.5502 80.5256 81.9838 80.2085L83.2753 79.9231C85.1573 79.5072 86.6128 77.668 87.1465 75.7083C87.2076 75.4833 87.5272 75.4833 87.5886 75.7083C88.1223 77.668 89.5775 79.5072 91.4595 79.9231L92.751 80.2085C96.4625 81.0286 99.7145 83.1077 102.015 86.0137C101.539 88.133 100.045 91.3535 95.4178 92.9905C92.3128 94.0885 88.9245 92.1338 88.5268 88.8983C88.5218 88.8564 88.5168 88.8144 88.5119 88.7718C88.4465 88.1685 87.9419 87.7047 87.328 87.7047C86.7137 87.7047 86.2091 88.1685 86.1437 88.7718C86.1391 88.8144 86.1341 88.8567 86.1292 88.8983C85.9065 90.7087 84.7471 92.1171 83.2252 92.8152C82.8932 94.5208 82.4692 98.4252 84.468 102.119C85.4918 104.011 87.007 105.568 88.9884 106.781C90.9557 106.548 92.8913 105.971 94.7012 105.049C101.936 101.361 111.555 94.9548 114.631 78.4749C114.885 77.1199 115.013 75.7417 115.013 74.3632C113.842 77.2557 111.408 80.7368 106.946 82.6741Z" fill="#945230"/>
<path d="M89.8332 106.657C82.0807 102.368 83.4198 94.3158 83.8445 92.473C82.5373 93.302 80.8517 93.5608 79.2385 92.9902C74.9663 91.4791 73.1287 88.6173 72.3386 86.5189C73.9333 84.3349 76.0476 82.5768 78.4914 81.4105C73.3027 78.6965 76.043 73.207 76.8867 71.7627L76.8849 71.7631C72.0616 72.8579 68.4705 77.9543 67.7408 82.9649C62.806 81.1019 60.2372 77.4068 59.0054 74.3626V74.364C59.0054 75.7407 59.1336 77.1168 59.386 78.47C62.4569 94.9471 72.0293 101.353 79.2651 105.044C82.5601 106.725 86.2712 107.261 89.8332 106.657Z" fill="#753616"/>
</svg>
