<svg width="21" height="21" viewBox="0 0 21 21" fill="none" xmlns="http://www.w3.org/2000/svg">
<g clip-path="url(#clip0_4360_1353)">
<mask id="mask0_4360_1353" style="mask-type:luminance" maskUnits="userSpaceOnUse" x="0" y="0" width="21" height="21">
<path d="M0 0H21V21H0V0Z" fill="white"/>
</mask>
<g mask="url(#mask0_4360_1353)">
<path fill-rule="evenodd" clip-rule="evenodd" d="M20.7436 4.63155C20.9076 4.79564 20.9998 5.01816 20.9998 5.25018C20.9998 5.4822 20.9076 5.70472 20.7436 5.8688L12.4311 14.1813C12.267 14.3453 12.0445 14.4375 11.8125 14.4375C11.5805 14.4375 11.358 14.3453 11.1939 14.1813L7.43749 10.4249L1.49361 16.3688C1.32859 16.5282 1.10756 16.6164 0.878139 16.6144C0.648717 16.6124 0.429256 16.5204 0.267024 16.3581C0.104792 16.1959 0.0127689 15.9765 0.0107753 15.747C0.00878165 15.5176 0.0969767 15.2966 0.256365 15.1316L6.81886 8.56906C6.98295 8.40502 7.20547 8.31287 7.43749 8.31287C7.66951 8.31287 7.89203 8.40502 8.05611 8.56906L11.8125 12.3254L19.5064 4.63155C19.6704 4.46752 19.893 4.37537 20.125 4.37537C20.357 4.37537 20.5795 4.46752 20.7436 4.63155Z" fill="#FF947A"/>
<path fill-rule="evenodd" clip-rule="evenodd" d="M14 5.25C14 5.01794 14.0922 4.79538 14.2563 4.63128C14.4204 4.46719 14.6429 4.375 14.875 4.375H20.125C20.3571 4.375 20.5796 4.46719 20.7437 4.63128C20.9078 4.79538 21 5.01794 21 5.25V10.5C21 10.7321 20.9078 10.9546 20.7437 11.1187C20.5796 11.2828 20.3571 11.375 20.125 11.375C19.8929 11.375 19.6704 11.2828 19.5063 11.1187C19.3422 10.9546 19.25 10.7321 19.25 10.5V6.125H14.875C14.6429 6.125 14.4204 6.03281 14.2563 5.86872C14.0922 5.70462 14 5.48206 14 5.25Z" fill="#FF947A"/>
</g>
</g>
<defs>
<clipPath id="clip0_4360_1353">
<rect width="21" height="21" fill="white"/>
</clipPath>
</defs>
</svg>
