<svg width="17" height="7" viewBox="0 0 17 7" fill="none" xmlns="http://www.w3.org/2000/svg">
<path d="M15.7421 2.51401C13.8041 2.00401 12.6141 2.07201 12.3421 1.97001C12.2061 1.93601 12.3421 1.97001 10.2681 0.712008C10.0641 0.576008 9.79211 0.508009 9.55411 0.474009C7.20811 0.202009 4.45411 0.270008 2.58411 1.73201C2.48211 1.80001 2.41411 1.86801 2.31211 1.86801L1.22411 2.20801C1.02011 2.27601 0.850106 2.41201 0.782106 2.58201C0.408106 3.22801 0.272106 4.04401 0.476106 4.79201C0.544106 5.09801 0.782106 5.30201 1.05411 5.37001L1.32611 5.43801C1.32611 5.33601 1.29211 5.26801 1.29211 5.16601C1.29211 3.94201 2.27811 2.95601 3.50211 2.95601C4.72611 2.95601 5.71211 3.94201 5.71211 5.16601C5.71211 5.33601 5.67811 5.50601 5.64411 5.64201H11.8661C11.8321 5.47201 11.7981 5.33601 11.7981 5.16601C11.7981 3.94201 12.7841 2.95601 14.0081 2.95601C15.2321 2.95601 16.2181 3.94201 16.2181 5.16601C16.2181 5.30201 16.2181 5.43801 16.1841 5.57401C16.4561 5.43801 16.6261 5.13201 16.6261 4.82601V3.77201C16.6601 3.16001 16.2861 2.65001 15.7421 2.51401ZM5.74611 2.48001C5.64411 2.48001 5.54211 2.44601 5.47411 2.34401L4.65811 1.35801C5.40611 1.12001 6.29011 0.984009 7.27611 0.984009L7.68411 2.48001H5.74611ZM11.3221 2.44601C11.2541 2.48001 11.2201 2.48001 11.1521 2.48001H8.39811L7.99011 1.01801L9.41811 1.12001C9.55411 1.12001 9.72411 1.18801 9.86011 1.25601L11.5261 2.27601L11.3221 2.44601Z" fill="#955B59"/>
<path d="M3.50217 6.66205C4.34716 6.66205 5.03217 5.97705 5.03217 5.13205C5.03217 4.28706 4.34716 3.60205 3.50217 3.60205C2.65717 3.60205 1.97217 4.28706 1.97217 5.13205C1.97217 5.97705 2.65717 6.66205 3.50217 6.66205Z" fill="#955B59"/>
<path d="M14.0422 6.66205C14.8872 6.66205 15.5722 5.97705 15.5722 5.13205C15.5722 4.28706 14.8872 3.60205 14.0422 3.60205C13.1972 3.60205 12.5122 4.28706 12.5122 5.13205C12.5122 5.97705 13.1972 6.66205 14.0422 6.66205Z" fill="#955B59"/>
</svg>
