<svg width="21" height="21" viewBox="0 0 21 21" fill="none" xmlns="http://www.w3.org/2000/svg">
<path d="M4.59375 17.7188C4.59375 18.8042 5.47706 19.6875 6.5625 19.6875C7.64794 19.6875 8.53125 18.8042 8.53125 17.7188C8.53125 16.6333 7.64794 15.75 6.5625 15.75C5.47706 15.75 4.59375 16.6333 4.59375 17.7188ZM7.21875 17.7188C7.21875 18.0803 6.92409 18.375 6.5625 18.375C6.20091 18.375 5.90625 18.0803 5.90625 17.7188C5.90625 17.3572 6.20091 17.0625 6.5625 17.0625C6.92409 17.0625 7.21875 17.3572 7.21875 17.7188ZM16.4062 17.7188C16.4062 16.6333 15.5229 15.75 14.4375 15.75C13.3521 15.75 12.4688 16.6333 12.4688 17.7188C12.4688 18.8042 13.3521 19.6875 14.4375 19.6875C15.5229 19.6875 16.4062 18.8042 16.4062 17.7188ZM13.7812 17.7188C13.7812 17.3572 14.0759 17.0625 14.4375 17.0625C14.7991 17.0625 15.0938 17.3572 15.0938 17.7188C15.0938 18.0803 14.7991 18.375 14.4375 18.375C14.0759 18.375 13.7812 18.0803 13.7812 17.7188ZM2.69062 1.96875L3.81741 12.6748C3.86748 13.159 4.09551 13.6074 4.4573 13.933C4.81909 14.2587 5.28888 14.4385 5.77566 14.4375H16.002C16.4521 14.4355 16.8881 14.2803 17.2381 13.9973C17.5881 13.7143 17.8312 13.3206 17.9274 12.8809L19.5037 5.52497C19.5452 5.33364 19.543 5.13544 19.4975 4.94505C19.4519 4.75466 19.3641 4.57696 19.2406 4.42509C19.1178 4.27255 18.9622 4.14954 18.7855 4.06515C18.6088 3.98076 18.4153 3.93713 18.2195 3.9375H4.21772L3.93422 1.24425C3.91734 1.08285 3.84126 0.933428 3.72067 0.824835C3.60008 0.716242 3.44353 0.656181 3.28125 0.65625H1.3125C1.13845 0.65625 0.971532 0.72539 0.848461 0.848461C0.72539 0.971532 0.65625 1.13845 0.65625 1.3125C0.65625 1.48655 0.72539 1.65347 0.848461 1.77654C0.971532 1.89961 1.13845 1.96875 1.3125 1.96875H2.69062ZM18.2195 5.25L16.6438 12.6059C16.5788 12.9065 16.3091 13.125 16.0013 13.125H5.77566C5.6134 13.1254 5.45677 13.0655 5.33613 12.957C5.2155 12.8485 5.13943 12.6991 5.12269 12.5377L4.35553 5.25H18.2195Z" fill="#24D6A5"/>
</svg>
