<svg width="16" height="16" viewBox="0 0 16 16" fill="none" xmlns="http://www.w3.org/2000/svg">
<g clip-path="url(#clip0_4361_3488)">
<mask id="mask0_4361_3488" style="mask-type:luminance" maskUnits="userSpaceOnUse" x="0" y="0" width="16" height="16">
<path d="M0 0H16V16H0V0Z" fill="white"/>
</mask>
<g mask="url(#mask0_4361_3488)">
<path fill-rule="evenodd" clip-rule="evenodd" d="M15.8048 3.52893C15.9298 3.65395 16 3.82349 16 4.00026C16 4.17704 15.9298 4.34658 15.8048 4.4716L9.47144 10.8049C9.34642 10.9299 9.17688 11.0001 9.00011 11.0001C8.82333 11.0001 8.65379 10.9299 8.52878 10.8049L5.66678 7.94293L1.13811 12.4716C1.01237 12.593 0.843972 12.6602 0.669175 12.6587C0.494377 12.6572 0.327168 12.5871 0.203563 12.4635C0.0799575 12.3399 0.00984493 12.1727 0.00832598 11.9979C0.00680704 11.8231 0.0740033 11.6547 0.195442 11.5289L5.19544 6.52893C5.32046 6.40395 5.49 6.33374 5.66678 6.33374C5.84355 6.33374 6.01309 6.40395 6.13811 6.52893L9.00011 9.39093L14.8621 3.52893C14.9871 3.40395 15.1567 3.33374 15.3334 3.33374C15.5102 3.33374 15.6798 3.40395 15.8048 3.52893Z" fill="white"/>
<path fill-rule="evenodd" clip-rule="evenodd" d="M10.6667 4.00004C10.6667 3.82323 10.737 3.65366 10.862 3.52864C10.987 3.40361 11.1566 3.33337 11.3334 3.33337H15.3334C15.5102 3.33337 15.6798 3.40361 15.8048 3.52864C15.9298 3.65366 16.0001 3.82323 16.0001 4.00004V8.00004C16.0001 8.17685 15.9298 8.34642 15.8048 8.47144C15.6798 8.59647 15.5102 8.66671 15.3334 8.66671C15.1566 8.66671 14.987 8.59647 14.862 8.47144C14.737 8.34642 14.6667 8.17685 14.6667 8.00004V4.66671H11.3334C11.1566 4.66671 10.987 4.59647 10.862 4.47144C10.737 4.34642 10.6667 4.17685 10.6667 4.00004Z" fill="white"/>
</g>
</g>
<defs>
<clipPath id="clip0_4361_3488">
<rect width="16" height="16" fill="white"/>
</clipPath>
</defs>
</svg>
