<svg width="14" height="15" viewBox="0 0 14 15" fill="none" xmlns="http://www.w3.org/2000/svg">
<path d="M5.16545 6.66665C6.63821 6.66665 7.83211 5.47274 7.83211 3.99998C7.83211 2.52722 6.63821 1.33331 5.16545 1.33331C3.69269 1.33331 2.49878 2.52722 2.49878 3.99998C2.49878 5.47274 3.69269 6.66665 5.16545 6.66665Z" stroke="#C9C9C9"/>
<path d="M9.16553 6C9.69596 6 10.2047 5.78929 10.5797 5.41421C10.9548 5.03914 11.1655 4.53043 11.1655 4C11.1655 3.46957 10.9548 2.96086 10.5797 2.58579C10.2047 2.21071 9.69596 2 9.16553 2" stroke="#C9C9C9" stroke-linecap="round"/>
<path d="M5.16545 14C7.74277 14 9.83211 12.8061 9.83211 11.3333C9.83211 9.86053 7.74277 8.66663 5.16545 8.66663C2.58812 8.66663 0.498779 9.86053 0.498779 11.3333C0.498779 12.8061 2.58812 14 5.16545 14Z" stroke="#C9C9C9"/>
<path d="M11.1655 9.33331C12.3349 9.58998 13.1655 10.2393 13.1655 11C13.1655 11.6866 12.4895 12.282 11.4989 12.58" stroke="#C9C9C9" stroke-linecap="round"/>
</svg>
