<svg width="20" height="18" viewBox="0 0 20 18" fill="none" xmlns="http://www.w3.org/2000/svg">
<path d="M10.2468 4.73633V9.44518C10.2468 9.83758 10.5647 10.1536 10.9553 10.1536H13.9465" stroke="#24D6A5" stroke-width="2" stroke-linecap="round"/>
<path d="M2.39722 9.00257C2.39722 4.59024 5.98568 1 10.398 1C14.8103 1 18.4006 4.59024 18.4006 9.00257C18.4006 13.4149 14.8103 17.0051 10.3998 17.0069C7.74351 17.0069 5.26656 15.6876 3.7733 13.4788" stroke="#24D6A5" stroke-width="2"/>
<path d="M3.46399 10C3.07909 10.6667 2.11684 10.6667 1.73194 10L0.865918 8.5C0.481018 7.83333 0.962144 7 1.73194 7L3.46399 7C4.23379 7 4.71492 7.83333 4.33002 8.5L3.46399 10Z" fill="#24D6A5"/>
</svg>
