<svg width="16" height="16" viewBox="0 0 16 16" fill="none" xmlns="http://www.w3.org/2000/svg">
<path fill-rule="evenodd" clip-rule="evenodd" d="M15.1655 6.86016C15.1655 7.19824 14.9086 7.47232 14.5916 7.47232H14.585C14.4323 7.47232 14.2859 7.40664 14.1792 7.29008C14.0724 7.1736 14.0142 7.016 14.0178 6.85312V5.00264C14.0178 2.56816 12.7579 1.22427 10.4756 1.22427H4.8555C2.56658 1.22427 1.31328 2.56816 1.31328 5.00264V11.0044C1.31328 13.4389 2.57318 14.7758 4.8555 14.7758H10.4756C12.7645 14.7758 14.0178 13.4318 14.0178 11.0044C14.0178 10.6663 14.2747 10.3922 14.5916 10.3922C14.9086 10.3922 15.1655 10.6663 15.1655 11.0044C15.1655 14.0862 13.3713 16 10.4822 16H4.8555C1.95972 16 0.165527 14.0862 0.165527 11.0044V5.00264C0.165527 1.91381 1.95972 0 4.8555 0H10.4756C13.3582 0 15.1655 1.91381 15.1655 5.00264V6.86016ZM3.88584 11.7502V6.6772V6.628C3.89097 6.46616 3.95666 6.31333 4.06822 6.20358C4.17978 6.09384 4.32791 6.03635 4.47951 6.04398C4.63175 6.04948 4.77568 6.11931 4.87961 6.23809C4.98354 6.35686 5.03894 6.51488 5.03361 6.6772V11.7924C5.02267 12.1305 4.75688 12.3951 4.43993 12.3834C4.12299 12.3718 3.87491 12.0883 3.88584 11.7502ZM7.11803 4.25682V11.7573C7.11803 12.0954 7.37498 12.3694 7.69193 12.3694C8.00888 12.3694 8.26583 12.0954 8.26583 11.7573V4.25682C8.26583 3.91874 8.00888 3.64468 7.69193 3.64468C7.37498 3.64468 7.11803 3.91874 7.11803 4.25682ZM10.2974 11.7502V9.35792C10.2974 9.01992 10.5544 8.74584 10.8713 8.74584C11.1883 8.74584 11.4452 9.01992 11.4452 9.35792V11.7502C11.4452 12.0883 11.1883 12.3623 10.8713 12.3623C10.5544 12.3623 10.2974 12.0883 10.2974 11.7502Z" fill="#C9C9C9"/>
</svg>
