<svg width="8" height="16" viewBox="0 0 8 16" fill="none" xmlns="http://www.w3.org/2000/svg">
<path d="M3.57246 15.0833V13.3883C2.85746 13.2961 2.24329 13.0486 1.72996 12.6458C1.21663 12.243 0.834961 11.6858 0.584961 10.9741L1.35746 10.6375C1.59802 11.2613 1.92857 11.7419 2.34913 12.0791C2.76968 12.4163 3.33968 12.5844 4.05913 12.5833C4.69246 12.5833 5.27135 12.4255 5.79579 12.11C6.32024 11.7944 6.58218 11.2855 6.58163 10.5833C6.58163 9.99052 6.38885 9.5144 6.00329 9.15496C5.61718 8.79552 4.89552 8.44579 3.83829 8.10579C2.76107 7.76302 2.00302 7.37135 1.56413 6.93079C1.12524 6.48968 0.905794 5.91551 0.905794 5.20829C0.905794 4.43385 1.20274 3.81524 1.79663 3.35246C2.39052 2.89024 2.98218 2.64024 3.57163 2.60246V0.916626H4.40496V2.60246C4.98218 2.66024 5.47774 2.82024 5.89163 3.08246C6.30552 3.34468 6.64885 3.71774 6.92163 4.20163L6.18079 4.57996C5.98246 4.22107 5.70913 3.93052 5.3608 3.70829C5.01246 3.48607 4.56913 3.37496 4.03079 3.37496C3.38746 3.37496 2.84468 3.54524 2.40246 3.88579C1.96024 4.22579 1.73913 4.66663 1.73913 5.20829C1.73913 5.71996 1.92052 6.1344 2.28329 6.45163C2.64663 6.7694 3.37441 7.10079 4.46663 7.44579C5.47774 7.76579 6.22218 8.17718 6.69996 8.67996C7.17663 9.18274 7.41496 9.81385 7.41496 10.5733C7.41496 11.41 7.12052 12.0747 6.53163 12.5675C5.94274 13.0602 5.23385 13.3369 4.40496 13.3975V15.0833H3.57246Z" fill="white" stroke="white" stroke-width="0.8"/>
</svg>
