<svg width="12" height="10" viewBox="0 0 12 10" fill="none" xmlns="http://www.w3.org/2000/svg">
<path fill-rule="evenodd" clip-rule="evenodd" d="M1.47279 1.3054L4.71466 4.54868C5.42173 5.25438 6.57752 5.25499 7.28517 4.54868L10.527 1.3054C10.5347 1.29778 10.5406 1.28856 10.5443 1.27841C10.548 1.26826 10.5494 1.25741 10.5485 1.24664C10.5475 1.23588 10.5442 1.22545 10.5388 1.21611C10.5334 1.20676 10.5259 1.19873 10.5171 1.19257C10.1864 0.961967 9.7841 0.825256 9.35074 0.825256H2.64912C2.21573 0.825256 1.81343 0.961991 1.48277 1.19257C1.47389 1.19873 1.46647 1.20676 1.46104 1.21611C1.4556 1.22545 1.45229 1.23588 1.45134 1.24664C1.45039 1.25741 1.45181 1.26826 1.45552 1.27841C1.45923 1.28856 1.46512 1.29778 1.47279 1.3054ZM0.606446 2.8679C0.606182 2.53837 0.686268 2.21374 0.839766 1.92213C0.845125 1.91185 0.852834 1.90298 0.862266 1.89624C0.871698 1.8895 0.882587 1.88508 0.894049 1.88334C0.905511 1.8816 0.917221 1.88259 0.928229 1.88622C0.939237 1.88986 0.949231 1.89605 0.957399 1.90427L4.15824 5.10511C5.17184 6.12019 6.82741 6.12077 7.84163 5.10511L11.0425 1.90427C11.0506 1.89605 11.0606 1.88986 11.0716 1.88622C11.0826 1.88259 11.0943 1.8816 11.1058 1.88334C11.1173 1.88508 11.1282 1.8895 11.1376 1.89624C11.147 1.90298 11.1547 1.91185 11.1601 1.92213C11.3136 2.21374 11.3937 2.53837 11.3934 2.8679V7.13205C11.3934 8.25923 10.4765 9.17473 9.35074 9.17473H2.64912C1.52337 9.17473 0.606446 8.25923 0.606446 7.13205V2.8679Z" fill="#963B3A"/>
</svg>
