<svg width="14" height="14" viewBox="0 0 14 14" fill="none" xmlns="http://www.w3.org/2000/svg">
<g clip-path="url(#clip0_4361_3453)">
<path d="M7.00015 11.4138C4.49231 11.4138 1.48291 8.96166 1.48291 6.99997C1.48291 5.03829 4.49231 2.58618 7.00015 2.58618C9.50799 2.58618 12.5174 5.03829 12.5174 6.99997C12.5174 8.96166 9.50799 11.4138 7.00015 11.4138ZM7.00015 4.54787C6.33503 4.54787 5.69715 4.80621 5.22684 5.26607C4.75653 5.72593 4.49231 6.34964 4.49231 6.99997C4.49231 7.65031 4.75653 8.27402 5.22684 8.73388C5.69715 9.19374 6.33503 9.45208 7.00015 9.45208C7.66527 9.45208 8.30315 9.19374 8.77346 8.73388C9.24377 8.27402 9.50799 7.65031 9.50799 6.99997C9.50799 6.34964 9.24377 5.72593 8.77346 5.26607C8.30315 4.80621 7.66527 4.54787 7.00015 4.54787Z" stroke="white"/>
</g>
<defs>
<clipPath id="clip0_4361_3453">
<rect width="13.2414" height="13.2414" fill="white" transform="translate(0.379395 0.379272)"/>
</clipPath>
</defs>
</svg>
