<svg width="16" height="16" viewBox="0 0 16 16" fill="none" xmlns="http://www.w3.org/2000/svg">
<path d="M7.99998 13.3333C4.96968 13.3333 1.33331 10.3703 1.33331 7.99996C1.33331 5.62959 4.96968 2.66663 7.99998 2.66663C11.0303 2.66663 14.6666 5.62959 14.6666 7.99996C14.6666 10.3703 11.0303 13.3333 7.99998 13.3333ZM7.99998 5.037C7.19629 5.037 6.42552 5.34916 5.85723 5.90483C5.28894 6.46049 4.96968 7.21413 4.96968 7.99996C4.96968 8.78579 5.28894 9.53943 5.85723 10.0951C6.42552 10.6508 7.19629 10.9629 7.99998 10.9629C8.80366 10.9629 9.57443 10.6508 10.1427 10.0951C10.711 9.53943 11.0303 8.78579 11.0303 7.99996C11.0303 7.21413 10.711 6.46049 10.1427 5.90483C9.57443 5.34916 8.80366 5.037 7.99998 5.037Z" stroke="#272830"/>
</svg>
