<svg width="24" height="20" viewBox="0 0 24 20" fill="none" xmlns="http://www.w3.org/2000/svg">
<path d="M11.8363 18.5575C6.97406 18.5575 1.1394 13.8033 1.1394 10C1.1394 6.19667 6.97406 1.4425 11.8363 1.4425C16.6985 1.4425 22.5331 6.19667 22.5331 10C22.5331 13.8033 16.6985 18.5575 11.8363 18.5575ZM11.8363 5.24584C10.5467 5.24584 9.31001 5.74672 8.39817 6.6383C7.48633 7.52988 6.97406 8.73912 6.97406 10C6.97406 11.2609 7.48633 12.4701 8.39817 13.3617C9.31001 14.2533 10.5467 14.7542 11.8363 14.7542C13.1258 14.7542 14.3625 14.2533 15.2744 13.3617C16.1862 12.4701 16.6985 11.2609 16.6985 10C16.6985 8.73912 16.1862 7.52988 15.2744 6.6383C14.3625 5.74672 13.1258 5.24584 11.8363 5.24584Z" stroke="#FE9934" stroke-width="1.8"/>
</svg>
