<svg width="14" height="13" viewBox="0 0 14 13" fill="none" xmlns="http://www.w3.org/2000/svg">
<path d="M5.82807 12.8281C5.70375 12.8281 5.58452 12.7787 5.49661 12.6908C5.4087 12.6029 5.35932 12.4837 5.35932 12.3594V7.85234L1.014 3.07344C0.842951 2.88494 0.730288 2.65085 0.689687 2.39957C0.649086 2.14829 0.682294 1.89063 0.78528 1.65786C0.888266 1.42508 1.0566 1.22721 1.26986 1.08824C1.48312 0.949278 1.73212 0.8752 1.98666 0.875H12.0132C12.2678 0.8752 12.5168 0.949278 12.73 1.08824C12.9433 1.22721 13.1116 1.42508 13.2146 1.65786C13.3176 1.89063 13.3508 2.14829 13.3102 2.39957C13.2696 2.65085 13.1569 2.88494 12.9859 3.07344L8.64057 7.85234V10.4844C8.64052 10.5546 8.62471 10.6239 8.59428 10.6872C8.56386 10.7505 8.5196 10.8061 8.46479 10.85L6.12104 12.725C6.03794 12.7917 5.93461 12.828 5.82807 12.8281ZM1.98666 1.8125C1.91372 1.81268 1.84239 1.834 1.78132 1.87388C1.72024 1.91375 1.67203 1.97048 1.64252 2.03718C1.61301 2.10389 1.60347 2.17772 1.61504 2.24974C1.62662 2.32175 1.65882 2.38887 1.70775 2.44297L6.17494 7.36484C6.25148 7.44901 6.2948 7.55813 6.29682 7.67188V11.3844L7.70307 10.25V7.67188C7.70279 7.55489 7.74626 7.44204 7.82494 7.35547L12.2921 2.43359C12.3381 2.37926 12.3678 2.31301 12.3778 2.2425C12.3878 2.172 12.3776 2.10011 12.3484 2.03516C12.3192 1.9702 12.2723 1.91482 12.213 1.87542C12.1537 1.83602 12.0844 1.81421 12.0132 1.8125H1.98666Z" fill="#3D3B3B"/>
</svg>
