<svg width="12" height="14" viewBox="0 0 12 14" fill="none" xmlns="http://www.w3.org/2000/svg">
<path d="M2.26668 2.17338C3.26023 1.19971 4.59788 0.65747 5.98897 0.664496C7.38006 0.671522 8.71217 1.22725 9.69583 2.2109C10.6795 3.19456 11.2352 4.52668 11.2422 5.91776C11.2493 7.30885 10.707 8.6465 9.73335 9.64005L6.94268 12.4307C6.69265 12.6807 6.35357 12.8211 6.00002 12.8211C5.64646 12.8211 5.30739 12.6807 5.05735 12.4307L2.26668 9.64005C1.27661 8.64987 0.720398 7.30697 0.720398 5.90672C0.720398 4.50647 1.27661 3.16356 2.26668 2.17338Z" stroke="black" stroke-linejoin="round"/>
<path d="M6 7.90674C7.10457 7.90674 8 7.01131 8 5.90674C8 4.80217 7.10457 3.90674 6 3.90674C4.89543 3.90674 4 4.80217 4 5.90674C4 7.01131 4.89543 7.90674 6 7.90674Z" stroke="black" stroke-linecap="round" stroke-linejoin="round"/>
</svg>
