<svg width="24" height="24" viewBox="0 0 24 24" fill="none" xmlns="http://www.w3.org/2000/svg">
<path d="M11.4869 20.5V18.466C10.6289 18.3553 9.89186 18.0583 9.27586 17.575C8.65986 17.0917 8.20186 16.423 7.90186 15.569L8.82886 15.165C9.11752 15.9137 9.51419 16.4903 10.0189 16.895C10.5235 17.2997 11.2075 17.5013 12.0709 17.5C12.8309 17.5 13.5255 17.3107 14.1549 16.932C14.7842 16.5533 15.0985 15.9427 15.0979 15.1C15.0979 14.3887 14.8665 13.8173 14.4039 13.386C13.9405 12.9547 13.0745 12.535 11.8059 12.127C10.5132 11.7157 9.60352 11.2457 9.07686 10.717C8.55019 10.1877 8.28686 9.49867 8.28686 8.65C8.28686 7.72067 8.64319 6.97833 9.35586 6.423C10.0685 5.86833 10.7785 5.56833 11.4859 5.523V3.5H12.4859V5.523C13.1785 5.59233 13.7732 5.78433 14.2699 6.099C14.7665 6.41367 15.1785 6.86133 15.5059 7.442L14.6169 7.896C14.3789 7.46533 14.0509 7.11667 13.6329 6.85C13.2149 6.58333 12.6829 6.45 12.0369 6.45C11.2649 6.45 10.6135 6.65433 10.0829 7.063C9.55219 7.471 9.28686 8 9.28686 8.65C9.28686 9.264 9.50452 9.76133 9.93986 10.142C10.3759 10.5233 11.2492 10.921 12.5599 11.335C13.7732 11.719 14.6665 12.2127 15.2399 12.816C15.8119 13.4193 16.0979 14.1767 16.0979 15.088C16.0979 16.092 15.7445 16.8897 15.0379 17.481C14.3312 18.0723 13.4805 18.4043 12.4859 18.477V20.5H11.4869Z" fill="#FF9D00" stroke="#FF9D00" stroke-width="0.8"/>
</svg>
