<svg width="24" height="24" viewBox="0 0 24 24" fill="none" xmlns="http://www.w3.org/2000/svg">
<path d="M11.4375 7.25H16.75M16.75 11.5H11.4375M16.75 15.75H11.4375M6.125 20H18.875C19.4386 20 19.9791 19.7761 20.3776 19.3776C20.7761 18.9791 21 18.4386 21 17.875V5.125C21 4.56141 20.7761 4.02091 20.3776 3.6224C19.9791 3.22388 19.4386 3 18.875 3H6.125C5.56141 3 5.02091 3.22388 4.6224 3.6224C4.22388 4.02091 4 4.56141 4 5.125V17.875C4 18.4386 4.22388 18.9791 4.6224 19.3776C5.02091 19.7761 5.56141 20 6.125 20Z" stroke="#963B3A" stroke-linecap="round" stroke-linejoin="round"/>
</svg>
