<svg width="24" height="16" viewBox="0 0 24 16" fill="none" xmlns="http://www.w3.org/2000/svg">
<path d="M1.2 6.99883H5.928C6.01162 6.98936 6.09638 6.98936 6.18 6.99883H6.384C6.4467 7.02865 6.50685 7.06206 6.564 7.09883C6.63082 7.13559 6.69493 7.17567 6.756 7.21883C6.79606 7.25972 6.83217 7.30318 6.864 7.34883C6.91899 7.41182 6.96717 7.47875 7.008 7.54883L8.928 11.9588L13.932 0.658825C14.0161 0.465775 14.1695 0.298979 14.3713 0.181106C14.5731 0.0632332 14.8136 0 15.06 0C15.3064 0 15.5469 0.0632332 15.7487 0.181106C15.9505 0.298979 16.1039 0.465775 16.188 0.658825L18.96 6.99883H22.8C23.1183 6.99883 23.4235 7.10418 23.6485 7.29172C23.8736 7.47926 24 7.73361 24 7.99883C24 8.26404 23.8736 8.5184 23.6485 8.70593C23.4235 8.89347 23.1183 8.99883 22.8 8.99883H17.64C17.5718 8.97146 17.5074 8.93793 17.448 8.89882C17.3812 8.86206 17.3171 8.82199 17.256 8.77883L17.148 8.64882C17.0908 8.58707 17.0425 8.51995 17.004 8.44883L15.06 3.91883L10.068 15.3388C9.98415 15.5321 9.83088 15.6991 9.62905 15.8172C9.42721 15.9353 9.18662 15.9987 8.94 15.9988C8.69338 15.9987 8.45279 15.9353 8.25095 15.8172C8.04912 15.6991 7.89585 15.5321 7.812 15.3388L5.052 8.99883H1.2C0.881739 8.99883 0.576513 8.89347 0.351471 8.70593C0.126427 8.5184 0 8.26404 0 7.99883C0 7.73361 0.126427 7.47926 0.351471 7.29172C0.576513 7.10418 0.881739 6.99883 1.2 6.99883Z" fill="#4524F8"/>
</svg>
