<svg width="16" height="16" viewBox="0 0 16 16" fill="none" xmlns="http://www.w3.org/2000/svg">
<g clip-path="url(#clip0_4361_3464)">
<path d="M8.0896 0.819946C9.54111 0.820024 10.9333 1.39708 11.9597 2.42346C12.986 3.44988 13.5623 4.8421 13.5623 6.29358C13.5622 7.74509 12.9861 9.13732 11.9597 10.1637C10.9333 11.1901 9.54111 11.7662 8.0896 11.7662C6.63812 11.7662 5.2459 11.19 4.21948 10.1637C3.1931 9.13732 2.61604 7.74509 2.61597 6.29358C2.61597 4.84196 3.19303 3.44991 4.21948 2.42346C5.24593 1.39701 6.63798 0.819946 8.0896 0.819946ZM8.0896 3.23303C7.72911 3.23303 7.49857 3.46511 7.35913 3.64709C7.22013 3.82856 7.07765 4.086 6.92358 4.36292L6.8396 4.51331C6.81634 4.55508 6.7988 4.58749 6.78296 4.61487C6.77438 4.62968 6.76633 4.64152 6.7605 4.651C6.75126 4.65348 6.74001 4.65744 6.72632 4.66077C6.69679 4.66794 6.6623 4.67596 6.61694 4.68616H6.61401L6.45288 4.72327C6.15526 4.79061 5.87381 4.85322 5.66284 4.93616C5.44246 5.02282 5.17087 5.18071 5.06616 5.51624C4.96307 5.84667 5.09112 6.13142 5.21655 6.33069C5.33877 6.5248 5.52931 6.74572 5.73315 6.98401L5.84351 7.11389H5.84448C5.8759 7.15058 5.89919 7.17911 5.91968 7.20374C5.93333 7.22015 5.94333 7.23299 5.95093 7.2428C5.95036 7.25648 5.94993 7.27438 5.948 7.29846C5.94541 7.33073 5.94175 7.36789 5.93726 7.41565L5.91968 7.58948C5.8888 7.90837 5.85959 8.2031 5.86987 8.43323C5.88023 8.66392 5.93443 8.97908 6.2146 9.19104C6.50216 9.40858 6.82267 9.36459 7.04663 9.30042C7.26412 9.23804 7.52757 9.11623 7.8064 8.98792V8.98694L7.95581 8.9176L7.95679 8.91858C8.00042 8.89865 8.0333 8.88349 8.06226 8.87073C8.07235 8.86628 8.08099 8.86223 8.08862 8.85901C8.09654 8.86234 8.10633 8.86605 8.11694 8.87073L8.22241 8.91858L8.3728 8.98694V8.98792C8.65153 9.11619 8.91413 9.23804 9.13159 9.30042C9.35469 9.36436 9.67517 9.40768 9.96265 9.19006L9.96362 9.19104C10.2438 8.97907 10.299 8.66393 10.3093 8.43323C10.3196 8.2031 10.2894 7.90837 10.2585 7.58948L10.2419 7.41565C10.2374 7.36787 10.2338 7.33074 10.2312 7.29846C10.2292 7.27318 10.2278 7.25478 10.2273 7.24084C10.2348 7.23115 10.2454 7.21953 10.2585 7.20374C10.2789 7.17919 10.3035 7.15039 10.3347 7.11389L10.446 6.98401C10.6496 6.74607 10.8405 6.52554 10.9626 6.33167C11.0727 6.15691 11.1833 5.91685 11.1404 5.63831L11.1121 5.51721L11.0652 5.39905C10.9402 5.14237 10.7086 5.01202 10.5154 4.93616C10.3044 4.85335 10.0227 4.79055 9.72534 4.72327H9.72437L9.56616 4.68616H9.56226C9.51603 4.67581 9.48099 4.66799 9.45093 4.66077C9.43763 4.65757 9.4268 4.65437 9.41772 4.65198C9.41187 4.64245 9.4048 4.63065 9.39624 4.61584C9.38027 4.58824 9.36206 4.5554 9.33862 4.51331L9.25464 4.36292C9.10062 4.08608 8.95903 3.82852 8.82007 3.64709C8.69807 3.48783 8.50614 3.29064 8.21851 3.24377L8.0896 3.23303Z" stroke="white"/>
<path d="M12.1179 11.1812C12.3891 12.171 12.5808 12.8734 12.6648 13.396C12.7404 13.8661 12.7082 14.084 12.655 14.1968L12.6306 14.2397C12.5713 14.3285 12.4983 14.4028 12.4158 14.4595L12.3298 14.5103C12.2537 14.5487 12.0804 14.5804 11.6023 14.3999C11.3699 14.3122 11.1004 14.1881 10.78 14.0298L9.6521 13.4517L9.27612 13.2563C8.98125 13.1074 8.72724 12.9957 8.46851 12.9429L8.31226 12.9185C8.23823 12.9105 8.16394 12.9058 8.0896 12.9058L7.86597 12.9185C7.55113 12.9522 7.25697 13.0775 6.90308 13.2563L6.52612 13.4517C5.6545 13.9059 5.04152 14.2245 4.5769 14.3999C4.21716 14.5357 4.0296 14.5515 3.92651 14.5347L3.84839 14.5103C3.73089 14.4501 3.62666 14.3581 3.54761 14.2397C3.48212 14.1415 3.42805 13.9326 3.5144 13.395C3.55638 13.1338 3.62527 12.8278 3.71753 12.4634L4.06128 11.1812L4.20483 10.6558C5.34785 11.3189 6.67483 11.6997 8.0896 11.6997C9.50394 11.6997 10.8308 11.3187 11.9734 10.6558L12.1179 11.1812Z" stroke="white"/>
</g>
<defs>
<clipPath id="clip0_4361_3464">
<rect width="15.36" height="15.36" fill="white" transform="translate(0.409424 0.319946)"/>
</clipPath>
</defs>
</svg>
