<svg width="16" height="16" viewBox="0 0 16 16" fill="none" xmlns="http://www.w3.org/2000/svg">
<path d="M8.00043 0.5C9.51787 0.500114 10.9733 1.10279 12.0463 2.17578C13.1195 3.24891 13.7221 4.70503 13.7221 6.22266C13.722 7.74013 13.1194 9.19553 12.0463 10.2686C10.9733 11.3416 9.5179 11.9442 8.00043 11.9443C6.4828 11.9443 5.02668 11.3417 3.95355 10.2686C2.88056 9.19554 2.27788 7.7401 2.27777 6.22266C2.27777 4.70503 2.88043 3.24891 3.95355 2.17578C5.02668 1.10266 6.4828 0.5 8.00043 0.5ZM8.00043 3.05566C7.63473 3.05566 7.39937 3.29043 7.25531 3.47852C7.18347 3.57231 7.11139 3.68625 7.03656 3.8125L6.80414 4.22168L6.71722 4.37793C6.69286 4.4217 6.67335 4.45556 6.65668 4.48438C6.64516 4.50428 6.63548 4.51897 6.62836 4.53027C6.61728 4.53333 6.60334 4.53763 6.58539 4.54199C6.55444 4.54952 6.51831 4.55775 6.47113 4.56836H6.4682L6.29828 4.60742C5.98813 4.6776 5.69746 4.74258 5.47992 4.82812C5.28096 4.90637 5.04532 5.03946 4.9184 5.2998L4.87152 5.41895C4.76684 5.75439 4.89533 6.04423 5.02484 6.25C5.15114 6.45065 5.34812 6.67989 5.56097 6.92871L5.67719 7.06348C5.70992 7.1017 5.73481 7.1314 5.75629 7.15723C5.77327 7.17764 5.78483 7.19282 5.7934 7.2041C5.79292 7.21975 5.79192 7.24123 5.78949 7.27148C5.78677 7.30525 5.78342 7.34389 5.77875 7.39355L5.76117 7.57422V7.5752C5.72895 7.90795 5.6978 8.21237 5.70844 8.4502C5.71911 8.68864 5.77571 9.00851 6.06 9.22363C6.3518 9.44438 6.6775 9.40124 6.90863 9.33496C7.1332 9.27056 7.40475 9.14368 7.69574 9.00977H7.69672L7.85297 8.9375C7.89835 8.91677 7.93299 8.90106 7.96332 8.8877C7.9777 8.88136 7.98954 8.87618 7.99945 8.87207C8.00953 8.87623 8.02177 8.88118 8.03656 8.8877C8.06689 8.90106 8.10153 8.91677 8.14691 8.9375V8.93652L8.30414 9.00977C8.59533 9.14377 8.86751 9.27056 9.09222 9.33496C9.32252 9.40091 9.64746 9.44345 9.9389 9.22266L9.93988 9.22363C10.2242 9.00851 10.2808 8.68866 10.2914 8.4502C10.3021 8.21236 10.2709 7.90795 10.2387 7.5752V7.57422L10.2211 7.39355C10.2165 7.34389 10.2131 7.30525 10.2104 7.27148C10.208 7.24183 10.206 7.22063 10.2055 7.20508C10.2142 7.19358 10.2261 7.17828 10.2436 7.15723C10.2649 7.13151 10.2902 7.10145 10.3227 7.06348L10.4389 6.92871C10.6515 6.68021 10.8487 6.45142 10.975 6.25098C11.0887 6.07055 11.2013 5.82595 11.1577 5.54297L11.1293 5.41992L11.0815 5.2998C10.9546 5.03915 10.7192 4.90539 10.52 4.82715C10.302 4.74159 10.0101 4.67768 9.69965 4.60742H9.69867L9.53363 4.56934L9.52972 4.56836L9.41351 4.54199C9.39486 4.53751 9.38083 4.53239 9.36957 4.5293C9.36263 4.5182 9.35399 4.50399 9.3432 4.48535C9.32646 4.4564 9.30707 4.42179 9.28265 4.37793L9.19574 4.22168C9.03494 3.93267 8.88819 3.66603 8.74457 3.47852C8.61855 3.31399 8.42303 3.11401 8.13129 3.06641L8.00043 3.05566Z" stroke="#272830"/>
<path d="M12.2166 11.308C12.4989 12.3386 12.6991 13.0718 12.7869 13.6176C12.877 14.1786 12.8209 14.402 12.7478 14.5111V14.5121C12.6846 14.6065 12.6063 14.685 12.5183 14.7455L12.4265 14.8002C12.3388 14.8444 12.151 14.8742 11.6521 14.6859C11.1666 14.5026 10.5266 14.1696 9.6189 13.6967H9.61792C9.05825 13.4056 8.66275 13.1902 8.23022 13.1439C8.07739 13.1276 7.9231 13.1276 7.77026 13.1439C7.33772 13.1901 6.94219 13.4038 6.38159 13.6967C5.47403 14.1696 4.83386 14.5026 4.34839 14.6859C3.97263 14.8278 3.77294 14.8461 3.65991 14.8275L3.573 14.8002C3.44733 14.7359 3.33602 14.6382 3.25171 14.5121C3.17868 14.4028 3.12345 14.178 3.21362 13.6166C3.30132 13.0709 3.50166 12.3382 3.78394 11.308L3.94019 10.7357C5.13296 11.433 6.52025 11.8333 7.99976 11.8334C9.4792 11.8334 10.8668 11.4321 12.0593 10.7347L12.2166 11.308Z" stroke="#272830"/>
</svg>
