<svg width="24" height="24" viewBox="0 0 24 24" fill="none" xmlns="http://www.w3.org/2000/svg">
<path d="M11.9997 0.5C14.3423 0.5 16.5892 1.43055 18.2458 3.08691C19.9023 4.74341 20.8336 6.99038 20.8337 9.33301C20.8337 11.6758 19.9024 13.9225 18.2458 15.5791C16.5892 17.2357 14.3424 18.167 11.9997 18.167C9.65707 18.1669 7.4101 17.2356 5.7536 15.5791C4.09724 13.9226 3.16669 11.6756 3.16669 9.33301C3.16678 6.99038 4.09711 4.74341 5.7536 3.08691C7.4101 1.43042 9.65707 0.500088 11.9997 0.5ZM11.9997 4.83301C11.5711 4.83315 11.2837 5.10638 11.0817 5.37012C10.9809 5.50179 10.8777 5.66258 10.7692 5.8457L10.4245 6.4541L10.2936 6.68848C10.2182 6.82398 10.1756 6.9008 10.1393 6.95508C10.1234 6.97896 10.1128 6.99157 10.1071 6.99805C10.1045 7.00093 10.103 7.00322 10.1022 7.00391L10.0983 7.00586L10.0934 7.00879C10.0871 7.01184 10.0734 7.01723 10.0475 7.02539C9.98856 7.04402 9.9077 7.0628 9.76141 7.0957L9.75848 7.09668L9.5036 7.15527C9.02958 7.26253 8.61566 7.3549 8.31122 7.47461C8.03619 7.58278 7.75214 7.75085 7.60126 8.06152L7.54559 8.20312C7.42135 8.60126 7.56814 8.95531 7.74872 9.24219C7.9261 9.52395 8.2073 9.851 8.53192 10.2305L8.70575 10.4326V10.4336C8.80645 10.5512 8.86313 10.6166 8.90204 10.6699C8.91937 10.6937 8.92799 10.7088 8.93231 10.7168C8.93581 10.7233 8.9369 10.7266 8.93719 10.7275C8.9436 10.7486 8.94824 10.7799 8.91669 11.1152L8.89032 11.3857V11.3867C8.84122 11.8939 8.79821 12.3293 8.81317 12.6641C8.82819 12.9994 8.90566 13.382 9.24091 13.6357C9.58371 13.8951 9.97306 13.8536 10.2936 13.7617C10.6078 13.6716 10.9955 13.4917 11.4401 13.2871L11.6755 13.1787C11.8153 13.1148 11.8928 13.0796 11.9528 13.0576C11.9788 13.0481 11.9932 13.0443 11.9997 13.043C12.0059 13.0442 12.0205 13.0477 12.0475 13.0576C12.1075 13.0796 12.1843 13.1149 12.3239 13.1787V13.1777L12.5602 13.2871C13.0051 13.4918 13.3924 13.6716 13.7067 13.7617C13.9869 13.842 14.3209 13.8849 14.6296 13.7197L14.7595 13.6357C15.0945 13.382 15.1722 12.9993 15.1872 12.6641C15.2022 12.3293 15.1591 11.8939 15.11 11.3867V11.3857L15.0827 11.1152C15.0516 10.7842 15.0569 10.7496 15.0632 10.7285C15.0634 10.7276 15.0641 10.7241 15.0681 10.7168C15.0726 10.7084 15.0811 10.6935 15.0983 10.6699C15.1372 10.6165 15.1945 10.5506 15.2946 10.4336V10.4326L15.4684 10.2305C15.7929 9.85121 16.0743 9.52374 16.2516 9.24219C16.4324 8.95505 16.5786 8.6012 16.4548 8.20312C16.329 7.79927 16.0027 7.59713 15.6882 7.47363C15.3837 7.35414 14.9695 7.26247 14.4958 7.15527H14.4968L14.2438 7.09668L14.2399 7.0957L13.9509 7.02539C13.9248 7.01722 13.911 7.01168 13.905 7.00879C13.9025 7.00757 13.9013 7.00696 13.9011 7.00684L13.8942 7C13.8884 6.99339 13.8774 6.98055 13.861 6.95605C13.8246 6.9014 13.7812 6.82399 13.7057 6.68848L13.5759 6.4541C13.3307 6.01341 13.1202 5.63338 12.9186 5.37012C12.7166 5.10631 12.4285 4.83301 11.9997 4.83301Z" stroke="#FFD710"/>
<path d="M18.5656 16.896C18.9876 18.436 19.2926 19.551 19.4269 20.3862C19.5637 21.2367 19.4966 21.6573 19.3303 21.9058L19.3293 21.9067C19.2171 22.0745 19.0778 22.2157 18.9191 22.3247L18.7541 22.4224C18.5218 22.5405 18.1501 22.5492 17.3898 22.2622C16.6442 21.9807 15.6681 21.4734 14.3127 20.7671H14.3117C13.5608 20.3765 13.0501 20.103 12.5383 19.9985L12.3185 19.9644C12.1069 19.9417 11.8935 19.9417 11.6818 19.9644C11.0908 20.0274 10.5455 20.3185 9.68671 20.7671C8.33163 21.4732 7.35607 21.9807 6.61053 22.2622C5.84983 22.5494 5.47757 22.5406 5.2453 22.4224H5.24628C5.01882 22.3061 4.81976 22.1306 4.6701 21.9067C4.50399 21.6582 4.43684 21.2369 4.57343 20.3862C4.70758 19.551 5.01187 18.4358 5.43378 16.896L5.75702 15.7173C7.57051 16.8459 9.70958 17.5005 12.0002 17.5005C14.2903 17.5005 16.4297 16.8456 18.2424 15.7173L18.5656 16.896Z" stroke="#FFD710"/>
</svg>
