<svg width="14" height="14" viewBox="0 0 14 14" fill="none" xmlns="http://www.w3.org/2000/svg">
<path d="M6.20865 3.66744H10.168M10.168 6.83494H6.20865M10.168 10.0024H6.20865M2.24928 13.1699H11.7518C12.1718 13.1699 12.5746 13.0031 12.8717 12.7061C13.1687 12.4091 13.3355 12.0062 13.3355 11.5862V2.08369C13.3355 1.66365 13.1687 1.26082 12.8717 0.963809C12.5746 0.666798 12.1718 0.499939 11.7518 0.499939H2.24928C1.82924 0.499939 1.42641 0.666798 1.1294 0.963809C0.832386 1.26082 0.665527 1.66365 0.665527 2.08369V11.5862C0.665527 12.0062 0.832386 12.4091 1.1294 12.7061C1.42641 13.0031 1.82924 13.1699 2.24928 13.1699Z" stroke="#C9C9C9" stroke-linecap="round" stroke-linejoin="round"/>
</svg>
