<svg width="22" height="22" viewBox="0 0 22 22" fill="none" xmlns="http://www.w3.org/2000/svg">
<path d="M8.53428 9.27589C10.4387 9.27589 11.9826 7.73204 11.9826 5.82761C11.9826 3.92318 10.4387 2.37933 8.53428 2.37933C6.62984 2.37933 5.086 3.92318 5.086 5.82761C5.086 7.73204 6.62984 9.27589 8.53428 9.27589Z" stroke="#24D6A5" stroke-width="1.5"/>
<path d="M13.7067 8.41381C14.3926 8.41381 15.0504 8.14133 15.5355 7.65633C16.0205 7.17132 16.2929 6.51351 16.2929 5.8276C16.2929 5.1417 16.0205 4.48388 15.5355 3.99888C15.0504 3.51387 14.3926 3.24139 13.7067 3.24139" stroke="#24D6A5" stroke-width="1.5" stroke-linecap="round"/>
<path d="M8.5343 18.7587C11.8671 18.7587 14.5688 17.2148 14.5688 15.3104C14.5688 13.406 11.8671 11.8621 8.5343 11.8621C5.20155 11.8621 2.49982 13.406 2.49982 15.3104C2.49982 17.2148 5.20155 18.7587 8.5343 18.7587Z" stroke="#24D6A5" stroke-width="1.5"/>
<path d="M16.2929 12.7242C17.805 13.0561 18.8791 13.8957 18.8791 14.8794C18.8791 15.7673 18.005 16.5371 16.7239 16.9225" stroke="#24D6A5" stroke-width="1.5" stroke-linecap="round"/>
</svg>
