<svg width="64" height="72" viewBox="0 0 64 72" fill="none" xmlns="http://www.w3.org/2000/svg">
<path d="M55.1291 27.5796C57.0678 27.7657 58.7506 28.0138 60.4412 28.0526C61.2942 28.0681 61.7129 28.3085 61.9223 29.0995C62.4884 31.2321 63.0855 33.3647 63.6982 35.5903C59.0143 36.265 54.7801 35.7609 50.7166 34.0316C49.9101 33.6904 49.3828 33.7524 48.6693 34.2875C38.6501 41.833 24.8387 41.7554 14.8505 34.1324C14.3232 33.7292 13.9199 33.6594 13.284 33.9075C8.60011 35.7764 4.017 36.3348 0 35.4895C0.67467 33.1398 1.32608 30.8056 2.03952 28.4869C2.10156 28.2775 2.59787 28.1147 2.90031 28.0836C4.24965 27.9518 5.59899 27.8975 6.94057 27.7579C7.39811 27.7114 7.84013 27.502 8.39073 27.3392C7.84013 26.3311 7.31281 25.4237 6.85527 24.4854C4.68392 20.0652 3.52845 15.42 3.99374 10.4724C4.55209 4.50896 9.91843 -0.143937 16.0603 0.00340468C22.396 0.158501 27.6925 5.30771 27.7158 11.6512C27.739 17.7852 25.7383 23.1981 21.6748 27.82C21.4188 28.1147 21.1707 28.4249 20.9148 28.7273C27.0799 33.1941 36.7501 33.1165 42.7834 28.7118C42.5042 28.3861 42.2173 28.0759 41.9459 27.7579C37.6807 22.7406 35.4473 16.9787 36.1298 10.3639C36.7579 4.22979 41.9769 -0.128427 48.1497 0.0189147C54.7336 0.181766 59.8285 5.36975 59.8208 11.9769C59.8208 17.1804 58.4094 22.0116 55.734 26.4784C55.6021 26.6955 55.4858 26.9127 55.1213 27.5563L55.1291 27.5796ZM15.2305 23.2989C18.3247 20.0186 19.8989 16.3196 19.9144 11.9846C19.9222 9.72021 18.2083 7.92884 15.9672 7.78925C13.8967 7.65742 11.8106 9.379 11.7253 11.5659C11.5702 15.7767 12.78 19.6309 15.2305 23.2989ZM48.4987 23.2989C50.926 19.5999 52.1512 15.7612 51.9884 11.5426C51.9108 9.60388 50.2823 8.06843 48.2738 7.81252C46.56 7.58763 44.5438 8.73535 44.1172 10.5267C43.8148 11.7907 43.8691 13.2099 44.0474 14.5204C44.4972 17.8705 46.0404 20.7243 48.4987 23.3067V23.2989Z" fill="white"/>
<path d="M63.4717 44.1206C61.9983 58.4438 49.2261 71.8985 32.0647 71.9993C15.2367 72.1001 2.02247 59.3279 0.18457 44.1982H7.84634C8.46673 46.0206 8.93202 47.8817 9.71525 49.5956C13.3988 57.6838 19.6337 62.6004 28.4587 63.911C39.1681 65.5007 49.5441 59.7389 53.879 49.929C54.6002 48.3005 54.9802 46.5324 55.5541 44.8418C55.6471 44.5627 55.9496 44.1517 56.1589 44.1517C58.5707 44.1051 60.9824 44.1206 63.4717 44.1206Z" fill="#E84D5E"/>
</svg>
