<svg width="306" height="88" viewBox="0 0 306 88" fill="none" xmlns="http://www.w3.org/2000/svg">
<g clip-path="url(#clip0_2427_28044)">
<path d="M304.3 77.851C304.3 82.5409 300.405 86.3396 295.587 86.3396H10.4253C5.60935 86.3396 1.7002 82.5409 1.7002 77.851V10.1595C1.7002 5.47214 5.60935 1.66016 10.4253 1.66016H295.584C300.405 1.66016 304.298 5.47214 304.298 10.1595L304.3 77.851Z" fill="black"/>
<path d="M294.667 1.76274C299.914 1.76274 304.184 5.90699 304.184 11V77C304.184 82.0933 299.914 86.2372 294.667 86.2372H11.3333C6.086 86.2372 1.81617 82.0933 1.81617 77V11C1.81617 5.90699 6.086 1.76274 11.3333 1.76274H294.667ZM294.667 0H11.3333C5.10283 0 0 4.95275 0 11V77C0 83.0472 5.10283 88 11.3333 88H294.667C300.897 88 306 83.0472 306 77V11C306 4.95275 300.897 0 294.667 0Z" fill="#A6A6A6"/>
<path d="M68.2903 43.5246C68.2245 36.434 74.272 32.9844 74.5485 32.8238C71.1236 27.9772 65.8151 27.315 63.9496 27.2622C59.4911 26.8068 55.1663 29.8516 52.8951 29.8516C50.5785 29.8516 47.0811 27.3062 43.3116 27.381C38.4609 27.4536 33.9231 30.1794 31.4343 34.4122C26.298 43.0428 30.1287 55.7258 35.0496 62.7021C37.5112 66.1189 40.3876 69.9333 44.1525 69.7991C47.8359 69.6518 49.2117 67.5201 53.6567 67.5201C58.0608 67.5201 59.3528 69.7991 63.1925 69.7133C67.1456 69.6518 69.6344 66.2813 72.0099 62.8341C74.8545 58.9181 75.9969 55.0614 76.0423 54.8634C75.9493 54.8326 68.3651 52.0232 68.2903 43.5246Z" fill="white"/>
<path d="M61.0368 22.673C63.0179 20.2684 64.3733 16.997 63.9971 13.6772C61.1297 13.8004 57.5439 15.6022 55.4789 17.954C53.652 20.0264 52.02 23.4232 52.4416 26.6176C55.6625 26.8508 58.9696 25.0402 61.0368 22.673Z" fill="white"/>
<path d="M111.18 22.0196C111.18 24.609 110.38 26.5582 108.782 27.8672C107.302 29.075 105.198 29.68 102.474 29.68C101.123 29.68 99.9669 29.6228 98.999 29.5084V15.3602C100.262 15.1622 101.622 15.061 103.09 15.061C105.686 15.061 107.642 15.6088 108.961 16.7044C110.439 17.943 111.18 19.714 111.18 22.0196ZM108.675 22.0834C108.675 20.4048 108.218 19.1178 107.302 18.2202C106.386 17.3248 105.049 16.876 103.288 16.876C102.54 16.876 101.903 16.9244 101.374 17.0256V27.7814C101.667 27.8254 102.202 27.8452 102.979 27.8452C104.797 27.8452 106.2 27.3546 107.188 26.3734C108.177 25.3922 108.675 23.9622 108.675 22.0834Z" fill="white"/>
<path d="M124.46 24.2815C124.46 25.8765 123.991 27.1833 123.053 28.2085C122.069 29.2623 120.766 29.7881 119.138 29.7881C117.57 29.7881 116.321 29.2843 115.389 28.2723C114.46 27.2625 113.995 25.9887 113.995 24.4531C113.995 22.8471 114.473 21.5293 115.434 20.5063C116.396 19.4833 117.688 18.9707 119.315 18.9707C120.884 18.9707 122.144 19.4745 123.098 20.4843C124.005 21.4655 124.46 22.7327 124.46 24.2815ZM121.996 24.3563C121.996 23.3993 121.783 22.5787 121.36 21.8945C120.861 21.0673 120.151 20.6537 119.229 20.6537C118.275 20.6537 117.549 21.0673 117.051 21.8945C116.624 22.5787 116.414 23.4125 116.414 24.3981C116.414 25.3551 116.627 26.1757 117.051 26.8599C117.565 27.6871 118.281 28.1007 119.206 28.1007C120.113 28.1007 120.825 27.6805 121.337 26.8379C121.777 26.1405 121.996 25.3133 121.996 24.3563Z" fill="white"/>
<path d="M142.267 19.1816L138.924 29.5524H136.748L135.363 25.049C135.012 23.9248 134.726 22.8072 134.504 21.6984H134.461C134.255 22.838 133.969 23.9534 133.602 25.049L132.131 29.5524H129.93L126.786 19.1816H129.227L130.435 24.1118C130.728 25.2778 130.968 26.3888 131.161 27.4404H131.204C131.381 26.5736 131.673 25.4692 132.086 24.1338L133.602 19.1838H135.538L136.991 24.0282C137.342 25.2096 137.628 26.347 137.847 27.4426H137.913C138.074 26.3756 138.317 25.2382 138.639 24.0282L139.935 19.1838H142.267V19.1816Z" fill="white"/>
<path d="M154.582 29.5525H152.207V23.6125C152.207 21.7821 151.49 20.8669 150.053 20.8669C149.348 20.8669 148.78 21.1177 148.338 21.6215C147.9 22.1253 147.678 22.7193 147.678 23.3991V29.5503H145.302V22.1451C145.302 21.2343 145.273 20.2465 145.216 19.1773H147.304L147.415 20.7987H147.481C147.757 20.2949 148.17 19.8791 148.712 19.5469C149.355 19.1597 150.076 18.9639 150.865 18.9639C151.862 18.9639 152.692 19.2763 153.351 19.9033C154.172 20.6711 154.582 21.8173 154.582 23.3397V29.5525Z" fill="white"/>
<path d="M161.133 29.5527H158.76V14.4233H161.133V29.5527Z" fill="white"/>
<path d="M175.118 24.2815C175.118 25.8765 174.649 27.1833 173.71 28.2085C172.727 29.2623 171.421 29.7881 169.796 29.7881C168.225 29.7881 166.976 29.2843 166.047 28.2723C165.117 27.2625 164.653 25.9887 164.653 24.4531C164.653 22.8471 165.131 21.5293 166.092 20.5063C167.053 19.4833 168.345 18.9707 169.97 18.9707C171.541 18.9707 172.799 19.4745 173.756 20.4843C174.662 21.4655 175.118 22.7327 175.118 24.2815ZM172.652 24.3563C172.652 23.3993 172.439 22.5787 172.015 21.8945C171.519 21.0673 170.807 20.6537 169.887 20.6537C168.93 20.6537 168.205 21.0673 167.708 21.8945C167.282 22.5787 167.071 23.4125 167.071 24.3981C167.071 25.3551 167.284 26.1757 167.708 26.8599C168.223 27.6871 168.939 28.1007 169.864 28.1007C170.771 28.1007 171.48 27.6805 171.992 26.8379C172.434 26.1405 172.652 25.3133 172.652 24.3563Z" fill="white"/>
<path d="M186.615 29.5527H184.482L184.305 28.3581H184.239C183.509 29.3107 182.469 29.7881 181.118 29.7881C180.109 29.7881 179.293 29.4735 178.679 28.8487C178.122 28.2811 177.843 27.5749 177.843 26.7367C177.843 25.4695 178.387 24.5037 179.482 23.8349C180.574 23.1661 182.111 22.8383 184.09 22.8537V22.6601C184.09 21.2939 183.351 20.6119 181.871 20.6119C180.817 20.6119 179.887 20.8693 179.085 21.3797L178.602 19.8661C179.595 19.2699 180.821 18.9707 182.267 18.9707C185.06 18.9707 186.461 20.4007 186.461 23.2607V27.0799C186.461 28.1161 186.513 28.9411 186.615 29.5527ZM184.149 25.9887V24.3893C181.528 24.3453 180.218 25.0427 180.218 26.4793C180.218 27.0205 180.368 27.4253 180.674 27.6959C180.98 27.9665 181.37 28.1007 181.834 28.1007C182.356 28.1007 182.843 27.9401 183.287 27.6211C183.734 27.2999 184.008 26.8929 184.11 26.3935C184.135 26.2813 184.149 26.1449 184.149 25.9887Z" fill="white"/>
<path d="M200.113 29.5527H198.005L197.894 27.8873H197.828C197.155 29.1545 196.008 29.7881 194.396 29.7881C193.109 29.7881 192.036 29.2975 191.186 28.3163C190.336 27.3351 189.913 26.0613 189.913 24.4971C189.913 22.8185 190.373 21.4589 191.298 20.4205C192.193 19.4525 193.29 18.9685 194.596 18.9685C196.03 18.9685 197.034 19.4371 197.606 20.3765H197.651V14.4233H200.029V26.7587C200.029 27.7685 200.056 28.6991 200.113 29.5527ZM197.651 25.1791V23.4499C197.651 23.1507 197.628 22.9087 197.585 22.7239C197.452 22.1695 197.164 21.7031 196.726 21.3269C196.284 20.9507 195.752 20.7615 195.137 20.7615C194.251 20.7615 193.557 21.1025 193.047 21.7867C192.542 22.4709 192.286 23.3443 192.286 24.4113C192.286 25.4365 192.528 26.2681 193.016 26.9083C193.53 27.5903 194.224 27.9313 195.092 27.9313C195.872 27.9313 196.495 27.6475 196.969 27.0777C197.427 26.5519 197.651 25.9183 197.651 25.1791Z" fill="white"/>
<path d="M220.429 24.2815C220.429 25.8765 219.959 27.1833 219.021 28.2085C218.037 29.2623 216.736 29.7881 215.106 29.7881C213.54 29.7881 212.291 29.2843 211.357 28.2723C210.428 27.2625 209.963 25.9887 209.963 24.4531C209.963 22.8471 210.442 21.5293 211.403 20.5063C212.364 19.4833 213.656 18.9707 215.286 18.9707C216.852 18.9707 218.114 19.4745 219.066 20.4843C219.973 21.4655 220.429 22.7327 220.429 24.2815ZM217.967 24.3563C217.967 23.3993 217.754 22.5787 217.33 21.8945C216.829 21.0673 216.122 20.6537 215.197 20.6537C214.245 20.6537 213.52 21.0673 213.019 21.8945C212.593 22.5787 212.382 23.4125 212.382 24.3981C212.382 25.3551 212.595 26.1757 213.019 26.8599C213.533 27.6871 214.25 28.1007 215.174 28.1007C216.081 28.1007 216.795 27.6805 217.307 26.8379C217.745 26.1405 217.967 25.3133 217.967 24.3563Z" fill="white"/>
<path d="M233.202 29.5525H230.828V23.6125C230.828 21.7821 230.112 20.8669 228.673 20.8669C227.968 20.8669 227.399 21.1177 226.959 21.6215C226.519 22.1253 226.299 22.7193 226.299 23.3991V29.5503H223.922V22.1451C223.922 21.2343 223.895 20.2465 223.838 19.1773H225.923L226.034 20.7987H226.1C226.379 20.2949 226.791 19.8791 227.331 19.5469C227.977 19.1597 228.695 18.9639 229.486 18.9639C230.482 18.9639 231.311 19.2763 231.971 19.9033C232.793 20.6711 233.202 21.8173 233.202 23.3397V29.5525Z" fill="white"/>
<path d="M249.188 20.9089H246.573V25.9469C246.573 27.2273 247.037 27.8675 247.957 27.8675C248.384 27.8675 248.737 27.8323 249.016 27.7597L249.077 29.5087C248.608 29.6803 247.991 29.7661 247.232 29.7661C246.294 29.7661 245.564 29.4889 245.036 28.9345C244.505 28.3801 244.242 27.4473 244.242 26.1383V20.9089H242.681V19.1819H244.242V17.2811L246.57 16.5991V19.1797H249.186V20.9089H249.188Z" fill="white"/>
<path d="M261.764 29.5527H259.386V23.6567C259.386 21.7977 258.67 20.8671 257.235 20.8671C256.133 20.8671 255.381 21.4061 254.968 22.4841C254.898 22.7107 254.857 22.9879 254.857 23.3135V29.5505H252.484V14.4233H254.857V20.6735H254.902C255.65 19.5361 256.723 18.9685 258.112 18.9685C259.096 18.9685 259.909 19.2809 260.555 19.9079C261.36 20.6889 261.764 21.8505 261.764 23.3861V29.5527Z" fill="white"/>
<path d="M274.736 23.8765C274.736 24.2901 274.704 24.6377 274.648 24.9215H267.523C267.555 25.9467 267.895 26.7277 268.555 27.2689C269.158 27.7529 269.935 27.9949 270.887 27.9949C271.941 27.9949 272.902 27.8321 273.768 27.5043L274.14 29.1059C273.127 29.5327 271.934 29.7461 270.554 29.7461C268.899 29.7461 267.596 29.2731 266.653 28.3271C265.706 27.3811 265.236 26.1117 265.236 24.5189C265.236 22.9547 265.674 21.6523 266.556 20.6139C267.476 19.5051 268.72 18.9507 270.291 18.9507C271.828 18.9507 272.995 19.5051 273.784 20.6139C274.421 21.4939 274.736 22.5829 274.736 23.8765ZM272.469 23.2803C272.487 22.5961 272.331 22.0065 272.009 21.5093C271.597 20.8691 270.969 20.5479 270.119 20.5479C269.344 20.5479 268.711 20.8603 268.228 21.4873C267.834 21.9867 267.6 22.5829 267.523 23.2803H272.469Z" fill="white"/>
<path d="M121.595 69.3091H116.448L113.628 60.7088H103.827L101.141 69.3091H96.1294L105.84 40.0312H111.837L121.595 69.3091ZM112.778 57.1008L110.228 49.456C109.958 48.675 109.453 46.8358 108.707 43.9406H108.616C108.32 45.1858 107.841 47.025 107.184 49.456L104.679 57.1008H112.778Z" fill="white"/>
<path d="M146.567 58.4934C146.567 62.084 145.568 64.922 143.569 67.0052C141.778 68.86 139.554 69.7862 136.9 69.7862C134.035 69.7862 131.977 68.7872 130.723 66.7897H130.633V77.911H125.8V55.1474C125.8 52.8902 125.739 50.5736 125.621 48.1976H129.871L130.141 51.5438H130.231C131.843 49.0226 134.289 47.7642 137.571 47.7642C140.137 47.7642 142.279 48.7476 143.992 50.7166C145.711 52.6878 146.567 55.2794 146.567 58.4934ZM141.644 58.6649C141.644 56.6105 141.168 54.9164 140.212 53.5832C139.167 52.1928 137.764 51.4976 136.005 51.4976C134.812 51.4976 133.729 51.8848 132.761 52.6482C131.791 53.4182 131.156 54.4236 130.859 55.6688C130.71 56.2496 130.635 56.725 130.635 57.099V60.619C130.635 62.1545 131.12 63.4502 132.09 64.5085C133.06 65.5667 134.321 66.0947 135.871 66.0947C137.691 66.0947 139.108 65.4127 140.121 64.0532C141.136 62.6909 141.644 60.896 141.644 58.6649Z" fill="white"/>
<path d="M171.585 58.4934C171.585 62.084 170.585 64.922 168.584 67.0052C166.795 68.86 164.572 69.7862 161.917 69.7862C159.052 69.7862 156.994 68.7872 155.743 66.7897H155.652V77.911H150.82V55.1474C150.82 52.8902 150.758 50.5736 150.641 48.1976H154.891L155.16 51.5438H155.251C156.86 49.0226 159.306 47.7642 162.59 47.7642C165.154 47.7642 167.296 48.7476 169.014 50.7166C170.726 52.6878 171.585 55.2794 171.585 58.4934ZM166.661 58.6649C166.661 56.6105 166.183 54.9164 165.227 53.5832C164.182 52.1928 162.783 51.4976 161.022 51.4976C159.827 51.4976 158.746 51.8848 157.776 52.6482C156.806 53.4182 156.174 54.4236 155.877 55.6688C155.729 56.2496 155.652 56.725 155.652 57.099V60.619C155.652 62.1545 156.137 63.4502 157.103 64.5085C158.073 65.5645 159.333 66.0947 160.888 66.0947C162.708 66.0947 164.125 65.4127 165.138 64.0532C166.154 62.6909 166.661 60.896 166.661 58.6649Z" fill="white"/>
<path d="M199.555 61.0984C199.555 63.5889 198.664 65.6146 196.876 67.1788C194.911 68.8886 192.175 69.7421 188.659 69.7421C185.413 69.7421 182.811 69.1346 180.841 67.9184L181.961 64.0086C184.083 65.2541 186.411 65.8786 188.947 65.8786C190.767 65.8786 192.184 65.4786 193.201 64.6821C194.215 63.8856 194.72 62.8166 194.72 61.4831C194.72 60.2951 194.303 59.2944 193.467 58.4826C192.635 57.6709 191.245 56.9161 189.305 56.2186C184.024 54.3068 181.385 51.5062 181.385 47.8234C181.385 45.4166 182.31 43.4432 184.162 41.9076C186.007 40.3698 188.469 39.6021 191.547 39.6021C194.292 39.6021 196.572 40.0662 198.392 40.9924L197.184 44.816C195.484 43.9184 193.562 43.4696 191.411 43.4696C189.711 43.4696 188.383 43.8766 187.431 44.6862C186.626 45.41 186.222 46.2922 186.222 47.3372C186.222 48.4944 186.683 49.4515 187.607 50.2038C188.412 50.899 189.874 51.6515 191.996 52.4633C194.591 53.4775 196.497 54.6632 197.723 56.0229C198.945 57.3781 199.555 59.0744 199.555 61.0984Z" fill="white"/>
<path d="M215.533 51.7177H210.206V61.9674C210.206 64.5747 211.145 65.8772 213.026 65.8772C213.89 65.8772 214.606 65.8044 215.173 65.6589L215.306 69.2212C214.354 69.5664 213.101 69.7402 211.548 69.7402C209.64 69.7402 208.148 69.1749 207.072 68.0462C205.999 66.9151 205.46 65.0192 205.46 62.3549V51.7133H202.287V48.1933H205.46V44.3279L210.206 42.9375V48.1933H215.533V51.7177Z" fill="white"/>
<path d="M239.566 58.5794C239.566 61.8247 238.61 64.489 236.701 66.5722C234.7 68.7169 232.043 69.7865 228.731 69.7865C225.54 69.7865 222.999 68.7592 221.104 66.7042C219.209 64.6492 218.262 62.0554 218.262 58.9292C218.262 55.658 219.236 52.9784 221.193 50.895C223.144 48.8094 225.778 47.7666 229.09 47.7666C232.281 47.7666 234.849 48.794 236.787 50.851C238.641 52.8464 239.566 55.4226 239.566 58.5794ZM234.552 58.7312C234.552 56.7845 234.124 55.1146 233.256 53.722C232.243 52.0368 230.794 51.1964 228.917 51.1964C226.975 51.1964 225.499 52.039 224.486 53.722C223.618 55.1168 223.189 56.8132 223.189 58.8192C223.189 60.7665 223.618 62.4362 224.486 63.8267C225.531 65.5117 226.991 66.3522 228.874 66.3522C230.719 66.3522 232.168 65.4942 233.213 63.7827C234.103 62.3634 234.552 60.6762 234.552 58.7312Z" fill="white"/>
<path d="M255.274 52.3226C254.796 52.2368 254.286 52.1928 253.751 52.1928C252.051 52.1928 250.736 52.8154 249.812 54.0628C249.007 55.1628 248.603 56.5529 248.603 58.2317V69.309H243.773L243.819 54.846C243.819 52.4128 243.757 50.1974 243.637 48.1998H247.846L248.023 52.239H248.157C248.667 50.8508 249.472 49.7332 250.573 48.895C251.65 48.1404 252.813 47.7642 254.066 47.7642C254.513 47.7642 254.916 47.795 255.274 47.85V52.3226Z" fill="white"/>
<path d="M276.887 57.7545C276.887 58.595 276.83 59.303 276.71 59.8818H262.212C262.269 61.9672 262.969 63.5625 264.316 64.6625C265.538 65.6458 267.117 66.1388 269.058 66.1388C271.204 66.1388 273.163 65.8065 274.924 65.1398L275.681 68.3958C273.623 69.2667 271.193 69.7005 268.389 69.7005C265.016 69.7005 262.369 68.737 260.442 66.8118C258.52 64.887 257.557 62.3018 257.557 59.0587C257.557 55.8756 258.452 53.2246 260.245 51.1104C262.122 48.8532 264.658 47.7246 267.85 47.7246C270.984 47.7246 273.358 48.8532 274.969 51.1104C276.245 52.9034 276.887 55.121 276.887 57.7545ZM272.279 56.5378C272.31 55.1474 271.995 53.9462 271.34 52.932C270.504 51.6274 269.219 50.9762 267.489 50.9762C265.909 50.9762 264.624 51.612 263.643 52.888C262.838 53.9022 262.36 55.1188 262.212 56.5355H272.279V56.5378Z" fill="white"/>
</g>
<defs>
<clipPath id="clip0_2427_28044">
<rect width="306" height="88" fill="white"/>
</clipPath>
</defs>
</svg>
