<svg width="306" height="88" viewBox="0 0 306 88" fill="none" xmlns="http://www.w3.org/2000/svg">
<g clip-path="url(#clip0_2427_28070)">
<path d="M294.667 88H11.3333C5.10283 88 0 83.0472 0 77V11C0 4.95275 5.10283 0 11.3333 0H294.667C300.897 0 306 4.95275 306 11V77C306 83.0472 300.897 88 294.667 88Z" fill="black"/>
<path d="M294.667 1.76274C299.914 1.76274 304.184 5.90699 304.184 11V77C304.184 82.0933 299.914 86.2372 294.667 86.2372H11.3333C6.086 86.2372 1.81617 82.0933 1.81617 77V11C1.81617 5.90699 6.086 1.76274 11.3333 1.76274H294.667ZM294.667 0H11.3333C5.10283 0 0 4.95275 0 11V77C0 83.0472 5.10283 88 11.3333 88H294.667C300.897 88 306 83.0472 306 77V11C306 4.95275 300.897 0 294.667 0Z" fill="#A6A6A6"/>
<path d="M23.6527 16.5853C22.9869 17.2618 22.6016 18.3151 22.6016 19.6791V68.3321C22.6016 69.6961 22.9869 70.7492 23.6527 71.4256L23.8171 71.5745L51.9067 44.3218V43.6783L23.8171 16.4258L23.6527 16.5853Z" fill="url(#paint0_linear_2427_28070)"/>
<path d="M61.2596 53.4104L51.9067 44.3216V43.6781L61.271 34.5894L61.4806 34.7076L72.5703 40.8318C75.7351 42.5698 75.7351 45.4298 72.5703 47.1788L61.4806 53.2921L61.2596 53.4104Z" fill="url(#paint1_linear_2427_28070)"/>
<path d="M61.4807 53.2922L51.9068 44L23.6528 71.4255C24.704 72.4985 26.4182 72.6276 28.3675 71.5547L61.4807 53.2922Z" fill="url(#paint2_linear_2427_28070)"/>
<path d="M61.4807 34.708L28.3675 16.4452C26.4182 15.3837 24.704 15.513 23.6528 16.5854L51.9068 44.0002L61.4807 34.708Z" fill="url(#paint3_linear_2427_28070)"/>
<path d="M107.48 22.5363C107.48 24.3733 106.913 25.8445 105.797 26.9418C104.513 28.2425 102.842 28.897 100.793 28.897C98.8353 28.897 97.1636 28.2315 95.7923 26.9198C94.4181 25.5888 93.7324 23.9553 93.7324 22C93.7324 20.0448 94.4181 18.4113 95.7923 17.0913C97.1636 15.7686 98.8353 15.103 100.793 15.103C101.768 15.103 102.697 15.2983 103.584 15.6613C104.468 16.027 105.188 16.522 105.709 17.1325L104.525 18.293C103.615 17.2508 102.377 16.7366 100.793 16.7366C99.3651 16.7366 98.1269 17.2205 97.0758 18.1968C96.0359 19.1758 95.5146 20.4435 95.5146 22C95.5146 23.5565 96.0359 24.8353 97.0758 25.8143C98.1269 26.7795 99.3651 27.2745 100.793 27.2745C102.309 27.2745 103.584 26.7795 104.59 25.8033C105.253 25.157 105.63 24.266 105.729 23.1275H100.793V21.538H107.378C107.457 21.8818 107.48 22.2145 107.48 22.5363Z" fill="white" stroke="white" stroke-width="0.16" stroke-miterlimit="10"/>
<path d="M117.926 17.025H111.741V21.205H117.317V22.7945H111.741V26.9745H117.926V28.5943H109.99V15.4053H117.926V17.025Z" fill="white" stroke="white" stroke-width="0.16" stroke-miterlimit="10"/>
<path d="M125.299 28.5943H123.548V17.025H119.754V15.4053H129.095V17.025H125.299V28.5943Z" fill="white" stroke="white" stroke-width="0.16" stroke-miterlimit="10"/>
<path d="M135.855 28.5943V15.4053H137.604V28.5943H135.855Z" fill="white" stroke="white" stroke-width="0.16" stroke-miterlimit="10"/>
<path d="M145.353 28.5943H143.616V17.025H139.808V15.4053H149.161V17.025H145.353V28.5943Z" fill="white" stroke="white" stroke-width="0.16" stroke-miterlimit="10"/>
<path d="M166.847 26.8978C165.506 28.2315 163.846 28.897 161.866 28.897C159.874 28.897 158.213 28.2315 156.873 26.8978C155.536 25.5668 154.87 23.9333 154.87 22C154.87 20.0668 155.536 18.4333 156.873 17.1023C158.213 15.7685 159.874 15.103 161.866 15.103C163.835 15.103 165.495 15.7685 166.835 17.1133C168.184 18.4553 168.85 20.0778 168.85 22C168.85 23.9333 168.184 25.5668 166.847 26.8978ZM158.168 25.7923C159.177 26.7795 160.404 27.2745 161.866 27.2745C163.316 27.2745 164.554 26.7795 165.552 25.7923C166.558 24.805 167.068 23.5373 167.068 22C167.068 20.4628 166.558 19.195 165.552 18.2078C164.554 17.2206 163.316 16.7255 161.866 16.7255C160.404 16.7255 159.177 17.2206 158.168 18.2078C157.162 19.195 156.652 20.4628 156.652 22C156.652 23.5373 157.162 24.805 158.168 25.7923Z" fill="white" stroke="white" stroke-width="0.16" stroke-miterlimit="10"/>
<path d="M171.306 28.5943V15.4053H173.431L180.038 25.6628H180.115L180.038 23.1273V15.4053H181.787V28.5943H179.962L173.043 17.8308H172.966L173.043 20.3773V28.5943H171.306Z" fill="white" stroke="white" stroke-width="0.16" stroke-miterlimit="10"/>
<path d="M154.439 47.8557C149.115 47.8557 144.766 51.7882 144.766 57.2137C144.766 62.5958 149.115 66.5693 154.439 66.5693C159.774 66.5693 164.124 62.5958 164.124 57.2137C164.124 51.7882 159.774 47.8557 154.439 47.8557ZM154.439 62.8846C151.518 62.8846 149.005 60.5441 149.005 57.2137C149.005 53.8397 151.518 51.5407 154.439 51.5407C157.36 51.5407 159.885 53.8397 159.885 57.2137C159.885 60.5441 157.36 62.8846 154.439 62.8846ZM133.334 47.8557C127.999 47.8557 123.661 51.7882 123.661 57.2137C123.661 62.5958 127.999 66.5693 133.334 66.5693C138.666 66.5693 143.007 62.5958 143.007 57.2137C143.007 51.7882 138.666 47.8557 133.334 47.8557ZM133.334 62.8846C130.41 62.8846 127.888 60.5441 127.888 57.2137C127.888 53.8397 130.41 51.5407 133.334 51.5407C136.255 51.5407 138.768 53.8397 138.768 57.2137C138.768 60.5441 136.255 62.8846 133.334 62.8846ZM108.219 50.7239V54.7004H118.003C117.716 56.9226 116.951 58.5557 115.778 59.6946C114.35 61.0693 112.126 62.5958 108.219 62.5958C102.198 62.5958 97.4836 57.8793 97.4836 52.0357C97.4836 46.192 102.198 41.4757 108.219 41.4757C111.475 41.4757 113.843 42.7104 115.591 44.311L118.479 41.5087C116.033 39.2427 112.781 37.502 108.219 37.502C99.9628 37.502 93.0239 44.0222 93.0239 52.0357C93.0239 60.0494 99.9628 66.5693 108.219 66.5693C112.682 66.5693 116.033 65.1506 118.668 62.4886C121.369 59.8678 122.21 56.1827 122.21 53.2072C122.21 52.2832 122.131 51.4334 121.989 50.7239H108.219ZM210.916 53.8067C210.12 51.714 207.663 47.8557 202.66 47.8557C197.701 47.8557 193.573 51.648 193.573 57.2137C193.573 62.4553 197.659 66.5693 203.136 66.5693C207.564 66.5693 210.12 63.9485 211.171 62.4226L207.884 60.2965C206.788 61.8534 205.295 62.8846 203.136 62.8846C200.991 62.8846 199.452 61.9301 198.466 60.0494L211.361 54.8709L210.916 53.8067ZM197.769 56.9226C197.659 53.3144 200.657 51.4664 202.804 51.4664C204.487 51.4664 205.915 52.2832 206.391 53.452L197.769 56.9226ZM187.289 66.0001H191.528V38.5002H187.289V66.0001ZM180.347 49.9402H180.206C179.254 48.8457 177.437 47.8557 175.137 47.8557C170.309 47.8557 165.894 51.9697 165.894 57.2441C165.894 62.4886 170.309 66.5693 175.137 66.5693C177.437 66.5693 179.254 65.5714 180.206 64.4438H180.347V65.7858C180.347 69.3633 178.378 71.2858 175.202 71.2858C172.612 71.2858 171.006 69.4705 170.343 67.9446L166.657 69.4378C167.719 71.9181 170.533 74.9705 175.202 74.9705C180.172 74.9705 184.365 72.1325 184.365 65.2273V48.425H180.347V49.9402ZM175.499 62.8846C172.578 62.8846 170.133 60.5114 170.133 57.2441C170.133 53.9469 172.578 51.5407 175.499 51.5407C178.378 51.5407 180.648 53.9469 180.648 57.2441C180.648 60.5114 178.378 62.8846 175.499 62.8846ZM230.761 38.5002H220.623V66.0001H224.85V55.5804H230.761C235.456 55.5804 240.06 52.2832 240.06 47.039C240.06 41.7974 235.444 38.5002 230.761 38.5002ZM230.871 51.7552H224.85V42.3254H230.871C234.028 42.3254 235.83 44.8692 235.83 47.039C235.83 49.1674 234.028 51.7552 230.871 51.7552ZM257.003 47.8034C253.949 47.8034 250.773 49.1124 249.466 52.0137L253.218 53.5399C254.025 52.0137 255.51 51.5187 257.08 51.5187C259.273 51.5187 261.497 52.7974 261.531 55.0552V55.3439C260.766 54.915 259.128 54.2797 257.114 54.2797C253.073 54.2797 248.956 56.4386 248.956 60.4674C248.956 64.1521 252.266 66.5253 255.986 66.5253C258.831 66.5253 260.4 65.2798 261.386 63.8306H261.531V65.9561H265.614V55.4072C265.614 50.5314 261.862 47.8034 257.003 47.8034ZM256.493 62.8733C255.11 62.8733 253.184 62.2077 253.184 60.5441C253.184 58.4158 255.586 57.599 257.666 57.599C259.528 57.599 260.4 57.9978 261.531 58.523C261.199 61.0693 258.941 62.8733 256.493 62.8733ZM280.489 48.4057L275.629 60.327H275.485L270.461 48.4057H265.903L273.451 65.0654L269.144 74.3353H273.561L285.192 48.4057H280.489ZM242.383 66.0001H246.622V38.5002H242.383V66.0001Z" fill="white"/>
</g>
<defs>
<linearGradient id="paint0_linear_2427_28070" x1="49.4127" y1="68.8386" x2="12.5079" y2="30.8156" gradientUnits="userSpaceOnUse">
<stop stop-color="#00A0FF"/>
<stop offset="0.0066" stop-color="#00A1FF"/>
<stop offset="0.2601" stop-color="#00BEFF"/>
<stop offset="0.5122" stop-color="#00D2FF"/>
<stop offset="0.7604" stop-color="#00DFFF"/>
<stop offset="1" stop-color="#00E3FF"/>
</linearGradient>
<linearGradient id="paint1_linear_2427_28070" x1="76.6911" y1="43.9968" x2="21.8451" y2="43.9968" gradientUnits="userSpaceOnUse">
<stop stop-color="#FFE000"/>
<stop offset="0.4087" stop-color="#FFBD00"/>
<stop offset="0.7754" stop-color="#FFA500"/>
<stop offset="1" stop-color="#FF9C00"/>
</linearGradient>
<linearGradient id="paint2_linear_2427_28070" x1="56.2747" y1="38.9486" x2="6.22876" y2="-12.6139" gradientUnits="userSpaceOnUse">
<stop stop-color="#FF3A44"/>
<stop offset="1" stop-color="#C31162"/>
</linearGradient>
<linearGradient id="paint3_linear_2427_28070" x1="16.5407" y1="87.6127" x2="38.8884" y2="64.5879" gradientUnits="userSpaceOnUse">
<stop stop-color="#32A071"/>
<stop offset="0.0685" stop-color="#2DA771"/>
<stop offset="0.4762" stop-color="#15CF74"/>
<stop offset="0.8009" stop-color="#06E775"/>
<stop offset="1" stop-color="#00F076"/>
</linearGradient>
<clipPath id="clip0_2427_28070">
<rect width="306" height="88" fill="white"/>
</clipPath>
</defs>
</svg>
