<svg width="23" height="24" viewBox="0 0 23 24" fill="none" xmlns="http://www.w3.org/2000/svg">
<path d="M20.8743 4.8622C20.8739 4.85476 20.8731 4.84735 20.8718 4.84001C20.8431 4.79894 20.8078 4.76359 20.7781 4.72334C20.5639 4.43143 20.3363 4.14955 20.0961 3.87859C20.0307 3.80468 19.9644 3.73154 19.8973 3.65918C19.6503 3.3947 19.3909 3.14215 19.1199 2.90239C19.0698 2.858 19.023 2.81202 18.9728 2.76844C18.3045 2.1959 17.5728 1.70184 16.792 1.29594C16.7607 1.27952 16.7279 1.26555 16.6958 1.24909C16.3481 1.07236 15.9915 0.913555 15.6276 0.773291C15.5454 0.743728 15.4706 0.715754 15.3926 0.691103C15.0686 0.574369 14.7396 0.472098 14.4065 0.384593C14.3079 0.358304 14.2093 0.331197 14.109 0.308182C13.7803 0.231772 13.4517 0.173417 13.1156 0.12575C13.0137 0.110969 12.9134 0.0912281 12.8107 0.0789023C11.945 -0.0263008 11.0698 -0.0263008 10.2041 0.0789023C10.1014 0.0912281 10.0012 0.110969 9.89928 0.12575C9.5632 0.173417 9.23122 0.231772 8.90579 0.308182C8.80555 0.331197 8.70694 0.358304 8.60833 0.384593C8.27507 0.471428 7.94603 0.573708 7.62227 0.691103C7.54008 0.719028 7.4653 0.747002 7.38726 0.773291C7.02328 0.913543 6.66673 1.07235 6.319 1.24909C6.28693 1.26551 6.2541 1.27947 6.22285 1.29594C5.43945 1.70137 4.70522 2.19545 4.03457 2.76844C3.98445 2.81197 3.93761 2.858 3.88748 2.90239C3.61572 3.14133 3.35627 3.39392 3.11014 3.65918C3.043 3.73154 2.97671 3.80468 2.91129 3.87859C2.67048 4.14902 2.44288 4.43091 2.22927 4.72329C2.19971 4.76355 2.16437 4.79889 2.13558 4.83996C2.13181 4.84713 2.12851 4.85455 2.1257 4.86215C-0.708568 8.83421 -0.708568 14.1675 2.1257 18.1396C2.1285 18.1472 2.13177 18.1546 2.13558 18.1618C2.16432 18.2028 2.19966 18.2382 2.22927 18.2784C2.44317 18.5706 2.67076 18.8525 2.91129 19.1232C2.97671 19.1971 3.043 19.2702 3.11014 19.3426C3.35735 19.6068 3.61675 19.8593 3.88748 20.0994C3.93761 20.1438 3.98445 20.1897 4.03457 20.2333C4.70288 20.8059 5.43461 21.2999 6.21543 21.7058C6.24668 21.7222 6.27952 21.7362 6.31158 21.7527C6.65932 21.9294 7.01587 22.0882 7.37984 22.2285C7.46203 22.258 7.5368 22.286 7.61485 22.3107C7.93884 22.4274 8.26785 22.5297 8.60092 22.6172C8.69953 22.6435 8.79813 22.6706 8.89838 22.6936C9.22708 22.77 9.55574 22.8283 9.89186 22.876C9.99374 22.8908 10.094 22.9105 10.1967 22.9229C11.0624 23.0281 11.9376 23.0281 12.8033 22.9229C12.906 22.9105 13.0062 22.8908 13.1081 22.876C13.4442 22.8283 13.7762 22.77 14.1016 22.6936C14.2019 22.6706 14.3005 22.6435 14.3991 22.6172C14.7324 22.5305 15.0614 22.4282 15.3851 22.3107C15.4673 22.2827 15.5421 22.2548 15.6202 22.2285C15.9841 22.0882 16.3407 21.9294 16.6884 21.7527C16.7205 21.7362 16.7533 21.7223 16.7846 21.7058C17.5654 21.2999 18.2971 20.8058 18.9654 20.2333C19.0155 20.1897 19.0624 20.1438 19.1125 20.0994C19.3845 19.8607 19.644 19.6081 19.8899 19.3426C19.957 19.2702 20.0233 19.1971 20.0887 19.1232C20.3293 18.8525 20.5568 18.5706 20.7707 18.2784C20.8003 18.2382 20.8356 18.2028 20.8644 18.1618C20.8682 18.1546 20.8715 18.1472 20.8743 18.1396C23.7086 14.1676 23.7086 8.83426 20.8743 4.8622ZM19.9367 6.41694C20.7226 7.71121 21.1971 9.1703 21.3229 10.6792H16.4008C16.3406 9.70013 16.1865 8.72906 15.9407 7.77939C17.3311 7.51899 18.6768 7.06015 19.9367 6.41694ZM13.5946 1.86702C13.6407 1.87771 13.685 1.89249 13.731 1.90318C14.0252 1.97222 14.3169 2.05109 14.6021 2.14969C14.6456 2.16448 14.6884 2.18176 14.7311 2.19736C15.0135 2.2956 15.2917 2.40526 15.5652 2.52607C15.6128 2.54826 15.6597 2.57291 15.7074 2.59511C15.968 2.71913 16.2235 2.85374 16.4732 2.99859L16.6375 3.09802C16.8742 3.24268 17.1045 3.39759 17.3278 3.5623C17.3853 3.60419 17.4428 3.64449 17.4995 3.69047C17.7188 3.85496 17.929 4.03135 18.129 4.21885C18.1815 4.26652 18.2358 4.31336 18.2875 4.36267C18.4979 4.56234 18.6984 4.77351 18.8923 4.9921C18.917 5.02085 18.9433 5.04714 18.9679 5.07429C17.8553 5.60455 16.6766 5.98317 15.4633 6.20004C14.9012 4.65489 14.1587 3.18148 13.2512 1.8104C13.3653 1.83091 13.4821 1.84241 13.5946 1.86702ZM8.24684 10.6792C8.31165 9.79008 8.46302 8.90941 8.6988 8.04969C9.62983 8.16027 10.5666 8.21514 11.5042 8.21402C12.4427 8.21374 13.3803 8.15748 14.312 8.04555C14.5474 8.90667 14.6979 9.78875 14.7615 10.6792H8.24684ZM14.7615 12.3227C14.6967 13.2118 14.5453 14.0924 14.3095 14.9522C13.3785 14.8416 12.4417 14.7867 11.5041 14.7878C10.5658 14.7868 9.62815 14.8416 8.6963 14.9522C8.46122 14.0924 8.31066 13.2117 8.24679 12.3227H14.7615ZM11.5041 2.17603C12.4393 3.50142 13.2084 4.93645 13.7943 6.44901C13.0336 6.5298 12.2691 6.5704 11.5041 6.57063C10.74 6.56974 9.97635 6.52887 9.21644 6.44819C9.80305 4.93669 10.5713 3.50211 11.5041 2.17603ZM4.11686 4.99124C4.30998 4.77265 4.51129 4.56147 4.72165 4.3618C4.7734 4.3125 4.82767 4.26565 4.88024 4.21798C5.08286 4.03346 5.29285 3.85719 5.50968 3.68961C5.5664 3.64603 5.62389 3.60742 5.68143 3.56144C5.90492 3.3971 6.13521 3.2422 6.37167 3.09715L6.536 2.99772C6.78522 2.85203 7.04075 2.71741 7.30184 2.59424C7.34951 2.57205 7.39636 2.5474 7.44402 2.5252C7.7166 2.40228 7.99494 2.29258 8.27809 2.19649C8.3208 2.18089 8.36028 2.16361 8.40708 2.14883C8.69221 2.05349 8.9823 1.97463 9.27812 1.90231C9.32415 1.89162 9.36849 1.87684 9.41534 1.86697C9.52791 1.84232 9.64462 1.83081 9.75883 1.81025C8.85098 3.18156 8.1082 4.65524 7.5459 6.20071C6.33261 5.98385 5.15389 5.60523 4.04127 5.07497C4.06592 5.04627 4.09221 5.01998 4.11686 4.99124ZM3.07162 6.41694C4.33122 7.06011 5.67671 7.51895 7.06683 7.77939C6.82132 8.72908 6.6675 9.70015 6.6075 10.6792H1.68539C1.81125 9.17031 2.28579 7.71123 3.07162 6.41694ZM3.07162 16.585C2.28574 15.2907 1.8112 13.8316 1.68539 12.3227H6.6075C6.66777 13.3018 6.82186 14.2728 7.06765 15.2225C5.67725 15.4829 4.33148 15.9417 3.07162 16.585ZM9.4137 21.1348C9.36767 21.1241 9.32333 21.1094 9.2773 21.0987C8.98312 21.0296 8.69139 20.9508 8.40626 20.8522C8.36268 20.8374 8.31998 20.8201 8.27722 20.8045C7.99487 20.7063 7.71662 20.5966 7.44316 20.4758C7.39549 20.4536 7.34864 20.4289 7.30098 20.4067C7.04031 20.2827 6.78482 20.1481 6.53514 20.0033L6.37081 19.9038C6.13409 19.7592 5.90379 19.6043 5.68056 19.4395C5.62302 19.3977 5.56553 19.3574 5.50881 19.3114C5.2895 19.1469 5.07937 18.9705 4.87938 18.783C4.8268 18.7353 4.77254 18.6885 4.72078 18.6392C4.51042 18.4395 4.30993 18.2283 4.11599 18.0098C4.09134 17.981 4.06505 17.9547 4.0404 17.9276C5.15303 17.3973 6.33175 17.0187 7.54504 16.8018C8.10711 18.347 8.8496 19.8204 9.75709 21.1915C9.64294 21.171 9.52627 21.1595 9.4137 21.1348ZM11.5041 20.8259C10.569 19.5005 9.79989 18.0655 9.21399 16.5529C10.7358 16.3891 12.2708 16.3891 13.7926 16.5529L13.7918 16.5537C13.2052 18.0652 12.437 19.4998 11.5041 20.8259ZM18.8915 18.0106C18.6983 18.2292 18.497 18.4404 18.2867 18.6401C18.2349 18.6894 18.1807 18.7362 18.1281 18.7839C17.9258 18.9687 17.7158 19.145 17.4986 19.3122C17.4419 19.3557 17.3847 19.3984 17.3269 19.4404C17.1034 19.6048 16.8731 19.7597 16.6367 19.9047L16.4723 20.0041C16.223 20.1496 15.9675 20.2842 15.7065 20.4076C15.6588 20.4298 15.612 20.4545 15.5643 20.4767C15.2917 20.5996 15.0134 20.7093 14.7302 20.8054C14.6875 20.821 14.6481 20.8382 14.6013 20.853C14.3161 20.9484 14.026 21.0272 13.7302 21.0995C13.6842 21.1102 13.6398 21.125 13.593 21.1349C13.4804 21.1595 13.3637 21.171 13.2495 21.1916C14.157 19.8205 14.8995 18.3471 15.4616 16.802C16.6749 17.0188 17.8536 17.3974 18.9662 17.9277C18.9424 17.9556 18.9161 17.9819 18.8915 18.0106ZM19.9367 16.585C18.6771 15.9418 17.3316 15.483 15.9415 15.2225C16.187 14.2728 16.3408 13.3018 16.4008 12.3227H21.3229C21.1971 13.8316 20.7225 15.2907 19.9367 16.585Z" fill="white"/>
</svg>
