<svg width="258" height="258" viewBox="0 0 258 258" fill="none" xmlns="http://www.w3.org/2000/svg">
<g filter="url(#filter0_d_2427_28090)">
<rect x="47" y="47" width="164" height="164" rx="22" fill="#3B42EA"/>
</g>
<path d="M152.68 119.875C154.653 120.063 156.367 120.318 158.088 120.351C158.959 120.368 159.383 120.608 159.598 121.407C160.175 123.568 160.781 125.721 161.403 127.975C156.635 128.655 152.331 128.146 148.197 126.402C147.378 126.057 146.842 126.121 146.117 126.664C135.924 134.293 121.865 134.219 111.704 126.509C111.168 126.102 110.758 126.031 110.112 126.285C105.344 128.177 100.685 128.741 96.5967 127.889C97.2813 125.512 97.9444 123.149 98.6721 120.805C98.7367 120.594 99.237 120.427 99.5482 120.396C100.917 120.26 102.294 120.208 103.661 120.07C104.127 120.023 104.575 119.813 105.14 119.647C104.582 118.623 104.046 117.71 103.577 116.763C101.367 112.294 100.195 107.592 100.666 102.592C101.233 96.5603 106.694 91.8536 112.941 92.0035C119.388 92.1582 124.779 97.367 124.805 103.785C124.831 109.99 122.796 115.466 118.655 120.141C118.392 120.439 118.141 120.751 117.882 121.06C124.151 125.579 133.992 125.498 140.135 121.048C139.847 120.722 139.56 120.406 139.285 120.084C134.945 115.006 132.673 109.181 133.367 102.488C134.009 96.2795 139.321 91.875 145.595 92.0249C152.297 92.1867 157.475 97.4336 157.468 104.118C157.461 109.384 156.029 114.269 153.307 118.783C153.176 119.002 153.054 119.225 152.683 119.875H152.68ZM112.08 115.549C115.227 112.232 116.829 108.491 116.848 104.108C116.858 101.814 115.115 100.008 112.829 99.8678C110.72 99.737 108.597 101.479 108.515 103.685C108.357 107.944 109.588 111.844 112.082 115.549H112.08ZM145.927 115.556C148.398 111.818 149.645 107.934 149.477 103.663C149.401 101.702 147.744 100.151 145.695 99.8893C143.95 99.6656 141.904 100.822 141.465 102.635C141.157 103.915 141.216 105.348 141.396 106.673C141.853 110.064 143.421 112.948 145.927 115.559V115.556Z" fill="white"/>
<path d="M160.742 136.745C159.265 151.354 146.452 165.073 129.236 165.177C112.355 165.28 99.0967 152.254 97.2583 136.827H104.945C105.568 138.686 106.033 140.582 106.816 142.331C110.514 150.582 116.766 155.596 125.618 156.933C136.359 158.555 146.771 152.681 151.118 142.669C151.838 141.011 152.22 139.207 152.798 137.482C152.893 137.199 153.193 136.781 153.405 136.776C155.822 136.726 158.241 136.745 160.74 136.745H160.742Z" fill="#E84D5E"/>
<defs>
<filter id="filter0_d_2427_28090" x="0" y="0" width="258" height="258" filterUnits="userSpaceOnUse" color-interpolation-filters="sRGB">
<feFlood flood-opacity="0" result="BackgroundImageFix"/>
<feColorMatrix in="SourceAlpha" type="matrix" values="0 0 0 0 0 0 0 0 0 0 0 0 0 0 0 0 0 0 127 0" result="hardAlpha"/>
<feOffset/>
<feGaussianBlur stdDeviation="23.5"/>
<feComposite in2="hardAlpha" operator="out"/>
<feColorMatrix type="matrix" values="0 0 0 0 0.754167 0 0 0 0 0.754167 0 0 0 0 0.754167 0 0 0 1 0"/>
<feBlend mode="normal" in2="BackgroundImageFix" result="effect1_dropShadow_2427_28090"/>
<feBlend mode="normal" in="SourceGraphic" in2="effect1_dropShadow_2427_28090" result="shape"/>
</filter>
</defs>
</svg>
