<svg width="115" height="66" viewBox="0 0 115 66" fill="none" xmlns="http://www.w3.org/2000/svg">
<path d="M14.7064 62.781V65.807H0V46.3706H14.316V49.3967H3.64302V54.4499H13.1115V57.4214H3.64302V62.781H14.7064Z" fill="white"/>
<path d="M32.2415 50.9788L25.8284 65.8068H22.2148L15.8018 50.9788H19.4448L24.0951 61.975L28.8839 50.9788H32.2457H32.2415Z" fill="white"/>
<path d="M48.0135 59.5028H36.2786C36.6983 61.6685 38.5198 63.0577 41.1262 63.0577C42.805 63.0577 44.1229 62.5289 45.1889 61.4461L47.065 63.5823C45.7219 65.1646 43.6192 65.9998 41.0423 65.9998C36.0268 65.9998 32.7783 62.8059 32.7783 58.3906C32.7783 53.9753 36.0562 50.8108 40.5092 50.8108C44.9623 50.8108 48.0723 53.8368 48.0723 58.4746C48.0723 58.7516 48.0429 59.1671 48.0177 59.5028H48.0135ZM36.2493 57.1987H44.7356C44.4544 55.0624 42.8008 53.5892 40.505 53.5892C38.2093 53.5892 36.585 55.033 36.2451 57.1987H36.2493Z" fill="white"/>
<path d="M66.1661 57.3117V65.8107H62.6658V57.7566C62.6658 55.1166 61.3479 53.8407 59.1067 53.8407C56.6137 53.8407 54.9349 55.3391 54.9349 58.3106V65.8065H51.4346V50.9784H54.767V52.8964C55.917 51.5366 57.7343 50.8147 59.9209 50.8147C63.5052 50.8147 66.1661 52.8419 66.1661 57.3117Z" fill="white"/>
<path d="M79.6093 65.0008C78.7699 65.6681 77.5066 65.9997 76.2475 65.9997C72.9696 65.9997 71.0935 64.2789 71.0935 61.001V53.8661H68.6299V51.0877H71.0935V47.7007H74.5939V51.0877H78.5978V53.8661H74.5939V60.9213C74.5939 62.3651 75.3241 63.1415 76.6672 63.1415C77.3975 63.1415 78.0942 62.9485 78.6272 62.5288L79.6093 65.0008Z" fill="white"/>
<path d="M95.9984 59.5028H84.2635C84.6832 61.6685 86.5047 63.0577 89.1111 63.0577C90.7899 63.0577 92.1077 62.5289 93.1738 61.4461L95.0498 63.5823C93.7068 65.1646 91.6041 65.9998 89.0271 65.9998C84.0117 65.9998 80.7632 62.8059 80.7632 58.3906C80.7632 53.9753 84.0411 50.8108 88.4941 50.8108C92.9471 50.8108 96.0571 53.8368 96.0571 58.4746C96.0571 58.7516 96.0278 59.1671 96.0026 59.5028H95.9984ZM84.2341 57.1987H92.7205C92.4393 55.0624 90.7857 53.5892 88.4899 53.5892C86.1941 53.5892 84.5699 55.033 84.2299 57.1987H84.2341Z" fill="white"/>
<path d="M108.069 50.8108V54.1139C107.763 54.0593 107.511 54.0299 107.255 54.0299C104.594 54.0299 102.911 55.587 102.911 58.6131V65.8068H99.4106V50.9787H102.743V53.1443C103.75 51.5872 105.572 50.8108 108.065 50.8108H108.069Z" fill="white"/>
<path d="M109.723 63.6955C109.723 62.3063 110.759 61.3914 112.018 61.3914C113.278 61.3914 114.314 62.3063 114.314 63.6955C114.314 65.0847 113.278 65.9997 112.018 65.9997C110.759 65.9997 109.723 65.026 109.723 63.6955Z" fill="#FFD039"/>
<path d="M31.3059 14.9265C32.3551 15.0272 33.2659 15.1615 34.1808 15.1825C34.6425 15.1909 34.8691 15.321 34.9825 15.7491C35.2888 16.9033 35.612 18.0574 35.9436 19.262C33.4086 19.6271 31.117 19.3543 28.9178 18.4184C28.4813 18.2337 28.1959 18.2673 27.8098 18.5569C22.3872 22.6406 14.9123 22.5986 9.50654 18.4729C9.22114 18.2547 9.00289 18.2169 8.65874 18.3512C6.12374 19.3627 3.6433 19.6649 1.46924 19.2074C1.83438 17.9357 2.18693 16.6724 2.57306 15.4175C2.60663 15.3042 2.87524 15.216 3.03893 15.1993C3.76921 15.1279 4.49949 15.0985 5.22557 15.023C5.4732 14.9978 5.71243 14.8845 6.01042 14.7963C5.71243 14.2507 5.42703 13.7597 5.17941 13.2518C4.00424 10.8595 3.37888 8.34552 3.63071 5.66782C3.93289 2.44031 6.83723 -0.0779008 10.1613 0.00184266C13.5902 0.0857831 16.4568 2.87261 16.4694 6.30577C16.482 9.62561 15.3992 12.5551 13.1999 15.0566C13.0614 15.216 12.9271 15.3839 12.7886 15.5476C16.1252 17.9651 21.3589 17.9231 24.6242 15.5392C24.4731 15.3629 24.3178 15.1951 24.1709 15.023C21.8626 12.3075 20.6538 9.18912 21.0232 5.60906C21.3631 2.28922 24.1877 -0.0695065 27.5286 0.0102369C31.0918 0.0983744 33.8493 2.90618 33.8451 6.48205C33.8451 9.29825 33.0812 11.913 31.6332 14.3305C31.5619 14.448 31.4989 14.5655 31.3017 14.9139L31.3059 14.9265ZM9.71219 12.6097C11.3868 10.8344 12.2388 8.83238 12.2472 6.48624C12.2514 5.26071 11.3238 4.2912 10.1109 4.21565C8.9903 4.1443 7.8613 5.07604 7.81514 6.2596C7.7312 8.53859 8.38593 10.6245 9.71219 12.6097ZM27.7174 12.6097C29.0311 10.6077 29.6942 8.53019 29.6061 6.24701C29.5641 5.19776 28.6827 4.36675 27.5957 4.22824C26.6682 4.10653 25.5769 4.72769 25.3461 5.6972C25.1824 6.38132 25.2118 7.14937 25.3083 7.85867C25.5518 9.67178 26.387 11.2163 27.7174 12.6139V12.6097Z" fill="white"/>
<path d="M35.8212 23.8788C35.0238 31.6307 28.1113 38.9125 18.8233 38.9671C9.71576 39.0216 2.56403 32.1091 1.56934 23.9208H5.71599C6.05175 24.9071 6.30358 25.9143 6.72748 26.8419C8.72106 31.2194 12.0955 33.8803 16.8717 34.5896C22.6678 35.45 28.2834 32.3316 30.6295 27.0224C31.0198 26.141 31.2255 25.1841 31.5361 24.2691C31.5864 24.118 31.7501 23.8956 31.8634 23.8956C33.1687 23.8704 34.474 23.8788 35.8212 23.8788Z" fill="#E84D5E"/>
</svg>
