<svg width="140" height="35" viewBox="0 0 140 35" fill="none" xmlns="http://www.w3.org/2000/svg">
<mask id="mask0_2427_28039" style="mask-type:luminance" maskUnits="userSpaceOnUse" x="0" y="0" width="140" height="35">
<path d="M140 0H0V35H140V0Z" fill="white"/>
</mask>
<g mask="url(#mask0_2427_28039)">
<path d="M48.2671 9.71216H53.5237C54.1322 9.67404 54.7421 9.75679 55.3179 9.95555C55.8936 10.1543 56.4236 10.4651 56.8767 10.8696C57.2083 11.2167 57.4664 11.6262 57.6357 12.0739C57.805 12.5217 57.882 12.9985 57.8622 13.4763V13.5089C57.8991 14.2849 57.6779 15.0514 57.2326 15.6905C56.7873 16.3296 56.1426 16.8058 55.3977 17.0458L58.2063 21.121H55.2491L52.7846 17.4701H50.7973V21.121H48.2671V9.71216ZM53.3571 15.2537C54.589 15.2537 55.2945 14.602 55.2945 13.6392V13.6067C55.2945 12.5314 54.5397 11.9775 53.3063 11.9775H50.7973V15.2529L53.3571 15.2537Z" fill="black"/>
<path d="M62.7922 9.71191H60.2612V21.12H62.7922V9.71191Z" fill="black"/>
<path d="M65.1579 15.45V15.4174C65.1518 14.6342 65.3043 13.8577 65.6061 13.134C65.9079 12.4102 66.3531 11.7539 66.9152 11.2038C67.4773 10.6537 68.1449 10.221 68.8786 9.93136C69.6122 9.64172 70.397 9.50099 71.1865 9.51751C72.8416 9.43081 74.4648 9.99311 75.7056 11.0831L74.1124 12.99C73.3035 12.2276 72.2239 11.8127 71.1083 11.8356C70.1963 11.8751 69.3372 12.271 68.7185 12.9367C68.0998 13.6024 67.7718 14.4839 67.8061 15.3887V15.4213C67.7785 15.8898 67.8484 16.3589 68.0115 16.7994C68.1746 17.24 68.4274 17.6425 68.7541 17.9819C69.0808 18.3213 69.4744 18.5904 69.9106 18.7724C70.3467 18.9544 70.8159 19.0453 71.2889 19.0396C72.1353 19.0638 72.9679 18.8233 73.6689 18.3523V16.7231H71.1223V14.5509H76.1138V19.5059C74.7506 20.678 73.0054 21.3206 71.2013 21.315C70.4078 21.3551 69.6145 21.2318 68.8713 20.9528C68.1282 20.6738 67.4513 20.2453 66.8833 19.6941C66.3153 19.143 65.8685 18.4812 65.571 17.7503C65.2735 17.0195 65.1318 16.2355 65.1547 15.4477" fill="black"/>
<path d="M78.5479 9.71191H81.0788V14.227H85.7442V9.71191H88.2751V21.1161H85.7442V16.5389H81.0788V21.1161H78.5479V9.71191Z" fill="black"/>
<path d="M93.7145 12.0269H90.2153V9.71191H99.7447V12.0261H96.2439V21.12H93.7145V12.0269Z" fill="black"/>
<path d="M100.796 9.71227H103.508L105.89 17.4376L108.471 9.67969H110.64L113.221 17.4376L115.605 9.71227H118.25L114.318 21.2065H112.116L109.521 13.7425L106.924 21.2065H104.722L100.796 9.71227Z" fill="black"/>
<path d="M122.583 9.62891H124.916L129.844 21.1177H127.198L126.146 18.5575H121.286L120.233 21.1177H117.652L122.583 9.62891ZM125.242 16.3434L123.715 12.6436L122.187 16.3434H125.242Z" fill="black"/>
<path d="M133.052 16.6227L128.633 9.71191H131.59L134.334 14.2891L137.127 9.71191H140.003L135.584 16.5738V21.1215H133.052V16.6227Z" fill="black"/>
<path d="M0 34.9997V19.3922L35.2792 4.22852L36.188 6.30765L2.28536 20.8802V31.535L30.9666 19.0982L31.8817 21.175L0 34.9997Z" fill="black"/>
<path d="M40.6054 31.4353H7.89697V0.0078125H25.2929C29.8699 0.0078125 33.3637 1.17151 35.6772 3.46398C36.6664 4.46138 37.4379 5.65025 37.9434 6.95644C38.449 8.26263 38.6778 9.65813 38.6156 11.0559V11.1397C38.6825 13.0664 38.2022 14.973 37.2297 16.6422C36.2571 18.3113 34.8314 19.6759 33.115 20.5803L40.6054 31.4353ZM10.1808 29.1684H36.2724L29.6932 19.6362L30.9774 19.0931C32.5993 18.4934 33.9895 17.4018 34.9503 15.9736C35.9111 14.5454 36.3937 12.8532 36.3295 11.1374V11.0536C36.3856 9.95438 36.2132 8.85548 35.823 7.82516C35.4328 6.79485 34.8332 5.85514 34.0613 5.06445C32.1921 3.21185 29.2427 2.27158 25.2929 2.27158H10.1823L10.1808 29.1684Z" fill="black"/>
<path d="M10.1823 30.301H7.89697V0L10.1823 2.27308V30.301Z" fill="black"/>
<path d="M0 34.9992V20.1357H2.28536V31.5361L26.4076 21.0745L27.3242 23.1513L0 34.9992Z" fill="black"/>
</g>
</svg>
