<svg xmlns="http://www.w3.org/2000/svg" width="2457.607" height="4453.338" viewBox="0 0 2457.607 4453.338">
  <path id="Subtraction_1" data-name="Subtraction 1" d="M1420.095,3726.118h0c-25.768-35.525-53.463-70.733-82.314-104.646-25.005-29.393-50.974-57.935-77.186-84.833-22.185-22.766-44.116-43.934-65.185-62.916-12.157-10.952-30.06-26.591-46.31-38.9-30.906-30.189-67.138-62.719-107.691-96.686-37.9-31.746-80.436-65.47-126.422-100.234-82.376-62.276-177.424-129.164-282.5-198.807-45.892-30.416-93.943-61.511-142.817-92.42-44.395-28.077-89.821-56.225-135.015-83.663-40.893-24.827-81.463-48.994-120.581-71.83-35.5-20.725-68.982-39.875-99.514-56.921-30.484-20.068-60.864-40.7-90.295-61.314-28.98-20.3-57.85-41.158-85.809-61.99-27.517-20.5-54.913-41.55-81.425-62.554-26.083-20.664-52.038-41.863-77.143-63.008-24.69-20.794-49.238-42.108-72.963-63.35-23.323-20.88-46.5-42.272-68.886-63.58-22-20.941-43.84-42.372-64.91-63.7-20.685-20.935-41.221-42.369-61.037-63.707-19.443-20.935-38.71-42.335-57.266-63.6-18.212-20.875-36.244-42.2-53.6-63.389-33.708-41.161-66.206-83.45-96.591-125.69-29.168-40.549-57.14-82.1-83.138-123.5-24.908-39.661-48.628-80.173-70.5-120.413-20.915-38.476-40.658-77.652-58.681-116.439-17.2-37.014-33.24-74.553-47.677-111.574-13.753-35.268-26.367-70.871-37.49-105.82-10.579-33.24-20.04-66.608-28.119-99.176-15.034-60.6-25.6-119.429-31.393-174.856-2.67-25.532-4.32-50.4-4.906-73.9-.558-22.427-.155-43.858,1.2-63.7-.457-29.168-.071-58.632,1.145-87.575,1.2-28.486,3.233-57.252,6.049-85.5,2.771-27.791,6.375-55.855,10.713-83.412,4.267-27.1,9.361-54.459,15.14-81.312,5.68-26.4,12.182-53.046,19.324-79.2,7.021-25.709,14.85-51.643,23.271-77.081,8.273-24.994,17.35-50.211,26.977-74.949,9.452-24.287,19.7-48.781,30.444-72.8,10.552-23.58,21.881-47.349,33.673-70.648,11.572-22.865,23.907-45.906,36.661-68.481,12.514-22.148,25.773-44.456,39.41-66.3,13.371-21.421,27.476-42.992,41.92-64.113,14.15-20.69,29.018-41.52,44.191-61.911,14.862-19.973,30.414-40.059,46.222-59.7,30.629-38.057,63.454-75.98,97.575-112.72,32.619-35.122,67.216-70.021,102.831-103.727,33.981-32.161,69.7-64.006,106.166-94.649,34.731-29.184,70.928-57.943,107.588-85.479,34.861-26.184,70.893-51.827,107.094-76.218,67.359-45.383,136.347-87.2,205.045-124.291,31.637-17.081,63.3-33.194,94.121-47.891,29.388-14.014,58.31-26.889,85.966-38.265H1420.095V3726.113h0Z" transform="translate(1037.512 727.22)" fill="rgba(241,247,250,0.83)"/>
</svg>
