<svg width="29" height="29" viewBox="0 0 29 29" fill="none" xmlns="http://www.w3.org/2000/svg">
<circle cx="14.5" cy="14.5" r="13.5" stroke="#963B3A" stroke-width="2"/>
<path d="M15 9.9375V13.875H18.9375C19.4023 13.875 19.8125 14.2852 19.8125 14.75C19.8125 15.2422 19.4023 15.625 18.9375 15.625H15V19.5625C15 20.0547 14.5898 20.4375 14.125 20.4375C13.6328 20.4375 13.25 20.0547 13.25 19.5625V15.625H9.3125C8.82031 15.625 8.4375 15.2422 8.4375 14.75C8.4375 14.2852 8.82031 13.875 9.3125 13.875H13.25V9.9375C13.25 9.47266 13.6328 9.0625 14.125 9.0625C14.5898 9.0625 15 9.47266 15 9.9375Z" fill="#963B3A"/>
</svg>
