<svg width="24" height="24" viewBox="0 0 24 24" fill="none" xmlns="http://www.w3.org/2000/svg">
<path d="M19.7209 3H17.862V4.85883C17.862 5.2306 17.5522 5.47844 17.2424 5.47844C16.9326 5.47844 16.6228 5.2306 16.6228 4.85883V3H6.70905V4.85883C6.70905 5.2306 6.39924 5.47844 6.08943 5.47844C5.77963 5.47844 5.46982 5.2306 5.46982 4.85883V3H3.61099C2.68157 3 2 3.80549 2 4.85883V7.08943H21.8276V4.85883C21.8276 3.80549 20.7123 3 19.7209 3ZM2 8.39062V19.7295C2 20.8448 2.68157 21.5883 3.67295 21.5883H19.7828C20.7742 21.5883 21.8895 20.7828 21.8895 19.7295V8.39062H2ZM7.51454 18.8001H6.02747C5.77963 18.8001 5.53178 18.6142 5.53178 18.3044V16.7554C5.53178 16.5075 5.71767 16.2597 6.02747 16.2597H7.5765C7.82435 16.2597 8.07219 16.4456 8.07219 16.7554V18.3044C8.01023 18.6142 7.82435 18.8001 7.51454 18.8001ZM7.51454 13.2236H6.02747C5.77963 13.2236 5.53178 13.0377 5.53178 12.7279V11.1789C5.53178 10.931 5.71767 10.6832 6.02747 10.6832H7.5765C7.82435 10.6832 8.07219 10.8691 8.07219 11.1789V12.7279C8.01023 13.0377 7.82435 13.2236 7.51454 13.2236ZM12.4714 18.8001H10.9224C10.6746 18.8001 10.4267 18.6142 10.4267 18.3044V16.7554C10.4267 16.5075 10.6126 16.2597 10.9224 16.2597H12.4714C12.7193 16.2597 12.9671 16.4456 12.9671 16.7554V18.3044C12.9671 18.6142 12.7812 18.8001 12.4714 18.8001ZM12.4714 13.2236H10.9224C10.6746 13.2236 10.4267 13.0377 10.4267 12.7279V11.1789C10.4267 10.931 10.6126 10.6832 10.9224 10.6832H12.4714C12.7193 10.6832 12.9671 10.8691 12.9671 11.1789V12.7279C12.9671 13.0377 12.7812 13.2236 12.4714 13.2236ZM17.4283 18.8001H15.8793C15.6314 18.8001 15.3836 18.6142 15.3836 18.3044V16.7554C15.3836 16.5075 15.5695 16.2597 15.8793 16.2597H17.4283C17.6762 16.2597 17.924 16.4456 17.924 16.7554V18.3044C17.924 18.6142 17.7381 18.8001 17.4283 18.8001ZM17.4283 13.2236H15.8793C15.6314 13.2236 15.3836 13.0377 15.3836 12.7279V11.1789C15.3836 10.931 15.5695 10.6832 15.8793 10.6832H17.4283C17.6762 10.6832 17.924 10.8691 17.924 11.1789V12.7279C17.924 13.0377 17.7381 13.2236 17.4283 13.2236Z" fill="#B5B7C0"/>
</svg>
