<svg width="90" height="76" viewBox="0 0 90 76" fill="none" xmlns="http://www.w3.org/2000/svg">
<rect x="0.425781" y="15.3936" width="58.9245" height="55.9028" fill="#4A74EA" fill-opacity="0.03"/>
<rect x="0.925781" y="15.8936" width="57.9245" height="54.9028" stroke="#963B3A" stroke-opacity="0.6" stroke-linecap="round" stroke-linejoin="round" stroke-dasharray="6 6"/>
<g clip-path="url(#clip0_2670_1814)">
<path d="M22.7326 4.88477H66.7675C71.5624 4.88477 75.4766 8.79898 75.4766 13.5939V58.9009C75.4766 63.6958 71.5624 67.61 66.7675 67.61H22.7326C17.9376 67.61 14.0234 63.6958 14.0234 58.9009V13.496C14.0234 8.79898 17.9376 4.88477 22.7326 4.88477Z" fill="#F0F3FA"/>
<path d="M42.4993 45.4947L29.5824 32.5778L14.0234 48.1367V51.366V58.4116C14.0234 63.2065 17.9376 67.1207 22.7326 67.1207H66.7675C71.5624 67.1207 75.4766 63.2065 75.4766 58.4116V51.366V41.6783L60.8961 27L42.4993 45.4947Z" fill="#A85D5C"/>
<path d="M42.1088 31.1112C45.1353 31.1112 47.5887 28.6577 47.5887 25.6313C47.5887 22.6048 45.1353 20.1514 42.1088 20.1514C39.0823 20.1514 36.6289 22.6048 36.6289 25.6313C36.6289 28.6577 39.0823 31.1112 42.1088 31.1112Z" fill="#A85D5C"/>
</g>
<defs>
<clipPath id="clip0_2670_1814">
<rect width="75.5443" height="75.5443" fill="white" transform="translate(14.0234 0.285156)"/>
</clipPath>
</defs>
</svg>
