<svg width="16" height="16" viewBox="0 0 16 16" fill="none" xmlns="http://www.w3.org/2000/svg">
<g clip-path="url(#clip0_998_1495)">
<path d="M14.3689 2.66679C14.3083 2.66055 14.2472 2.66055 14.1867 2.66679H1.74221C1.66245 2.66802 1.58322 2.67998 1.50665 2.70235L7.92887 9.0979L14.3689 2.66679Z" fill="black" fill-opacity="0.5"/>
<path d="M15.0267 3.28467L8.55557 9.72911C8.38902 9.89467 8.16373 9.9876 7.9289 9.9876C7.69407 9.9876 7.46878 9.89467 7.30223 9.72911L0.888899 3.33356C0.869183 3.40602 0.85873 3.48069 0.857788 3.55578V12.4447C0.857788 12.6804 0.951439 12.9065 1.11814 13.0732C1.28484 13.2399 1.51093 13.3336 1.74668 13.3336H14.1911C14.4269 13.3336 14.653 13.2399 14.8197 13.0732C14.9864 12.9065 15.08 12.6804 15.08 12.4447V3.55578C15.0765 3.46318 15.0585 3.37171 15.0267 3.28467ZM2.35557 12.4447H1.73779V11.8091L4.9689 8.60467L5.59557 9.23134L2.35557 12.4447ZM14.1822 12.4447H13.56L10.32 9.23134L10.9467 8.60467L14.1778 11.8091L14.1822 12.4447Z" fill="black" fill-opacity="0.5"/>
</g>
<defs>
<clipPath id="clip0_998_1495">
<rect width="16" height="16" fill="white"/>
</clipPath>
</defs>
</svg>
