<svg width="17" height="16" viewBox="0 0 17 16" fill="none" xmlns="http://www.w3.org/2000/svg">
<path d="M8.3724 12.667L3.03906 12.667M13.7057 3.33366L11.7057 3.33366M13.7057 12.667L11.0391 12.667M9.03906 3.33366L3.03906 3.33366M5.03906 8.00033L3.03906 8.00033M13.7057 8.00033L7.70573 8.00033" stroke="#6B6B6B" stroke-linecap="round"/>
<path d="M7.70573 8.00065C7.70573 7.26427 7.10878 6.66732 6.3724 6.66732C5.63602 6.66732 5.03906 7.26427 5.03906 8.00065C5.03906 8.73703 5.63602 9.33398 6.3724 9.33398C7.10878 9.33398 7.70573 8.73703 7.70573 8.00065Z" stroke="#6B6B6B" stroke-linecap="round"/>
<path d="M11.7057 3.33366C11.7057 2.59728 11.1088 2.00033 10.3724 2.00033C9.63602 2.00033 9.03906 2.59728 9.03906 3.33366C9.03906 4.07004 9.63602 4.66699 10.3724 4.66699C11.1088 4.66699 11.7057 4.07004 11.7057 3.33366Z" stroke="#6B6B6B" stroke-linecap="round"/>
</svg>
