<svg width="14" height="17" viewBox="0 0 14 17" fill="none" xmlns="http://www.w3.org/2000/svg">
<path d="M13.8454 2.03289C13.7978 1.98325 13.7406 1.94385 13.6773 1.9171C13.6139 1.89036 13.5458 1.87684 13.477 1.87736C13.4065 1.87736 13.2578 1.93526 13.0323 2.04952C12.806 2.16409 12.5651 2.29159 12.3126 2.43388C12.0591 2.57524 11.7591 2.70336 11.4127 2.81792C11.0668 2.93218 10.7468 2.99008 10.4521 2.99008C10.1795 2.99008 9.93993 2.93834 9.73266 2.83455C9.04618 2.51303 8.44871 2.27311 7.94209 2.11481C7.43516 1.95682 6.89004 1.87736 6.30643 1.87736C5.29873 1.87736 4.1509 2.20505 2.86418 2.85919C2.5987 2.99162 2.40837 3.09418 2.28518 3.16932L2.16292 2.27281C2.30504 2.15117 2.41923 2.00029 2.49768 1.83046C2.57613 1.66064 2.617 1.47589 2.61749 1.28882C2.61222 0.945198 2.47201 0.617433 2.22715 0.376296C1.98229 0.13516 1.65241 0 1.30874 0C0.965081 0 0.635203 0.13516 0.390339 0.376296C0.145475 0.617433 0.00527141 0.945198 0 1.28882C0 1.76033 0.251925 2.17025 0.625808 2.40062L2.39359 15.3633C2.42331 15.5637 2.53083 15.7444 2.69282 15.866C2.85482 15.9877 3.05825 16.0406 3.259 16.0133C3.45975 15.986 3.64164 15.8806 3.76525 15.7201C3.88885 15.5596 3.9442 15.3568 3.9193 15.1558L3.2088 9.94603C4.49799 9.30637 5.61317 8.98392 6.55127 8.98392C6.94948 8.98392 7.33784 9.04274 7.71634 9.16347C8.09515 9.28388 8.41052 9.41385 8.66091 9.55521C8.91098 9.69719 9.20695 9.82839 9.54788 9.94757C9.88881 10.0677 10.2254 10.1277 10.5577 10.1277C11.3973 10.1277 12.4022 9.81145 13.5747 9.17917C13.7219 9.10279 13.8294 9.02765 13.8977 8.95435C13.9661 8.88074 14 8.77572 14 8.63991V2.40092C14.0006 2.33229 13.9872 2.26426 13.9606 2.20099C13.934 2.13771 13.8948 2.08051 13.8454 2.03289Z" fill="#963B3A"/>
</svg>
