<svg width="24" height="24" viewBox="0 0 24 24" fill="none" xmlns="http://www.w3.org/2000/svg">
<g clip-path="url(#clip0_485_406)">
<path d="M15.8213 12.9248C16.9422 13.6857 17.7277 14.7166 17.7277 16.0912V18.5457H21.0004V16.0912C21.0004 14.3075 18.0795 13.2521 15.8213 12.9248Z" fill="#7D4343"/>
<path d="M14.4544 12.0006C16.2626 12.0006 17.7271 10.536 17.7271 8.72782C17.7271 6.91963 16.2626 5.45508 14.4544 5.45508C14.0698 5.45508 13.7098 5.5369 13.3662 5.65144C14.0453 6.49417 14.4544 7.56599 14.4544 8.72782C14.4544 9.88964 14.0453 10.9615 13.3662 11.8042C13.7098 11.9187 14.0698 12.0006 14.4544 12.0006Z" fill="#7D4343"/>
<path d="M9.5452 12.0006C11.3534 12.0006 12.8179 10.536 12.8179 8.72782C12.8179 6.91963 11.3534 5.45508 9.5452 5.45508C7.73701 5.45508 6.27246 6.91963 6.27246 8.72782C6.27246 10.536 7.73701 12.0006 9.5452 12.0006ZM9.5452 7.09145C10.4452 7.09145 11.1816 7.82781 11.1816 8.72782C11.1816 9.62782 10.4452 10.3642 9.5452 10.3642C8.6452 10.3642 7.90883 9.62782 7.90883 8.72782C7.90883 7.82781 8.6452 7.09145 9.5452 7.09145Z" fill="#7D4343"/>
<path d="M9.54548 12.8188C7.36092 12.8188 3 13.9152 3 16.0916V18.5461H16.091V16.0916C16.091 13.9152 11.73 12.8188 9.54548 12.8188ZM14.4546 16.9098H4.63637V16.0998C4.80001 15.5107 7.33638 14.4552 9.54548 14.4552C11.7546 14.4552 14.2909 15.5107 14.4546 16.0916V16.9098Z" fill="#7D4343"/>
</g>
<defs>
<clipPath id="clip0_485_406">
<rect width="24" height="24" fill="white"/>
</clipPath>
</defs>
</svg>
