<svg width="24" height="24" viewBox="0 0 24 24" fill="none" xmlns="http://www.w3.org/2000/svg">
<rect x="0.5" y="0.5" width="23" height="23" rx="11.5" stroke="#7D4343"/>
<g clip-path="url(#clip0_334_437)">
<path d="M14.5469 12.6167C15.2942 13.124 15.8178 13.8112 15.8178 14.7276V16.364H17.9996V14.7276C17.9996 13.5385 16.0523 12.8349 14.5469 12.6167Z" fill="#7D4343"/>
<path d="M13.6366 12.0004C14.842 12.0004 15.8184 11.024 15.8184 9.81854C15.8184 8.61309 14.842 7.63672 13.6366 7.63672C13.3802 7.63672 13.1402 7.69126 12.9111 7.76763C13.3639 8.32945 13.6366 9.044 13.6366 9.81854C13.6366 10.5931 13.3639 11.3076 12.9111 11.8695C13.1402 11.9458 13.3802 12.0004 13.6366 12.0004Z" fill="#7D4343"/>
<path d="M10.3635 12.0004C11.5689 12.0004 12.5453 11.024 12.5453 9.81854C12.5453 8.61309 11.5689 7.63672 10.3635 7.63672C9.15801 7.63672 8.18164 8.61309 8.18164 9.81854C8.18164 11.024 9.15801 12.0004 10.3635 12.0004ZM10.3635 8.72763C10.9635 8.72763 11.4544 9.21854 11.4544 9.81854C11.4544 10.4185 10.9635 10.9095 10.3635 10.9095C9.76346 10.9095 9.27255 10.4185 9.27255 9.81854C9.27255 9.21854 9.76346 8.72763 10.3635 8.72763Z" fill="#7D4343"/>
<path d="M10.3637 12.5459C8.90728 12.5459 6 13.2768 6 14.7277V16.3641H14.7273V14.7277C14.7273 13.2768 11.82 12.5459 10.3637 12.5459ZM13.6364 15.2732H7.09091V14.7332C7.2 14.3404 8.89092 13.6368 10.3637 13.6368C11.8364 13.6368 13.5273 14.3404 13.6364 14.7277V15.2732Z" fill="#7D4343"/>
</g>
<defs>
<clipPath id="clip0_334_437">
<rect width="16" height="16" fill="white" transform="translate(4 4)"/>
</clipPath>
</defs>
</svg>
