<svg width="32" height="32" viewBox="0 0 32 32" fill="none" xmlns="http://www.w3.org/2000/svg">
<g filter="url(#filter0_d_2670_1821)">
<path d="M16 27C22.6274 27 28 21.6274 28 15C28 8.37258 22.6274 3 16 3C9.37258 3 4 8.37258 4 15C4 21.6274 9.37258 27 16 27Z" fill="white"/>
</g>
<path fill-rule="evenodd" clip-rule="evenodd" d="M16 9C16.3183 9 16.6235 9.12643 16.8485 9.35147C17.0736 9.57652 17.2 9.88174 17.2 10.2V13.8H20.8C21.1183 13.8 21.4235 13.9264 21.6485 14.1515C21.8736 14.3765 22 14.6817 22 15C22 15.3183 21.8736 15.6235 21.6485 15.8485C21.4235 16.0736 21.1183 16.2 20.8 16.2H17.2V19.8C17.2 20.1183 17.0736 20.4235 16.8485 20.6485C16.6235 20.8736 16.3183 21 16 21C15.6817 21 15.3765 20.8736 15.1515 20.6485C14.9264 20.4235 14.8 20.1183 14.8 19.8V16.2H11.2C10.8817 16.2 10.5765 16.0736 10.3515 15.8485C10.1264 15.6235 10 15.3183 10 15C10 14.6817 10.1264 14.3765 10.3515 14.1515C10.5765 13.9264 10.8817 13.8 11.2 13.8H14.8V10.2C14.8 9.88174 14.9264 9.57652 15.1515 9.35147C15.3765 9.12643 15.6817 9 16 9Z" fill="#A85D5C"/>
<defs>
<filter id="filter0_d_2670_1821" x="0" y="0" width="32" height="32" filterUnits="userSpaceOnUse" color-interpolation-filters="sRGB">
<feFlood flood-opacity="0" result="BackgroundImageFix"/>
<feColorMatrix in="SourceAlpha" type="matrix" values="0 0 0 0 0 0 0 0 0 0 0 0 0 0 0 0 0 0 127 0" result="hardAlpha"/>
<feOffset dy="1"/>
<feGaussianBlur stdDeviation="2"/>
<feComposite in2="hardAlpha" operator="out"/>
<feColorMatrix type="matrix" values="0 0 0 0 0 0 0 0 0 0 0 0 0 0 0 0 0 0 0.08 0"/>
<feBlend mode="normal" in2="BackgroundImageFix" result="effect1_dropShadow_2670_1821"/>
<feBlend mode="normal" in="SourceGraphic" in2="effect1_dropShadow_2670_1821" result="shape"/>
</filter>
</defs>
</svg>
