<svg width="251" height="95" viewBox="0 0 251 95" fill="none" xmlns="http://www.w3.org/2000/svg">
<g id="Car">
<path id="Vector" d="M118.41 75.3157C118.155 83.7201 112.886 94.0304 104.721 94.0304C103.912 94.0304 92.9862 94.2206 92.2659 94.0061C85.6864 92.0153 81.7857 81.0576 82.5262 71.4271C83.1007 63.9129 85.735 55.5003 92.6139 54.4887C93.0711 54.424 104.575 54.4887 105.073 54.4887C113.307 54.4887 118.685 66.276 118.41 75.3157Z" fill="#263238"/>
<path id="Vector_2" d="M107.542 75.3155C107.21 83.7199 102.451 94.0302 91.8455 94.0302C81.2398 94.0302 76.3841 82.1175 77.4483 71.4269C78.2576 63.4109 81.9317 54.4885 92.2906 54.4885C103.001 54.4885 107.898 66.2758 107.542 75.3155Z" fill="#37474F"/>
<path id="Vector_3" d="M103.136 75.0726C102.865 81.5469 99.3165 89.4819 91.4746 89.4819C83.6326 89.4819 80.0717 80.3087 80.881 72.0783C81.4961 65.9075 84.2476 59.0366 91.9035 59.0366C99.8345 59.0366 103.416 68.1128 103.136 75.0726Z" fill="#C7C7C7"/>
<path id="Vector_4" d="M89.4102 60.4365C89.572 63.0626 90.1345 71.4428 90.9478 71.4428C91.6357 71.4428 93.6468 63.5361 94.3549 60.6752C93.4664 60.3533 92.5281 60.1903 91.5831 60.1937C90.8518 60.1903 90.1226 60.2718 89.4102 60.4365Z" fill="#263238"/>
<path id="Vector_5" d="M92.4162 71.9407C92.8492 72.1713 96.6933 68.3919 99.4813 65.5595C98.8513 64.3153 97.9997 63.1964 96.9684 62.2576C95.1597 65.5028 91.8335 71.6453 92.4162 71.9407Z" fill="#263238"/>
<path id="Vector_6" d="M93.1458 72.9161C93.3401 73.26 97.4715 71.9328 101.194 70.6622C101.002 69.5964 100.721 68.5487 100.353 67.5303C96.9454 69.7437 92.9071 72.4912 93.1458 72.9161Z" fill="#263238"/>
<path id="Vector_7" d="M93.5335 74.0973C93.493 74.5019 97.673 75.0522 101.469 75.473C101.469 75.3193 101.489 75.1655 101.497 75.0118C101.532 74.1439 101.509 73.2747 101.428 72.4099C97.6325 72.9602 93.578 73.6683 93.5335 74.0973Z" fill="#263238"/>
<path id="Vector_8" d="M100.304 80.952C100.738 79.7905 101.059 78.5899 101.263 77.3669C97.6214 76.1853 93.3767 74.9066 93.0611 75.3194C92.7455 75.7321 97.1116 78.8034 100.304 80.952Z" fill="#263238"/>
<path id="Vector_9" d="M95.7748 86.9811C97.1619 86.0581 98.3124 84.8216 99.1333 83.3717C96.7945 80.5676 92.7925 75.9263 92.1734 76.2217C91.5543 76.5171 94.7591 84.5169 95.7748 86.9811Z" fill="#263238"/>
<path id="Vector_10" d="M87.5879 87.5072C88.6692 88.0516 89.8653 88.3292 91.0759 88.3164C91.5569 88.3177 92.0372 88.2811 92.5124 88.2072C92.387 86.0059 91.8124 76.8772 90.9586 76.8772C90.2869 76.9055 88.3284 84.5209 87.5879 87.5072Z" fill="#263238"/>
<path id="Vector_11" d="M83.0693 82.1861C83.5803 83.4482 84.2983 84.6161 85.1937 85.6418C87.0106 82.3804 89.9321 76.946 89.3777 76.6547C88.9731 76.4443 85.7359 79.5438 83.0693 82.1861Z" fill="#263238"/>
<path id="Vector_12" d="M81.8145 77.3749C81.9356 78.3446 82.1304 79.3037 82.3971 80.2438C85.3713 78.2732 88.4263 76.1246 88.2118 75.7402C88.0419 75.4407 84.9747 76.3471 81.8145 77.3749Z" fill="#263238"/>
<path id="Vector_13" d="M81.6898 73.1343C81.6372 74.0224 81.6372 74.9128 81.6898 75.8009C84.842 75.3355 87.7595 74.7974 87.8161 74.4129C87.8728 74.0285 84.8299 73.5713 81.6898 73.1343Z" fill="#263238"/>
<path id="Vector_14" d="M81.8262 71.4471C84.8772 72.4668 87.9363 73.3691 88.2074 73.0171C88.4785 72.665 85.3021 70.2089 82.5019 68.1614C82.191 69.2372 81.965 70.3358 81.8262 71.4471Z" fill="#263238"/>
<path id="Vector_15" d="M83.3809 65.7698C85.6388 68.5052 88.8071 72.1915 89.3655 71.9204C89.9239 71.6492 87.4273 64.7744 86.3267 61.8933C85.0474 62.9299 84.0369 64.2596 83.3809 65.7698Z" fill="#263238"/>
<path id="Vector_16" d="M239.685 75.3157C239.43 83.7201 234.158 94.0304 225.992 94.0304C225.183 94.0304 214.258 94.2206 213.541 94.0061C206.958 92.0153 203.057 81.0576 203.798 71.4271C204.376 63.9129 206.994 55.5003 213.877 54.4887C214.339 54.424 225.838 54.4887 226.34 54.4887C234.583 54.4887 239.956 66.276 239.685 75.3157Z" fill="#263238"/>
<path id="Vector_17" d="M228.817 75.3155C228.485 83.7199 223.727 94.0302 213.117 94.0302C202.507 94.0302 197.656 82.1175 198.724 71.4269C199.533 63.4109 203.207 54.4885 213.566 54.4885C224.273 54.4885 229.173 66.2758 228.817 75.3155Z" fill="#37474F"/>
<path id="Vector_18" d="M224.399 75.0727C224.128 81.547 220.579 89.482 212.737 89.482C204.895 89.482 201.346 80.3088 202.168 72.0824C202.783 65.9116 205.534 59.0408 213.19 59.0408C221.109 59.0367 224.69 68.1129 224.399 75.0727Z" fill="#C7C7C7"/>
<path id="Vector_19" d="M210.686 60.4365C210.843 63.0626 211.41 71.4428 212.223 71.4428C212.911 71.4428 214.922 63.5361 215.63 60.6752C214.742 60.3537 213.803 60.1907 212.858 60.1937C212.127 60.1901 211.398 60.2716 210.686 60.4365Z" fill="#263238"/>
<path id="Vector_20" d="M213.691 71.9407C214.124 72.1713 217.964 68.3919 220.757 65.5595C220.125 64.3161 219.274 63.1975 218.244 62.2576C216.435 65.5028 213.105 71.6453 213.691 71.9407Z" fill="#263238"/>
<path id="Vector_21" d="M214.412 72.9161C214.606 73.26 218.737 71.9328 222.456 70.6622C222.266 69.596 221.985 68.5481 221.614 67.5303C218.219 69.7437 214.181 72.4912 214.412 72.9161Z" fill="#263238"/>
<path id="Vector_22" d="M214.818 74.0973C214.777 74.5019 218.953 75.0522 222.749 75.473C222.749 75.3193 222.773 75.1655 222.777 75.0118C222.816 74.144 222.794 73.2747 222.712 72.4099C218.909 72.9602 214.854 73.6683 214.818 74.0973Z" fill="#263238"/>
<path id="Vector_23" d="M221.558 80.952C221.994 79.7906 222.316 78.5901 222.521 77.3669C218.88 76.1853 214.635 74.9066 214.315 75.3194C213.996 75.7321 218.382 78.8034 221.558 80.952Z" fill="#263238"/>
<path id="Vector_24" d="M217.045 86.9811C218.434 86.0582 219.585 84.8218 220.408 83.3717C218.069 80.5676 214.067 75.9263 213.448 76.2217C212.829 76.5171 216.03 84.5169 217.045 86.9811Z" fill="#263238"/>
<path id="Vector_25" d="M208.864 87.5072C209.944 88.0516 211.139 88.3291 212.348 88.3164C212.831 88.3177 213.312 88.2811 213.789 88.2072C213.659 86.0059 213.089 76.8772 212.231 76.8772C211.579 76.9055 209.605 84.5209 208.864 87.5072Z" fill="#263238"/>
<path id="Vector_26" d="M204.341 82.1861C204.853 83.4484 205.572 84.6163 206.469 85.6418C208.286 82.3804 211.208 76.946 210.649 76.6547C210.249 76.4443 207.003 79.5438 204.341 82.1861Z" fill="#263238"/>
<path id="Vector_27" d="M203.082 77.3749C203.207 78.344 203.402 79.3028 203.665 80.2438C206.643 78.2732 209.694 76.1246 209.479 75.7402C209.318 75.4407 206.25 76.3471 203.082 77.3749Z" fill="#263238"/>
<path id="Vector_28" d="M202.944 73.1343C202.89 74.0223 202.89 74.9128 202.944 75.8009C206.096 75.3355 209.014 74.7974 209.067 74.4129C209.119 74.0285 206.105 73.5713 202.944 73.1343Z" fill="#263238"/>
<path id="Vector_29" d="M203.102 71.4471C206.153 72.4668 209.212 73.3691 209.479 73.0171C209.746 72.665 206.573 70.2089 203.773 68.1614C203.466 69.2378 203.241 70.3362 203.102 71.4471Z" fill="#263238"/>
<path id="Vector_30" d="M204.652 65.7698C206.91 68.5052 210.083 72.1915 210.637 71.9204C211.191 71.6492 208.699 64.7744 207.602 61.8933C206.323 62.9308 205.311 64.2602 204.652 65.7698Z" fill="#263238"/>
<path id="Vector_31" d="M157.468 79.6975L107.507 80.0334C107.507 80.0334 110.177 49.1268 134.213 51.2067C158.249 53.2865 157.468 79.6975 157.468 79.6975Z" fill="#9C9090"/>
<path id="Vector_32" opacity="0.5" d="M157.468 79.6975L107.507 80.0334C107.507 80.0334 110.177 49.1268 134.213 51.2067C158.249 53.2865 157.468 79.6975 157.468 79.6975Z" fill="black"/>
<path id="Vector_33" d="M153.408 75.3157C153.157 83.7201 147.885 94.0304 139.719 94.0304C138.91 94.0304 127.984 94.2206 127.264 94.0061C120.684 92.0153 116.784 81.0576 117.524 71.4271C118.099 63.9129 120.717 55.5003 127.604 54.4887C128.061 54.424 139.565 54.4887 140.063 54.4887C148.305 54.4887 153.683 66.276 153.408 75.3157Z" fill="#263238"/>
<path id="Vector_34" d="M142.54 75.3155C142.212 83.7199 137.449 94.0302 126.844 94.0302C116.238 94.0302 111.382 82.1175 112.442 71.4269C113.252 63.4109 116.93 54.4885 127.285 54.4885C138 54.4885 142.896 66.2758 142.54 75.3155Z" fill="#37474F"/>
<path id="Vector_35" d="M138.124 75.0727C137.853 81.547 134.304 89.482 126.462 89.482C118.62 89.482 115.072 80.3088 115.893 72.0824C116.508 65.9116 119.26 59.0408 126.916 59.0408C134.83 59.0367 138.416 68.1129 138.124 75.0727Z" fill="#C7C7C7"/>
<path id="Vector_36" d="M124.407 60.4365C124.569 63.0626 125.132 71.4427 125.949 71.4427C126.633 71.4427 128.644 63.536 129.352 60.6752C128.463 60.3533 127.525 60.1903 126.58 60.1937C125.849 60.1905 125.12 60.272 124.407 60.4365Z" fill="#263238"/>
<path id="Vector_37" d="M127.413 71.9407C127.846 72.1713 131.686 68.3919 134.478 65.5595C133.846 64.316 132.993 63.1973 131.961 62.2576C130.157 65.5028 126.831 71.6453 127.413 71.9407Z" fill="#263238"/>
<path id="Vector_38" d="M128.142 72.9161C128.34 73.26 132.472 71.9328 136.19 70.6622C135.998 69.5964 135.717 68.5487 135.349 67.5303C131.942 69.7437 127.903 72.4912 128.142 72.9161Z" fill="#263238"/>
<path id="Vector_39" d="M128.531 74.0973C128.495 74.5019 132.671 75.0522 136.467 75.473C136.467 75.3193 136.487 75.1655 136.495 75.0118C136.53 74.1439 136.507 73.2747 136.426 72.4099C132.631 72.9602 128.576 73.6683 128.531 74.0973Z" fill="#263238"/>
<path id="Vector_40" d="M135.284 80.952C135.718 79.7905 136.039 78.5899 136.243 77.3669C132.601 76.1853 128.356 74.9066 128.041 75.3194C127.725 75.7321 132.107 78.8034 135.284 80.952Z" fill="#263238"/>
<path id="Vector_41" d="M130.772 86.9811C132.159 86.0581 133.309 84.8216 134.13 83.3717C131.791 80.5676 127.794 75.9263 127.175 76.2217C126.555 76.5171 129.756 84.5169 130.772 86.9811Z" fill="#263238"/>
<path id="Vector_42" d="M122.591 87.5072C123.671 88.0521 124.865 88.3296 126.075 88.3164C126.556 88.3178 127.036 88.2813 127.511 88.2072C127.386 86.0059 126.811 76.8772 125.957 76.8772C125.286 76.9055 123.327 84.5209 122.591 87.5072Z" fill="#263238"/>
<path id="Vector_43" d="M118.065 82.1861C118.578 83.4484 119.297 84.6163 120.194 85.6418C122.007 82.3804 124.928 76.946 124.374 76.6547C123.969 76.4443 120.728 79.5438 118.065 82.1861Z" fill="#263238"/>
<path id="Vector_44" d="M116.812 77.3749C116.933 78.3446 117.127 79.3037 117.394 80.2438C120.368 78.2732 123.423 76.1246 123.209 75.7402C123.039 75.4407 119.972 76.3471 116.812 77.3749Z" fill="#263238"/>
<path id="Vector_45" d="M116.666 73.1343C116.614 74.0224 116.614 74.9128 116.666 75.8009C119.819 75.3355 122.756 74.7974 122.793 74.4129C122.829 74.0285 119.827 73.5713 116.666 73.1343Z" fill="#263238"/>
<path id="Vector_46" d="M116.828 71.4471C119.879 72.4668 122.934 73.3691 123.205 73.0171C123.476 72.665 120.3 70.2089 117.5 68.1614C117.19 69.2373 116.966 70.3359 116.828 71.4471Z" fill="#263238"/>
<path id="Vector_47" d="M118.378 65.7699C120.636 68.5053 123.808 72.1916 124.363 71.9205C124.917 71.6493 122.424 64.7664 121.344 61.8975C120.057 62.9296 119.039 64.2584 118.378 65.7699Z" fill="#263238"/>
<path id="Vector_48" d="M61.3399 80.3086L15.1621 76.5495C15.1621 76.5495 16.7159 45.9666 40.5008 50.009C64.2857 54.0514 61.3399 80.3086 61.3399 80.3086Z" fill="#9C9090"/>
<path id="Vector_49" opacity="0.5" d="M61.3399 80.3086L15.1621 76.5495C15.1621 76.5495 16.7159 45.9666 40.5008 50.009C64.2857 54.0514 61.3399 80.3086 61.3399 80.3086Z" fill="black"/>
<path id="Vector_50" d="M63.1717 75.3157C62.9168 83.7201 57.6443 94.0304 49.4786 94.0304C48.6693 94.0304 37.744 94.2206 37.0278 94.0061C30.4442 92.0153 26.5435 81.0576 27.284 71.4271C27.8586 63.9129 30.4806 55.5003 37.3636 54.4887C37.8209 54.424 49.3248 54.4887 49.8225 54.4887C58.0692 54.4887 63.4428 66.276 63.1717 75.3157Z" fill="#263238"/>
<path id="Vector_51" d="M52.2995 75.3155C51.9717 83.7199 47.2131 94.0302 36.6034 94.0302C25.9937 94.0302 21.142 82.1175 22.2062 71.4269C23.0155 63.4109 26.6937 54.4885 37.0525 54.4885C47.7594 54.4885 52.6555 66.2758 52.2995 75.3155Z" fill="#37474F"/>
<path id="Vector_52" d="M47.885 75.0727C47.6139 81.547 44.0652 89.482 36.2232 89.482C28.3812 89.482 24.8325 80.3088 25.6539 72.0824C26.269 65.9116 29.0206 59.0408 36.6764 59.0408C44.5912 59.0367 48.1763 68.1129 47.885 75.0727Z" fill="#C7C7C7"/>
<path id="Vector_53" d="M34.1689 60.4365C34.3308 63.0626 34.8933 71.4427 35.7106 71.4427C36.3945 71.4427 38.4096 63.536 39.1177 60.6752C38.2277 60.3536 37.2882 60.1907 36.3419 60.1937C35.6106 60.1905 34.8815 60.272 34.1689 60.4365Z" fill="#263238"/>
<path id="Vector_54" d="M37.1778 71.9407C37.6108 72.1713 41.4509 68.3919 44.2429 65.5595C43.6101 64.316 42.7574 63.1973 41.726 62.2576C39.9173 65.5028 36.5911 71.6453 37.1778 71.9407Z" fill="#263238"/>
<path id="Vector_55" d="M37.9037 72.9161C38.1019 73.26 42.2333 71.9328 45.952 70.6622C45.7602 69.5964 45.4786 68.5487 45.1103 67.5303C41.7033 69.7437 37.6649 72.4912 37.9037 72.9161Z" fill="#263238"/>
<path id="Vector_56" d="M38.2913 74.0973C38.2548 74.5019 42.4307 75.0522 46.2263 75.473C46.2263 75.3193 46.2263 75.1655 46.2546 75.0118C46.2918 74.1439 46.2688 73.2746 46.1858 72.4099C42.3903 72.9602 38.3358 73.6683 38.2913 74.0973Z" fill="#263238"/>
<path id="Vector_57" d="M45.0454 80.952C45.4794 79.7905 45.8005 78.5899 46.0044 77.3669C42.3626 76.1853 38.1179 74.9066 37.8023 75.3194C37.4866 75.7321 41.8689 78.8034 45.0454 80.952Z" fill="#263238"/>
<path id="Vector_58" d="M40.5325 86.9813C41.919 86.0597 43.0705 84.8264 43.8951 83.38C41.5522 80.5759 37.5544 75.9346 36.9352 76.23C36.3161 76.5254 39.5169 84.5171 40.5325 86.9813Z" fill="#263238"/>
<path id="Vector_59" d="M32.3525 87.5072C33.4323 88.0521 34.6271 88.3296 35.8365 88.3164C36.3175 88.3178 36.7978 88.2813 37.273 88.2072C37.1475 86.0059 36.573 76.8772 35.7192 76.8772C35.0475 76.9055 33.089 84.5209 32.3525 87.5072Z" fill="#263238"/>
<path id="Vector_60" d="M27.8271 82.1861C28.3395 83.4484 29.0588 84.6163 29.9556 85.6418C31.7684 82.3804 34.6899 76.946 34.1355 76.6547C33.7349 76.4443 30.4897 79.5438 27.8271 82.1861Z" fill="#263238"/>
<path id="Vector_61" d="M26.5723 77.3749C26.6934 78.3446 26.8882 79.3037 27.155 80.2438C30.1331 78.2732 33.1841 76.1246 32.9697 75.7402C32.8038 75.4407 29.7325 76.3471 26.5723 77.3749Z" fill="#263238"/>
<path id="Vector_62" d="M26.4276 73.1343C26.377 74.0224 26.377 74.9127 26.4276 75.8009C29.5838 75.3355 32.5174 74.7974 32.5538 74.4129C32.5903 74.0285 29.5878 73.5713 26.4276 73.1343Z" fill="#263238"/>
<path id="Vector_63" d="M26.5889 71.4471C29.6399 72.4668 32.6949 73.3691 32.966 73.0171C33.2371 72.665 30.0607 70.2089 27.2606 68.1614C26.9509 69.2373 26.7263 70.3359 26.5889 71.4471Z" fill="#263238"/>
<path id="Vector_64" d="M28.1396 65.7699C30.3976 68.5053 33.5699 72.1916 34.1243 71.9205C34.6787 71.6493 32.1861 64.7664 31.1097 61.8975C29.8212 62.9292 28.8021 64.258 28.1396 65.7699Z" fill="#263238"/>
<path id="Vector_65" d="M249.272 63.7424C248.799 64.1916 248.321 64.6691 248.168 64.8431C248.081 65.2313 248.034 65.627 248.026 66.0246C247.921 67.5865 247.836 71.7705 247.892 71.9081L247.917 71.9486C248.014 72.074 247.747 79.6611 246.181 80.09C244.615 80.5189 203.26 83.3797 148.978 81.5346C148.966 81.5307 148.957 81.5237 148.949 81.5144C148.939 81.5035 148.931 81.4912 148.925 81.4779C148.917 81.4668 148.91 81.4546 148.905 81.4415C148.715 80.7185 148.586 79.9808 148.52 79.2362C148.52 79.1526 148.508 79.0636 148.484 78.9691C148.448 78.698 148.407 78.4067 148.363 78.0992C148.363 77.9535 148.322 77.8038 148.298 77.65C148.274 77.4962 148.27 77.4396 148.253 77.3263C148.237 77.213 148.201 77.0066 148.176 76.8367C148.176 76.7517 148.152 76.6708 148.136 76.5858C148.12 76.5008 148.112 76.4158 148.096 76.3309C148.023 75.8615 147.938 75.3678 147.845 74.858C147.808 74.6516 147.768 74.4533 147.727 74.2348C147.687 74.0163 147.667 73.9192 147.634 73.7614C145.987 65.5755 141.856 52.2223 129.737 52.2223C119.123 52.2223 114.579 58.8786 112.657 65.7899C112.596 65.9963 112.54 66.1946 112.491 66.409C112.442 66.6235 112.386 67.2183 112.337 67.4328C111.933 69.1727 111.674 72.1186 111.528 73.7371L111.492 74.1175C111.492 74.2429 111.467 74.3684 111.459 74.4938C111.435 74.7892 111.415 75.0805 111.394 75.3638C111.394 75.562 111.37 75.7684 111.362 75.9546C111.362 75.9991 111.362 76.0395 111.362 76.084C111.362 76.2499 111.362 76.4118 111.362 76.5696C111.362 76.7274 111.362 76.8488 111.362 76.9743V77.3061C111.362 77.4153 111.362 77.5246 111.362 77.6298C111.362 77.824 111.362 78.0101 111.362 78.1922C111.326 80.8588 111.471 82.6433 111.318 82.6433C110.707 82.6433 58.8719 81.834 58.4025 81.401C58.2892 81.2958 58.4025 79.653 58.3377 77.213C58.3377 77.0309 58.3377 76.8407 58.3377 76.6505C58.3377 76.521 58.3377 76.3916 58.3175 76.2459C58.3175 75.8655 58.2811 75.473 58.2487 75.0643C58.2487 75.0643 58.2487 75.036 58.2487 75.0198C58.2204 74.6152 58.184 74.162 58.1354 73.7128L58.099 73.3568C58.0747 73.1747 58.0545 72.9926 58.0302 72.8064C57.836 71.2243 57.5284 67.9103 57.055 66.2108C56.9957 65.9896 56.9309 65.767 56.8608 65.5431C56.796 65.3327 56.7313 65.1385 56.6585 64.9119C54.4127 58.1179 49.2697 51.6355 37.5432 52.0078C29.5879 52.2587 25.4686 57.3977 23.2552 62.8967C23.2435 62.9298 23.23 62.9622 23.2148 62.9939C23.15 63.1557 23.0853 63.3176 23.0246 63.4835C22.9315 63.7263 22.8425 63.9691 22.7575 64.2159C22.2477 65.6847 21.8592 68.7681 21.5436 70.1479C21.5436 70.1479 21.5436 70.1682 21.5436 70.1803C21.4869 70.4501 21.4343 70.709 21.3858 70.9572C21.2968 71.3861 21.2199 71.811 21.1511 72.2157C21.1228 72.3816 21.0944 72.5434 21.0702 72.7012L21.0459 72.851C21.0459 72.9602 21.0095 73.0654 20.9933 73.1706C20.9933 73.1706 20.9933 73.1949 20.9933 73.207C20.9933 73.3244 20.9569 73.4417 20.9407 73.555C20.9002 73.8019 20.8678 74.0446 20.8355 74.2753C20.8355 74.4169 20.795 74.5545 20.7788 74.6799C20.7626 74.8054 20.7424 74.947 20.7262 75.0846C20.7019 75.2788 20.6777 75.4649 20.6534 75.6389C20.6251 75.8736 20.5967 76.0962 20.5684 76.2985C20.5684 76.3551 20.5684 76.4078 20.5684 76.4563C20.5684 76.5049 20.5482 76.606 20.5401 76.6789C20.4996 76.9621 20.4632 77.2049 20.4308 77.4032L20.4065 77.5205C20.3499 77.8078 20.2932 77.9778 20.2285 78.0142C20.2193 78.0173 20.2094 78.0173 20.2002 78.0142C19.2857 78.0466 6.34927 75.9262 4.86423 75.5297C3.37919 75.1331 1.22245 70.8318 1.06464 70.4595V70.415V70.3543C1.06049 70.3153 1.06049 70.276 1.06464 70.237C1.12249 69.8438 1.23983 69.4618 1.41263 69.104C1.41263 69.104 1.41263 68.2461 1.37217 67.4854C1.2791 64.7338 1.06464 56.8109 1.06464 54.5166C1.06464 52.0887 4.35034 46.3428 4.35034 46.3428C4.35034 46.3428 7.18283 28.4657 8.85805 26.9645C10.8408 25.1921 24.9628 23.5979 24.9628 23.5979C24.9628 23.5979 40.1207 8.48446 51.8351 4.92765C71.5169 -1.04892 135.596 -1.02464 154.57 5.19876C175 11.8996 196.017 28.8946 196.418 28.8946C196.819 28.8946 210.852 29.7808 236.101 40.3582C243.745 43.5589 247.694 56.034 248.24 56.3618C248.787 56.6895 249.721 56.8312 249.956 58.9636C250.191 61.0961 249.742 63.2892 249.272 63.7424Z" fill="#9C9090"/>
<g id="Group" opacity="0.3">
<path id="Vector_66" d="M114.126 61.7597C113.608 62.8721 113.172 64.0202 112.819 65.1951C94.6097 64.6246 56.8363 62.4152 56.9779 61.614C57.1196 60.8128 99.5868 61.5574 114.126 61.7597Z" fill="#EEEEEE"/>
<path id="Vector_67" d="M246.323 65.7899C246.323 65.7899 163.833 68.5212 160.474 68.1085C157.901 67.7928 149.662 67.3558 145.907 67.1656C145.365 65.4822 144.698 63.8416 143.912 62.2573C148.286 63.0868 158.35 64.9644 159.924 64.9644C161.951 64.9644 246.323 65.7899 246.323 65.7899Z" fill="#EEEEEE"/>
<path id="Vector_68" d="M233.297 45.7723L187.824 45.7035C187.824 45.7035 166.932 39.0026 133.65 35.9921C130.907 35.7452 50.929 31.3872 41.8974 30.5253C33.6912 29.7403 15.9719 26.1876 12.8076 25.5442C14.5071 25.1395 16.4939 24.8037 18.3553 24.5083C21.8271 24.9575 27.0996 25.8922 29.7864 26.2321C34.6017 26.8431 132.137 30.0317 132.137 30.0317L196.252 28.927C196.604 28.9715 214.619 31.2334 236.502 40.7223C237.631 41.2119 233.297 45.7723 233.297 45.7723Z" fill="#EEEEEE"/>
</g>
<g id="Group_2" opacity="0.1">
<path id="Vector_69" d="M37.4289 52.008C29.4736 52.2589 25.3544 57.3979 23.141 62.8969C23.1292 62.93 23.1157 62.9624 23.1005 62.9941C23.0358 63.1559 22.971 63.3178 22.9103 63.4837C22.8173 63.7265 22.7282 63.9692 22.6433 64.2161C22.1334 65.6849 21.745 68.7683 21.4293 70.1481C21.4293 70.1481 21.4293 70.1684 21.4293 70.1805C21.3727 70.4503 21.3201 70.7092 21.2715 70.9574C21.1825 71.3863 21.1056 71.8112 21.0368 72.2159C21.0085 72.3818 20.9802 72.5436 20.9559 72.7014L20.9316 72.8511C20.9316 72.9604 20.8952 73.0656 20.879 73.1708C20.879 73.1708 20.879 73.1951 20.879 73.2072C20.879 73.3246 20.8426 73.4419 20.8264 73.5552C20.7859 73.8021 20.7536 74.0448 20.7212 74.2755C20.7212 74.4171 20.6807 74.5547 20.6646 74.6801C20.6484 74.8056 20.6281 74.9472 20.612 75.0848C20.5877 75.279 20.5634 75.4651 20.5391 75.6391C20.5108 75.8738 20.4825 76.0964 20.4541 76.2987C20.4541 76.3553 20.4541 76.408 20.4541 76.4565C20.4541 76.5051 20.4339 76.6062 20.4258 76.6791C20.3854 76.9623 20.3489 77.2051 20.3166 77.4034L20.2923 77.5207C20.2356 77.808 20.179 77.978 20.1142 78.0144C20.1051 78.0175 20.0951 78.0175 20.0859 78.0144C19.1714 78.0468 6.23501 75.9264 4.74997 75.5299C3.26493 75.1333 1.10819 70.832 0.950379 70.4597V70.4152V70.3545C0.946228 70.3155 0.946228 70.2762 0.950379 70.2372C1.00824 69.844 1.12558 69.462 1.29837 69.1042C1.29837 69.1042 1.29837 68.2463 1.25791 67.4856C1.16484 64.734 0.950379 56.8111 0.950379 54.5168C0.950379 52.0889 4.23607 46.343 4.23607 46.343C4.23607 46.343 3.77074 51.1987 4.23607 53.137C4.70141 55.0752 7.52986 65.0294 8.3351 65.1589C9.14034 65.2884 16.869 64.8271 17.7835 64.7907C18.698 64.7542 24.4561 52.008 37.4289 52.008Z" fill="black"/>
<path id="Vector_70" d="M111.988 69.3793C111.774 70.9129 111.624 72.6164 111.515 73.7252L111.479 74.1055C111.479 74.231 111.454 74.3564 111.446 74.4818C111.422 74.7772 111.402 75.0686 111.382 75.3518C111.382 75.5501 111.357 75.7565 111.349 75.9426C111.349 75.9871 111.349 76.0276 111.349 76.0721C111.349 76.238 111.349 76.3999 111.349 76.5577C111.349 76.7155 111.349 76.8369 111.349 76.9623V77.2941C111.349 77.4034 111.349 77.5126 111.349 77.6178C111.349 77.8121 111.349 77.9982 111.349 78.1803C111.313 80.8469 111.458 82.6313 111.305 82.6313C110.694 82.6313 58.8589 81.8221 58.3895 81.3891C58.2762 81.2839 58.3895 79.641 58.3248 77.201C58.3248 77.019 58.3248 76.8288 58.3248 76.6386C58.3248 76.5091 58.3248 76.3796 58.3045 76.2339C58.3045 75.8536 58.2681 75.4611 58.2357 75.0524C58.2357 75.0524 58.2357 75.0241 58.2357 75.0079C58.2074 74.6032 58.171 74.15 58.1225 73.7009L58.086 73.3448C58.0618 73.1627 58.0415 72.9806 58.0172 72.7945C57.823 71.2123 57.5155 67.8983 57.0421 66.1988C56.9827 65.9776 56.918 65.7551 56.8478 65.5312C56.7831 65.3207 56.7183 65.1265 56.6455 64.8999C56.6455 64.8999 60.348 72.9361 61.5579 72.9361C62.7677 72.9361 91.0968 73.8708 91.9829 73.8992C92.8691 73.9275 63.2816 74.2148 63.2816 74.2148C63.2816 74.2148 101.715 76.0964 104.628 75.6917C107.299 75.3195 111.333 70.229 111.988 69.3793Z" fill="black"/>
<path id="Vector_71" d="M246.18 80.0901C244.61 80.5231 203.259 83.3758 148.976 81.5347C148.965 81.5309 148.955 81.5238 148.948 81.5145C148.938 81.5037 148.93 81.4914 148.924 81.478C148.915 81.4669 148.909 81.4547 148.904 81.4416C148.714 80.7186 148.585 79.9809 148.519 79.2363C148.519 79.1527 148.507 79.0637 148.483 78.9693C148.446 78.6982 148.406 78.4068 148.361 78.0993C148.361 77.9536 148.321 77.8039 148.297 77.6501C148.272 77.4964 148.268 77.4397 148.252 77.3264C148.236 77.2131 148.2 77.0067 148.175 76.8368C148.175 76.7518 148.151 76.6709 148.135 76.5859C148.119 76.5009 148.111 76.416 148.094 76.331C148.021 75.8616 147.937 75.3679 147.843 74.8581C147.807 74.6517 147.767 74.4535 147.726 74.2349C147.686 74.0164 147.665 73.9193 147.633 73.7615C147.483 73.017 147.313 72.232 147.119 71.4146C147.119 71.4146 158.316 76.0194 160.472 76.0194C162.629 76.0194 239.722 74.9309 241.676 74.9714C243.63 75.0119 246.054 73.8991 246.321 73.3124C246.588 72.7256 247.94 68.3757 247.94 68.3757C247.891 70.0429 247.867 71.8192 247.903 71.9083L247.928 71.9487C247.997 72.0742 247.746 79.6612 246.18 80.0901Z" fill="black"/>
</g>
<path id="Vector_72" opacity="0.05" d="M6.71819 32.9126C6.71819 32.9126 28.5284 37.4365 36.2126 38.2336C43.8967 39.0308 116.894 44.6351 116.894 44.6351L108.109 47.4352L91.8874 46.5288L108.684 49.3896L37.5843 42.3529C20.7755 40.9002 4.19727 46.3791 4.19727 46.3791L6.71819 32.9126Z" fill="black"/>
<path id="Vector_73" opacity="0.05" d="M247.933 56.1838C247.933 56.1838 236.15 58.0371 234.447 58.0371C232.743 58.0371 183.005 58.9597 181.77 59.0366C180.536 59.1134 159.054 56.6896 159.054 56.6896C159.054 56.6896 178.97 57.4544 181.77 57.6122C184.57 57.77 233.969 56.6006 234.977 56.6006C235.984 56.6006 247.933 56.1838 247.933 56.1838Z" fill="black"/>
<path id="Vector_74" d="M8.01235 31.1364C7.20306 31.2214 4.96944 34.3412 4.75093 35.0331C4.53242 35.725 3.45203 40.4229 3.63007 41.1634C3.80811 41.9039 4.54457 43.7855 5.36194 43.9433C6.17932 44.1011 12.0304 41.7825 12.4634 41.2363C12.8964 40.69 13.6045 37.1453 13.3172 35.9435C13.0299 34.7417 9.06442 31.0271 8.01235 31.1364Z" fill="#EEEEEE"/>
<path id="Vector_75" d="M12.4636 41.2404C12.0306 41.7826 6.17951 44.1053 5.36214 43.9434C4.73899 43.822 4.14821 42.6971 3.84473 41.8393C4.36267 42.6 4.89275 42.9682 5.34595 42.948C5.79915 42.9278 11.3266 41.0947 11.9093 40.3623C12.4919 39.6299 12.8763 36.6598 12.8804 36.1136C12.8844 35.5673 9.38428 31.7637 9.38428 31.7637C11.1081 32.7672 13.1232 35.1303 13.3174 35.9436C13.6047 37.1454 12.9006 40.6941 12.4636 41.2404Z" fill="#EBEBEB"/>
<path id="Vector_76" d="M232.548 52.6273C231.253 53.0319 195.126 52.8943 194.661 52.8741C194.196 52.8539 189.146 44.3766 189.736 44.4211C190.327 44.4656 232.196 44.0974 232.576 44.3038C232.956 44.5101 232.924 52.5099 232.548 52.6273Z" fill="#263238"/>
<path id="Vector_77" opacity="0.2" d="M232.799 46.092C232.799 46.3389 232.799 46.6019 232.823 46.877L190.918 47.0146C190.761 46.7395 190.615 46.4764 190.481 46.2296L232.799 46.092ZM191.752 48.439C191.91 48.6979 192.068 48.965 192.23 49.224L232.843 49.1026C232.843 48.8436 232.843 48.5806 232.843 48.3176L191.752 48.439ZM193.128 50.6564C193.306 50.9356 193.476 51.1986 193.642 51.4414L232.763 51.3241C232.763 51.0853 232.795 50.8223 232.803 50.535L193.128 50.6564Z" fill="black"/>
<path id="Vector_78" d="M159.174 44.7767C161.286 47.5606 166.207 53.0557 169.788 53.6019C174 54.2453 186.973 53.5453 187.713 53.1285C188.454 52.7117 185.285 47.0589 182.582 44.9952C179.879 42.9315 164.325 39.8886 161.974 40.0828C159.38 40.3135 158.433 43.8055 159.174 44.7767Z" fill="#EEEEEE"/>
<path id="Vector_79" d="M177.084 48.4269C177.104 52.4733 172.172 54.6463 169.197 51.838C168.738 51.3963 168.373 50.8666 168.124 50.2804C167.875 49.6943 167.746 49.0639 167.746 48.4269C167.746 47.7899 167.875 47.1595 168.124 46.5734C168.373 45.9873 168.738 45.4575 169.197 45.0158C172.176 42.2076 177.112 44.3805 177.088 48.4269H177.084ZM177.084 48.4269C177.084 44.5626 172.285 42.6931 169.687 45.5094C168.95 46.3029 168.54 47.3459 168.54 48.4289C168.54 49.512 168.95 50.555 169.687 51.3484C172.281 54.1809 177.088 52.2953 177.084 48.4269Z" fill="#DBDBDB"/>
<path id="Vector_80" d="M184.942 49.7299C184.982 52.6069 181.413 54.2255 179.277 52.2184C178.937 51.8984 178.667 51.5124 178.482 51.0841C178.297 50.6559 178.202 50.1943 178.202 49.7279C178.202 49.2614 178.297 48.7999 178.482 48.3716C178.667 47.9433 178.937 47.5573 179.277 47.2373C181.409 45.2141 184.982 46.8326 184.942 49.7299ZM184.942 49.7299C184.94 49.3229 184.855 48.9206 184.692 48.5476C184.529 48.1746 184.292 47.8387 183.995 47.5603C183.699 47.282 183.348 47.0671 182.965 46.9287C182.583 46.7904 182.176 46.7316 181.769 46.7558C178.099 47.1118 178.099 52.352 181.769 52.704C182.176 52.7282 182.583 52.6693 182.965 52.531C183.348 52.3927 183.699 52.1778 183.995 51.8994C184.292 51.6211 184.529 51.2852 184.692 50.9121C184.855 50.5391 184.94 50.1368 184.942 49.7299Z" fill="#DBDBDB"/>
<path id="Vector_81" d="M245.829 49.5155C244.182 52.0485 243.215 52.0566 240.321 52.4208C238.776 52.615 235.842 52.6798 235.239 52.2913C234.636 51.9029 235.692 44.2349 236.781 43.1383C237.105 42.8106 239.561 41.2405 240.471 41.3174C242.551 41.4955 246.407 48.6293 245.829 49.5155Z" fill="#EEEEEE"/>
<path id="Vector_82" d="M237.59 52.7807C236.502 52.7807 235.494 52.6957 235.13 52.4651C234.996 52.3801 234.923 52.194 234.883 51.8662C234.697 50.1991 235.595 44.0404 236.635 42.9964C236.951 42.6808 239.468 41.0218 240.491 41.1149C242.025 41.2484 244.17 44.5381 245.234 46.7192C245.752 47.7834 246.306 49.147 245.999 49.6245C244.38 52.1211 243.308 52.2547 240.738 52.5743L240.334 52.6229C239.423 52.7265 238.507 52.7792 237.59 52.7807ZM240.398 41.5155C239.528 41.5155 237.246 42.96 236.922 43.2837C235.943 44.267 234.899 51.5384 235.36 52.1333C235.87 52.4529 238.715 52.4206 240.297 52.2182L240.702 52.1697C243.283 51.85 244.153 51.7408 245.679 49.406C245.776 49.2522 245.646 48.4591 244.87 46.8972C243.615 44.3318 241.632 41.6368 240.455 41.5195L240.398 41.5155Z" fill="#EBEBEB"/>
<path id="Vector_83" d="M239.572 47.4029C239.597 48.6168 239.831 49.8955 240.624 50.8221C240.771 51.0429 240.998 51.1969 241.257 51.2507C241.516 51.3045 241.786 51.2538 242.008 51.1094C243.538 49.7377 243.538 45.0762 242.008 43.7045C241.787 43.5598 241.517 43.5083 241.258 43.5614C240.999 43.6144 240.771 43.7676 240.624 43.9877C239.815 44.9143 239.597 46.2132 239.572 47.4029ZM239.572 47.4029C239.572 45.9219 240.074 42.3611 242.267 43.2877C244.521 44.7808 244.521 50.025 242.267 51.5181C240.094 52.4609 239.544 48.8718 239.572 47.4029Z" fill="#DBDBDB"/>
<path id="Vector_84" d="M236.085 48.5807C236.085 49.4669 236.421 51.2068 237.493 51.2797C238.845 50.9398 238.845 46.2297 237.493 45.8858C236.421 45.9546 236.089 47.6905 236.085 48.5807ZM236.085 48.5807C236.085 47.4922 236.401 44.9389 238.035 45.5985C239.747 46.7113 239.747 50.4542 238.035 51.5589C236.417 52.2225 236.081 49.6651 236.085 48.5807Z" fill="#DBDBDB"/>
<path id="Vector_85" d="M222.662 49.9402H216.245L215.642 47.6013H222.059L222.662 49.9402Z" fill="#A6A6A6"/>
<g id="Group_3" opacity="0.2">
<path id="Vector_86" d="M105.778 73.3529C105.624 65.2196 105.713 55.1075 105.673 46.9702C106.114 42.1145 107.02 37.3235 107.785 32.5164C107.425 35.539 106.28 43.903 106.029 46.7921C106.158 55.5243 106.001 64.5964 105.778 73.3529Z" fill="black"/>
<path id="Vector_87" d="M83.158 29.793L81.8713 34.9157C81.4221 37.0361 80.6573 39.1726 80.6088 41.3374C80.8354 48.8719 81.0499 58.8544 81.1308 66.4253L81.1591 71.7058L80.9325 66.4455C80.6776 59.4168 80.4186 49.6973 80.2972 42.6849C80.2972 41.908 80.2001 40.7831 80.3984 40.0223C81.147 36.5667 82.1464 33.192 83.158 29.8172V29.793Z" fill="black"/>
<path id="Vector_88" d="M38.9345 26.2361C38.0402 29.9183 36.9113 33.5763 36.3448 37.3233C36.45 39.0228 37.0731 40.6697 37.5587 42.2963L37.3888 42.179C40.9837 42.2382 44.5321 43.0025 47.8326 44.4288C58.5192 48.9203 62.8691 59.7648 62.6506 70.767C62.5292 59.8983 58.24 49.2157 47.6788 44.793C44.4332 43.3747 40.9419 42.6036 37.4009 42.5229H37.2714L37.235 42.4056C36.7292 40.7466 36.1384 39.0673 36.0615 37.3152C36.6685 33.5439 37.8946 29.9062 38.9223 26.2361H38.9345Z" fill="black"/>
<path id="Vector_89" d="M20.062 57.0782C19.3134 55.055 18.5567 52.9954 17.1526 51.3242C15.4571 49.0825 13.8628 46.768 12.2969 44.4453C13.0738 45.4192 13.8399 46.4024 14.5952 47.3952C15.3519 48.3865 17.274 50.8994 18.0226 51.8462C19.0601 53.4375 19.7496 55.2301 20.0458 57.1066L20.062 57.0782Z" fill="black"/>
<path id="Vector_90" d="M97.5235 39.2293C97.2645 40.1074 96.9246 41.1958 96.0263 41.6167C94.8172 41.7516 93.5987 41.7814 92.3845 41.7057C91.1748 41.6866 89.9687 41.5662 88.7791 41.3456C88.6384 41.3112 88.5025 41.2596 88.3745 41.1918C87.7513 40.6172 87.5166 39.7998 87.2617 39.031C87.6057 39.7068 87.9375 40.4958 88.5202 40.9814C88.754 41.0555 88.9957 41.1017 89.2404 41.119C91.3405 41.297 93.4892 41.3617 95.5974 41.3698C95.8352 41.3998 96.0753 41.3344 96.265 41.1878C96.8286 40.6373 97.2626 39.9683 97.5356 39.2293H97.5235Z" fill="black"/>
<path id="Vector_91" d="M97.6079 37.8577C97.4015 37.1334 97.1587 36.2392 96.5558 35.7981C96.3117 35.7272 96.0608 35.6824 95.8072 35.6646C94.1928 35.5222 92.571 35.4817 90.9515 35.5432C89.855 35.5432 88.8636 35.7495 88.0947 36.5831C87.6908 36.9406 87.3478 37.3616 87.0791 37.8294C87.2814 37.3175 87.5778 36.8481 87.9531 36.4455C88.3186 36.0162 88.7728 35.671 89.2844 35.4339C89.8196 35.274 90.373 35.1828 90.9313 35.1628C92.567 35.0534 94.2096 35.1185 95.8315 35.357C96.1174 35.3946 96.3975 35.468 96.6651 35.5755C97.3449 36.1339 97.4744 37.0484 97.5917 37.8577H97.6079Z" fill="black"/>
<path id="Vector_92" d="M97.2756 37.7685C98.0485 37.8859 99.1815 38.6142 97.9352 39.1241C96.6808 39.5287 95.3212 39.4033 94.0263 39.4802C91.8938 39.5045 89.8463 39.5611 87.7017 39.375C87.271 39.3042 86.8695 39.1119 86.5445 38.8206C86.0953 38.3553 86.4878 37.809 87.026 37.6552C88.3168 37.287 89.6845 37.4813 90.9955 37.4448C93.093 37.4472 95.189 37.5553 97.2756 37.7685ZM97.2756 37.7685C94.172 37.4327 90.9834 37.6107 87.8798 37.8292C87.3618 37.8778 86.1439 38.2339 87.0948 38.7437C87.7746 39.0958 88.5515 39.0229 89.3203 39.0836C91.9141 39.1807 94.5807 39.3993 97.1623 39.2576C98.8173 39.1079 98.9346 38.153 97.2756 37.7685Z" fill="black"/>
<path id="Vector_93" d="M48.7914 36.2106C48.5001 37.0765 48.1197 38.1529 47.2052 38.5373C45.992 38.623 44.7737 38.6054 43.5635 38.4847C42.3567 38.416 41.1576 38.2482 39.9783 37.9829C39.8361 37.9456 39.6999 37.8884 39.5737 37.813C38.9748 37.2181 38.7644 36.3886 38.5459 35.6077C38.8656 36.2996 39.165 37.1048 39.7275 37.6107C39.9593 37.6925 40.1995 37.7481 40.4437 37.7765C42.5357 38.0355 44.6803 38.1812 46.7844 38.2743C47.0217 38.3129 47.2646 38.2562 47.4602 38.1165C48.0423 37.5873 48.5009 36.9367 48.8036 36.2106H48.7914Z" fill="black"/>
<path id="Vector_94" d="M48.9126 34.8428C48.7386 34.1104 48.5282 33.2242 47.9455 32.7427C47.7034 32.6636 47.454 32.6094 47.2009 32.5808C45.5987 32.3751 43.9849 32.2724 42.3695 32.2733C41.2729 32.2247 40.2775 32.3947 39.4723 33.1999C39.0548 33.5438 38.6967 33.9539 38.4121 34.4138C38.6351 33.9113 38.9493 33.4545 39.3387 33.0664C39.7216 32.6535 40.1878 32.3266 40.7064 32.1074C41.2488 31.9701 41.806 31.9008 42.3655 31.901C44.0038 31.8569 45.6422 31.9858 47.2535 32.2854C47.5321 32.3373 47.8037 32.4215 48.0628 32.5363C48.7224 33.119 48.8236 34.0416 48.9004 34.8549L48.9126 34.8428Z" fill="black"/>
<path id="Vector_95" d="M48.6054 34.7418C50.2604 35.1707 50.1147 36.1459 48.4355 36.2794C46.3394 36.4089 44.2393 36.2794 42.1433 36.2268C40.8525 36.0811 39.4119 36.2794 38.1899 35.6603C37.7205 35.4175 37.4009 34.7903 37.9593 34.4221C38.329 34.2093 38.7467 34.0937 39.1732 34.0863C40.2455 34.0579 41.2814 34.1227 42.3335 34.1712C44.4297 34.2559 46.5203 34.4463 48.5973 34.7418H48.6054ZM48.6054 34.7418C45.514 34.2845 42.3213 34.3371 39.2096 34.4343C38.6917 34.4585 37.4656 34.7863 38.4003 35.3204C39.0639 35.6967 39.8449 35.6563 40.6097 35.7251C43.1994 35.9233 45.8458 36.243 48.4395 36.2066C50.1026 36.1176 50.2564 35.1667 48.6135 34.7216L48.6054 34.7418Z" fill="black"/>
</g>
<path id="Vector_96" d="M125.079 30.2342C124.816 31.0435 106.943 30.7845 84.7764 29.9145C81.26 29.781 77.7315 29.6272 74.2556 29.4573C54.7438 28.5226 31.5537 27.1549 31.1895 25.6739C30.5259 22.9709 44.6965 10.1599 48.5244 8.02741C51.7009 6.25508 55.897 5.05329 66.1345 4.71339C76.4529 4.37349 91.3235 4.1914 97.1706 5.11803C103.018 6.04466 125.475 29.0081 125.079 30.2342Z" fill="#263238"/>
<path id="Vector_97" d="M48.7271 9.21289L44.0292 25.8032C39.8776 25.6009 33.1039 24.8483 32.9865 24.3465C32.7235 22.9869 45.2269 10.9205 48.63 9.26954C48.6637 9.253 48.6961 9.23407 48.7271 9.21289Z" fill="#37474F"/>
<path id="Vector_98" d="M70.4409 6.41255C70.4854 6.59869 67.2361 25.7423 67.2644 27.721C64.583 27.5457 62.089 27.3784 59.7826 27.2193C59.5964 27.2193 59.4022 27.1869 59.2201 27.1748C58.4715 27.1262 57.7432 27.0696 57.0351 27.0129L56.0922 26.9441C55.8899 26.9441 55.6876 26.9117 55.4812 26.8956C52.5138 26.669 49.9228 26.4437 47.708 26.2198C47.4653 26.1996 47.2306 26.1753 46.9999 26.147L46.1016 26.0539H45.9883L44.9443 25.9325L49.7232 8.64213C52.5961 7.18542 57.5975 6.21428 70.0767 5.8501C70.2544 5.99444 70.3819 6.19132 70.4409 6.41255Z" fill="#37474F"/>
<path id="Vector_99" d="M115.189 29.7606C110.912 30.064 73.4133 28.1986 73.0127 28.1744C73.0329 24.5326 74.9752 6.32366 74.9793 6.27915C75.0112 6.12225 75.0936 5.98011 75.214 5.87451H75.914H77.2412H77.6459C85.9613 5.97567 95.6403 6.21846 98.0682 6.60691C101.362 7.14509 113.521 20.818 113.61 20.9879C114.234 22.1897 115.719 29.7201 115.189 29.7606Z" fill="#37474F"/>
<g id="Group_4" opacity="0.5">
<path id="Vector_100" d="M48.7281 9.21265L44.0302 25.803C39.8785 25.6007 33.1048 24.848 32.9875 24.3463C32.7245 22.9867 45.2279 10.9202 48.631 9.2693C48.6647 9.25276 48.6971 9.23383 48.7281 9.21265Z" fill="#455A64"/>
<path id="Vector_101" d="M49.6396 8.92529C55.776 12.2417 62.1299 15.1388 68.6578 17.5968C67.9254 22.2664 67.2415 26.8226 67.2537 27.7128C64.5749 27.5375 62.081 27.3702 59.7718 27.2111C59.5857 27.2111 59.3915 27.1787 59.2094 27.1666C58.4608 27.114 57.7324 27.0614 57.0243 27.0047L56.0855 26.9359L55.4705 26.8874C52.4923 26.6608 49.9067 26.4342 47.6973 26.2116C47.4545 26.1914 47.2198 26.1671 46.9892 26.1388L46.0909 26.0457H45.9776L44.9336 25.9243L49.6396 8.92529Z" fill="#455A64"/>
<path id="Vector_102" d="M115.191 29.7605C110.913 30.0639 73.4152 28.1985 73.0146 28.1743C73.0146 26.7661 73.3181 23.1931 73.6783 19.3288C83.1388 22.4041 91.9479 23.9255 98.4869 23.0515C105.819 22.0682 108.065 18.6449 108.429 15.3633C111.294 18.3334 113.588 20.9352 113.629 21.008C114.236 22.1896 115.721 29.72 115.191 29.7605Z" fill="#455A64"/>
<path id="Vector_103" d="M56.5338 6.80103L69.5107 12.3406C69.3771 13.1499 69.2396 14.0239 69.106 14.9101C63.7554 12.9272 58.6362 10.3683 53.8389 7.2785C54.6239 7.1045 55.5181 6.9467 56.5338 6.80103Z" fill="#455A64"/>
<path id="Vector_104" d="M86.5138 19.5957C82.2593 18.8681 78.058 17.8583 73.9375 16.5731C74.0103 15.8123 74.0872 15.0556 74.1601 14.3232L86.5138 19.5957Z" fill="#455A64"/>
</g>
<path id="Vector_105" d="M196.607 29.0081C196.607 29.0081 135.401 29.9954 133.795 29.7931C132.188 29.5907 127.078 26.8311 126.357 26.2363C125.637 25.6414 105.563 6.22264 105.818 5.48215C106.073 4.74165 148.775 5.56712 158.235 6.63537C158.866 6.88625 159.502 7.14118 160.133 7.40824C176.141 14.097 191.331 25.4189 195.268 28.2635C195.575 28.5097 195.901 28.7316 196.243 28.9271C196.276 28.9312 196.401 28.9595 196.607 29.0081Z" fill="#263238"/>
<path id="Vector_106" d="M195.276 28.2674C186.434 28.405 136.603 29.1576 135.186 28.9836C133.612 28.7934 128.619 26.1997 127.903 25.6413C127.187 25.0829 107.586 6.84158 107.824 6.1456C108.063 5.44961 149.834 6.22652 159.085 7.23004C159.438 7.26937 159.79 7.32882 160.137 7.40808C176.148 14.1009 191.347 25.4228 195.276 28.2674Z" fill="#37474F"/>
<g id="Group_5" opacity="0.5">
<path id="Vector_107" d="M195.278 28.2674C186.436 28.4049 136.605 29.1576 135.188 28.9836C133.614 28.7934 128.621 26.1997 127.905 25.6412C127.189 25.0828 107.588 6.84156 107.826 6.14557C107.911 5.91897 112.144 5.84209 118.189 5.87851C122.64 8.94165 133.566 15.0275 153.421 18.1068C169.089 20.5347 178.327 20.4821 183.365 19.9965C189.091 23.7192 193.429 26.928 195.278 28.2674Z" fill="#455A64"/>
<path id="Vector_108" d="M159.053 15.9825C142.167 14.0362 131.57 9.21691 126.095 5.97168L130.825 6.05666L159.053 15.9825Z" fill="#455A64"/>
</g>
<path id="Vector_109" d="M105.757 28.7814C104.924 27.7779 106.457 20.64 107.299 20.203C108.141 19.766 118.147 21.2429 118.046 25.8478C117.945 30.4526 107.06 30.3434 105.757 28.7814Z" fill="#9C9090"/>
<path id="Vector_110" opacity="0.7" d="M36.9072 30.0358C65.3131 32.1359 93.8566 33.6776 122.323 34.9522C131.452 35.4054 141.661 36.4049 150.761 37.2991C160.244 38.2713 169.615 40.1231 178.755 42.8306C181.798 43.7249 184.824 44.692 187.823 45.7036C185.221 44.9914 181.308 43.9191 178.641 43.2393C169.463 40.8136 160.115 39.0822 150.676 38.0599C141.224 37.113 131.796 35.8465 122.299 35.4014C93.8364 34.0418 65.301 32.3301 36.9194 30.0237L36.9072 30.0358Z" fill="#EEEEEE"/>
<path id="Vector_111" opacity="0.7" d="M197.526 31.1445C207.493 32.4144 217.192 35.2709 226.256 39.6056C227.025 40.0103 228.162 40.5929 228.923 40.9935C229.765 41.5756 230.512 42.2855 231.136 43.0977C231.658 43.7087 232.144 44.348 232.605 45.0035C231.587 43.7827 230.45 42.667 229.21 41.6733C228.887 41.4578 228.542 41.2761 228.182 41.1311L226.009 40.1357C216.86 36.154 207.258 33.3336 197.534 31.1445H197.526Z" fill="#EEEEEE"/>
<path id="Vector_112" opacity="0.7" d="M140.285 32.0752C152.987 33.103 165.628 35.4621 177.622 39.8524C181.603 41.3091 185.593 42.863 189.267 45.0035C187.358 44.0836 185.402 43.2624 183.408 42.5433C177.464 40.3339 171.366 38.4969 165.235 36.8783C157.025 34.7984 148.645 33.4348 140.285 32.0873V32.0752Z" fill="#EEEEEE"/>
<path id="Vector_113" d="M184.987 69.6465C185.165 69.8731 180.783 75.1294 180.479 75.1941C180.176 75.2589 170.088 75.3964 170.019 75.1941C169.95 74.9918 174.762 69.9338 175.065 69.8124C175.369 69.691 184.752 69.343 184.987 69.6465Z" fill="#263238"/>
<path id="Vector_114" d="M193.937 68.6348C193.382 68.7886 186.366 76.1045 186.738 76.238C187.11 76.3716 236.76 75.4975 237.027 75.4287C237.294 75.3599 236.622 67.9024 236.218 67.8255C235.279 67.6475 195.393 68.2342 193.937 68.6348Z" fill="#263238"/>
<path id="Vector_115" d="M240.094 68.5296C239.475 68.5094 240.689 74.7489 241.198 74.7773C241.708 74.8056 246.054 74.7773 246.564 74.7773C247.074 74.7773 245.281 69.2822 244.775 69.1123C243.226 68.8366 241.663 68.6421 240.094 68.5296Z" fill="#263238"/>
<path id="Vector_116" d="M231.178 69.6744H204.216L202.598 61.6099H229.559L231.178 69.6744Z" fill="#EEEEEE"/>
<g id="Group_6" opacity="0.4">
<path id="Vector_117" d="M61.2384 61.6101C59.1343 54.8526 54.1045 49.0338 47.5534 46.2984C39.9218 43.2353 30.6393 43.3162 23.5905 47.8239C19.2541 50.6715 15.8779 54.7613 13.9033 59.5585C14.7566 57.092 15.9968 54.7768 17.5775 52.6999C24.4281 43.478 36.5067 41.3699 46.9181 45.2747C53.9993 47.9129 59.462 54.3548 61.2384 61.6141V61.6101Z" fill="#EEEEEE"/>
<path id="Vector_118" d="M150.766 62.0189C148.819 55.0833 143.915 48.7264 137.036 46.2378C130.319 43.7897 122.275 44.3319 116.476 48.7264C112.6 51.6196 109.694 55.751 107.942 60.2546C108.674 57.9114 109.74 55.6859 111.107 53.6468C116.958 44.6678 127.422 41.8879 137.307 45.5216C144.312 48.1558 149.264 54.881 150.766 62.0391V62.0189Z" fill="#EEEEEE"/>
</g>
</g>
</svg>
