<svg width="1280" height="1048" viewBox="0 0 1280 1048" fill="none" xmlns="http://www.w3.org/2000/svg">
<rect width="1280" height="1048" fill="#1293C3"/>
<g clip-path="url(#clip0_671_48)">
<mask id="mask0_671_48" style="mask-type:luminance" maskUnits="userSpaceOnUse" x="0" y="0" width="1280" height="1048">
<path d="M1280 0H0V1048H1280V0Z" fill="white"/>
</mask>
<g mask="url(#mask0_671_48)">
<path d="M169.518 -104.947C167.841 -108.82 164.981 -112.063 161.349 -114.213C157.716 -116.362 153.497 -117.307 149.295 -116.912L-69.0619 -96.4091C-73.2695 -96.0143 -77.2438 -94.2969 -80.4147 -91.5033C-83.5856 -88.7096 -85.7901 -84.9834 -86.7119 -80.8591L-134.512 133.062C-135.433 137.183 -135.025 141.49 -133.349 145.365C-131.672 149.241 -128.811 152.486 -125.177 154.636L63.6381 266.353C67.272 268.502 71.4928 269.446 75.6962 269.05C79.8995 268.654 83.8696 266.938 87.0381 264.148L251.527 119.262C254.698 116.469 256.903 112.743 257.825 108.619C258.748 104.495 258.34 100.185 256.661 96.3069L169.518 -104.947Z" fill="white" fill-opacity="0.05"/>
<path d="M1071.34 828.493C1068.62 828.684 1066.03 829.73 1063.94 831.483C1061.86 833.236 1060.38 835.605 1059.72 838.25L1004.83 1058.57C1004.17 1061.21 1004.37 1064 1005.39 1066.52C1006.41 1069.05 1008.21 1071.19 1010.52 1072.63L1203.1 1192.93C1205.41 1194.37 1208.12 1195.05 1210.84 1194.86C1213.56 1194.67 1216.15 1193.62 1218.24 1191.87L1392.13 1045.9C1394.22 1044.14 1395.7 1041.77 1396.36 1039.13C1397.02 1036.48 1396.82 1033.7 1395.8 1031.17L1310.7 820.659C1309.67 818.132 1307.88 815.993 1305.57 814.549C1303.25 813.104 1300.54 812.429 1297.83 812.62L1071.34 828.493Z" fill="white" fill-opacity="0.05"/>
<path d="M1422.87 -22.8128C1424.14 -26.8372 1424.11 -31.1616 1422.78 -35.1672C1421.44 -39.1727 1418.88 -42.6539 1415.45 -45.1126L1237.14 -172.875C1233.7 -175.337 1229.57 -176.648 1225.35 -176.619C1221.12 -176.589 1217.01 -175.222 1213.61 -172.713L1037.19 -42.5597C1033.79 -40.0523 1031.27 -36.5335 1030 -32.5075C1028.72 -28.4816 1028.75 -24.155 1030.08 -20.1475L1099.35 188.061C1100.69 192.068 1103.25 195.55 1106.69 198.008C1110.12 200.467 1114.24 201.775 1118.47 201.747L1337.7 200.263C1341.93 200.234 1346.04 198.868 1349.44 196.359C1352.84 193.851 1355.36 190.329 1356.64 186.3L1422.87 -22.8128Z" fill="white" fill-opacity="0.05"/>
<path d="M-54.659 828.493C-57.3784 828.684 -59.9677 829.73 -62.0556 831.483C-64.1436 833.236 -65.623 835.605 -66.282 838.25L-121.168 1058.57C-121.827 1061.21 -121.632 1064 -120.61 1066.52C-119.588 1069.05 -117.793 1071.19 -115.481 1072.63L77.098 1192.93C79.41 1194.37 82.12 1195.05 84.8394 1194.86C87.5588 1194.67 90.1481 1193.62 92.236 1191.87L266.13 1045.9C268.219 1044.14 269.699 1041.77 270.359 1039.13C271.018 1036.48 270.822 1033.7 269.8 1031.17L184.695 820.659C183.673 818.132 181.878 815.993 179.566 814.549C177.254 813.104 174.544 812.429 171.825 812.62L-54.659 828.493Z" fill="white" fill-opacity="0.05"/>
</g>
</g>
<defs>
<clipPath id="clip0_671_48">
<rect width="1280" height="1048" fill="white"/>
</clipPath>
</defs>
</svg>
