<svg width="337" height="251" viewBox="0 0 337 251" fill="none" xmlns="http://www.w3.org/2000/svg">
<g clip-path="url(#clip0_267_2089)">
<path d="M337 220.579H0V220.748H337V220.579Z" fill="#EBEBEB"/>
<path d="M303.232 231.418H288.62V231.586H303.232V231.418Z" fill="#EBEBEB"/>
<path d="M232.308 227.922H209.317V228.09H232.308V227.922Z" fill="#EBEBEB"/>
<path d="M297.315 225.167H267.302V225.335H297.315V225.167Z" fill="#EBEBEB"/>
<path d="M116.616 228.562H109.107V228.73H116.616V228.562Z" fill="#EBEBEB"/>
<path d="M103.101 228.562H77.2266V228.73H103.101V228.562Z" fill="#EBEBEB"/>
<path d="M63.3632 225.719H44.6934V225.887H63.3632V225.719Z" fill="#EBEBEB"/>
<path d="M159.745 190.535H29.5956C27.4725 190.535 25.7471 188.811 25.7471 186.689V3.84641C25.7471 1.72448 27.4725 0 29.5956 0H159.745C161.868 0 163.594 1.72448 163.594 3.84641V186.689C163.594 188.811 161.868 190.535 159.745 190.535ZM29.5956 0.168407C27.5669 0.168407 25.9156 1.81879 25.9156 3.84641V186.689C25.9156 188.717 27.5669 190.367 29.5956 190.367H159.745C161.774 190.367 163.425 188.717 163.425 186.689V3.84641C163.425 1.81879 161.774 0.168407 159.745 0.168407H29.5956Z" fill="#EBEBEB"/>
<path d="M305.531 190.535H175.382C173.259 190.535 171.533 188.811 171.533 186.689V3.84641C171.533 1.72448 173.259 0 175.382 0H305.531C307.654 0 309.38 1.72448 309.38 3.84641V186.689C309.38 188.811 307.654 190.535 305.531 190.535ZM175.382 0.168407C173.353 0.168407 171.702 1.81879 171.702 3.84641V186.689C171.702 188.717 173.353 190.367 175.382 190.367H305.531C307.56 190.367 309.211 188.717 309.211 186.689V3.84641C309.211 1.81879 307.56 0.168407 305.531 0.168407H175.382Z" fill="#EBEBEB"/>
<path d="M145.631 98.3023L145.935 89.4509L140.495 87.6725C140.273 84.6479 139.768 81.6637 139.046 78.7806L143.657 75.3855L140.529 67.073L134.827 67.5311C133.466 64.8433 131.868 62.2835 130.082 59.8854L133.034 54.9612L126.962 48.4876L121.866 51.0946C119.568 49.1478 117.148 47.3761 114.56 45.8201L115.382 40.1683L107.294 36.4971L103.587 40.8352C100.763 39.9191 97.838 39.232 94.8118 38.7807L93.4368 33.2367L84.5535 32.9336L82.8011 38.3698C79.7479 38.619 76.789 39.0973 73.9043 39.8181L70.4804 35.2374L62.1632 38.3428L62.6215 44.0417C59.9323 45.4226 57.3711 47.0191 54.9716 48.8042L50.0649 45.8538L43.5608 51.8962L46.1692 57.0157C44.2213 59.2859 42.4487 61.7311 40.912 64.3179L35.2571 63.4691L31.5636 71.5526L35.9311 75.2576C35.0145 78.0801 34.3068 81.0238 33.8754 84.0282L28.3082 85.4293L28.0049 94.2808L33.4643 96.0591C33.6867 99.1039 34.1922 102.068 34.9134 104.944L30.3032 108.339L33.4306 116.652L39.1326 116.194C40.4941 118.882 42.0915 121.441 43.8776 123.84L40.9255 128.764L46.9982 135.237L52.0936 132.63C54.365 134.577 56.8116 136.349 59.3998 137.912L58.5506 143.563L66.6386 147.235L70.3658 142.896C73.1898 143.813 76.115 144.5 79.1413 144.951L80.5162 150.495L89.3995 150.798L91.1519 145.362C94.1984 145.113 97.164 144.634 100.042 143.914L103.439 148.494L111.756 145.389L111.318 139.69C114.007 138.309 116.542 136.713 118.968 134.921L123.875 137.871L130.379 131.829L127.77 126.709C129.718 124.439 131.491 121.994 133.028 119.407L138.682 120.256L142.376 112.172L138.008 108.467C138.925 105.645 139.633 102.721 140.064 99.6967L145.611 98.2956L145.631 98.3023ZM85.7802 126.979C66.3824 126.312 51.1972 110.057 51.8577 90.6701C52.525 71.263 68.7886 56.0794 88.1863 56.7463C107.584 57.4132 122.769 73.6678 122.109 93.075C121.441 112.462 105.178 127.639 85.7802 126.979Z" fill="#EBEBEB"/>
<path d="M297.207 69.0264L299.438 66.9449L298.549 65.1867C299.229 64.3918 299.836 63.5431 300.362 62.6674L302.316 62.9637L303.583 60.1749L302.08 58.895C302.404 57.9115 302.64 56.8944 302.788 55.8772L304.709 55.3989L304.81 52.3407L302.93 51.7344C302.849 50.697 302.687 49.6798 302.437 48.6694L304.021 47.4905L302.943 44.6276L300.982 44.7826C300.517 43.8732 299.971 42.9907 299.344 42.142L300.362 40.4579L298.272 38.2214L296.52 39.1174C295.718 38.437 294.875 37.8307 293.999 37.3053L294.282 35.3518L291.498 34.0786L290.218 35.5808C289.227 35.2642 288.209 35.0285 287.192 34.8803L286.713 32.9672L283.653 32.8594L283.04 34.7455C282.009 34.8264 280.984 34.988 279.973 35.244L278.8 33.661L275.929 34.7321L276.091 36.699C275.181 37.1638 274.285 37.7095 273.449 38.336L271.75 37.3188L269.519 39.4003L270.416 41.1652C269.728 41.9601 269.128 42.8088 268.603 43.6846L266.648 43.3882L265.381 46.177L266.884 47.4569C266.56 48.4404 266.325 49.4575 266.176 50.4747L264.255 50.953L264.154 54.0113L266.035 54.6175C266.116 55.6482 266.277 56.6721 266.527 57.6825L264.943 58.8546L266.021 61.7175L267.989 61.5693C268.454 62.4787 269 63.3612 269.627 64.21L268.609 65.894L270.699 68.1305L272.451 67.2345C273.253 67.9149 274.096 68.5212 274.972 69.0466L274.682 70.9934L277.466 72.2665L278.746 70.7711C279.737 71.0877 280.748 71.3167 281.773 71.4717L282.251 73.3848L285.311 73.4925L285.924 71.6064C286.956 71.5255 287.98 71.3639 288.991 71.1079L290.164 72.6909L293.035 71.6199L292.873 69.6529C293.783 69.1881 294.673 68.6492 295.516 68.0159L297.207 69.0264ZM281.287 56.1399C279.643 54.3817 279.737 51.6199 281.496 49.983C283.255 48.3393 286.019 48.4336 287.663 50.1918C289.308 51.95 289.214 54.7118 287.448 56.3555C285.689 57.9991 282.925 57.9048 281.287 56.1466V56.1399Z" fill="#EBEBEB"/>
<path d="M215.674 159.905L208.705 155.096V155.082C208.017 152.549 207.067 150.118 205.901 147.827L207.687 140.822L197.577 130.003L190.46 131.303C188.256 129.99 185.89 128.871 183.416 128.016C183.416 128.016 183.403 128.016 183.396 128.016L179.069 120.734L164.268 120.229L159.456 127.194C159.456 127.194 159.435 127.194 159.429 127.194C156.901 127.881 154.461 128.831 152.176 129.99L145.174 128.205L134.349 138.309L135.65 145.409C134.309 147.639 133.217 150.003 132.361 152.475L125.075 156.8L124.569 171.6L131.545 176.416C132.233 178.962 133.156 181.394 134.342 183.705L132.563 190.69L142.673 201.509L149.743 200.215C151.974 201.535 154.347 202.647 156.854 203.509L161.174 210.778L175.975 211.283L180.788 204.324C183.349 203.637 185.789 202.687 188.101 201.522L195.076 203.3L205.901 193.196L204.6 186.096C205.941 183.866 207.033 181.502 207.889 179.023L215.175 174.698L215.681 159.899L215.674 159.905ZM169.539 182.398C160.339 182.081 153.147 174.361 153.464 165.187C153.78 155.992 161.478 148.804 170.684 149.121C179.885 149.437 187.076 157.13 186.759 166.332C186.443 175.5 178.745 182.714 169.539 182.398Z" fill="#EBEBEB"/>
<path d="M231.553 117.885C231.553 117.885 231.519 117.885 231.505 117.885L219.832 117.487C219.346 117.474 218.902 117.211 218.659 116.793L215.518 111.505C213.847 110.899 212.202 110.138 210.611 109.228L205.55 110.151C205.071 110.239 204.586 110.077 204.256 109.72L196.282 101.192C195.952 100.835 195.824 100.337 195.945 99.8717L197.219 94.8802C196.444 93.2972 195.797 91.6131 195.291 89.8482L190.216 86.3453C189.818 86.0691 189.583 85.6111 189.603 85.1261L190 73.4588C190.014 72.9738 190.277 72.5292 190.695 72.2867L195.999 69.1409C196.626 67.4232 197.387 65.7795 198.27 64.2571L197.34 59.1847C197.253 58.7064 197.414 58.2214 197.772 57.8913L206.311 49.9223C206.668 49.5923 207.167 49.4643 207.632 49.5855L212.64 50.8654C214.264 50.0773 215.943 49.4306 217.661 48.9321L221.166 43.8597C221.443 43.4623 221.894 43.213 222.386 43.2467L234.06 43.6441C234.545 43.6576 234.99 43.9203 235.233 44.338L238.38 49.6394C240.052 50.2524 241.689 51.0136 243.253 51.9095L248.342 50.9799C248.82 50.8924 249.306 51.054 249.636 51.411L257.609 59.9459C257.94 60.3029 258.068 60.8014 257.946 61.2662L256.666 66.278C257.454 67.9014 258.101 69.5788 258.6 71.2965L263.669 74.7994C264.066 75.0756 264.295 75.5336 264.282 76.0186L263.884 87.6858C263.871 88.1708 263.608 88.6154 263.19 88.858L257.886 92.0038C257.259 93.7215 256.497 95.3585 255.614 96.8808L256.544 101.96C256.632 102.438 256.47 102.923 256.113 103.253L247.58 111.216C247.223 111.546 246.731 111.674 246.259 111.552L241.272 110.279C239.627 111.074 237.935 111.721 236.223 112.213L232.725 117.278C232.456 117.662 232.024 117.891 231.553 117.891V117.885ZM220.708 114.665L230.825 115.008L234.174 110.158C234.363 109.882 234.653 109.68 234.976 109.592C236.837 109.094 238.69 108.386 240.47 107.484C240.47 107.484 240.47 107.484 240.476 107.484C240.773 107.336 241.123 107.295 241.46 107.383L246.205 108.588L253.606 101.684L252.723 96.8539C252.662 96.5103 252.723 96.1601 252.905 95.8637C253.882 94.247 254.711 92.4686 255.365 90.5892C255.473 90.2524 255.702 89.9762 255.999 89.801L261.067 86.7899L261.411 76.6788L256.558 73.3309C256.302 73.1557 256.113 72.8997 256.019 72.6101C256.005 72.5764 255.999 72.536 255.985 72.4956C255.48 70.6364 254.772 68.8108 253.889 67.0729C253.734 66.763 253.693 66.4127 253.781 66.0759L254.994 61.3066L248.086 53.9102L243.24 54.7994C242.903 54.86 242.552 54.7994 242.256 54.6242C240.571 53.6205 238.791 52.792 236.965 52.152C236.864 52.1184 236.756 52.0712 236.668 52.0106C236.473 51.8893 236.311 51.7209 236.19 51.5256L233.177 46.4532L223.06 46.1096L219.71 50.9597C219.508 51.2494 219.212 51.4515 218.875 51.5323C217.001 52.0443 215.181 52.7448 213.449 53.6273C213.139 53.7822 212.788 53.8226 212.451 53.7351L207.679 52.5225L200.279 59.4272L201.162 64.2571C201.216 64.5602 201.175 64.8768 201.034 65.1463C201.014 65.1867 200.993 65.2204 200.966 65.2608C199.989 66.8842 199.16 68.6694 198.506 70.5555C198.398 70.8721 198.176 71.1416 197.886 71.31L192.811 74.3211L192.467 84.4322L197.327 87.7869C197.603 87.9755 197.805 88.2584 197.893 88.5885C198.419 90.5285 199.12 92.3675 199.989 94.0583C200.036 94.1527 200.077 94.2604 200.104 94.3615C200.158 94.5905 200.158 94.8263 200.104 95.0553L198.89 99.8044L205.799 107.201L210.611 106.318C210.948 106.258 211.299 106.318 211.589 106.493C213.307 107.504 215.093 108.339 216.907 108.966C217.237 109.067 217.52 109.289 217.695 109.592L220.701 114.658L220.708 114.665ZM226.956 101.893C226.706 101.893 226.457 101.893 226.208 101.879C214.446 101.475 205.213 91.5861 205.61 79.8381C206.015 68.0833 215.922 58.8546 227.664 59.2521C239.425 59.6562 248.659 69.5451 248.261 81.2931C248.066 86.9785 245.666 92.253 241.501 96.1399C237.517 99.865 232.375 101.886 226.949 101.886L226.956 101.893ZM226.929 62.088C217.021 62.088 208.798 69.9695 208.455 79.9391C208.104 90.1244 216.111 98.6929 226.302 99.0432C231.242 99.2116 235.947 97.4467 239.56 94.0718C243.166 90.7037 245.248 86.1298 245.417 81.2056C245.767 71.0203 237.76 62.4518 227.569 62.1015C227.354 62.0948 227.138 62.088 226.929 62.088Z" fill="#EBEBEB"/>
<path d="M258.439 33.9306L253.606 32.6305L252.306 27.8006L254.2 25.9077L256.195 30.0438L260.333 32.0377L258.439 33.9306Z" fill="#E0E0E0"/>
<path d="M258.736 30.697C259.619 29.8146 259.619 28.3798 258.736 27.5041C257.853 26.6216 256.424 26.6283 255.548 27.5041L257.954 23.9001L261.183 25.5303L261.89 28.9187L258.743 30.697H258.736Z" fill="#E0E0E0"/>
<path d="M253.815 26.2916L257.361 22.7483L262.193 24.0484L263.494 28.8783L259.949 32.4216L255.116 31.1215L253.815 26.2916ZM260.252 29.1882C261.135 28.3057 261.135 26.8709 260.252 25.9952C259.369 25.1127 257.94 25.1195 257.064 25.9952C256.181 26.8776 256.181 28.299 257.064 29.1747C257.947 30.0571 259.376 30.0639 260.252 29.1747V29.1882Z" fill="#F0F0F0"/>
<path d="M60.8078 162.856L63.4027 162.155L64.0969 159.562L63.0859 158.551L62.0142 160.768L59.79 161.839L60.8078 162.856Z" fill="#E0E0E0"/>
<path d="M60.6459 161.118C60.1741 160.646 60.1741 159.878 60.6459 159.4C61.1177 158.922 61.8861 158.929 62.3579 159.4L61.0706 157.467L59.3384 158.343L58.9609 160.161L60.6459 161.118Z" fill="#E0E0E0"/>
<path d="M63.2884 158.753L61.3878 156.854L58.7929 157.548L58.0986 160.141L59.9993 162.041L62.5942 161.347L63.2884 158.753ZM59.8376 160.309C59.3658 159.838 59.3658 159.07 59.8376 158.592C60.3094 158.113 61.0777 158.12 61.5495 158.592C62.0213 159.063 62.0213 159.824 61.5495 160.303C61.0777 160.781 60.3094 160.781 59.8376 160.303V160.309Z" fill="#F0F0F0"/>
<path d="M51.4664 20.6868L53.6165 22.8357C54.1759 23.3948 55.0926 23.3948 55.652 22.8357C56.2114 22.2766 56.2114 21.3605 55.652 20.8014L53.5019 18.6525C52.9425 18.0934 52.0259 18.0934 51.4664 18.6525C50.907 19.2116 50.907 20.1277 51.4664 20.6868Z" fill="#F0F0F0"/>
<path d="M49.9505 15.3249C51.6085 14.7321 53.4081 15.5068 53.9675 17.0628C54.5269 18.6189 53.6372 20.3636 51.9792 20.9631C50.3212 21.5559 48.5216 20.7813 47.9622 19.2252C47.4027 17.6691 48.2924 15.9244 49.9505 15.3249Z" fill="#E0E0E0"/>
<path d="M47.6019 18.8629L47.9141 19.7314L54.3206 17.4313L54.0084 16.5627L47.6019 18.8629Z" fill="#F0F0F0"/>
<path d="M168.5 251C240.674 251 299.182 247.586 299.182 243.374C299.182 239.163 240.674 235.749 168.5 235.749C96.3266 235.749 37.8184 239.163 37.8184 243.374C37.8184 247.586 96.3266 251 168.5 251Z" fill="#F5F5F5"/>
<path d="M58.4495 44.2504C57.7755 41.2865 58.0788 38.7873 59.3526 36.7597C60.6332 34.7321 62.7429 33.3848 65.695 32.7112C68.7212 32.0241 71.2353 32.307 73.2438 33.56C75.2523 34.8129 76.5868 36.9012 77.2541 39.8247C77.7394 41.9466 77.7731 43.7722 77.3687 45.2946C76.9643 46.817 76.1689 48.1103 74.9894 49.1746C73.8099 50.239 72.2126 51.0002 70.1906 51.4582C68.1416 51.923 66.369 51.9837 64.8794 51.6334C63.3899 51.2831 62.0621 50.5017 60.9096 49.2757C59.7503 48.0497 58.9348 46.3791 58.4495 44.2572V44.2504ZM64.0706 42.9975C64.4885 44.8298 65.1288 46.076 65.9915 46.7159C66.8543 47.3626 67.872 47.5512 69.0515 47.2818C70.258 47.0056 71.1005 46.406 71.5857 45.4697C72.071 44.5334 72.0778 43.0514 71.6194 41.017C71.2285 39.306 70.6017 38.1339 69.7322 37.5007C68.8628 36.8675 67.8383 36.6856 66.6521 36.9551C65.5197 37.211 64.6975 37.8173 64.1987 38.7739C63.6932 39.7304 63.6528 41.1383 64.0774 42.984L64.0706 42.9975Z" fill="#263238"/>
<path d="M79.9297 42.0274C79.4714 40.02 79.7747 38.2079 80.8329 36.598C81.891 34.988 83.576 33.9237 85.8811 33.3982C88.5165 32.7987 90.6867 33.1086 92.3785 34.3346C93.74 35.3181 94.6296 36.7125 95.0408 38.5178C95.4991 40.5454 95.2093 42.3575 94.1578 43.954C93.1064 45.5505 91.3944 46.6215 89.022 47.1604C86.9056 47.6387 85.0723 47.4972 83.5221 46.7158C81.6147 45.7526 80.415 44.1897 79.923 42.0341L79.9297 42.0274ZM84.9847 40.8688C85.2543 42.0409 85.6857 42.856 86.2923 43.3073C86.8921 43.7586 87.5594 43.9068 88.2738 43.7451C89.0017 43.5767 89.5342 43.1658 89.8779 42.5057C90.2217 41.8455 90.2486 40.9024 89.9723 39.6832C89.7094 38.5447 89.2848 37.7431 88.685 37.2985C88.0851 36.8472 87.4381 36.699 86.7438 36.8607C86.0092 37.0291 85.4632 37.4467 85.1128 38.1271C84.7623 38.8007 84.7151 39.7169 84.9847 40.8755V40.8688Z" fill="#263238"/>
<path d="M100.143 49.5856L96.0117 31.4112L100.736 30.3401L101.181 32.2869C101.646 31.3236 102.125 30.6298 102.603 30.2189C103.25 29.6665 104.019 29.2825 104.915 29.0804C106.674 28.683 108.191 29.0468 109.458 30.1717C110.725 31.2967 111.588 32.8527 112.039 34.8399C112.538 37.0292 112.39 38.8211 111.608 40.2088C110.819 41.6032 109.627 42.4789 108.022 42.8426C107.247 43.0178 106.506 43.0447 105.805 42.9302C105.104 42.8089 104.443 42.5462 103.817 42.1421L105.246 48.427L100.15 49.5856H100.143ZM102.576 36.881C102.812 37.9252 103.21 38.6459 103.763 39.0501C104.315 39.4543 104.929 39.5823 105.596 39.4273C106.182 39.2926 106.62 38.9423 106.91 38.3698C107.2 37.7972 107.207 36.9282 106.944 35.7763C106.701 34.712 106.317 33.9777 105.791 33.5668C105.266 33.1626 104.706 33.0279 104.106 33.1626C103.459 33.3108 102.981 33.6813 102.664 34.2876C102.347 34.8871 102.32 35.7561 102.576 36.8878V36.881Z" fill="#263238"/>
<path d="M114.196 37.2852L119.096 35.6752C119.44 36.2209 119.824 36.5846 120.256 36.753C120.687 36.9214 121.213 36.9416 121.833 36.8002C122.514 36.6452 123.006 36.3825 123.309 36.012C123.551 35.7291 123.632 35.4327 123.558 35.1094C123.477 34.7456 123.221 34.5099 122.797 34.3953C122.493 34.3145 121.732 34.3078 120.505 34.3684C118.685 34.4627 117.398 34.456 116.656 34.3482C115.915 34.2404 115.241 33.9305 114.634 33.4186C114.028 32.9066 113.63 32.2532 113.455 31.4583C113.259 30.5893 113.34 29.7877 113.704 29.0467C114.068 28.3058 114.655 27.6793 115.47 27.1673C116.286 26.6554 117.438 26.231 118.921 25.8942C120.492 25.5371 121.678 25.3957 122.48 25.463C123.282 25.5304 123.99 25.7662 124.603 26.1501C125.216 26.5408 125.789 27.1269 126.315 27.915L121.637 29.4711C121.415 29.0804 121.139 28.8177 120.808 28.683C120.35 28.5078 119.844 28.4876 119.278 28.6156C118.705 28.7436 118.314 28.939 118.099 29.2017C117.883 29.4644 117.809 29.7406 117.876 30.0302C117.951 30.3536 118.173 30.5557 118.537 30.65C118.908 30.7375 119.656 30.7241 120.795 30.6028C122.514 30.4142 123.828 30.394 124.717 30.5422C125.614 30.6971 126.349 31.0339 126.928 31.5661C127.508 32.0983 127.879 32.7382 128.047 33.4859C128.222 34.2471 128.155 35.0353 127.865 35.8571C127.569 36.6789 126.975 37.4132 126.086 38.0666C125.196 38.7133 123.895 39.232 122.197 39.6227C119.791 40.1683 117.998 40.2155 116.825 39.7641C115.645 39.3128 114.769 38.4842 114.196 37.2852Z" fill="#263238"/>
<path d="M130.655 20.6196L136.189 20.5859L136.216 24.8298L135.198 33.3646L131.774 33.3848L130.682 24.8635L130.655 20.6196ZM130.925 34.6917L136.088 34.6647L136.115 39.2252L130.952 39.2521L130.925 34.6917Z" fill="#263238"/>
<path d="M86.7308 78.5653C86.6904 78.5653 86.6499 78.5585 86.6095 78.545C83.5765 77.3729 81.7634 76.221 80.8198 74.8468C80.1323 74.9816 79.3707 74.894 78.6428 74.5504C77.9351 74.2136 77.2544 73.6276 76.7691 72.7855C76.3108 73.1358 75.7513 73.2301 75.1313 73.0415C74.4438 72.826 73.7361 72.2534 73.143 71.4181C72.7655 71.6875 72.3813 71.7279 72.0983 71.7077C70.0965 71.5461 67.3803 67.5582 67.1848 63.3076C67.1781 63.119 67.3196 62.9641 67.5083 62.9573C67.6903 62.9439 67.8521 63.0921 67.8588 63.2807C68.0408 67.3157 70.6289 70.9129 72.1522 71.0341C72.4016 71.0611 72.6038 70.9802 72.779 70.8455C71.8624 69.2423 71.3906 66.9519 72.0915 64.5067C72.6712 62.4858 73.1834 61.6909 73.7967 61.8391C74.956 62.1288 74.8077 66.5343 74.1877 69.4443C74.0461 70.1045 73.8439 70.576 73.6148 70.9129C74.1472 71.701 74.774 72.2264 75.3267 72.4016C75.8187 72.5565 76.1827 72.4285 76.4523 72.1658C75.9198 70.859 75.812 69.0873 76.5332 66.8172C77.4768 63.833 77.861 63.7522 78.0901 63.7051C78.2519 63.6714 78.4136 63.7253 78.5215 63.8533C79.1416 64.5538 78.4002 69.1884 77.6183 71.4787C77.5172 71.7751 77.3892 72.0378 77.2409 72.2601C77.6588 73.0819 78.2788 73.641 78.9191 73.9442C79.4381 74.1934 79.9706 74.281 80.4491 74.2338C80.3885 74.1058 80.3345 73.9779 80.2874 73.8431C79.7549 72.3948 80.011 70.7242 81.0827 68.737C81.7971 67.4167 82.3768 66.8037 82.9092 66.8037C83.071 66.8037 83.3608 66.8644 83.5765 67.2483C84.1629 68.3329 83.7382 71.9098 82.579 73.6815C82.3026 74.0991 81.9252 74.4157 81.4871 74.6245C82.3902 75.8101 84.1022 76.8542 86.8454 77.9186C87.0206 77.9859 87.1082 78.1813 87.0408 78.3564C86.9869 78.4912 86.8589 78.572 86.7241 78.572L86.7308 78.5653ZM82.9227 67.4706C82.9227 67.4706 82.5385 67.4706 81.6893 69.0536C80.712 70.859 80.4693 72.3477 80.9277 73.6074C80.9816 73.7623 81.049 73.9105 81.1299 74.0587C81.4871 73.9038 81.7971 73.6545 82.0195 73.3177C82.9631 71.8761 83.4147 68.9122 83.0642 67.7535C82.9901 67.5178 82.916 67.4774 82.916 67.4774L82.9227 67.4706ZM78.0901 64.6347C77.9149 64.9647 77.6251 65.6316 77.187 67.0126C76.6073 68.8381 76.6073 70.2999 76.9308 71.4248C76.9511 71.3709 76.9713 71.3103 76.9915 71.2564C77.7868 68.9391 78.171 65.7529 78.0901 64.6347ZM73.6485 62.5127C73.5339 62.6205 73.2104 63.0449 72.7386 64.6818C72.1185 66.8442 72.5027 68.8179 73.2306 70.2392C73.3721 69.9496 73.4665 69.6128 73.5339 69.2962C74.2348 65.9886 74.0326 62.9977 73.6485 62.5195V62.5127Z" fill="#263238"/>
<path d="M112.355 113.87C111.331 113.87 110.246 113.634 109.282 113.068C109.12 112.974 109.066 112.765 109.161 112.61C109.255 112.449 109.464 112.395 109.619 112.489C112.025 113.897 115.132 112.913 115.773 111.89C115.847 111.768 115.914 111.613 115.874 111.438C114.923 111.539 113.751 111.29 112.416 110.448C110.704 109.377 110.569 109.06 110.576 108.804C110.576 108.656 110.67 108.521 110.805 108.454C111.479 108.117 114.519 109.512 115.786 110.347C115.955 110.455 116.089 110.576 116.204 110.697C116.763 110.562 117.202 110.273 117.485 109.923C117.68 109.687 117.815 109.424 117.882 109.168C117.835 109.168 117.795 109.182 117.747 109.182C116.669 109.289 115.591 108.825 114.438 107.767C113.65 107.033 113.339 106.534 113.441 106.13C113.474 106.002 113.582 105.773 113.926 105.692C114.856 105.463 117.161 106.44 118.098 107.471C118.307 107.7 118.455 107.976 118.529 108.265C119.405 107.855 120.342 106.925 121.441 105.389C121.549 105.241 121.758 105.2 121.913 105.308C122.061 105.416 122.101 105.625 121.994 105.78C120.72 107.558 119.662 108.569 118.59 108.979C118.55 109.451 118.354 109.936 118.004 110.354C117.66 110.765 117.161 111.115 116.534 111.303C116.602 111.607 116.534 111.93 116.346 112.24C115.779 113.156 114.148 113.87 112.355 113.87ZM111.756 109.195C111.985 109.363 112.308 109.586 112.773 109.875C113.69 110.448 114.506 110.711 115.2 110.765C114.081 110.071 112.625 109.458 111.756 109.195ZM114.108 106.332C114.148 106.44 114.297 106.716 114.896 107.268C115.901 108.191 116.811 108.609 117.68 108.508C117.754 108.501 117.822 108.488 117.896 108.474C117.849 108.272 117.747 108.084 117.606 107.915C116.656 106.878 114.573 106.218 114.115 106.325L114.108 106.332Z" fill="#263238"/>
<path d="M121.28 112.947L110.779 114.853L101.242 62.8428L80.9812 66.5208L47.9619 125.126L51.5072 144.466L93.8613 136.78L96.7595 152.597L117.02 148.919L114.122 133.102L124.623 131.196L121.28 112.954V112.947ZM68.1347 122.593L85.6318 91.8963L90.5115 118.531L68.1347 122.593Z" fill="#06C270"/>
<path d="M205.86 59.3062C205.469 55.7158 204.748 52.5228 203.703 49.7272C202.659 46.9384 201.088 44.1968 198.992 41.5157C196.896 38.8347 194.038 36.5039 190.432 34.5302C186.82 32.5565 182.055 31.1823 176.13 30.4144C163.803 28.8111 154.191 30.9937 147.296 36.9755C140.401 42.9573 135.865 54.4089 133.682 71.3372C132.792 78.2216 132.576 84.5874 133.021 90.4278C133.466 96.2748 134.544 100.97 136.243 104.527C138.568 109.525 141.857 113.513 146.117 116.497C150.37 119.481 156.2 121.455 163.607 122.418C176.818 124.136 186.604 121.603 192.973 114.813C199.343 108.023 203.569 96.551 205.651 80.3907C206.581 73.1829 206.649 66.1502 205.867 59.2927L205.86 59.3062Z" fill="#06C270"/>
<path d="M169.693 115.514C168.076 115.46 166.35 115.311 164.564 115.082C158.397 114.281 153.618 112.718 150.376 110.441C147.175 108.198 144.749 105.241 142.969 101.408L142.936 101.34C141.641 98.6325 140.792 94.7726 140.421 89.8686C140.01 84.5537 140.219 78.6392 141.042 72.2869C143.448 53.614 148.415 45.8201 152.163 42.5733C156.53 38.7875 162.421 37.0765 170.179 37.3392C171.769 37.3931 173.454 37.5345 175.18 37.7636C180.161 38.4103 184.097 39.515 186.887 41.0374C189.59 42.5126 191.699 44.2102 193.162 46.0829C194.78 48.1576 195.993 50.2526 196.768 52.3274C197.59 54.5301 198.177 57.1505 198.5 60.1145C199.221 66.386 199.147 72.8797 198.305 79.4611C196.438 93.971 192.825 104.163 187.575 109.761C183.679 113.917 177.835 115.796 169.707 115.52L169.693 115.514Z" fill="#263238"/>
<path d="M182.884 59.5016L182.971 56.9485L181.401 56.4366C181.333 55.5676 181.192 54.7054 180.983 53.8768L182.311 52.9001L181.408 50.5019L179.763 50.6367C179.372 49.862 178.914 49.1277 178.395 48.4339L179.244 47.0126L177.492 45.1466L176.022 45.9011C175.362 45.342 174.661 44.83 173.919 44.3787L174.155 42.7485L171.823 41.6909L170.758 42.9439C169.943 42.6811 169.1 42.4858 168.231 42.3511L167.833 40.7546L165.272 40.667L164.767 42.2365C163.89 42.3106 163.034 42.4454 162.205 42.6542L161.221 41.3339L158.822 42.2298L158.957 43.8735C158.182 44.2709 157.447 44.729 156.753 45.2477L155.337 44.3989L153.464 46.1436L154.218 47.6188C153.659 48.2722 153.147 48.9795 152.702 49.7205L151.071 49.478L150.006 51.8088L151.266 52.8731C151.003 53.6882 150.795 54.537 150.673 55.3992L149.069 55.8034L148.981 58.3564L150.559 58.8684C150.626 59.7441 150.768 60.5996 150.976 61.4282L149.649 62.4049L150.552 64.803L152.196 64.6683C152.587 65.443 153.046 66.1772 153.565 66.8711L152.715 68.2924L154.468 70.1584L155.937 69.4039C156.591 69.963 157.299 70.475 158.04 70.9263L157.797 72.5565L160.129 73.6141L161.201 72.3611C162.017 72.6238 162.859 72.8192 163.729 72.9539L164.126 74.5504L166.687 74.638L167.193 73.0684C168.069 72.9943 168.925 72.8596 169.754 72.6508L170.731 73.9711L173.131 73.0752L173.003 71.4315C173.778 71.0341 174.513 70.576 175.207 70.0573L176.622 70.9061L178.496 69.1614L177.741 67.6862C178.3 67.0327 178.813 66.3254 179.258 65.5844L180.889 65.8269L181.954 63.4962L180.693 62.4319C180.956 61.6168 181.158 60.7747 181.286 59.9058L182.884 59.5016ZM165.629 67.767C160.035 67.5784 155.661 62.8899 155.85 57.2988C156.038 51.701 160.729 47.3292 166.323 47.5178C171.918 47.7064 176.292 52.3948 176.103 57.9927C175.914 63.5838 171.223 67.9556 165.629 67.767Z" fill="#06C270"/>
<path opacity="0.3" d="M193.519 106.372L193.701 104.655L192.67 104.23C192.67 103.638 192.616 103.051 192.515 102.486L193.458 101.886L192.98 100.222H191.861C191.632 99.6901 191.369 99.1646 191.052 98.6729L191.692 97.7567L190.607 96.4095L189.576 96.8406C189.165 96.4297 188.72 96.0525 188.235 95.7157L188.484 94.6177L186.968 93.7824L186.172 94.584C185.626 94.3549 185.067 94.1865 184.501 94.0518L184.312 92.9471L182.593 92.7517L182.169 93.7824C181.576 93.7824 180.996 93.843 180.423 93.944L179.823 92.9942L178.159 93.4792V94.5974C177.633 94.8265 177.107 95.0892 176.608 95.4058L175.692 94.7591L174.344 95.8437L174.775 96.8743C174.377 97.2852 173.986 97.7298 173.649 98.2148L172.564 97.9723L171.729 99.488L172.524 100.269C172.301 100.822 172.126 101.374 171.991 101.947L170.886 102.129L170.704 103.846L171.735 104.277C171.735 104.864 171.789 105.443 171.89 106.015L170.94 106.615L171.425 108.279H172.544C172.773 108.811 173.036 109.336 173.353 109.828L172.706 110.744L173.784 112.098L174.822 111.66C175.233 112.071 175.678 112.449 176.163 112.785L175.914 113.883L177.431 114.719L178.226 113.924C178.772 114.146 179.331 114.314 179.897 114.449L180.086 115.554L181.805 115.749L182.229 114.712C182.816 114.712 183.402 114.651 183.975 114.55L184.575 115.5L186.233 115.015V113.897C186.766 113.668 187.291 113.405 187.79 113.088L188.7 113.735L190.055 112.657L189.617 111.627C190.028 111.216 190.405 110.771 190.749 110.286L191.834 110.529L192.67 109.013L191.874 108.232C192.097 107.679 192.265 107.127 192.4 106.561L193.512 106.372H193.519ZM184.845 105.706C184.043 107.161 182.216 107.699 180.76 106.898C179.304 106.096 178.779 104.271 179.574 102.816C180.376 101.361 182.196 100.835 183.652 101.63C185.107 102.432 185.647 104.251 184.845 105.706Z" fill="#06C270"/>
<path d="M203.07 77.2651L201.061 75.8774C200.866 75.1499 200.589 74.4426 200.252 73.7892L200.765 71.7683L197.853 68.6494L195.804 69.0266C195.17 68.6494 194.49 68.3261 193.775 68.0768L192.528 65.9751L188.262 65.8269L186.873 67.8343C186.873 67.8343 186.873 67.8343 186.867 67.8343C186.139 68.0297 185.438 68.3059 184.777 68.6427L182.755 68.1307L179.635 71.0408L180.012 73.0886C179.628 73.7285 179.311 74.4156 179.062 75.1229L176.959 76.3692L176.811 80.6332L178.819 82.0209C179.015 82.7551 179.284 83.4557 179.628 84.1226L179.116 86.1367L182.027 89.2556L184.063 88.8851C184.703 89.2624 185.391 89.5857 186.112 89.835L187.359 91.9299L191.625 92.0781L193.014 90.0707C193.748 89.8754 194.456 89.5992 195.123 89.2624L197.132 89.7743L200.252 86.8643L199.875 84.8164C200.259 84.1765 200.576 83.4894 200.825 82.7753L202.928 81.5291L203.076 77.2651H203.07ZM189.772 83.7454C187.116 83.6578 185.047 81.4281 185.134 78.7875C185.222 76.1334 187.446 74.0654 190.095 74.1529C192.751 74.2405 194.82 76.4635 194.732 79.1108C194.645 81.7514 192.42 83.8329 189.772 83.7454Z" fill="white"/>
<path d="M217.729 43.2267L218.08 42.3779C218.329 42.2499 218.572 42.0882 218.787 41.9198L219.569 41.9468L220.486 40.6332L220.189 39.9124C220.277 39.6497 220.344 39.3735 220.378 39.0906L221.052 38.4709L220.769 36.8946L219.92 36.5443C219.791 36.295 219.636 36.0593 219.461 35.8437L219.488 35.0623L218.174 34.1462L217.453 34.4426C217.183 34.3483 216.913 34.2876 216.63 34.2539L216.01 33.5803L214.433 33.8632L214.083 34.712C213.827 34.84 213.591 34.9949 213.375 35.1701L212.593 35.1431L211.677 36.4567L211.973 37.1775C211.885 37.4402 211.818 37.7164 211.784 38.006L211.11 38.6258L211.393 40.2021L212.243 40.5524C212.371 40.8083 212.532 41.0441 212.708 41.2597L212.681 42.0343L213.995 42.9505L214.716 42.6541C214.986 42.7484 215.255 42.809 215.539 42.8427L216.165 43.5163L217.743 43.2334L217.729 43.2267ZM214.298 38.8548C214.123 37.8713 214.777 36.9417 215.754 36.7666C216.738 36.5914 217.668 37.2449 217.844 38.2216C218.019 39.1984 217.365 40.1347 216.388 40.3099C215.41 40.485 214.474 39.8316 214.298 38.8548Z" fill="#06C270"/>
<path d="M199.242 38.7606L198.729 38.3295C199.626 37.2719 200.893 35.9314 202.78 34.9412L203.09 35.5407C201.082 36.5915 199.794 38.1139 199.242 38.7674V38.7606Z" fill="#06C270"/>
<path d="M204.62 34.9278L204.357 34.308C206.905 33.2168 209.567 32.7924 212.27 33.0416L212.21 33.7152C209.621 33.466 207.074 33.8837 204.627 34.9278H204.62Z" fill="#06C270"/>
<path d="M203.347 39.5892L202.787 39.2119C204.169 37.1776 206.905 35.4127 209.439 34.9075L209.568 35.5676C207.195 36.0392 204.634 37.6895 203.34 39.5892H203.347Z" fill="#06C270"/>
<path d="M158.62 104.412C158.532 104.412 158.444 104.379 158.377 104.311L156.962 102.856C156.24 102.789 155.533 102.654 154.838 102.459L152.635 103.429C152.527 103.476 152.405 103.462 152.311 103.402L148.617 100.957C148.523 100.896 148.462 100.788 148.469 100.674L148.503 98.2755C148.051 97.7164 147.654 97.1101 147.31 96.4702L145.416 95.7359C145.308 95.6955 145.227 95.6012 145.207 95.4867L144.324 91.1485C144.304 91.034 144.338 90.9195 144.418 90.8386L145.874 89.424C145.942 88.71 146.076 87.9959 146.265 87.3021L145.295 85.1061C145.247 84.9983 145.261 84.877 145.322 84.7827L147.768 81.0913C147.829 80.997 147.923 80.9363 148.051 80.9431L150.451 80.9767C151.017 80.5254 151.624 80.128 152.257 79.7912L152.992 77.8983C153.032 77.7905 153.127 77.7097 153.241 77.6895L157.582 76.807C157.696 76.7868 157.811 76.8205 157.892 76.9013L159.3 78.3563C160.015 78.4237 160.729 78.5584 161.423 78.747L163.621 77.777C163.729 77.7299 163.85 77.7433 163.944 77.804L167.638 80.2492C167.732 80.3099 167.793 80.4176 167.786 80.5322L167.752 82.937C168.204 83.4961 168.602 84.1024 168.939 84.7356L170.833 85.4698C170.94 85.5103 171.021 85.6046 171.041 85.7191L171.924 90.0572C171.945 90.1718 171.911 90.2863 171.83 90.3671L170.374 91.7817C170.307 92.489 170.172 93.2031 169.977 93.8969L170.947 96.0997C170.994 96.2074 170.981 96.3287 170.92 96.423L168.474 100.108C168.413 100.202 168.312 100.249 168.19 100.256L165.791 100.222C165.232 100.667 164.625 101.064 163.985 101.408L163.25 103.301C163.21 103.409 163.115 103.489 163.001 103.51L158.66 104.392C158.66 104.392 158.613 104.392 158.593 104.392L158.62 104.412ZM154.818 101.765C154.818 101.765 154.879 101.765 154.913 101.778C155.634 101.987 156.382 102.129 157.144 102.196C157.224 102.196 157.299 102.236 157.359 102.297L158.734 103.712L162.711 102.903L163.425 101.064C163.452 100.99 163.513 100.923 163.587 100.889C164.261 100.539 164.901 100.121 165.488 99.6429C165.548 99.5958 165.616 99.5621 165.703 99.5688L168.042 99.6025L170.287 96.2209L169.343 94.0788C169.309 94.0047 169.309 93.9239 169.329 93.8498C169.545 93.1155 169.68 92.361 169.747 91.62C169.747 91.5392 169.788 91.4651 169.848 91.4045L171.264 90.0303L170.455 86.0559L168.615 85.3419C168.534 85.3149 168.474 85.2543 168.433 85.1802C168.083 84.5066 167.665 83.8733 167.186 83.2873C167.132 83.2267 167.105 83.1458 167.112 83.065L167.146 80.7275L163.762 78.4843L161.619 79.4274C161.545 79.4611 161.464 79.4611 161.39 79.4409C160.662 79.2253 159.907 79.0906 159.152 79.0232C159.071 79.0232 158.997 78.9828 158.936 78.9222L157.568 77.5076L153.592 78.3159L152.877 80.1549C152.85 80.229 152.79 80.2964 152.715 80.3301C152.041 80.6804 151.408 81.098 150.815 81.5763C150.754 81.6234 150.673 81.6638 150.592 81.6504L148.254 81.6167L146.009 84.9983L146.953 87.1404C146.993 87.2347 146.993 87.3358 146.946 87.4301C146.757 88.1037 146.616 88.8514 146.555 89.6059C146.555 89.6867 146.515 89.7608 146.454 89.8215L145.039 91.1957L145.847 95.1701L147.687 95.8841C147.768 95.9178 147.836 95.9784 147.869 96.0593C148.22 96.7261 148.638 97.3593 149.109 97.9387C149.163 97.9993 149.19 98.0801 149.19 98.161L149.157 100.498L152.54 102.742L154.683 101.799C154.724 101.778 154.771 101.772 154.818 101.772V101.765ZM158.134 99.5823C156.429 99.5823 154.71 99.0973 153.187 98.0936C151.185 96.7666 149.824 94.7457 149.345 92.3947C148.867 90.0438 149.332 87.6524 150.66 85.6517C153.403 81.5291 158.984 80.3907 163.108 83.1256C167.233 85.8605 168.366 91.4449 165.629 95.5675C163.904 98.1677 161.046 99.5823 158.134 99.5823ZM151.219 86.0222C149.992 87.8679 149.561 90.0842 150.006 92.26C150.451 94.4358 151.711 96.3018 153.558 97.5278C157.379 100.054 162.542 99.0097 165.07 95.197C167.597 91.3843 166.553 86.2176 162.738 83.6847C158.923 81.1586 153.753 82.2027 151.219 86.0222Z" fill="white"/>
<path d="M287.01 119.03L276.435 117.602L283.431 65.187L263.022 62.4319L213.517 107.989L210.915 127.477L253.573 133.23L251.443 149.168L271.851 151.923L273.981 135.985L284.556 137.413L287.01 119.03ZM233.481 111.809L259.605 88.0095L256.019 114.847L233.481 111.809Z" fill="#06C270"/>
<path d="M265.643 151.425C265.643 151.425 265.603 151.425 265.583 151.425C265.401 151.391 265.28 151.216 265.313 151.034L281.038 64.8569C281.071 64.675 281.247 64.5605 281.429 64.5874C281.611 64.6211 281.732 64.7962 281.698 64.9781L265.974 151.155C265.947 151.317 265.805 151.431 265.643 151.431V151.425Z" fill="#263238"/>
<path d="M279.596 66.2985C279.583 66.6016 279.333 66.8441 279.023 66.8306C278.713 66.8172 278.477 66.5679 278.491 66.2581C278.504 65.9482 278.754 65.7124 279.064 65.7259C279.367 65.7394 279.61 65.9886 279.596 66.2985Z" fill="#263238"/>
<path d="M277.352 77.9523C277.339 78.2554 277.089 78.4979 276.779 78.4844C276.469 78.471 276.233 78.2217 276.247 77.9119C276.26 77.602 276.51 77.3662 276.82 77.3797C277.123 77.3932 277.365 77.6424 277.352 77.9523Z" fill="#263238"/>
<path d="M275.107 89.6059C275.093 89.909 274.844 90.1515 274.534 90.138C274.224 90.1245 273.988 89.8753 274.002 89.5654C274.015 89.2556 274.264 89.0198 274.574 89.0333C274.878 89.0467 275.12 89.296 275.107 89.6059Z" fill="#263238"/>
<path d="M270.686 101.738C270.672 102.041 270.423 102.284 270.113 102.27C269.803 102.257 269.567 102.007 269.581 101.698C269.594 101.388 269.843 101.152 270.154 101.165C270.464 101.179 270.699 101.428 270.686 101.738Z" fill="#263238"/>
<path d="M270.612 112.913C270.598 113.217 270.349 113.459 270.039 113.446C269.729 113.432 269.493 113.183 269.506 112.873C269.52 112.563 269.769 112.327 270.079 112.341C270.389 112.354 270.625 112.604 270.612 112.913Z" fill="#263238"/>
<path d="M268.367 124.567C268.353 124.87 268.104 125.113 267.794 125.099C267.484 125.086 267.248 124.837 267.261 124.527C267.275 124.224 267.524 123.981 267.834 123.995C268.144 124.008 268.38 124.257 268.367 124.567Z" fill="#263238"/>
<path d="M266.123 136.221C266.109 136.524 265.86 136.766 265.55 136.753C265.24 136.74 265.004 136.49 265.017 136.18C265.031 135.871 265.28 135.635 265.59 135.648C265.9 135.662 266.136 135.911 266.123 136.221Z" fill="#263238"/>
<path d="M263.872 147.875C263.858 148.178 263.609 148.42 263.299 148.407C262.989 148.393 262.753 148.144 262.766 147.834C262.78 147.524 263.029 147.289 263.339 147.302C263.649 147.316 263.885 147.565 263.872 147.875Z" fill="#263238"/>
<path d="M270.132 102.055C269.977 102.055 269.836 101.947 269.802 101.785C269.762 101.603 269.876 101.421 270.058 101.388L271.73 101.031C271.912 100.997 272.094 101.105 272.127 101.287C272.168 101.469 272.053 101.651 271.871 101.684L270.2 102.041C270.2 102.041 270.153 102.048 270.126 102.048L270.132 102.055Z" fill="#263238"/>
<path d="M275.72 95.8503C275.72 95.8503 274.211 99.7776 273.705 102.155C273.2 104.533 273.166 109.848 273.166 109.848" fill="#263238"/>
<path d="M273.166 110.185C272.977 110.185 272.829 110.03 272.829 109.848C272.829 109.633 272.863 104.473 273.375 102.081C273.881 99.7035 275.343 95.8841 275.404 95.7224C275.471 95.5473 275.667 95.4664 275.842 95.5271C276.017 95.5944 276.105 95.7898 276.037 95.9649C276.024 96.0053 274.534 99.8922 274.036 102.223C273.544 104.54 273.503 109.801 273.503 109.848C273.503 110.037 273.348 110.185 273.166 110.185Z" fill="#263238"/>
<path d="M149.932 168.333C150.868 153.243 149.143 125.807 177.525 129.437C207.949 133.331 199.241 168.885 199.241 168.885L149.925 168.333H149.932Z" fill="#263238"/>
<path d="M169.518 159.266C176.36 159.266 181.906 153.722 181.906 146.884C181.906 140.046 176.36 134.503 169.518 134.503C162.676 134.503 157.13 140.046 157.13 146.884C157.13 153.722 162.676 159.266 169.518 159.266Z" fill="white"/>
<path d="M171.149 134.523C165.286 133.52 159.011 137.844 158.391 142.223L181.65 144.358C180.828 139.367 175.807 135.318 171.149 134.523Z" fill="#263238"/>
<path d="M179.001 146.575C178.833 149.808 177.074 152.348 175.058 152.246C173.043 152.145 171.553 149.437 171.722 146.197C171.89 142.964 173.65 140.424 175.665 140.525C177.68 140.626 179.17 143.334 179.001 146.575Z" fill="#263238"/>
<path d="M169.518 159.933C162.32 159.933 156.456 154.079 156.456 146.878C156.456 139.677 162.313 133.823 169.518 133.823C176.723 133.823 182.58 139.677 182.58 146.878C182.58 154.079 176.723 159.933 169.518 159.933ZM169.518 135.177C163.061 135.177 157.804 140.424 157.804 146.884C157.804 153.344 163.055 158.592 169.518 158.592C175.982 158.592 181.232 153.344 181.232 146.884C181.232 140.424 175.982 135.177 169.518 135.177Z" fill="#407BFF"/>
<path opacity="0.3" d="M195.79 167.949C195.79 167.949 195.736 167.949 195.709 167.942C195.527 167.901 195.419 167.72 195.46 167.538C195.48 167.45 197.63 158.316 195.399 149.08C195.359 148.898 195.466 148.717 195.648 148.676C195.824 148.636 196.012 148.744 196.053 148.925C198.324 158.323 196.134 167.605 196.114 167.699C196.073 167.854 195.938 167.955 195.783 167.955L195.79 167.949Z" fill="white"/>
<path opacity="0.3" d="M193.91 144.028C193.782 144.028 193.661 143.954 193.607 143.833C192.737 141.94 191.666 140.209 190.412 138.673C190.297 138.531 190.318 138.316 190.459 138.201C190.601 138.08 190.816 138.107 190.931 138.248C192.218 139.825 193.33 141.61 194.22 143.55C194.301 143.718 194.22 143.92 194.052 143.994C194.004 144.015 193.957 144.028 193.91 144.028Z" fill="white"/>
<path d="M86.7638 239.117C86.6829 239.117 86.5953 239.117 86.5144 239.117C84.6541 239.063 83.1848 237.514 83.2387 235.655C83.2927 233.796 84.8226 232.361 86.7031 232.381C86.7233 232.381 86.7435 232.381 86.7705 232.381C88.7184 232.381 93.4027 230.017 103.203 214.577C103.728 213.748 104.591 213.189 105.562 213.048C106.532 212.906 107.523 213.196 108.258 213.843C120.349 224.378 133.162 230.939 133.29 231.007C134.948 231.849 135.609 233.876 134.766 235.534C133.924 237.191 131.895 237.858 130.237 237.015C129.725 236.76 118.529 231.034 106.782 221.421C98.5655 233.762 92.4725 239.117 86.7638 239.117Z" fill="#263238"/>
<path d="M107.618 213.237C107.524 213.237 107.429 213.237 107.328 213.216C106.223 213.061 105.455 212.037 105.61 210.933C106.088 207.578 105.495 195.015 101.249 185.247C100.865 184.358 101.161 183.321 101.963 182.768C111.197 176.483 130.864 175.729 131.693 175.702C132.805 175.675 133.742 176.537 133.783 177.649C133.823 178.767 132.947 179.697 131.835 179.737C131.653 179.737 114.459 180.404 105.623 185.261C109.384 194.988 110.24 207.113 109.613 211.499C109.472 212.509 108.602 213.237 107.611 213.237H107.618Z" fill="#263238"/>
<path d="M111.015 210.616C109.667 207.443 103.608 207.807 100.049 210.522C98.1484 211.977 95.5737 216.342 95.3041 217.925C95.0345 219.508 96.1331 220.943 98.0136 220.781C100.339 220.579 103.527 217.204 103.527 217.204C101.404 219.286 104.14 220.754 108.231 217.743C110.496 216.072 112.518 214.166 111.015 210.616Z" fill="#407BFF"/>
<path d="M226.942 169.222C226.942 169.222 226.882 169.222 226.848 169.208C226.666 169.154 226.565 168.972 226.619 168.791C227.515 165.665 228.499 163.759 229.787 162.694C229.591 162.021 229.612 161.253 229.888 160.498C230.157 159.764 230.683 159.036 231.479 158.477C231.088 158.053 230.946 157.501 231.081 156.874C231.236 156.174 231.741 155.412 232.523 154.745C232.22 154.395 232.146 154.011 232.139 153.728C232.119 151.721 235.853 148.656 240.065 148.083C240.247 148.05 240.422 148.184 240.443 148.373C240.47 148.555 240.342 148.73 240.153 148.75C236.149 149.296 232.793 152.192 232.806 153.722C232.806 153.971 232.901 154.166 233.049 154.328C234.565 153.27 236.803 152.59 239.304 153.075C241.373 153.472 242.215 153.91 242.114 154.537C241.932 155.715 237.524 155.965 234.572 155.608C233.905 155.527 233.413 155.372 233.056 155.17C232.321 155.769 231.849 156.443 231.728 157.009C231.62 157.514 231.782 157.864 232.065 158.114C233.319 157.467 235.078 157.197 237.403 157.716C240.463 158.39 240.578 158.76 240.645 158.983C240.692 159.144 240.652 159.306 240.537 159.427C239.89 160.108 235.206 159.784 232.853 159.212C232.55 159.138 232.274 159.036 232.045 158.908C231.263 159.4 230.764 160.06 230.515 160.734C230.319 161.273 230.272 161.805 230.36 162.283C230.481 162.209 230.602 162.142 230.73 162.088C232.126 161.428 233.811 161.536 235.886 162.425C237.261 163.018 237.929 163.536 237.976 164.068C237.989 164.223 237.962 164.527 237.592 164.769C236.567 165.449 232.961 165.348 231.088 164.351C230.643 164.116 230.299 163.765 230.05 163.348C228.951 164.351 228.061 166.157 227.246 168.979C227.205 169.127 227.071 169.222 226.922 169.222H226.942ZM230.602 162.937C230.791 163.28 231.067 163.563 231.425 163.759C232.948 164.567 235.94 164.756 237.059 164.297C237.288 164.203 237.322 164.129 237.322 164.129C237.322 164.129 237.288 163.752 235.637 163.045C233.75 162.236 232.24 162.122 231.034 162.694C230.885 162.762 230.744 162.842 230.602 162.937ZM232.847 158.511C232.907 158.531 232.961 158.545 233.022 158.558C235.401 159.138 238.616 159.239 239.715 159.057C239.371 158.915 238.677 158.679 237.261 158.37C235.394 157.959 233.932 158.087 232.84 158.504L232.847 158.511ZM233.696 154.725C233.999 154.84 234.343 154.907 234.667 154.941C238.023 155.338 240.989 154.867 241.433 154.449C241.319 154.348 240.867 154.058 239.189 153.735C236.978 153.317 235.044 153.87 233.696 154.719V154.725Z" fill="#263238"/>
<path d="M139.202 237.992C139.646 237.851 139.498 237.42 138.999 237.42H129.873C112.498 235.581 100.359 238.046 108.009 238.625C115.659 239.205 107.47 239.083 101.882 241.199C96.2948 243.314 143.434 243.846 147.728 241.199C151.684 238.76 133.048 239.966 139.202 237.992Z" fill="#263238"/>
<path d="M204.539 240.68L125.142 238.046L121.846 161.104L215.606 163.199L204.539 240.68Z" fill="#407BFF"/>
<path d="M149.931 239.205C149.756 239.205 149.607 239.07 149.594 238.895L143.231 161.616C143.218 161.428 143.353 161.266 143.541 161.253C143.73 161.239 143.892 161.374 143.905 161.562L150.268 238.841C150.281 239.03 150.147 239.191 149.958 239.205C149.951 239.205 149.938 239.205 149.931 239.205Z" fill="#263238"/>
<path d="M204.539 240.68L225.878 237.433L232.598 165.887L215.606 163.199L204.539 240.68Z" fill="#407BFF"/>
<path opacity="0.2" d="M204.539 240.68L225.878 237.433L232.598 165.887L215.606 163.199L204.539 240.68Z" fill="black"/>
<path d="M131.922 223.213L129.968 177.501C129.765 172.731 133.634 168.777 138.413 168.885L197.765 170.212C202.719 170.32 206.467 174.739 205.766 179.643L199.187 225.712C198.594 229.889 194.948 232.947 190.729 232.805L139.916 231.121C135.595 230.98 132.111 227.531 131.929 223.213H131.922Z" fill="#263238"/>
<path d="M138.339 182.917L147.519 183.206L147.444 185.571L141.695 185.389L141.641 187.147L146.973 187.315L146.899 189.579L141.567 189.41L141.5 191.593L147.418 191.781L147.337 194.294L137.988 193.998L138.339 182.917Z" fill="white"/>
<path d="M149.224 194.355L149.574 183.273L155.283 183.455C156.341 183.489 157.15 183.603 157.702 183.806C158.255 184.008 158.7 184.358 159.023 184.856C159.354 185.362 159.502 185.961 159.482 186.669C159.462 187.282 159.313 187.807 159.037 188.245C158.761 188.683 158.39 189.033 157.918 189.296C157.622 189.464 157.217 189.599 156.698 189.693C157.103 189.841 157.392 189.989 157.574 190.131C157.696 190.225 157.871 190.427 158.107 190.73C158.343 191.034 158.491 191.269 158.565 191.431L160.122 194.698L156.253 194.577L154.528 191.135C154.312 190.69 154.11 190.4 153.935 190.259C153.692 190.077 153.416 189.983 153.106 189.976H152.802L152.661 194.462L149.217 194.355H149.224ZM152.877 187.874L154.319 187.921C154.474 187.921 154.777 187.888 155.229 187.8C155.458 187.76 155.647 187.652 155.795 187.47C155.943 187.288 156.024 187.079 156.031 186.837C156.044 186.48 155.937 186.204 155.714 186.002C155.492 185.8 155.067 185.692 154.447 185.672L152.944 185.624L152.87 187.874H152.877Z" fill="white"/>
<path d="M161.275 194.739L161.626 183.657L167.335 183.839C168.393 183.873 169.202 183.988 169.754 184.19C170.307 184.392 170.752 184.742 171.075 185.24C171.406 185.746 171.554 186.345 171.534 187.053C171.513 187.666 171.365 188.191 171.089 188.629C170.812 189.067 170.442 189.417 169.97 189.68C169.673 189.848 169.269 189.983 168.75 190.077C169.154 190.225 169.444 190.374 169.626 190.515C169.747 190.609 169.923 190.811 170.159 191.115C170.388 191.418 170.543 191.653 170.617 191.815L172.174 195.082L168.305 194.961L166.58 191.519C166.364 191.074 166.162 190.784 165.987 190.643C165.744 190.461 165.468 190.367 165.158 190.36H164.854L164.713 194.846L161.269 194.739H161.275ZM164.928 188.258L166.371 188.305C166.526 188.305 166.829 188.272 167.281 188.184C167.51 188.144 167.699 188.036 167.847 187.854C167.995 187.672 168.076 187.463 168.083 187.221C168.096 186.864 167.988 186.588 167.766 186.386C167.543 186.184 167.119 186.076 166.499 186.056L164.996 186.008L164.922 188.258H164.928Z" fill="white"/>
<path d="M172.76 189.565C172.82 187.753 173.366 186.365 174.404 185.389C175.442 184.412 176.864 183.954 178.664 184.008C180.511 184.068 181.912 184.607 182.883 185.631C183.847 186.655 184.305 188.056 184.251 189.841C184.211 191.135 183.955 192.192 183.496 193.007C183.031 193.822 182.384 194.449 181.542 194.88C180.699 195.318 179.668 195.513 178.435 195.473C177.181 195.432 176.157 195.203 175.348 194.779C174.539 194.355 173.899 193.701 173.413 192.825C172.928 191.95 172.712 190.858 172.753 189.565H172.76ZM176.183 189.686C176.15 190.805 176.332 191.613 176.729 192.118C177.127 192.623 177.687 192.879 178.401 192.906C179.136 192.926 179.715 192.711 180.133 192.239C180.551 191.775 180.78 190.919 180.821 189.68C180.854 188.635 180.666 187.868 180.261 187.376C179.857 186.884 179.291 186.621 178.569 186.601C177.875 186.581 177.316 186.803 176.884 187.281C176.453 187.76 176.217 188.561 176.177 189.686H176.183Z" fill="white"/>
<path d="M185.964 195.52L186.314 184.439L192.023 184.621C193.081 184.655 193.89 184.769 194.443 184.971C194.995 185.173 195.44 185.524 195.764 186.022C196.094 186.527 196.242 187.127 196.222 187.834C196.202 188.447 196.054 188.972 195.777 189.41C195.501 189.848 195.13 190.198 194.658 190.461C194.362 190.63 193.957 190.764 193.438 190.859C193.843 191.007 194.133 191.155 194.315 191.296C194.436 191.391 194.611 191.593 194.847 191.896C195.076 192.199 195.231 192.435 195.305 192.597L196.862 195.864L192.994 195.742L191.268 192.3C191.052 191.856 190.85 191.566 190.675 191.424C190.432 191.243 190.156 191.148 189.846 191.142H189.543L189.401 195.628L185.957 195.52H185.964ZM189.617 189.04L191.059 189.087C191.214 189.087 191.518 189.053 191.969 188.966C192.198 188.925 192.387 188.818 192.535 188.636C192.684 188.454 192.764 188.245 192.771 188.002C192.785 187.645 192.677 187.369 192.454 187.167C192.232 186.965 191.807 186.857 191.187 186.837L189.684 186.79L189.61 189.04H189.617Z" fill="white"/>
<path d="M191.416 214.355C191.173 214.355 190.937 214.261 190.762 214.065L184.992 207.753L178.765 213.439C178.401 213.769 177.841 213.742 177.518 213.385L171.748 207.073L165.521 212.758C165.157 213.088 164.597 213.061 164.274 212.704L158.504 206.393L152.276 212.078C152.101 212.24 151.872 212.32 151.643 212.307C151.407 212.294 151.185 212.192 151.03 212.017L145.26 205.705L139.032 211.391C138.675 211.721 138.109 211.694 137.785 211.337C137.455 210.973 137.482 210.414 137.839 210.091L144.721 203.806C145.078 203.476 145.644 203.503 145.968 203.86L151.737 210.172L157.965 204.486C158.14 204.325 158.369 204.244 158.599 204.257C158.834 204.271 159.057 204.372 159.212 204.547L164.981 210.859L171.209 205.173C171.566 204.843 172.132 204.87 172.456 205.227L178.225 211.539L184.453 205.854C184.81 205.524 185.37 205.551 185.7 205.908L192.069 212.873C192.4 213.237 192.373 213.796 192.016 214.119C191.847 214.274 191.631 214.348 191.422 214.348L191.416 214.355Z" fill="white"/>
<path d="M84.7555 242.31L80.5363 240.303L76.7754 222L78.8176 219.757L84.7555 242.31Z" fill="#407BFF"/>
<path d="M84.7553 242.31L90.3495 239.043L85.5574 223.967L78.8174 219.757L84.7553 242.31Z" fill="#407BFF"/>
<path opacity="0.2" d="M84.7553 242.31L90.3495 239.043L85.5574 223.967L78.8174 219.757L84.7553 242.31Z" fill="black"/>
<path d="M176.555 245.638C176.393 245.638 176.238 245.638 176.09 245.638C174.229 245.584 172.76 244.035 172.814 242.176C172.868 240.316 174.405 238.855 176.278 238.902C181.468 239.07 192.461 235.884 198.736 229.794C199.127 229.417 199.599 229.141 200.118 228.986C210.76 225.793 214.717 232.24 214.885 232.516L209.082 235.945C209.082 235.945 209.102 235.992 209.163 236.066C209.095 235.978 207.592 234.018 202.793 235.231C194.914 242.418 182.823 245.638 176.568 245.638H176.555Z" fill="#263238"/>
<path d="M176.177 250.118L163.903 249.343L162.939 226.729L179.432 227.342L176.177 250.118Z" fill="#407BFF"/>
<path d="M176.177 250.118L179.048 247.261L180.827 233.162L179.432 227.342L176.177 250.118Z" fill="#407BFF"/>
<path opacity="0.2" d="M176.177 250.118L179.048 247.261L180.827 233.162L179.432 227.342L176.177 250.118Z" fill="black"/>
<path d="M247.297 241.549C246.873 241.549 246.441 241.414 246.077 241.138C239.074 235.817 229.598 226.366 225.965 217.251C225.911 217.117 225.871 216.982 225.85 216.84C224.078 206.312 222.386 184.143 222.312 183.206C222.224 182.095 223.06 181.125 224.172 181.037C225.284 180.956 226.255 181.785 226.342 182.896C226.363 183.125 228.068 205.51 229.8 215.951C233.426 224.816 243.253 233.917 248.524 237.918C249.414 238.592 249.589 239.858 248.908 240.747C248.51 241.273 247.904 241.542 247.297 241.542V241.549Z" fill="#263238"/>
<path d="M256.646 242.573C255.082 242.573 253.31 241.866 251.382 240.471C250.479 239.818 250.277 238.551 250.93 237.649C251.584 236.746 252.851 236.544 253.755 237.197C255.426 238.403 256.336 238.538 256.653 238.538C257.772 238.538 258.675 239.441 258.675 240.559C258.675 241.677 257.772 242.58 256.653 242.58L256.646 242.573Z" fill="#263238"/>
<path d="M251.941 240.411C254.105 233.984 262.975 235.257 266.028 236.207C269.081 237.164 271.831 238.363 273.489 239.44C275.14 240.518 275.167 242.33 272.963 243.361C270.24 244.634 263.419 243.502 263.419 243.502C266.951 245.045 263.413 247.524 257.212 245.092C255.197 244.297 251.173 242.761 251.935 240.404L251.941 240.411Z" fill="#407BFF"/>
<path d="M230.414 185.975C229.612 191.431 225.089 195.46 221.409 194.914C217.729 194.375 217.581 189.498 218.383 184.042C219.185 178.585 220.641 174.611 224.321 175.15C228.001 175.689 231.223 180.512 230.414 185.968V185.975Z" fill="#263238"/>
<path d="M141.459 164.19C141.764 164.19 142.012 163.942 142.012 163.637C142.012 163.332 141.764 163.085 141.459 163.085C141.154 163.085 140.906 163.332 140.906 163.637C140.906 163.942 141.154 164.19 141.459 164.19Z" fill="#263238"/>
<path d="M147.073 167.619C147.073 167.922 146.824 168.171 146.52 168.171C146.217 168.171 145.968 167.922 145.968 167.619C145.968 167.315 146.217 167.066 146.52 167.066C146.824 167.066 147.073 167.315 147.073 167.619Z" fill="#263238"/>
<path d="M147.687 232.893C147.687 233.196 147.438 233.445 147.135 233.445C146.831 233.445 146.582 233.196 146.582 232.893C146.582 232.59 146.831 232.341 147.135 232.341C147.438 232.341 147.687 232.59 147.687 232.893Z" fill="#263238"/>
<path d="M152.756 236.867C152.756 237.17 152.506 237.42 152.203 237.42C151.9 237.42 151.65 237.17 151.65 236.867C151.65 236.564 151.9 236.315 152.203 236.315C152.506 236.315 152.756 236.564 152.756 236.867Z" fill="#263238"/>
<path d="M55.6113 243.496C54.0072 243.496 51.8369 242.526 50.6709 240.835C50.5631 240.68 50.6035 240.471 50.7585 240.363C50.9135 240.256 51.1225 240.296 51.2303 240.451C52.4907 242.263 55.2608 243.233 56.4943 242.661C56.6223 242.6 56.7302 242.526 56.811 242.431C55.7124 241.926 54.7082 240.929 54.4318 239.414C54.2768 238.558 54.1555 237.406 54.8632 237.245C55.827 237.029 57.0941 239.366 57.5794 241.138C57.667 241.468 57.7007 241.771 57.667 242.041C58.0916 242.155 58.5095 242.189 58.8735 242.135C59.1633 242.095 59.5812 241.973 59.7969 241.63C58.9813 241.077 58.4286 240.101 58.2467 238.807C57.9838 236.968 58.1793 236.645 58.3882 236.49C58.523 236.389 58.6915 236.369 58.8533 236.436C59.5744 236.746 60.4506 239.353 60.6124 240.835C60.6326 240.997 60.6326 241.152 60.6124 241.3C60.8887 241.408 61.192 241.468 61.5223 241.475C62.1087 241.509 62.6816 241.32 63.1466 241.051C63.0523 240.99 62.9579 240.923 62.877 240.848C62.1761 240.249 61.893 239.299 62.0143 237.932C62.1087 236.874 62.3446 236.301 62.7692 236.12C62.9175 236.052 63.2208 235.992 63.5847 236.281C64.3127 236.861 64.9934 238.706 64.7508 240.027C64.6968 240.303 64.5823 240.559 64.4138 240.801C65.6472 241.017 67.3928 240.667 68.8891 240.296C69.0711 240.249 69.2531 240.363 69.3003 240.545C69.3474 240.727 69.2329 240.909 69.0509 240.956C67.2243 241.408 65.2563 241.771 63.8678 241.374C63.2477 241.866 62.3783 242.162 61.5088 242.155C61.1112 242.149 60.7405 242.074 60.4035 241.946C60.1406 242.398 59.6418 242.701 58.9746 242.802C58.5297 242.869 57.9973 242.829 57.4648 242.674C57.3098 242.93 57.0874 243.132 56.7841 243.274C56.4606 243.422 56.0629 243.496 55.6248 243.496H55.6113ZM55.0317 237.918C54.9912 238.019 54.9238 238.363 55.0856 239.292C55.308 240.532 56.1101 241.354 56.9998 241.792C56.9998 241.65 56.9661 241.488 56.9189 241.313C56.3864 239.387 55.3822 238.06 55.0249 237.918H55.0317ZM58.7859 237.332C58.7859 237.588 58.8061 238.012 58.9072 238.72C59.042 239.683 59.3992 240.417 59.9317 240.889C59.7766 239.535 59.1768 237.972 58.7859 237.332ZM63.0253 236.746C63.0253 236.746 62.7692 236.874 62.6748 237.999C62.5737 239.131 62.7827 239.899 63.3017 240.343C63.423 240.444 63.5578 240.532 63.7061 240.599C63.8948 240.39 64.0296 240.155 64.07 239.905C64.252 238.929 63.7869 237.501 63.2612 236.921C63.1264 236.773 63.0388 236.739 63.0186 236.739L63.0253 236.746Z" fill="#263238"/>
<path d="M154.258 248.588L156.085 245.422L154.258 242.256H152.304L153.409 245.422L152.304 248.588H154.258Z" fill="#263238"/>
<path d="M152.431 247.073C151.521 247.073 150.78 246.332 150.78 245.422C150.78 244.513 151.521 243.779 152.431 243.779L149.324 243.159L148.502 245.665L149.89 247.78L152.431 247.073Z" fill="#263238"/>
<path d="M152.701 242.256H149.041L147.215 245.422L149.041 248.588H152.701L154.528 245.422L152.701 242.256ZM150.875 247.073C149.965 247.073 149.223 246.332 149.223 245.422C149.223 244.513 149.965 243.779 150.875 243.779C151.785 243.779 152.519 244.513 152.519 245.422C152.519 246.332 151.785 247.073 150.875 247.073Z" fill="#407BFF"/>
<path d="M281.657 242.041L280.303 239.69L281.657 237.339H283.107L282.291 239.69L283.107 242.041H281.657Z" fill="#407BFF"/>
<path d="M283.012 240.916C283.686 240.916 284.238 240.363 284.238 239.69C284.238 239.016 283.686 238.471 283.012 238.471L285.317 238.012L285.93 239.872L284.899 241.441L283.012 240.916Z" fill="#407BFF"/>
<path d="M282.817 237.339H285.533L286.888 239.69L285.533 242.041H282.817L281.462 239.69L282.817 237.339ZM284.171 240.916C284.845 240.916 285.398 240.363 285.398 239.69C285.398 239.016 284.845 238.471 284.171 238.471C283.497 238.471 282.951 239.016 282.951 239.69C282.951 240.363 283.497 240.916 284.171 240.916Z" fill="#263238"/>
<path d="M231.148 245.166H234.195C234.99 245.166 235.637 244.52 235.637 243.725C235.637 242.93 234.99 242.283 234.195 242.283H231.148C230.353 242.283 229.706 242.93 229.706 243.725C229.706 244.52 230.353 245.166 231.148 245.166Z" fill="#263238"/>
<path d="M226.282 242.445C227.037 240.849 228.856 240.128 230.353 240.835C231.849 241.542 232.456 243.402 231.701 244.998C230.946 246.595 229.126 247.315 227.63 246.608C226.134 245.901 225.527 244.041 226.282 242.445Z" fill="#407BFF"/>
<path d="M227.11 246.603L227.945 246.997L230.848 240.843L230.013 240.449L227.11 246.603Z" fill="#263238"/>
</g>
<defs>
<clipPath id="clip0_267_2089">
<rect width="337" height="251" fill="white"/>
</clipPath>
</defs>
</svg>
