<svg width="377" height="285" viewBox="0 0 377 285" fill="none" xmlns="http://www.w3.org/2000/svg">
<g clip-path="url(#clip0_267_2222)">
<path d="M377 250.99H0V251.178H377V250.99Z" fill="#EBEBEB"/>
<path d="M59.1587 258.159H39.5547V258.347H59.1587V258.159Z" fill="#EBEBEB"/>
<path d="M151.124 256.118H110.333V256.306H151.124V256.118Z" fill="#EBEBEB"/>
<path d="M79.7584 265.156H59.9131V265.344H79.7584V265.156Z" fill="#EBEBEB"/>
<path d="M339.225 263.89H324.726V264.078H339.225V263.89Z" fill="#EBEBEB"/>
<path d="M318.007 263.89H295.168V264.078H318.007V263.89Z" fill="#EBEBEB"/>
<path d="M235.843 260.712H194.705V260.9H235.843V260.712Z" fill="#EBEBEB"/>
<path d="M178.705 217.401H33.1081C30.733 217.401 28.8027 215.473 28.8027 213.1V8.68332C28.8027 6.31102 30.733 4.38306 33.1081 4.38306H178.705C181.081 4.38306 183.011 6.31102 183.011 8.68332V213.1C183.011 215.473 181.081 217.401 178.705 217.401ZM33.1081 4.57133C30.8385 4.57133 28.9912 6.41646 28.9912 8.68332V213.1C28.9912 215.367 30.8385 217.212 33.1081 217.212H178.705C180.975 217.212 182.822 215.367 182.822 213.1V8.68332C182.822 6.41646 180.975 4.57133 178.705 4.57133H33.1081Z" fill="#EBEBEB"/>
<path d="M341.795 217.401H196.198C193.823 217.401 191.893 215.473 191.893 213.1V8.68332C191.893 6.31102 193.823 4.38306 196.198 4.38306H341.795C344.17 4.38306 346.101 6.31102 346.101 8.68332V213.1C346.101 215.473 344.17 217.401 341.795 217.401ZM196.198 4.57133C193.928 4.57133 192.081 6.41646 192.081 8.68332V213.1C192.081 215.367 193.928 217.212 196.198 217.212H341.795C344.065 217.212 345.912 215.367 345.912 213.1V8.68332C345.912 6.41646 344.065 4.57133 341.795 4.57133H196.198Z" fill="#EBEBEB"/>
<path d="M288.172 75.6726H235.822L228.591 82.8949V243.767C231.418 246.591 233.002 248.173 235.822 250.989H288.172C290.999 248.165 292.583 246.584 295.403 243.767V82.8949L288.172 75.6726Z" fill="#E0E0E0"/>
<path d="M228.591 243.767L235.822 250.989H252.055L244.824 243.767H228.591Z" fill="#EBEBEB"/>
<path d="M228.591 82.8949L235.822 75.6726H252.055L244.824 82.8949H228.591Z" fill="#EBEBEB"/>
<path d="M316.99 75.6726H252.063L244.832 82.8949V243.767C247.66 246.591 249.243 248.173 252.063 250.989H316.99C319.817 248.165 321.401 246.584 324.221 243.767V82.8949C321.393 80.0708 319.81 78.4892 316.99 75.6726Z" fill="#EBEBEB"/>
<path d="M252.983 247.616L248.202 242.848V83.8138L252.983 79.0466H316.07L320.843 83.8138V242.848L316.07 247.616H252.983Z" fill="white"/>
<path d="M320.843 87.6094H251.58V101.542H320.843V87.6094Z" fill="#EBEBEB"/>
<path d="M316.93 228.788C316.93 229.119 317.201 229.39 317.533 229.39C317.865 229.39 318.136 229.119 318.136 228.788C318.136 228.456 317.865 228.185 317.533 228.185C317.201 228.185 316.93 228.456 316.93 228.788Z" fill="#F5F5F5"/>
<path d="M314.026 228.788C314.026 229.119 314.298 229.39 314.63 229.39C314.961 229.39 315.233 229.119 315.233 228.788C315.233 228.456 314.961 228.185 314.63 228.185C314.298 228.185 314.026 228.456 314.026 228.788Z" fill="white"/>
<path d="M311.116 228.788C311.116 229.119 311.388 229.39 311.719 229.39C312.051 229.39 312.323 229.119 312.323 228.788C312.323 228.456 312.051 228.185 311.719 228.185C311.388 228.185 311.116 228.456 311.116 228.788Z" fill="#F5F5F5"/>
<path d="M320.843 93.22H251.58V95.9312H320.843V93.22Z" fill="#F5F5F5"/>
<path d="M248.202 101.534H251.58V87.6019H248.202V101.534Z" fill="#E0E0E0"/>
<path d="M320.843 102.882H251.58V116.815H320.843V102.882Z" fill="#EBEBEB"/>
<path d="M316.93 213.507C316.93 213.838 317.201 214.109 317.533 214.109C317.865 214.109 318.136 213.838 318.136 213.507C318.136 213.175 317.865 212.904 317.533 212.904C317.201 212.904 316.93 213.175 316.93 213.507Z" fill="#F5F5F5"/>
<path d="M314.026 213.507C314.026 213.838 314.298 214.109 314.63 214.109C314.961 214.109 315.233 213.838 315.233 213.507C315.233 213.175 314.961 212.904 314.63 212.904C314.298 212.904 314.026 213.175 314.026 213.507Z" fill="white"/>
<path d="M311.116 213.507C311.116 213.838 311.388 214.109 311.719 214.109C312.051 214.109 312.323 213.838 312.323 213.507C312.323 213.175 312.051 212.904 311.719 212.904C311.388 212.904 311.116 213.175 311.116 213.507Z" fill="white"/>
<path d="M320.843 108.5H251.58V111.212H320.843V108.5Z" fill="#F5F5F5"/>
<path d="M248.202 116.823H251.58V102.89H248.202V116.823Z" fill="#E0E0E0"/>
<path d="M320.843 118.163H251.58V132.096H320.843V118.163Z" fill="#EBEBEB"/>
<path d="M316.93 198.226C316.93 198.558 317.201 198.829 317.533 198.829C317.865 198.829 318.136 198.558 318.136 198.226C318.136 197.895 317.865 197.624 317.533 197.624C317.201 197.624 316.93 197.895 316.93 198.226Z" fill="#F5F5F5"/>
<path d="M314.026 198.226C314.026 198.558 314.298 198.829 314.63 198.829C314.961 198.829 315.233 198.558 315.233 198.226C315.233 197.895 314.961 197.624 314.63 197.624C314.298 197.624 314.026 197.895 314.026 198.226Z" fill="#F5F5F5"/>
<path d="M311.116 198.226C311.116 198.558 311.388 198.829 311.719 198.829C312.051 198.829 312.323 198.558 312.323 198.226C312.323 197.895 312.051 197.624 311.719 197.624C311.388 197.624 311.116 197.895 311.116 198.226Z" fill="#F5F5F5"/>
<path d="M320.843 123.781H251.58V126.492H320.843V123.781Z" fill="#F5F5F5"/>
<path d="M248.202 132.103H251.58V118.171H248.202V132.103Z" fill="#E0E0E0"/>
<path d="M320.843 133.444H251.58V147.376H320.843V133.444Z" fill="#EBEBEB"/>
<path d="M316.93 182.946C316.93 183.277 317.201 183.548 317.533 183.548C317.865 183.548 318.136 183.277 318.136 182.946C318.136 182.614 317.865 182.343 317.533 182.343C317.201 182.343 316.93 182.614 316.93 182.946Z" fill="white"/>
<path d="M314.026 182.946C314.026 183.277 314.298 183.548 314.63 183.548C314.961 183.548 315.233 183.277 315.233 182.946C315.233 182.614 314.961 182.343 314.63 182.343C314.298 182.343 314.026 182.614 314.026 182.946Z" fill="white"/>
<path d="M311.116 182.946C311.116 183.277 311.388 183.548 311.719 183.548C312.051 183.548 312.323 183.277 312.323 182.946C312.323 182.614 312.051 182.343 311.719 182.343C311.388 182.343 311.116 182.614 311.116 182.946Z" fill="#F5F5F5"/>
<path d="M320.843 139.054H251.58V141.765H320.843V139.054Z" fill="#F5F5F5"/>
<path d="M248.202 147.376H251.58V133.444H248.202V147.376Z" fill="#E0E0E0"/>
<path d="M320.843 148.724H251.58V162.657H320.843V148.724Z" fill="#EBEBEB"/>
<path d="M316.93 167.665C316.93 167.997 317.201 168.268 317.533 168.268C317.865 168.268 318.136 167.997 318.136 167.665C318.136 167.334 317.865 167.063 317.533 167.063C317.201 167.063 316.93 167.334 316.93 167.665Z" fill="white"/>
<path d="M314.026 167.665C314.026 167.997 314.298 168.268 314.63 168.268C314.961 168.268 315.233 167.997 315.233 167.665C315.233 167.334 314.961 167.063 314.63 167.063C314.298 167.063 314.026 167.334 314.026 167.665Z" fill="white"/>
<path d="M311.116 167.665C311.116 167.997 311.388 168.268 311.719 168.268C312.051 168.268 312.323 167.997 312.323 167.665C312.323 167.334 312.051 167.063 311.719 167.063C311.388 167.063 311.116 167.334 311.116 167.665Z" fill="white"/>
<path d="M320.843 154.335H251.58V157.046H320.843V154.335Z" fill="#F5F5F5"/>
<path d="M248.202 162.657H251.58V148.724H248.202V162.657Z" fill="#E0E0E0"/>
<path d="M320.843 164.005H251.58V177.937H320.843V164.005Z" fill="#EBEBEB"/>
<path d="M316.93 152.384C316.93 152.716 317.201 152.987 317.533 152.987C317.865 152.987 318.136 152.716 318.136 152.384C318.136 152.053 317.865 151.782 317.533 151.782C317.201 151.782 316.93 152.053 316.93 152.384Z" fill="#F5F5F5"/>
<path d="M314.026 152.384C314.026 152.716 314.298 152.987 314.63 152.987C314.961 152.987 315.233 152.716 315.233 152.384C315.233 152.053 314.961 151.782 314.63 151.782C314.298 151.782 314.026 152.053 314.026 152.384Z" fill="white"/>
<path d="M311.116 152.384C311.116 152.716 311.388 152.987 311.719 152.987C312.051 152.987 312.323 152.716 312.323 152.384C312.323 152.053 312.051 151.782 311.719 151.782C311.388 151.782 311.116 152.053 311.116 152.384Z" fill="#F5F5F5"/>
<path d="M320.843 169.616H251.58V172.327H320.843V169.616Z" fill="#F5F5F5"/>
<path d="M248.202 177.938H251.58V164.005H248.202V177.938Z" fill="#E0E0E0"/>
<path d="M320.843 179.286H251.58V193.218H320.843V179.286Z" fill="#EBEBEB"/>
<path d="M316.93 137.104C316.93 137.435 317.201 137.706 317.533 137.706C317.865 137.706 318.136 137.435 318.136 137.104C318.136 136.773 317.865 136.501 317.533 136.501C317.201 136.501 316.93 136.773 316.93 137.104Z" fill="white"/>
<path d="M314.026 137.104C314.026 137.435 314.298 137.706 314.63 137.706C314.961 137.706 315.233 137.435 315.233 137.104C315.233 136.773 314.961 136.501 314.63 136.501C314.298 136.501 314.026 136.773 314.026 137.104Z" fill="white"/>
<path d="M311.116 137.104C311.116 137.435 311.388 137.706 311.719 137.706C312.051 137.706 312.323 137.435 312.323 137.104C312.323 136.773 312.051 136.501 311.719 136.501C311.388 136.501 311.116 136.773 311.116 137.104Z" fill="#F5F5F5"/>
<path d="M320.843 184.896H251.58V187.608H320.843V184.896Z" fill="#F5F5F5"/>
<path d="M248.202 193.218H251.58V179.286H248.202V193.218Z" fill="#E0E0E0"/>
<path d="M320.843 194.566H251.58V208.499H320.843V194.566Z" fill="#EBEBEB"/>
<path d="M316.93 121.823C316.93 122.155 317.201 122.426 317.533 122.426C317.865 122.426 318.136 122.155 318.136 121.823C318.136 121.492 317.865 121.221 317.533 121.221C317.201 121.221 316.93 121.492 316.93 121.823Z" fill="white"/>
<path d="M314.026 121.823C314.026 122.155 314.298 122.426 314.63 122.426C314.961 122.426 315.233 122.155 315.233 121.823C315.233 121.492 314.961 121.221 314.63 121.221C314.298 121.221 314.026 121.492 314.026 121.823Z" fill="#F5F5F5"/>
<path d="M311.116 121.823C311.116 122.155 311.388 122.426 311.719 122.426C312.051 122.426 312.323 122.155 312.323 121.823C312.323 121.492 312.051 121.221 311.719 121.221C311.388 121.221 311.116 121.492 311.116 121.823Z" fill="white"/>
<path d="M320.843 200.177H251.58V202.888H320.843V200.177Z" fill="#F5F5F5"/>
<path d="M248.202 208.499H251.58V194.566H248.202V208.499Z" fill="#E0E0E0"/>
<path d="M320.843 209.847H251.58V223.779H320.843V209.847Z" fill="#EBEBEB"/>
<path d="M316.93 106.543C316.93 106.874 317.201 107.145 317.533 107.145C317.865 107.145 318.136 106.874 318.136 106.543C318.136 106.211 317.865 105.94 317.533 105.94C317.201 105.94 316.93 106.211 316.93 106.543Z" fill="#F5F5F5"/>
<path d="M314.026 106.543C314.026 106.874 314.298 107.145 314.63 107.145C314.961 107.145 315.233 106.874 315.233 106.543C315.233 106.211 314.961 105.94 314.63 105.94C314.298 105.94 314.026 106.211 314.026 106.543Z" fill="white"/>
<path d="M311.116 106.543C311.116 106.874 311.388 107.145 311.719 107.145C312.051 107.145 312.323 106.874 312.323 106.543C312.323 106.211 312.051 105.94 311.719 105.94C311.388 105.94 311.116 106.211 311.116 106.543Z" fill="#F5F5F5"/>
<path d="M320.843 215.458H251.58V218.169H320.843V215.458Z" fill="#F5F5F5"/>
<path d="M248.202 223.78H251.58V209.847H248.202V223.78Z" fill="#E0E0E0"/>
<path d="M320.843 225.127H251.58V239.06H320.843V225.127Z" fill="#EBEBEB"/>
<path d="M316.93 91.2619C316.93 91.5933 317.201 91.8644 317.533 91.8644C317.865 91.8644 318.136 91.5933 318.136 91.2619C318.136 90.9305 317.865 90.6594 317.533 90.6594C317.201 90.6594 316.93 90.9305 316.93 91.2619Z" fill="#F5F5F5"/>
<path d="M314.026 91.2619C314.026 91.5933 314.298 91.8644 314.63 91.8644C314.961 91.8644 315.233 91.5933 315.233 91.2619C315.233 90.9305 314.961 90.6594 314.63 90.6594C314.298 90.6594 314.026 90.9305 314.026 91.2619Z" fill="#F5F5F5"/>
<path d="M311.116 91.2619C311.116 91.5933 311.388 91.8644 311.719 91.8644C312.051 91.8644 312.323 91.5933 312.323 91.2619C312.323 90.9305 312.051 90.6594 311.719 90.6594C311.388 90.6594 311.116 90.9305 311.116 91.2619Z" fill="white"/>
<path d="M320.843 230.738H251.58V233.449H320.843V230.738Z" fill="#F5F5F5"/>
<path d="M248.202 239.06H251.58V225.127H248.202V239.06Z" fill="#E0E0E0"/>
<path d="M200.271 75.6726H147.92C145.093 78.4968 143.509 80.0783 140.689 82.8949V243.767C143.517 246.591 145.1 248.173 147.92 250.989H200.271C203.098 248.165 204.681 246.584 207.501 243.767V82.8949C204.674 80.0708 203.09 78.4892 200.271 75.6726Z" fill="#E0E0E0"/>
<path d="M140.682 243.767L147.92 250.989H164.154L156.923 243.767H140.682Z" fill="#EBEBEB"/>
<path d="M140.682 82.8949L147.92 75.6726H164.154L156.923 82.8949H140.682Z" fill="#EBEBEB"/>
<path d="M229.08 75.6726H164.146L156.915 82.8949V243.767C159.743 246.591 161.326 248.173 164.146 250.989H229.08C231.908 248.165 233.491 246.584 236.311 243.767V82.8949C233.484 80.0708 231.9 78.4892 229.08 75.6726Z" fill="#EBEBEB"/>
<path d="M165.074 247.616L160.301 242.848V83.8138L165.074 79.0466H228.161L232.941 83.8138V242.848L228.161 247.616H165.074Z" fill="white"/>
<path d="M232.941 87.6094H163.679V101.542H232.941V87.6094Z" fill="#EBEBEB"/>
<path d="M229.028 91.2619C229.028 90.9305 229.3 90.6594 229.632 90.6594C229.963 90.6594 230.235 90.9305 230.235 91.2619C230.235 91.5933 229.963 91.8644 229.632 91.8644C229.3 91.8644 229.028 91.5933 229.028 91.2619Z" fill="#F5F5F5"/>
<path d="M226.117 91.2619C226.117 90.9305 226.389 90.6594 226.72 90.6594C227.052 90.6594 227.324 90.9305 227.324 91.2619C227.324 91.5933 227.052 91.8644 226.72 91.8644C226.389 91.8644 226.117 91.5933 226.117 91.2619Z" fill="white"/>
<path d="M223.207 91.2619C223.207 90.9305 223.478 90.6594 223.81 90.6594C224.142 90.6594 224.413 90.9305 224.413 91.2619C224.413 91.5933 224.142 91.8644 223.81 91.8644C223.478 91.8644 223.207 91.5933 223.207 91.2619Z" fill="#F5F5F5"/>
<path d="M232.941 93.22H163.679V95.9312H232.941V93.22Z" fill="#F5F5F5"/>
<path d="M160.293 101.534H163.671V87.6019H160.293V101.534Z" fill="#E0E0E0"/>
<path d="M232.941 102.882H163.679V116.815H232.941V102.882Z" fill="#EBEBEB"/>
<path d="M229.028 106.542C229.028 106.211 229.3 105.94 229.632 105.94C229.963 105.94 230.235 106.211 230.235 106.542C230.235 106.874 229.963 107.145 229.632 107.145C229.3 107.145 229.028 106.874 229.028 106.542Z" fill="#F5F5F5"/>
<path d="M226.117 106.542C226.117 106.211 226.389 105.94 226.72 105.94C227.052 105.94 227.324 106.211 227.324 106.542C227.324 106.874 227.052 107.145 226.72 107.145C226.389 107.145 226.117 106.874 226.117 106.542Z" fill="white"/>
<path d="M223.207 106.542C223.207 106.211 223.478 105.94 223.81 105.94C224.142 105.94 224.413 106.211 224.413 106.542C224.413 106.874 224.142 107.145 223.81 107.145C223.478 107.145 223.207 106.874 223.207 106.542Z" fill="white"/>
<path d="M232.941 108.5H163.679V111.212H232.941V108.5Z" fill="#F5F5F5"/>
<path d="M160.293 116.823H163.671V102.89H160.293V116.823Z" fill="#E0E0E0"/>
<path d="M232.941 118.163H163.679V132.096H232.941V118.163Z" fill="#EBEBEB"/>
<path d="M229.028 121.823C229.028 121.492 229.3 121.221 229.632 121.221C229.963 121.221 230.235 121.492 230.235 121.823C230.235 122.155 229.963 122.426 229.632 122.426C229.3 122.426 229.028 122.155 229.028 121.823Z" fill="#F5F5F5"/>
<path d="M226.117 121.823C226.117 121.492 226.389 121.221 226.72 121.221C227.052 121.221 227.324 121.492 227.324 121.823C227.324 122.155 227.052 122.426 226.72 122.426C226.389 122.426 226.117 122.155 226.117 121.823Z" fill="#F5F5F5"/>
<path d="M223.207 121.823C223.207 121.492 223.478 121.221 223.81 121.221C224.142 121.221 224.413 121.492 224.413 121.823C224.413 122.155 224.142 122.426 223.81 122.426C223.478 122.426 223.207 122.155 223.207 121.823Z" fill="#F5F5F5"/>
<path d="M232.941 123.781H163.679V126.492H232.941V123.781Z" fill="#F5F5F5"/>
<path d="M160.293 132.103H163.671V118.171H160.293V132.103Z" fill="#E0E0E0"/>
<path d="M232.941 133.444H163.679V147.376H232.941V133.444Z" fill="#EBEBEB"/>
<path d="M229.028 137.104C229.028 136.772 229.3 136.501 229.632 136.501C229.963 136.501 230.235 136.772 230.235 137.104C230.235 137.435 229.963 137.706 229.632 137.706C229.3 137.706 229.028 137.435 229.028 137.104Z" fill="white"/>
<path d="M226.117 137.104C226.117 136.772 226.389 136.501 226.72 136.501C227.052 136.501 227.324 136.772 227.324 137.104C227.324 137.435 227.052 137.706 226.72 137.706C226.389 137.706 226.117 137.435 226.117 137.104Z" fill="white"/>
<path d="M223.207 137.104C223.207 136.772 223.478 136.501 223.81 136.501C224.142 136.501 224.413 136.772 224.413 137.104C224.413 137.435 224.142 137.706 223.81 137.706C223.478 137.706 223.207 137.435 223.207 137.104Z" fill="#F5F5F5"/>
<path d="M232.941 139.054H163.679V141.765H232.941V139.054Z" fill="#F5F5F5"/>
<path d="M160.293 147.376H163.671V133.444H160.293V147.376Z" fill="#E0E0E0"/>
<path d="M232.941 148.724H163.679V162.657H232.941V148.724Z" fill="#EBEBEB"/>
<path d="M229.028 152.384C229.028 152.053 229.3 151.782 229.632 151.782C229.963 151.782 230.235 152.053 230.235 152.384C230.235 152.716 229.963 152.987 229.632 152.987C229.3 152.987 229.028 152.716 229.028 152.384Z" fill="white"/>
<path d="M226.117 152.384C226.117 152.053 226.389 151.782 226.72 151.782C227.052 151.782 227.324 152.053 227.324 152.384C227.324 152.716 227.052 152.987 226.72 152.987C226.389 152.987 226.117 152.716 226.117 152.384Z" fill="white"/>
<path d="M223.207 152.384C223.207 152.053 223.478 151.782 223.81 151.782C224.142 151.782 224.413 152.053 224.413 152.384C224.413 152.716 224.142 152.987 223.81 152.987C223.478 152.987 223.207 152.716 223.207 152.384Z" fill="white"/>
<path d="M232.941 154.335H163.679V157.046H232.941V154.335Z" fill="#F5F5F5"/>
<path d="M160.293 162.657H163.671V148.724H160.293V162.657Z" fill="#E0E0E0"/>
<path d="M232.941 164.005H163.679V177.937H232.941V164.005Z" fill="#EBEBEB"/>
<path d="M229.028 167.665C229.028 167.334 229.3 167.062 229.632 167.062C229.963 167.062 230.235 167.334 230.235 167.665C230.235 167.996 229.963 168.267 229.632 168.267C229.3 168.267 229.028 167.996 229.028 167.665Z" fill="#F5F5F5"/>
<path d="M226.117 167.665C226.117 167.334 226.389 167.062 226.72 167.062C227.052 167.062 227.324 167.334 227.324 167.665C227.324 167.996 227.052 168.267 226.72 168.267C226.389 168.267 226.117 167.996 226.117 167.665Z" fill="white"/>
<path d="M223.207 167.665C223.207 167.334 223.478 167.062 223.81 167.062C224.142 167.062 224.413 167.334 224.413 167.665C224.413 167.996 224.142 168.267 223.81 168.267C223.478 168.267 223.207 167.996 223.207 167.665Z" fill="#F5F5F5"/>
<path d="M232.941 169.615H163.679V172.327H232.941V169.615Z" fill="#F5F5F5"/>
<path d="M160.293 177.938H163.671V164.005H160.293V177.938Z" fill="#E0E0E0"/>
<path d="M232.941 179.286H163.679V193.218H232.941V179.286Z" fill="#EBEBEB"/>
<path d="M229.028 182.946C229.028 182.614 229.3 182.343 229.632 182.343C229.963 182.343 230.235 182.614 230.235 182.946C230.235 183.277 229.963 183.548 229.632 183.548C229.3 183.548 229.028 183.277 229.028 182.946Z" fill="white"/>
<path d="M226.117 182.946C226.117 182.614 226.389 182.343 226.72 182.343C227.052 182.343 227.324 182.614 227.324 182.946C227.324 183.277 227.052 183.548 226.72 183.548C226.389 183.548 226.117 183.277 226.117 182.946Z" fill="white"/>
<path d="M223.207 182.946C223.207 182.614 223.478 182.343 223.81 182.343C224.142 182.343 224.413 182.614 224.413 182.946C224.413 183.277 224.142 183.548 223.81 183.548C223.478 183.548 223.207 183.277 223.207 182.946Z" fill="#F5F5F5"/>
<path d="M232.941 184.896H163.679V187.607H232.941V184.896Z" fill="#F5F5F5"/>
<path d="M160.293 193.218H163.671V179.286H160.293V193.218Z" fill="#E0E0E0"/>
<path d="M232.941 194.566H163.679V208.499H232.941V194.566Z" fill="#EBEBEB"/>
<path d="M229.028 198.226C229.028 197.895 229.3 197.624 229.632 197.624C229.963 197.624 230.235 197.895 230.235 198.226C230.235 198.558 229.963 198.829 229.632 198.829C229.3 198.829 229.028 198.558 229.028 198.226Z" fill="white"/>
<path d="M226.117 198.226C226.117 197.895 226.389 197.624 226.72 197.624C227.052 197.624 227.324 197.895 227.324 198.226C227.324 198.558 227.052 198.829 226.72 198.829C226.389 198.829 226.117 198.558 226.117 198.226Z" fill="#F5F5F5"/>
<path d="M223.207 198.226C223.207 197.895 223.478 197.624 223.81 197.624C224.142 197.624 224.413 197.895 224.413 198.226C224.413 198.558 224.142 198.829 223.81 198.829C223.478 198.829 223.207 198.558 223.207 198.226Z" fill="white"/>
<path d="M232.941 200.177H163.679V202.888H232.941V200.177Z" fill="#F5F5F5"/>
<path d="M160.293 208.499H163.671V194.566H160.293V208.499Z" fill="#E0E0E0"/>
<path d="M232.941 209.847H163.679V223.779H232.941V209.847Z" fill="#EBEBEB"/>
<path d="M229.028 213.507C229.028 213.176 229.3 212.905 229.632 212.905C229.963 212.905 230.235 213.176 230.235 213.507C230.235 213.838 229.963 214.11 229.632 214.11C229.3 214.11 229.028 213.838 229.028 213.507Z" fill="#F5F5F5"/>
<path d="M226.117 213.507C226.117 213.176 226.389 212.905 226.72 212.905C227.052 212.905 227.324 213.176 227.324 213.507C227.324 213.838 227.052 214.11 226.72 214.11C226.389 214.11 226.117 213.838 226.117 213.507Z" fill="white"/>
<path d="M223.207 213.507C223.207 213.176 223.478 212.905 223.81 212.905C224.142 212.905 224.413 213.176 224.413 213.507C224.413 213.838 224.142 214.11 223.81 214.11C223.478 214.11 223.207 213.838 223.207 213.507Z" fill="#F5F5F5"/>
<path d="M232.941 215.458H163.679V218.169H232.941V215.458Z" fill="#F5F5F5"/>
<path d="M160.293 223.78H163.671V209.847H160.293V223.78Z" fill="#E0E0E0"/>
<path d="M232.941 225.127H163.679V239.06H232.941V225.127Z" fill="#EBEBEB"/>
<path d="M229.028 228.788C229.028 228.456 229.3 228.185 229.632 228.185C229.963 228.185 230.235 228.456 230.235 228.788C230.235 229.119 229.963 229.39 229.632 229.39C229.3 229.39 229.028 229.119 229.028 228.788Z" fill="#F5F5F5"/>
<path d="M226.117 228.788C226.117 228.456 226.389 228.185 226.72 228.185C227.052 228.185 227.324 228.456 227.324 228.788C227.324 229.119 227.052 229.39 226.72 229.39C226.389 229.39 226.117 229.119 226.117 228.788Z" fill="#F5F5F5"/>
<path d="M223.207 228.788C223.207 228.456 223.478 228.185 223.81 228.185C224.142 228.185 224.413 228.456 224.413 228.788C224.413 229.119 224.142 229.39 223.81 229.39C223.478 229.39 223.207 229.119 223.207 228.788Z" fill="white"/>
<path d="M232.941 230.738H163.679V233.449H232.941V230.738Z" fill="#F5F5F5"/>
<path d="M160.293 239.06H163.671V225.127H160.293V239.06Z" fill="#E0E0E0"/>
<path d="M112.361 75.6726H60.0111C57.1836 78.4968 55.6002 80.0783 52.7803 82.8949V243.767C55.6078 246.591 57.1912 248.173 60.0111 250.989H112.361C115.189 248.165 116.772 246.584 119.592 243.767V82.8949C116.765 80.0708 115.181 78.4892 112.361 75.6726Z" fill="#E0E0E0"/>
<path d="M52.7803 243.767L60.0111 250.989H76.2448L69.0139 243.767H52.7803Z" fill="#EBEBEB"/>
<path d="M52.7803 82.8949L60.0111 75.6726H76.2448L69.0139 82.8949H52.7803Z" fill="#EBEBEB"/>
<path d="M141.179 75.6726H76.2523L69.0215 82.8949V243.767C71.849 246.591 73.4324 248.173 76.2523 250.989H141.179C144.007 248.165 145.59 246.584 148.41 243.767V82.8949L141.179 75.6726Z" fill="#EBEBEB"/>
<path d="M77.172 247.616L72.3916 242.848V83.8138L77.172 79.0466H140.259L145.032 83.8138V242.848L140.259 247.616H77.172Z" fill="white"/>
<path d="M145.032 87.6094H75.7695V101.542H145.032V87.6094Z" fill="#EBEBEB"/>
<path d="M141.119 228.788C141.119 229.119 141.391 229.39 141.722 229.39C142.054 229.39 142.326 229.119 142.326 228.788C142.326 228.456 142.054 228.185 141.722 228.185C141.391 228.185 141.119 228.456 141.119 228.788Z" fill="#F5F5F5"/>
<path d="M138.216 228.788C138.216 229.119 138.487 229.39 138.819 229.39C139.151 229.39 139.422 229.119 139.422 228.788C139.422 228.456 139.151 228.185 138.819 228.185C138.487 228.185 138.216 228.456 138.216 228.788Z" fill="white"/>
<path d="M135.306 228.788C135.306 229.119 135.577 229.39 135.909 229.39C136.241 229.39 136.512 229.119 136.512 228.788C136.512 228.456 136.241 228.185 135.909 228.185C135.577 228.185 135.306 228.456 135.306 228.788Z" fill="#F5F5F5"/>
<path d="M145.032 93.22H75.7695V95.9312H145.032V93.22Z" fill="#F5F5F5"/>
<path d="M72.3916 101.534H75.7695V87.6019H72.3916V101.534Z" fill="#E0E0E0"/>
<path d="M145.032 102.882H75.7695V116.815H145.032V102.882Z" fill="#EBEBEB"/>
<path d="M141.119 213.507C141.119 213.838 141.391 214.109 141.722 214.109C142.054 214.109 142.326 213.838 142.326 213.507C142.326 213.175 142.054 212.904 141.722 212.904C141.391 212.904 141.119 213.175 141.119 213.507Z" fill="#F5F5F5"/>
<path d="M138.216 213.507C138.216 213.838 138.487 214.109 138.819 214.109C139.151 214.109 139.422 213.838 139.422 213.507C139.422 213.175 139.151 212.904 138.819 212.904C138.487 212.904 138.216 213.175 138.216 213.507Z" fill="white"/>
<path d="M135.306 213.507C135.306 213.838 135.577 214.109 135.909 214.109C136.241 214.109 136.512 213.838 136.512 213.507C136.512 213.175 136.241 212.904 135.909 212.904C135.577 212.904 135.306 213.175 135.306 213.507Z" fill="white"/>
<path d="M145.032 108.5H75.7695V111.212H145.032V108.5Z" fill="#F5F5F5"/>
<path d="M72.3916 116.823H75.7695V102.89H72.3916V116.823Z" fill="#E0E0E0"/>
<path d="M145.032 118.163H75.7695V132.096H145.032V118.163Z" fill="#EBEBEB"/>
<path d="M141.119 198.226C141.119 198.558 141.391 198.829 141.722 198.829C142.054 198.829 142.326 198.558 142.326 198.226C142.326 197.895 142.054 197.624 141.722 197.624C141.391 197.624 141.119 197.895 141.119 198.226Z" fill="#F5F5F5"/>
<path d="M138.216 198.226C138.216 198.558 138.487 198.829 138.819 198.829C139.151 198.829 139.422 198.558 139.422 198.226C139.422 197.895 139.151 197.624 138.819 197.624C138.487 197.624 138.216 197.895 138.216 198.226Z" fill="#F5F5F5"/>
<path d="M135.306 198.226C135.306 198.558 135.577 198.829 135.909 198.829C136.241 198.829 136.512 198.558 136.512 198.226C136.512 197.895 136.241 197.624 135.909 197.624C135.577 197.624 135.306 197.895 135.306 198.226Z" fill="#F5F5F5"/>
<path d="M145.032 123.781H75.7695V126.492H145.032V123.781Z" fill="#F5F5F5"/>
<path d="M72.3916 132.103H75.7695V118.171H72.3916V132.103Z" fill="#E0E0E0"/>
<path d="M145.032 133.444H75.7695V147.376H145.032V133.444Z" fill="#EBEBEB"/>
<path d="M141.119 182.946C141.119 183.277 141.391 183.548 141.722 183.548C142.054 183.548 142.326 183.277 142.326 182.946C142.326 182.614 142.054 182.343 141.722 182.343C141.391 182.343 141.119 182.614 141.119 182.946Z" fill="white"/>
<path d="M138.216 182.946C138.216 183.277 138.487 183.548 138.819 183.548C139.151 183.548 139.422 183.277 139.422 182.946C139.422 182.614 139.151 182.343 138.819 182.343C138.487 182.343 138.216 182.614 138.216 182.946Z" fill="white"/>
<path d="M135.306 182.946C135.306 183.277 135.577 183.548 135.909 183.548C136.241 183.548 136.512 183.277 136.512 182.946C136.512 182.614 136.241 182.343 135.909 182.343C135.577 182.343 135.306 182.614 135.306 182.946Z" fill="#F5F5F5"/>
<path d="M145.032 139.054H75.7695V141.765H145.032V139.054Z" fill="#F5F5F5"/>
<path d="M72.3916 147.376H75.7695V133.444H72.3916V147.376Z" fill="#E0E0E0"/>
<path d="M145.032 148.724H75.7695V162.657H145.032V148.724Z" fill="#EBEBEB"/>
<path d="M141.119 167.665C141.119 167.997 141.391 168.268 141.722 168.268C142.054 168.268 142.326 167.997 142.326 167.665C142.326 167.334 142.054 167.063 141.722 167.063C141.391 167.063 141.119 167.334 141.119 167.665Z" fill="white"/>
<path d="M138.216 167.665C138.216 167.997 138.487 168.268 138.819 168.268C139.151 168.268 139.422 167.997 139.422 167.665C139.422 167.334 139.151 167.063 138.819 167.063C138.487 167.063 138.216 167.334 138.216 167.665Z" fill="white"/>
<path d="M135.306 167.665C135.306 167.997 135.577 168.268 135.909 168.268C136.241 168.268 136.512 167.997 136.512 167.665C136.512 167.334 136.241 167.063 135.909 167.063C135.577 167.063 135.306 167.334 135.306 167.665Z" fill="white"/>
<path d="M145.032 154.335H75.7695V157.046H145.032V154.335Z" fill="#F5F5F5"/>
<path d="M72.3916 162.657H75.7695V148.724H72.3916V162.657Z" fill="#E0E0E0"/>
<path d="M145.032 164.005H75.7695V177.937H145.032V164.005Z" fill="#EBEBEB"/>
<path d="M141.119 152.384C141.119 152.716 141.391 152.987 141.722 152.987C142.054 152.987 142.326 152.716 142.326 152.384C142.326 152.053 142.054 151.782 141.722 151.782C141.391 151.782 141.119 152.053 141.119 152.384Z" fill="#F5F5F5"/>
<path d="M138.216 152.384C138.216 152.716 138.487 152.987 138.819 152.987C139.151 152.987 139.422 152.716 139.422 152.384C139.422 152.053 139.151 151.782 138.819 151.782C138.487 151.782 138.216 152.053 138.216 152.384Z" fill="white"/>
<path d="M135.306 152.384C135.306 152.716 135.577 152.987 135.909 152.987C136.241 152.987 136.512 152.716 136.512 152.384C136.512 152.053 136.241 151.782 135.909 151.782C135.577 151.782 135.306 152.053 135.306 152.384Z" fill="#F5F5F5"/>
<path d="M145.032 169.616H75.7695V172.327H145.032V169.616Z" fill="#F5F5F5"/>
<path d="M72.3916 177.938H75.7695V164.005H72.3916V177.938Z" fill="#E0E0E0"/>
<path d="M145.032 179.286H75.7695V193.218H145.032V179.286Z" fill="#EBEBEB"/>
<path d="M141.119 137.104C141.119 137.435 141.391 137.706 141.722 137.706C142.054 137.706 142.326 137.435 142.326 137.104C142.326 136.773 142.054 136.501 141.722 136.501C141.391 136.501 141.119 136.773 141.119 137.104Z" fill="white"/>
<path d="M138.216 137.104C138.216 137.435 138.487 137.706 138.819 137.706C139.151 137.706 139.422 137.435 139.422 137.104C139.422 136.773 139.151 136.501 138.819 136.501C138.487 136.501 138.216 136.773 138.216 137.104Z" fill="white"/>
<path d="M135.306 137.104C135.306 137.435 135.577 137.706 135.909 137.706C136.241 137.706 136.512 137.435 136.512 137.104C136.512 136.773 136.241 136.501 135.909 136.501C135.577 136.501 135.306 136.773 135.306 137.104Z" fill="#F5F5F5"/>
<path d="M145.032 184.896H75.7695V187.608H145.032V184.896Z" fill="#F5F5F5"/>
<path d="M72.3916 193.218H75.7695V179.286H72.3916V193.218Z" fill="#E0E0E0"/>
<path d="M145.032 194.566H75.7695V208.499H145.032V194.566Z" fill="#EBEBEB"/>
<path d="M141.119 121.823C141.119 122.155 141.391 122.426 141.722 122.426C142.054 122.426 142.326 122.155 142.326 121.823C142.326 121.492 142.054 121.221 141.722 121.221C141.391 121.221 141.119 121.492 141.119 121.823Z" fill="white"/>
<path d="M138.216 121.823C138.216 122.155 138.487 122.426 138.819 122.426C139.151 122.426 139.422 122.155 139.422 121.823C139.422 121.492 139.151 121.221 138.819 121.221C138.487 121.221 138.216 121.492 138.216 121.823Z" fill="#F5F5F5"/>
<path d="M135.306 121.823C135.306 122.155 135.577 122.426 135.909 122.426C136.241 122.426 136.512 122.155 136.512 121.823C136.512 121.492 136.241 121.221 135.909 121.221C135.577 121.221 135.306 121.492 135.306 121.823Z" fill="white"/>
<path d="M145.032 200.177H75.7695V202.888H145.032V200.177Z" fill="#F5F5F5"/>
<path d="M72.3916 208.499H75.7695V194.566H72.3916V208.499Z" fill="#E0E0E0"/>
<path d="M145.032 209.847H75.7695V223.779H145.032V209.847Z" fill="#EBEBEB"/>
<path d="M141.119 106.543C141.119 106.874 141.391 107.145 141.722 107.145C142.054 107.145 142.326 106.874 142.326 106.543C142.326 106.211 142.054 105.94 141.722 105.94C141.391 105.94 141.119 106.211 141.119 106.543Z" fill="#F5F5F5"/>
<path d="M138.216 106.543C138.216 106.874 138.487 107.145 138.819 107.145C139.151 107.145 139.422 106.874 139.422 106.543C139.422 106.211 139.151 105.94 138.819 105.94C138.487 105.94 138.216 106.211 138.216 106.543Z" fill="white"/>
<path d="M135.306 106.543C135.306 106.874 135.577 107.145 135.909 107.145C136.241 107.145 136.512 106.874 136.512 106.543C136.512 106.211 136.241 105.94 135.909 105.94C135.577 105.94 135.306 106.211 135.306 106.543Z" fill="#F5F5F5"/>
<path d="M145.032 215.458H75.7695V218.169H145.032V215.458Z" fill="#F5F5F5"/>
<path d="M72.3916 223.78H75.7695V209.847H72.3916V223.78Z" fill="#E0E0E0"/>
<path d="M145.032 225.127H75.7695V239.06H145.032V225.127Z" fill="#EBEBEB"/>
<path d="M141.119 91.2619C141.119 91.5933 141.391 91.8644 141.722 91.8644C142.054 91.8644 142.326 91.5933 142.326 91.2619C142.326 90.9305 142.054 90.6594 141.722 90.6594C141.391 90.6594 141.119 90.9305 141.119 91.2619Z" fill="#F5F5F5"/>
<path d="M138.216 91.2619C138.216 91.5933 138.487 91.8644 138.819 91.8644C139.151 91.8644 139.422 91.5933 139.422 91.2619C139.422 90.9305 139.151 90.6594 138.819 90.6594C138.487 90.6594 138.216 90.9305 138.216 91.2619Z" fill="#F5F5F5"/>
<path d="M135.306 91.2619C135.306 91.5933 135.577 91.8644 135.909 91.8644C136.241 91.8644 136.512 91.5933 136.512 91.2619C136.512 90.9305 136.241 90.6594 135.909 90.6594C135.577 90.6594 135.306 90.9305 135.306 91.2619Z" fill="white"/>
<path d="M145.032 230.738H75.7695V233.449H145.032V230.738Z" fill="#F5F5F5"/>
<path d="M72.3916 239.06H75.7695V225.127H72.3916V239.06Z" fill="#E0E0E0"/>
<path d="M137.854 34.6807C137.809 28.5504 132.817 23.5949 126.664 23.5949C125.187 23.5949 123.769 23.8886 122.48 24.4083C120.286 19.9198 115.664 16.8245 110.325 16.8245C103.871 16.8245 98.4723 21.3507 97.1302 27.3981C91.0605 27.7898 86.25 32.8281 86.25 38.9961C86.25 45.164 91.4601 50.6166 97.8842 50.6166H134.913C139.467 50.6166 143.162 46.9263 143.162 42.3775C143.162 38.8605 140.953 35.8707 137.854 34.6883V34.6807Z" fill="#F5F5F5"/>
<path d="M318.392 23.6327C318.331 15.5217 311.726 8.96206 303.591 8.96206C301.63 8.96206 299.76 9.34615 298.049 10.039C295.138 4.09696 289.031 0.00756836 281.966 0.00756836C273.423 0.00756836 266.283 5.9948 264.503 13.9928C256.466 14.5125 250.109 21.1775 250.109 29.3337C250.109 37.4899 257.001 44.7123 265.506 44.7123H314.501C320.525 44.7123 325.419 39.8321 325.419 33.8072C325.419 29.153 322.493 25.1991 318.392 23.6327Z" fill="#F5F5F5"/>
<path d="M188.5 285C269.24 285 334.693 281.183 334.693 276.475C334.693 271.766 269.24 267.949 188.5 267.949C107.76 267.949 42.3066 271.766 42.3066 276.475C42.3066 281.183 107.76 285 188.5 285Z" fill="#F5F5F5"/>
<path d="M65.2361 265.351V264.207H58.4803C58.1636 264.207 57.9072 264.463 57.9072 264.779C57.9072 265.095 58.1636 265.351 58.4803 265.351H65.2361Z" fill="#407BFF"/>
<path d="M65.2361 270.247V269.102H58.4803C58.1636 269.102 57.9072 269.358 57.9072 269.674C57.9072 269.99 58.1636 270.247 58.4803 270.247H65.2361Z" fill="#407BFF"/>
<path d="M62.8084 261.413C62.2806 261.413 61.8584 261.842 61.8584 262.362V272.318C61.8584 272.845 62.2882 273.267 62.8084 273.267C63.3362 273.267 63.7585 272.837 63.7585 272.318V262.362C63.7585 261.834 63.3287 261.413 62.8084 261.413Z" fill="#263238"/>
<path d="M65.5079 262.806H62.8086V271.881H65.5079C68.0187 271.881 70.0545 269.847 70.0545 267.34C70.0545 264.832 68.0187 262.798 65.5079 262.798V262.806Z" fill="#263238"/>
<path d="M86.8003 273.553C84.8173 273.553 82.9474 273.327 80.9794 273.093L77.6618 272.694C77.134 272.717 76.5987 272.754 76.0633 272.807C75.2943 272.883 74.5176 273.011 73.7636 273.131C72.3386 273.357 70.8683 273.59 69.3829 273.538C69.1039 273.53 68.7797 273.508 68.4781 273.357C68.1011 273.169 67.8598 272.815 67.8674 272.446C67.8749 272.099 68.1011 271.768 68.4479 271.587C68.7194 271.444 69.021 271.406 69.2849 271.384C70.9738 271.241 72.6553 271.437 74.2839 271.632L77.6769 272.039C79.0492 271.979 80.3762 272.009 81.6656 272.039C83.3093 272.077 85.0133 272.114 86.7928 271.971C88.3008 271.851 89.379 271.346 89.4318 271.12C89.1075 270.729 88.2706 270.608 86.559 270.39C85.2923 270.232 83.6787 270.186 81.9672 270.141C80.6175 270.104 79.2226 270.066 77.7975 269.976C74.955 269.787 71.2905 269.335 68.169 267.513C68.0106 267.422 67.9578 267.219 68.0483 267.061C68.1388 266.903 68.3424 266.85 68.5007 266.94C71.4941 268.695 75.0681 269.132 77.8352 269.313C79.2452 269.403 80.6326 269.441 81.9747 269.478C83.7014 269.524 85.33 269.569 86.6344 269.735C87.6372 269.863 88.346 269.953 88.8587 270.096C88.8286 270.058 88.7984 270.021 88.7682 269.983C88.5194 269.667 88.2706 269.335 88.0444 268.989C87.7654 268.552 87.4487 268.04 87.3206 267.453C87.1698 266.782 87.313 266.112 87.6976 265.668C88.1726 265.11 88.9492 264.975 89.4845 264.915C91.0755 264.749 92.6589 264.982 94.1895 265.208C94.3705 265.238 94.4911 265.404 94.4685 265.585C94.4383 265.766 94.28 265.894 94.0915 265.864C92.5986 265.645 91.0604 265.419 89.5524 265.577C89.1302 265.623 88.527 265.728 88.1952 266.105C87.9464 266.391 87.8634 266.85 87.9615 267.325C88.067 267.807 88.346 268.258 88.5948 268.642C88.8059 268.966 89.0548 269.29 89.2885 269.591C89.4393 269.787 89.5976 269.991 89.7409 270.194L89.8163 270.299C90.1556 270.759 90.6155 271.384 90.5175 272.054C90.3064 273.5 88.2631 273.538 87.2753 273.56C87.1019 273.56 86.936 273.56 86.7701 273.56L86.8003 273.553ZM83.724 272.739C84.9002 272.852 86.0614 272.913 87.2527 272.89C88.0972 272.875 89.7635 272.845 89.8917 271.949C89.9068 271.851 89.8917 271.753 89.8691 271.647C89.3036 272.235 87.8257 272.559 86.8531 272.634C85.7824 272.724 84.7419 272.739 83.724 272.739ZM70.4988 271.994C70.1143 271.994 69.7297 272.009 69.3452 272.039C69.1416 272.054 68.923 272.084 68.7571 272.167C68.6214 272.235 68.5309 272.355 68.5309 272.461C68.5309 272.574 68.6289 272.702 68.7722 272.77C68.9531 272.86 69.1869 272.875 69.4055 272.883C70.823 272.935 72.2632 272.702 73.6581 272.483C73.9748 272.431 74.299 272.385 74.6157 272.333L74.216 272.288C73.0021 272.144 71.7505 271.994 70.5064 271.994H70.4988Z" fill="#263238"/>
<path d="M165.963 91.7969H98.2617C95.3135 94.7415 93.6698 96.3833 90.7217 99.328V267.061C93.6698 270.006 95.3135 271.647 98.2617 274.592H165.963C168.911 271.647 170.555 270.006 173.503 267.061V99.328L165.963 91.7969Z" fill="black"/>
<path d="M78.5363 106.4L77.0133 108.471L73.1377 102.943L76.0406 113.78L77.5712 111.702L81.4392 117.229L78.5363 106.4Z" fill="#407BFF"/>
<path d="M136.519 70.0922L134.227 71.2671L133.224 64.6021L130.992 75.59L133.284 74.4151L134.287 81.0877L136.519 70.0922Z" fill="#407BFF"/>
<path d="M155.806 73.1046L152.331 72.2988L157.269 64.3384L145.017 73.9707L148.5 74.7765L143.562 82.7369L155.806 73.1046Z" fill="#407BFF"/>
<path opacity="0.7" d="M90.7217 267.061L98.2617 274.592H128.309L120.769 267.061H90.7217Z" fill="#263238"/>
<path opacity="0.7" d="M90.7217 99.328L98.2617 91.7969H128.309L120.769 99.328H90.7217Z" fill="#263238"/>
<path d="M196.01 91.7969H128.309C125.36 94.7415 123.717 96.3833 120.769 99.328V267.061C123.717 270.006 125.36 271.647 128.309 274.592H196.01C198.958 271.647 200.602 270.006 203.55 267.061V99.328C200.602 96.3833 198.958 94.7415 196.01 91.7969Z" fill="#263238"/>
<path opacity="0.6" d="M129.265 271.075L124.289 266.097V100.285L129.265 95.314H195.052L200.028 100.285V266.097L195.052 271.075H129.265Z" fill="#407BFF"/>
<path d="M200.029 104.238H127.811V118.766H200.029V104.238Z" fill="#263238"/>
<path d="M195.949 108.049C195.949 107.702 196.228 107.416 196.583 107.416C196.937 107.416 197.216 107.695 197.216 108.049C197.216 108.403 196.937 108.681 196.583 108.681C196.228 108.681 195.949 108.403 195.949 108.049Z" fill="#407BFF"/>
<path d="M192.919 108.049C192.919 107.702 193.198 107.416 193.552 107.416C193.907 107.416 194.186 107.695 194.186 108.049C194.186 108.403 193.907 108.681 193.552 108.681C193.198 108.681 192.919 108.403 192.919 108.049Z" fill="white"/>
<path d="M189.88 108.049C189.88 107.702 190.159 107.416 190.513 107.416C190.868 107.416 191.147 107.695 191.147 108.049C191.147 108.403 190.868 108.681 190.513 108.681C190.159 108.681 189.88 108.403 189.88 108.049Z" fill="#407BFF"/>
<path d="M200.029 110.09H127.811V112.914H200.029V110.09Z" fill="#407BFF"/>
<path d="M124.289 118.758H127.811V104.231H124.289V118.758Z" fill="black"/>
<path d="M200.029 120.167H127.811V134.694H200.029V120.167Z" fill="#263238"/>
<path d="M196.583 124.617C196.932 124.617 197.216 124.334 197.216 123.985C197.216 123.635 196.932 123.352 196.583 123.352C196.233 123.352 195.949 123.635 195.949 123.985C195.949 124.334 196.233 124.617 196.583 124.617Z" fill="#407BFF"/>
<path d="M193.544 124.617C193.894 124.617 194.178 124.334 194.178 123.985C194.178 123.635 193.894 123.352 193.544 123.352C193.195 123.352 192.911 123.635 192.911 123.985C192.911 124.334 193.195 124.617 193.544 124.617Z" fill="white"/>
<path d="M190.513 124.617C190.863 124.617 191.147 124.334 191.147 123.985C191.147 123.635 190.863 123.352 190.513 123.352C190.163 123.352 189.88 123.635 189.88 123.985C189.88 124.334 190.163 124.617 190.513 124.617Z" fill="white"/>
<path d="M200.029 126.018H127.811V128.842H200.029V126.018Z" fill="#407BFF"/>
<path d="M124.289 134.694H127.811V120.167H124.289V134.694Z" fill="black"/>
<path d="M200.029 136.103H127.811V150.63H200.029V136.103Z" fill="#263238"/>
<path d="M196.583 140.546C196.932 140.546 197.216 140.263 197.216 139.913C197.216 139.564 196.932 139.281 196.583 139.281C196.233 139.281 195.949 139.564 195.949 139.913C195.949 140.263 196.233 140.546 196.583 140.546Z" fill="#407BFF"/>
<path d="M193.544 140.546C193.894 140.546 194.178 140.263 194.178 139.913C194.178 139.564 193.894 139.281 193.544 139.281C193.195 139.281 192.911 139.564 192.911 139.913C192.911 140.263 193.195 140.546 193.544 140.546Z" fill="#407BFF"/>
<path d="M190.513 140.546C190.863 140.546 191.147 140.263 191.147 139.913C191.147 139.564 190.863 139.281 190.513 139.281C190.163 139.281 189.88 139.564 189.88 139.913C189.88 140.263 190.163 140.546 190.513 140.546Z" fill="#407BFF"/>
<path d="M200.029 141.954H127.811V144.778H200.029V141.954Z" fill="#407BFF"/>
<path d="M124.289 150.623H127.811V136.095H124.289V150.623Z" fill="black"/>
<path d="M200.029 152.031H127.811V166.558H200.029V152.031Z" fill="#263238"/>
<path d="M196.583 156.482C196.932 156.482 197.216 156.199 197.216 155.849C197.216 155.5 196.932 155.217 196.583 155.217C196.233 155.217 195.949 155.5 195.949 155.849C195.949 156.199 196.233 156.482 196.583 156.482Z" fill="white"/>
<path d="M193.544 156.482C193.894 156.482 194.178 156.199 194.178 155.849C194.178 155.5 193.894 155.217 193.544 155.217C193.195 155.217 192.911 155.5 192.911 155.849C192.911 156.199 193.195 156.482 193.544 156.482Z" fill="white"/>
<path d="M190.513 156.482C190.863 156.482 191.147 156.199 191.147 155.849C191.147 155.5 190.863 155.217 190.513 155.217C190.163 155.217 189.88 155.5 189.88 155.849C189.88 156.199 190.163 156.482 190.513 156.482Z" fill="#407BFF"/>
<path d="M200.029 157.882H127.811V160.706H200.029V157.882Z" fill="#407BFF"/>
<path d="M124.289 166.558H127.811V152.031H124.289V166.558Z" fill="black"/>
<path d="M200.029 167.967H127.811V182.494H200.029V167.967Z" fill="#263238"/>
<path d="M195.949 171.777C195.949 171.431 196.228 171.145 196.583 171.145C196.937 171.145 197.216 171.423 197.216 171.777C197.216 172.131 196.937 172.41 196.583 172.41C196.228 172.41 195.949 172.131 195.949 171.777Z" fill="white"/>
<path d="M192.919 171.777C192.919 171.431 193.198 171.145 193.552 171.145C193.907 171.145 194.186 171.423 194.186 171.777C194.186 172.131 193.907 172.41 193.552 172.41C193.198 172.41 192.919 172.131 192.919 171.777Z" fill="white"/>
<path d="M189.88 171.777C189.88 171.431 190.159 171.145 190.513 171.145C190.868 171.145 191.147 171.423 191.147 171.777C191.147 172.131 190.868 172.41 190.513 172.41C190.159 172.41 189.88 172.131 189.88 171.777Z" fill="white"/>
<path d="M200.029 173.818H127.811V176.642H200.029V173.818Z" fill="#407BFF"/>
<path d="M124.289 182.487H127.811V167.959H124.289V182.487Z" fill="black"/>
<path d="M200.029 183.895H127.811V198.422H200.029V183.895Z" fill="#263238"/>
<path d="M195.949 187.713C195.949 187.367 196.228 187.08 196.583 187.08C196.937 187.08 197.216 187.359 197.216 187.713C197.216 188.067 196.937 188.346 196.583 188.346C196.228 188.346 195.949 188.067 195.949 187.713Z" fill="#407BFF"/>
<path d="M192.919 187.713C192.919 187.367 193.198 187.08 193.552 187.08C193.907 187.08 194.186 187.359 194.186 187.713C194.186 188.067 193.907 188.346 193.552 188.346C193.198 188.346 192.919 188.067 192.919 187.713Z" fill="white"/>
<path d="M189.88 187.713C189.88 187.367 190.159 187.08 190.513 187.08C190.868 187.08 191.147 187.359 191.147 187.713C191.147 188.067 190.868 188.346 190.513 188.346C190.159 188.346 189.88 188.067 189.88 187.713Z" fill="#407BFF"/>
<path d="M200.029 189.746H127.811V192.571H200.029V189.746Z" fill="#407BFF"/>
<path d="M124.289 198.422H127.811V183.895H124.289V198.422Z" fill="black"/>
<path d="M200.029 199.831H127.811V214.358H200.029V199.831Z" fill="#263238"/>
<path d="M196.583 204.274C196.932 204.274 197.216 203.991 197.216 203.641C197.216 203.292 196.932 203.009 196.583 203.009C196.233 203.009 195.949 203.292 195.949 203.641C195.949 203.991 196.233 204.274 196.583 204.274Z" fill="white"/>
<path d="M193.544 204.274C193.894 204.274 194.178 203.991 194.178 203.641C194.178 203.292 193.894 203.009 193.544 203.009C193.195 203.009 192.911 203.292 192.911 203.641C192.911 203.991 193.195 204.274 193.544 204.274Z" fill="white"/>
<path d="M190.513 204.274C190.863 204.274 191.147 203.991 191.147 203.641C191.147 203.292 190.863 203.009 190.513 203.009C190.163 203.009 189.88 203.292 189.88 203.641C189.88 203.991 190.163 204.274 190.513 204.274Z" fill="#407BFF"/>
<path d="M200.029 205.682H127.811V208.507H200.029V205.682Z" fill="#407BFF"/>
<path d="M124.289 214.351H127.811V199.823H124.289V214.351Z" fill="black"/>
<path d="M200.029 215.759H127.811V230.287H200.029V215.759Z" fill="#263238"/>
<path d="M196.583 220.21C196.932 220.21 197.216 219.927 197.216 219.577C197.216 219.228 196.932 218.945 196.583 218.945C196.233 218.945 195.949 219.228 195.949 219.577C195.949 219.927 196.233 220.21 196.583 220.21Z" fill="white"/>
<path d="M193.544 220.21C193.894 220.21 194.178 219.927 194.178 219.577C194.178 219.228 193.894 218.945 193.544 218.945C193.195 218.945 192.911 219.228 192.911 219.577C192.911 219.927 193.195 220.21 193.544 220.21Z" fill="#407BFF"/>
<path d="M190.513 220.21C190.863 220.21 191.147 219.927 191.147 219.577C191.147 219.228 190.863 218.945 190.513 218.945C190.163 218.945 189.88 219.228 189.88 219.577C189.88 219.927 190.163 220.21 190.513 220.21Z" fill="white"/>
<path d="M200.029 221.611H127.811V224.435H200.029V221.611Z" fill="#407BFF"/>
<path d="M124.289 230.287H127.811V215.759H124.289V230.287Z" fill="black"/>
<path d="M200.029 231.695H127.811V246.222H200.029V231.695Z" fill="#263238"/>
<path d="M196.583 236.138C196.932 236.138 197.216 235.855 197.216 235.506C197.216 235.156 196.932 234.873 196.583 234.873C196.233 234.873 195.949 235.156 195.949 235.506C195.949 235.855 196.233 236.138 196.583 236.138Z" fill="#407BFF"/>
<path d="M193.544 236.138C193.894 236.138 194.178 235.855 194.178 235.506C194.178 235.156 193.894 234.873 193.544 234.873C193.195 234.873 192.911 235.156 192.911 235.506C192.911 235.855 193.195 236.138 193.544 236.138Z" fill="white"/>
<path d="M190.513 236.138C190.863 236.138 191.147 235.855 191.147 235.506C191.147 235.156 190.863 234.873 190.513 234.873C190.163 234.873 189.88 235.156 189.88 235.506C189.88 235.855 190.163 236.138 190.513 236.138Z" fill="#407BFF"/>
<path d="M200.029 237.539H127.811V240.363H200.029V237.539Z" fill="#407BFF"/>
<path d="M124.289 246.215H127.811V231.687H124.289V246.215Z" fill="black"/>
<path d="M200.029 247.623H127.811V262.151H200.029V247.623Z" fill="#263238"/>
<path d="M196.583 252.074C196.932 252.074 197.216 251.791 197.216 251.441C197.216 251.092 196.932 250.809 196.583 250.809C196.233 250.809 195.949 251.092 195.949 251.441C195.949 251.791 196.233 252.074 196.583 252.074Z" fill="#407BFF"/>
<path d="M193.544 252.074C193.894 252.074 194.178 251.791 194.178 251.441C194.178 251.092 193.894 250.809 193.544 250.809C193.195 250.809 192.911 251.092 192.911 251.441C192.911 251.791 193.195 252.074 193.544 252.074Z" fill="#407BFF"/>
<path d="M190.513 252.074C190.863 252.074 191.147 251.791 191.147 251.441C191.147 251.092 190.863 250.809 190.513 250.809C190.163 250.809 189.88 251.092 189.88 251.441C189.88 251.791 190.163 252.074 190.513 252.074Z" fill="white"/>
<path d="M200.029 253.475H127.811V256.299H200.029V253.475Z" fill="#407BFF"/>
<path d="M124.289 262.151H127.811V247.623H124.289V262.151Z" fill="black"/>
<path opacity="0.7" d="M129.265 271.075L124.289 266.097V100.285L129.265 95.314H168.232L173.209 100.285V266.097L168.232 271.075H129.265Z" fill="#407BFF"/>
<path d="M168.232 271.075L173.209 266.097V100.285L168.232 95.314H170.185L174.46 99.5841V266.805L170.185 271.075H168.232Z" fill="#407BFF"/>
<path d="M270.068 98.3412C271.711 101.549 273.167 104.735 274.501 108.064C275.172 109.721 275.798 111.415 276.371 113.147C276.959 114.88 277.48 116.657 277.872 118.66L277.947 119.037L277.985 119.24L278.022 119.519C278.045 119.707 278.075 119.903 278.083 120.076L278.105 120.573C278.12 121.228 278.083 121.786 278.022 122.335C277.894 123.412 277.698 124.376 277.472 125.31C277.035 127.178 276.431 128.902 275.813 130.604C274.539 134.001 273.061 137.202 271.334 140.365C270.792 141.366 269.532 141.735 268.53 141.193C267.693 140.741 267.293 139.785 267.504 138.904L267.519 138.859C268.311 135.53 269.11 132.156 269.781 128.872C270.128 127.231 270.407 125.589 270.603 124.037C270.694 123.262 270.754 122.501 270.754 121.846C270.754 121.522 270.739 121.213 270.709 121.002L270.686 120.844L270.656 120.754L270.611 120.596L270.535 120.332C270.128 118.954 269.555 117.418 268.929 115.889C268.296 114.36 267.632 112.824 266.939 111.28C265.551 108.207 264.089 105.082 262.656 102.047L262.633 102.001C261.661 99.9303 262.55 97.4601 264.624 96.4885C266.652 95.5321 269.065 96.3756 270.083 98.3487L270.068 98.3412Z" fill="#FFB573"/>
<path d="M266.411 139.898L268.99 136.102L271.538 135.334C272.722 136.765 272.375 138.972 272.028 140.237L271.289 144.951C271.154 145.84 270.453 146.518 269.555 146.646L267.874 146.879C266.63 147.052 265.491 146.149 265.386 144.891L265.318 144.07C265.19 142.594 265.582 141.118 266.411 139.89V139.898Z" fill="#FFB573"/>
<path d="M262.211 150.072C262.844 149.327 263.131 148.408 263.101 147.504L275.783 141.623C275.783 141.623 275.843 141.683 275.881 141.705C277.487 143.053 279.885 142.85 281.242 141.246C281.528 140.907 281.747 140.523 281.898 140.131L279.138 140.5C278.407 140.598 277.743 140.064 277.675 139.333L277.593 138.384C277.532 137.654 278.098 137.013 278.829 136.983L281.611 136.885C281.4 136.516 281.121 136.185 280.774 135.899C279.168 134.551 276.771 134.754 275.413 136.358C274.78 137.104 274.494 138.023 274.524 138.926L261.841 144.808C261.841 144.808 261.781 144.748 261.743 144.725C260.137 143.377 257.74 143.581 256.383 145.185C256.096 145.524 255.877 145.908 255.727 146.299L258.486 145.93C259.218 145.832 259.881 146.367 259.949 147.098L260.032 148.047C260.092 148.777 259.527 149.417 258.795 149.447L256.013 149.545C256.224 149.914 256.503 150.246 256.85 150.532C258.456 151.88 260.854 151.677 262.211 150.072Z" fill="#263238"/>
<path opacity="0.1" d="M262.852 145.983C262.671 145.599 262.837 145.147 263.221 144.966L273.37 140.259C273.754 140.079 274.207 140.252 274.388 140.628C274.569 141.013 274.403 141.464 274.018 141.645L263.869 146.352C263.485 146.533 263.033 146.36 262.852 145.983Z" fill="white"/>
<path d="M261.133 90.4863C265.68 91.488 267.896 93.8075 272.285 101.105C269.796 104.788 263.712 107.974 263.712 107.974L261.08 104.946C257.778 98.8233 261.133 90.4863 261.133 90.4863Z" fill="#263238"/>
<path opacity="0.2" d="M259.633 98.8232C259.655 100.864 260.04 103.018 261.081 104.946L263.712 107.974C263.712 107.974 264.67 107.469 265.989 106.633C263.833 102.34 262.151 100.179 259.633 98.8232Z" fill="black"/>
<path d="M240.187 97.4977L240.104 97.9721L240.029 98.3336L239.87 99.0039C239.75 99.4407 239.614 99.8549 239.471 100.269C239.177 101.09 238.83 101.881 238.438 102.656C237.639 104.193 236.621 105.639 235.399 106.904C234.185 108.177 232.768 109.269 231.252 110.127C229.737 110.986 228.116 111.596 226.494 112.003L226.231 112.07C224.278 112.56 222.295 111.378 221.797 109.419C221.752 109.246 221.722 109.05 221.707 108.87C221.548 107.213 221.707 105.714 221.978 104.328C222.257 102.943 222.642 101.647 223.086 100.412C223.984 97.9496 225.13 95.7053 226.351 93.5589C227.595 91.4201 228.93 89.3791 230.362 87.4135C231.818 85.4554 233.28 83.5727 234.939 81.7351C235.701 80.8916 237.005 80.8238 237.85 81.5844C238.589 82.2472 238.732 83.3241 238.249 84.145L238.219 84.1977C237.081 86.1483 235.919 88.1817 234.879 90.2226C233.816 92.256 232.805 94.3045 231.923 96.368C231.018 98.424 230.257 100.503 229.707 102.528C229.171 104.524 228.892 106.573 229.149 107.966L224.361 104.841C225.379 104.449 226.298 103.952 227.143 103.387C227.972 102.8 228.711 102.129 229.352 101.376C229.985 100.616 230.551 99.7721 231.011 98.8608C231.245 98.409 231.456 97.9345 231.622 97.46C231.712 97.2266 231.78 96.9856 231.855 96.7596L231.953 96.4283L231.991 96.2852C231.991 96.2852 232.014 96.1647 232.006 96.2551C232.353 93.9957 234.472 92.4443 236.734 92.7907C238.996 93.1372 240.549 95.2534 240.202 97.5127L240.187 97.4977Z" fill="#FFB573"/>
<path d="M242.102 96.933C242.577 94.1013 240.579 90.6973 240.579 90.6973C236.085 90.9232 231.75 92.0152 227.58 100.525C228.583 105.27 234.879 108.614 234.879 108.614L239.327 102.86C239.327 102.86 241.635 99.7647 242.102 96.9255V96.933Z" fill="#263238"/>
<path d="M236.176 79.6416L237.427 78.286C237.97 77.6986 238.641 77.2542 239.395 76.9907L240.586 76.5689C241.929 76.0869 243.376 76.9229 243.64 78.3161L243.934 79.8751C244.16 81.0424 243.452 82.1947 242.306 82.526L240.473 83.0607C240.473 83.0607 238.287 86.7133 234.034 85.0565C234.034 83.0683 234.796 81.1252 236.168 79.6416H236.176Z" fill="#FFB573"/>
<path d="M269.05 262.806H262.776C262.776 262.806 263.086 267.4 263.063 270.118L268.59 270.781C268.122 267.769 269.05 262.813 269.05 262.813V262.806Z" fill="#FFB573"/>
<path d="M241.408 133.911C241.408 133.911 252.665 181.56 256.179 200.923C259.866 221.264 262.377 262.053 262.369 263.544C264.39 263.152 267.678 263.054 269.268 263.544C269.268 263.544 277.02 215.578 270 197.767C267.338 163.997 270.784 144.891 263.998 133.911H241.408Z" fill="#407BFF"/>
<path opacity="0.2" d="M255.742 148.679C253.902 141.171 247.659 141.894 243.595 143.272C246.128 154.154 250.328 172.478 253.397 187.013C257.755 176.574 258.23 158.816 255.742 148.679Z" fill="black"/>
<path d="M229.096 262.022C228.53 269.305 222.611 277.137 222.611 277.137L231.742 274.803L235.588 269.094C235.738 266.85 235.746 265.012 236.44 262.655L229.103 262.03L229.096 262.022Z" fill="#FFB573"/>
<path d="M232.247 133.911C232.247 133.911 233.838 184.603 233.424 199.416C232.843 219.954 228.53 263.544 228.53 263.544C231.803 263.212 234.63 263.107 236.44 263.544C236.44 263.544 249.989 228.26 248.421 199.612C251.814 173.065 263.252 148.679 256.179 133.911H232.247Z" fill="#407BFF"/>
<path d="M256.413 76.6892C255.523 80.5301 254.528 87.5717 257.129 90.1398C257.129 90.1398 254.226 95.2233 247.583 97.9646C242.547 94.7413 245.17 90.1398 245.17 90.1398C249.498 89.1156 249.498 85.9374 248.858 82.9476L256.42 76.6892H256.413Z" fill="#FFB573"/>
<path d="M257.167 86.186C257.167 86.186 248.42 84.9961 244.123 88.5583C244.025 90.0419 243.082 90.9381 243.082 90.9381C247.779 91.9699 252.537 92.1883 257.355 91.6385C258.494 89.688 257.174 86.186 257.174 86.186H257.167Z" fill="#407BFF"/>
<path d="M233.152 99.1698C233.619 111.227 230.957 129.535 232.247 133.911C245.185 135.221 255.297 134.995 263.998 133.911C265.521 129.144 261.909 114.985 266.041 98.138C266.961 94.395 264.443 90.8102 260.65 90.4186C259.534 90.3056 258.343 90.2077 257.121 90.1475C252.695 89.9366 249.069 89.7935 245.163 90.1475C243.64 90.283 242.056 90.4864 240.571 90.7048C236.364 91.3148 232.986 94.9599 233.152 99.1773V99.1698Z" fill="#263238"/>
<path d="M242.215 70.235C242.162 70.7622 241.853 71.1689 241.514 71.1463C241.175 71.1237 240.941 70.6869 240.986 70.1597C241.039 69.6325 241.348 69.2259 241.687 69.2485C242.027 69.271 242.26 69.7079 242.215 70.235Z" fill="#263238"/>
<path d="M241.838 69.2862L240.624 68.8494C240.624 68.8494 241.174 69.8736 241.838 69.2862Z" fill="#263238"/>
<path d="M241.544 66.7934C241.468 66.7783 241.408 66.7331 241.363 66.6578C241.28 66.5147 241.325 66.3265 241.468 66.2286C242.923 65.3098 244.198 65.8746 244.25 65.8972C244.401 65.965 244.462 66.1457 244.394 66.3039C244.318 66.462 244.137 66.5298 243.987 66.462C243.934 66.4394 242.939 66.0177 241.785 66.7482C241.709 66.7934 241.627 66.8085 241.544 66.7859V66.7934Z" fill="#263238"/>
<path d="M242.109 71.6736C242.109 71.6736 241.016 73.8727 239.945 74.9044C240.571 75.5898 241.762 75.3714 241.762 75.3714L242.109 71.6811V71.6736Z" fill="#ED893E"/>
<path d="M259.926 69.1508C258.931 75.5597 258.644 78.286 255.115 81.3888C249.807 86.0581 242.245 83.6933 241.325 77.1789C240.503 71.3197 242.267 61.8305 248.744 59.6465C255.131 57.5001 260.921 62.7418 259.926 69.1432V69.1508Z" fill="#FFB573"/>
<path d="M243.934 61.9434C242.645 64.4813 245.186 69.1883 246.897 71.1163C243.859 74.3772 240.828 80.003 244.839 83.3694C248.496 86.4421 268.153 86.412 264.33 79.7996C267.7 75.6575 262.091 75.0701 264.767 67.0269C266.72 61.1752 263.041 59.5485 259.746 60.1133C255.991 55.3687 246.611 56.664 243.934 61.9434Z" fill="#263238"/>
<path d="M245.375 64.6018C245.375 64.6018 251.444 69.5723 258.442 70.3857C262.189 70.8225 264.097 70.7698 264.27 70.1974C264.443 69.625 264.768 67.6895 264.768 67.6895L245.367 64.5942L245.375 64.6018Z" fill="#E0E0E0"/>
<path d="M240.217 63.299C242.057 64.7525 255.961 68.7214 265.333 67.8478C265.423 67.2905 265.122 67.2227 265.122 67.2227C265.122 67.2227 267.278 60.0003 262.324 57.2891C259.987 53.4709 252.93 53.7043 249.808 54.7813L249.363 55.3386C249.363 55.3386 243.248 56.762 243.158 61.8304C240.745 62.1091 238.189 61.7099 240.217 63.3065V63.299Z" fill="#407BFF"/>
<path opacity="0.2" d="M249.363 55.3386L249.808 54.7812C249.808 54.7812 254.709 54.2164 258.886 57.7636C256.511 56.3929 252.598 55.0674 249.371 55.3386H249.363Z" fill="black"/>
<path d="M245.97 69.0828C244.635 68.9021 243.368 70.8451 242.916 72.2308C242.411 73.7747 242.961 75.2131 244.341 74.7161C245.261 74.3847 246.279 73.5638 246.92 72.3513C247.651 70.958 247.282 69.2635 245.97 69.0828Z" fill="#FFB573"/>
<path d="M264.963 265.909C268.809 265.231 268.741 267.211 268.99 269.35C269.133 270.578 269.012 271.956 268.356 273.116C266.999 275.496 268.16 279.02 263.84 279.02C259.519 279.02 259.127 278.019 260.296 275.887C261.465 273.756 262.053 271.504 262.573 269.041C262.837 267.806 263.252 266.21 264.963 265.909Z" fill="#263238"/>
<path d="M268.741 270.457C268.741 273.04 268.786 279.02 268.786 279.02L268.1 278.998C268.1 278.998 267.512 272.634 267.135 270.917L268.733 270.457H268.741Z" fill="#263238"/>
<path d="M236.077 266.752C236.379 267.43 236.469 268.175 236.424 268.921C236.266 271.655 235.678 278.892 235.678 278.892H235.052C235.052 278.892 235.233 274.02 234.992 272.227C234.75 270.435 233.861 273.605 232.617 275.405C231.372 277.205 228.982 278.84 224.911 278.968C220.145 279.118 218.223 278.915 219.655 277.725C221.088 276.535 224.277 275.752 224.277 275.752C224.277 275.752 227.919 274.404 230.272 270.367C231.795 267.746 234.034 266.556 235.256 265.939C235.648 266.007 235.904 266.345 236.085 266.76L236.077 266.752Z" fill="#263238"/>
<path d="M72.9345 15.3408H82.7214V18.6244H76.0937L75.7394 20.8461C76.1993 20.6277 76.6517 20.4695 77.1041 20.3641C77.5565 20.2586 77.9938 20.2059 78.4387 20.2059C79.9241 20.2059 81.1305 20.6578 82.0503 21.554C82.9702 22.4502 83.4377 23.5799 83.4377 24.943C83.4377 25.8994 83.1964 26.8182 82.7214 27.7069C82.2464 28.5881 81.5678 29.2659 80.7007 29.7253C79.826 30.1922 78.7101 30.4256 77.3454 30.4256C76.3652 30.4256 75.5282 30.3353 74.827 30.147C74.1258 29.9587 73.5377 29.6876 73.0476 29.3186C72.5575 28.9495 72.1654 28.5353 71.8563 28.0684C71.5547 27.6015 71.2983 27.0216 71.0947 26.3287L75.2643 25.8769C75.3624 26.5471 75.6036 27.0517 75.9731 27.3981C76.3426 27.7446 76.7874 27.9178 77.3001 27.9178C77.8732 27.9178 78.3482 27.6994 78.7252 27.2626C79.1022 26.8258 79.2907 26.1781 79.2907 25.3195C79.2907 24.461 79.1022 23.7907 78.7252 23.3765C78.3482 22.9623 77.843 22.759 77.2172 22.759C76.8176 22.759 76.433 22.8569 76.0636 23.0527C75.7846 23.1958 75.483 23.4518 75.1512 23.8209L71.6376 23.3163L72.942 15.3484L72.9345 15.3408Z" fill="#06C270"/>
<path d="M85.0889 22.6912C85.0889 19.8745 85.5941 17.9014 86.612 16.7793C87.6299 15.6571 89.1755 15.0923 91.2566 15.0923C92.2519 15.0923 93.0737 15.2128 93.7146 15.4613C94.3555 15.7098 94.8758 16.0261 95.2829 16.4253C95.6901 16.8169 96.0068 17.2311 96.2405 17.6679C96.4743 18.1047 96.6628 18.6093 96.806 19.1892C97.085 20.2963 97.2207 21.4485 97.2207 22.646C97.2207 25.3346 96.7683 27.3002 95.856 28.5504C94.9436 29.8006 93.3753 30.4181 91.151 30.4181C89.8994 30.4181 88.8966 30.2223 88.1275 29.8231C87.3584 29.424 86.7251 28.8441 86.235 28.0759C85.8806 27.5337 85.6016 26.7806 85.398 25.8392C85.202 24.8903 85.0964 23.8434 85.0964 22.6987L85.0889 22.6912ZM89.1755 22.6987C89.1755 24.589 89.3414 25.8768 89.6732 26.5622C90.0049 27.255 90.495 27.6015 91.1284 27.6015C91.5431 27.6015 91.9126 27.4584 92.2142 27.1647C92.5233 26.8709 92.7495 26.4116 92.8928 25.7714C93.036 25.1388 93.1114 24.1522 93.1114 22.8117C93.1114 20.8461 92.9455 19.5206 92.6138 18.8428C92.282 18.165 91.7768 17.8261 91.1133 17.8261C90.4498 17.8261 89.9371 18.1725 89.6355 18.8654C89.3339 19.5582 89.1831 20.8385 89.1831 22.6987H89.1755Z" fill="#06C270"/>
<path d="M98.917 22.6912C98.917 19.8745 99.4222 17.9014 100.44 16.7793C101.458 15.6571 103.004 15.0923 105.085 15.0923C106.08 15.0923 106.902 15.2128 107.543 15.4613C108.184 15.7098 108.704 16.0261 109.111 16.4253C109.518 16.8169 109.835 17.2311 110.069 17.6679C110.302 18.1047 110.491 18.6093 110.634 19.1892C110.913 20.2963 111.049 21.4485 111.049 22.646C111.049 25.3346 110.596 27.3002 109.684 28.5504C108.772 29.8006 107.203 30.4181 104.979 30.4181C103.728 30.4181 102.725 30.2223 101.956 29.8231C101.187 29.424 100.553 28.8441 100.063 28.0759C99.7087 27.5337 99.4297 26.7806 99.2261 25.8392C99.0301 24.8903 98.9245 23.8434 98.9245 22.6987L98.917 22.6912ZM103.004 22.6987C103.004 24.589 103.17 25.8768 103.501 26.5622C103.833 27.255 104.323 27.6015 104.957 27.6015C105.371 27.6015 105.741 27.4584 106.042 27.1647C106.351 26.8709 106.578 26.4116 106.721 25.7714C106.864 25.1388 106.94 24.1522 106.94 22.8117C106.94 20.8461 106.774 19.5206 106.442 18.8428C106.11 18.165 105.605 17.8261 104.941 17.8261C104.278 17.8261 103.765 18.1725 103.464 18.8654C103.162 19.5582 103.011 20.8385 103.011 22.6987H103.004Z" fill="#06C270"/>
<path d="M120.738 30.1621V15.3408H122.699V30.1621H120.738Z" fill="#263238"/>
<path d="M125.934 30.162V19.4226H127.57V20.9515C128.361 19.7691 129.5 19.1816 130.993 19.1816C131.641 19.1816 132.237 19.2946 132.78 19.5281C133.323 19.7615 133.73 20.0628 134.001 20.4393C134.273 20.8159 134.461 21.2678 134.567 21.7874C134.635 22.1263 134.665 22.7137 134.665 23.5572V30.162H132.84V23.6325C132.84 22.8945 132.772 22.3372 132.629 21.9682C132.486 21.5991 132.237 21.3054 131.875 21.087C131.513 20.8686 131.091 20.7556 130.608 20.7556C129.832 20.7556 129.161 21.0042 128.603 21.4937C128.045 21.9832 127.758 22.9171 127.758 24.2953V30.162H125.934Z" fill="#263238"/>
<path d="M141.435 28.5353L141.699 30.1394C141.186 30.2448 140.726 30.2975 140.319 30.2975C139.656 30.2975 139.143 30.1921 138.781 29.9812C138.419 29.7704 138.163 29.4992 138.012 29.1603C137.861 28.8214 137.786 28.106 137.786 27.014V20.8385H136.451V19.4226H137.786V16.7641L139.595 15.6721V19.4226H141.428V20.8385H139.595V27.1194C139.595 27.6391 139.626 27.9704 139.693 28.1211C139.754 28.2717 139.859 28.3846 140.01 28.475C140.153 28.5654 140.364 28.603 140.636 28.603C140.839 28.603 141.103 28.5805 141.435 28.5353Z" fill="#263238"/>
<path d="M150.581 26.7053L152.466 26.9387C152.172 28.0383 151.622 28.8893 150.815 29.4993C150.008 30.1093 148.983 30.4106 147.739 30.4106C146.163 30.4106 144.919 29.9286 143.999 28.9571C143.079 27.9931 142.619 26.6375 142.619 24.8903C142.619 23.143 143.087 21.682 144.014 20.6879C144.941 19.6863 146.155 19.1892 147.641 19.1892C149.126 19.1892 150.25 19.6787 151.162 20.6578C152.074 21.6368 152.527 23.0075 152.527 24.7848C152.527 24.8903 152.527 25.0559 152.519 25.2668H144.504C144.572 26.4492 144.904 27.3529 145.507 27.978C146.11 28.6031 146.857 28.9194 147.754 28.9194C148.425 28.9194 148.99 28.7462 149.465 28.3922C149.94 28.0383 150.31 27.481 150.589 26.7128L150.581 26.7053ZM144.602 23.7606H150.604C150.521 22.8569 150.295 22.1791 149.918 21.7272C149.337 21.0268 148.583 20.6728 147.663 20.6728C146.826 20.6728 146.125 20.9515 145.552 21.5088C144.979 22.0661 144.67 22.8192 144.61 23.7531L144.602 23.7606Z" fill="#263238"/>
<path d="M154.729 30.162V19.4226H156.365V21.0494C156.779 20.2887 157.171 19.7841 157.526 19.5431C157.88 19.3021 158.272 19.1816 158.695 19.1816C159.305 19.1816 159.931 19.3775 160.564 19.7691L159.939 21.456C159.494 21.1924 159.049 21.0644 158.604 21.0644C158.204 21.0644 157.85 21.1849 157.533 21.4259C157.217 21.6669 156.991 21.9983 156.855 22.42C156.651 23.0677 156.553 23.7756 156.553 24.5438V30.162H154.729Z" fill="#263238"/>
<path d="M161.65 30.162V19.4226H163.287V20.9515C164.078 19.7691 165.217 19.1816 166.71 19.1816C167.358 19.1816 167.954 19.2946 168.497 19.5281C169.04 19.7615 169.447 20.0628 169.718 20.4393C169.99 20.8159 170.178 21.2678 170.284 21.7874C170.352 22.1263 170.382 22.7137 170.382 23.5572V30.162H168.557V23.6325C168.557 22.8945 168.489 22.3372 168.346 21.9682C168.203 21.5991 167.954 21.3054 167.592 21.087C167.23 20.8686 166.808 20.7556 166.325 20.7556C165.549 20.7556 164.878 21.0042 164.32 21.4937C163.762 21.9832 163.475 22.9171 163.475 24.2953V30.162H161.65Z" fill="#263238"/>
<path d="M180.198 28.8366C179.52 29.4089 178.871 29.8156 178.253 30.0491C177.627 30.2825 176.956 30.403 176.247 30.403C175.063 30.403 174.159 30.1169 173.525 29.537C172.892 28.9571 172.575 28.2265 172.575 27.3303C172.575 26.8032 172.696 26.3212 172.937 25.8919C173.178 25.4551 173.488 25.1087 173.88 24.8451C174.264 24.5815 174.701 24.3857 175.192 24.2501C175.546 24.1597 176.089 24.0618 176.813 23.979C178.283 23.8058 179.369 23.5949 180.062 23.3539C180.062 23.1054 180.07 22.9472 180.07 22.8795C180.07 22.1414 179.897 21.6142 179.55 21.313C179.082 20.8988 178.396 20.6954 177.476 20.6954C176.617 20.6954 175.983 20.8461 175.576 21.1473C175.169 21.4485 174.867 21.9757 174.671 22.7364L172.892 22.4954C173.05 21.7347 173.322 21.1172 173.691 20.6502C174.061 20.1833 174.596 19.8218 175.297 19.5658C175.998 19.3097 176.813 19.1892 177.74 19.1892C178.668 19.1892 179.406 19.2946 179.979 19.513C180.553 19.7314 180.975 20.0026 181.246 20.3264C181.518 20.6502 181.706 21.0645 181.812 21.5615C181.872 21.8703 181.902 22.4276 181.902 23.241V25.666C181.902 27.3605 181.94 28.4299 182.015 28.8742C182.091 29.3261 182.249 29.7554 182.475 30.162H180.575C180.387 29.7855 180.266 29.3412 180.213 28.8366H180.198ZM180.047 24.7698C179.384 25.0409 178.396 25.2668 177.069 25.4551C176.323 25.5605 175.787 25.681 175.478 25.8166C175.169 25.9522 174.928 26.148 174.762 26.4115C174.596 26.6676 174.505 26.9613 174.505 27.2776C174.505 27.7596 174.686 28.1663 175.056 28.4901C175.425 28.814 175.961 28.9721 176.669 28.9721C177.378 28.9721 177.996 28.8215 178.539 28.5127C179.09 28.204 179.489 27.7897 179.746 27.255C179.942 26.8408 180.04 26.2383 180.04 25.4325V24.7622L180.047 24.7698Z" fill="#263238"/>
<path d="M184.67 30.1621V15.3408H186.495V30.1621H184.67Z" fill="#263238"/>
<path d="M194.344 26.9537L196.146 26.6675C196.244 27.3905 196.53 27.9403 196.99 28.3243C197.45 28.7084 198.099 28.8967 198.928 28.8967C199.757 28.8967 200.383 28.7235 200.79 28.3846C201.198 28.0457 201.401 27.6465 201.401 27.1871C201.401 26.7729 201.22 26.4491 200.866 26.2156C200.617 26.0575 199.999 25.8466 199.003 25.5981C197.669 25.2592 196.741 24.973 196.221 24.7245C195.708 24.4759 195.316 24.137 195.045 23.7002C194.781 23.2634 194.645 22.789 194.645 22.2618C194.645 21.7798 194.758 21.343 194.977 20.9288C195.196 20.5221 195.497 20.1832 195.874 19.9121C196.161 19.7012 196.545 19.528 197.036 19.3849C197.526 19.2418 198.046 19.1665 198.611 19.1665C199.456 19.1665 200.195 19.287 200.836 19.528C201.477 19.769 201.944 20.1004 202.246 20.5146C202.547 20.9288 202.758 21.4861 202.871 22.179L201.092 22.4199C201.009 21.8702 200.775 21.4334 200.391 21.1246C200.006 20.8158 199.456 20.6577 198.747 20.6577C197.91 20.6577 197.315 20.7932 196.953 21.0719C196.598 21.3505 196.417 21.6744 196.417 22.0434C196.417 22.2769 196.493 22.4877 196.643 22.6835C196.794 22.8793 197.028 23.0375 197.345 23.1655C197.526 23.2333 198.061 23.3839 198.951 23.6325C200.24 23.9789 201.137 24.2575 201.65 24.4759C202.163 24.6943 202.562 25.0106 202.849 25.4324C203.135 25.8541 203.286 26.3662 203.286 26.9913C203.286 27.6164 203.113 28.1662 202.758 28.7084C202.404 29.2431 201.891 29.6573 201.228 29.9511C200.557 30.2448 199.803 30.3879 198.958 30.3879C197.563 30.3879 196.5 30.1017 195.761 29.5218C195.03 28.9419 194.562 28.0833 194.359 26.9461L194.344 26.9537Z" fill="#263238"/>
<path d="M212.801 26.7053L214.686 26.9387C214.392 28.0383 213.842 28.8893 213.035 29.4993C212.228 30.1093 211.203 30.4106 209.959 30.4106C208.383 30.4106 207.139 29.9286 206.219 28.9571C205.299 27.9931 204.839 26.6375 204.839 24.8903C204.839 23.143 205.306 21.682 206.234 20.6879C207.161 19.6863 208.375 19.1892 209.86 19.1892C211.346 19.1892 212.469 19.6787 213.382 20.6578C214.294 21.6368 214.746 23.0075 214.746 24.7848C214.746 24.8903 214.746 25.0559 214.739 25.2668H206.724C206.792 26.4492 207.123 27.3529 207.727 27.978C208.33 28.6031 209.076 28.9194 209.974 28.9194C210.645 28.9194 211.21 28.7462 211.685 28.3922C212.16 28.0383 212.53 27.481 212.809 26.7128L212.801 26.7053ZM206.822 23.7606H212.824C212.741 22.8569 212.515 22.1791 212.138 21.7272C211.557 21.0268 210.803 20.6728 209.883 20.6728C209.046 20.6728 208.345 20.9515 207.772 21.5088C207.199 22.0661 206.89 22.8192 206.829 23.7531L206.822 23.7606Z" fill="#263238"/>
<path d="M216.948 30.162V19.4226H218.584V21.0494C218.999 20.2887 219.391 19.7841 219.746 19.5431C220.1 19.3021 220.492 19.1816 220.914 19.1816C221.525 19.1816 222.151 19.3775 222.784 19.7691L222.158 21.456C221.714 21.1924 221.269 21.0644 220.824 21.0644C220.424 21.0644 220.07 21.1849 219.753 21.4259C219.436 21.6669 219.21 21.9983 219.075 22.42C218.871 23.0677 218.773 23.7756 218.773 24.5438V30.162H216.948Z" fill="#263238"/>
<path d="M226.856 30.162L222.77 19.4226H224.692L226.999 25.8542C227.248 26.547 227.482 27.27 227.686 28.0156C227.844 27.4508 228.07 26.7654 228.364 25.9747L230.754 19.4226H232.624L228.553 30.162H226.849H226.856Z" fill="#263238"/>
<path d="M241.597 26.7053L243.482 26.9387C243.188 28.0383 242.638 28.8893 241.831 29.4993C241.024 30.1093 239.999 30.4106 238.754 30.4106C237.179 30.4106 235.934 29.9286 235.015 28.9571C234.095 27.9931 233.635 26.6375 233.635 24.8903C233.635 23.143 234.102 21.682 235.03 20.6879C235.957 19.6863 237.171 19.1892 238.656 19.1892C240.142 19.1892 241.265 19.6787 242.178 20.6578C243.09 21.6368 243.542 23.0075 243.542 24.7848C243.542 24.8903 243.542 25.0559 243.535 25.2668H235.52C235.588 26.4492 235.919 27.3529 236.523 27.978C237.126 28.6031 237.872 28.9194 238.77 28.9194C239.441 28.9194 240.006 28.7462 240.481 28.3922C240.956 28.0383 241.326 27.481 241.605 26.7128L241.597 26.7053ZM235.618 23.7606H241.62C241.537 22.8569 241.311 22.1791 240.934 21.7272C240.353 21.0268 239.599 20.6728 238.679 20.6728C237.842 20.6728 237.141 20.9515 236.568 21.5088C235.995 22.0661 235.686 22.8192 235.625 23.7531L235.618 23.7606Z" fill="#263238"/>
<path d="M245.744 30.162V19.4226H247.38V21.0494C247.795 20.2887 248.187 19.7841 248.541 19.5431C248.896 19.3021 249.288 19.1816 249.71 19.1816C250.321 19.1816 250.947 19.3775 251.58 19.7691L250.954 21.456C250.509 21.1924 250.065 21.0644 249.62 21.0644C249.22 21.0644 248.866 21.1849 248.549 21.4259C248.232 21.6669 248.006 21.9983 247.87 22.42C247.667 23.0677 247.569 23.7756 247.569 24.5438V30.162H245.744Z" fill="#263238"/>
<path d="M265.785 26.7053L267.67 26.9387C267.376 28.0383 266.826 28.8893 266.019 29.4993C265.212 30.1093 264.187 30.4106 262.943 30.4106C261.367 30.4106 260.123 29.9286 259.203 28.9571C258.283 27.9856 257.823 26.6375 257.823 24.8903C257.823 23.143 258.291 21.682 259.218 20.6879C260.146 19.6863 261.36 19.1892 262.845 19.1892C264.33 19.1892 265.454 19.6787 266.366 20.6578C267.278 21.6368 267.731 23.0075 267.731 24.7848C267.731 24.8903 267.731 25.0559 267.723 25.2668H259.708C259.776 26.4492 260.108 27.3529 260.711 27.978C261.314 28.6031 262.061 28.9194 262.958 28.9194C263.629 28.9194 264.195 28.7462 264.67 28.3922C265.145 28.0383 265.514 27.481 265.793 26.7128L265.785 26.7053ZM259.806 23.7606H265.808C265.725 22.8569 265.499 22.1791 265.122 21.7272C264.541 21.0268 263.787 20.6728 262.868 20.6728C262.031 20.6728 261.329 20.9515 260.756 21.5088C260.183 22.0661 259.874 22.8192 259.814 23.7531L259.806 23.7606Z" fill="#263238"/>
<path d="M269.939 30.162V19.4226H271.576V21.0494C271.99 20.2887 272.382 19.7841 272.737 19.5431C273.091 19.3021 273.483 19.1816 273.905 19.1816C274.516 19.1816 275.142 19.3775 275.775 19.7691L275.15 21.456C274.705 21.1924 274.26 21.0644 273.815 21.0644C273.415 21.0644 273.061 21.1849 272.744 21.4259C272.428 21.6669 272.201 21.9983 272.066 22.42C271.862 23.0677 271.764 23.7756 271.764 24.5438V30.162H269.939Z" fill="#263238"/>
<path d="M276.839 30.162V19.4226H278.475V21.0494C278.89 20.2887 279.282 19.7841 279.636 19.5431C279.991 19.3021 280.383 19.1816 280.805 19.1816C281.416 19.1816 282.041 19.3775 282.675 19.7691L282.049 21.456C281.604 21.1924 281.159 21.0644 280.714 21.0644C280.315 21.0644 279.96 21.1849 279.644 21.4259C279.327 21.6669 279.101 21.9983 278.965 22.42C278.762 23.0677 278.664 23.7756 278.664 24.5438V30.162H276.839Z" fill="#263238"/>
<path d="M283.09 24.7923C283.09 22.8041 283.64 21.3355 284.749 20.3716C285.676 19.5733 286.8 19.1816 288.127 19.1816C289.604 19.1816 290.811 19.6636 291.753 20.6351C292.688 21.5991 293.163 22.9397 293.163 24.6417C293.163 26.0274 292.952 27.1119 292.537 27.9027C292.123 28.6934 291.52 29.311 290.728 29.7478C289.936 30.1846 289.069 30.403 288.134 30.403C286.626 30.403 285.412 29.921 284.485 28.957C283.557 27.993 283.09 26.6073 283.09 24.7923ZM284.96 24.7923C284.96 26.1705 285.261 27.1947 285.857 27.8801C286.46 28.5654 287.214 28.9043 288.127 28.9043C289.039 28.9043 289.785 28.5579 290.381 27.8725C290.977 27.1872 291.278 26.1404 291.278 24.7321C291.278 23.4066 290.977 22.3974 290.373 21.7121C289.77 21.0268 289.016 20.6879 288.119 20.6879C287.222 20.6879 286.453 21.0268 285.849 21.7121C285.246 22.3899 284.952 23.4217 284.952 24.7923H284.96Z" fill="#263238"/>
<path d="M295.274 30.162V19.4226H296.911V21.0494C297.325 20.2887 297.717 19.7841 298.072 19.5431C298.426 19.3021 298.818 19.1816 299.24 19.1816C299.851 19.1816 300.477 19.3775 301.11 19.7691L300.485 21.456C300.04 21.1924 299.595 21.0644 299.15 21.0644C298.75 21.0644 298.396 21.1849 298.079 21.4259C297.763 21.6669 297.536 21.9983 297.401 22.42C297.197 23.0677 297.099 23.7756 297.099 24.5438V30.162H295.274Z" fill="#263238"/>
</g>
<defs>
<clipPath id="clip0_267_2222">
<rect width="377" height="285" fill="white"/>
</clipPath>
</defs>
</svg>
