<svg width="66" height="66" viewBox="0 0 66 66" fill="none" xmlns="http://www.w3.org/2000/svg">
<circle opacity="0.7" cx="33" cy="33" r="33" fill="#EFB246"/>
<path d="M31.1515 49.0182C31.0586 49.0182 30.9668 48.999 30.8817 48.9617C30.7967 48.9245 30.7202 48.8701 30.6572 48.8019L17.3312 34.387C17.2423 34.2909 17.1834 34.171 17.1617 34.0419C17.14 33.9129 17.1563 33.7803 17.2088 33.6604C17.2612 33.5405 17.3475 33.4384 17.457 33.3668C17.5665 33.2952 17.6945 33.257 17.8254 33.257H24.2398C24.3361 33.257 24.4313 33.2777 24.519 33.3176C24.6066 33.3576 24.6847 33.4158 24.7479 33.4885L29.2015 38.6122C29.6828 37.5834 30.6145 35.8702 32.2496 33.7828C34.6667 30.6967 39.1628 26.1581 46.8549 22.0609C47.0036 21.9817 47.1766 21.9612 47.3397 22.0033C47.5028 22.0455 47.6441 22.1472 47.7358 22.2885C47.8276 22.4298 47.863 22.6003 47.8351 22.7664C47.8072 22.9326 47.7181 23.0822 47.5852 23.1858C47.5559 23.2087 44.59 25.5443 41.1767 29.8223C38.0353 33.7591 33.8594 40.1964 31.8046 48.5069C31.7685 48.6529 31.6846 48.7826 31.5661 48.8753C31.4477 48.9681 31.3017 49.0184 31.1513 49.0185L31.1515 49.0182Z" fill="white"/>
</svg>
