<svg width="29" height="29" viewBox="0 0 29 29" fill="none" xmlns="http://www.w3.org/2000/svg">
<path fill-rule="evenodd" clip-rule="evenodd" d="M16.6025 4.17624H21.054C26.4044 4.17624 29.0144 7.03273 28.9999 12.8907V19.9522C28.9999 25.5492 25.5489 29.0002 19.9375 29.0002H9.04798C3.46549 29.0002 0 25.5492 0 19.9377V9.04823C0 3.04524 2.66799 0.000247457 7.93148 0.000247457H10.2225C11.5724 -0.0142525 12.8325 0.609246 13.659 1.66774L14.935 3.36424C15.341 3.87174 15.95 4.17624 16.6025 4.17624ZM7.78665 19.2705H21.2136C21.8081 19.2705 22.2866 18.7775 22.2866 18.183C22.2866 17.574 21.8081 17.0955 21.2136 17.0955H7.78665C7.17765 17.0955 6.69916 17.574 6.69916 18.183C6.69916 18.7775 7.17765 19.2705 7.78665 19.2705Z" fill="#D0D0D0"/>
</svg>
