<svg width="25" height="24" viewBox="0 0 25 24" fill="none" xmlns="http://www.w3.org/2000/svg">
<g clip-path="url(#clip0_856_595)">
<path d="M12.2415 24C18.883 24 24.2671 18.6274 24.2671 12C24.2671 5.37258 18.883 0 12.2415 0C5.59988 0 0.21582 5.37258 0.21582 12C0.21582 18.6274 5.59988 24 12.2415 24Z" fill="#7F2E29" fill-opacity="0.13"/>
<path d="M15.4979 14.0706H10.7442C10.7442 13.9859 10.7725 13.9012 10.7725 13.8447C10.7725 13.3647 10.5744 12.9412 10.2632 12.6024C9.92364 12.2918 9.4992 12.1224 9.04647 12.1224C8.56545 12.1224 8.14101 12.2918 7.80146 12.6024C7.49021 12.9412 7.32044 13.3647 7.32044 13.8447V14.0706H6.47157C6.38668 14.0706 6.2735 13.9859 6.2735 13.8729V10.7671C6.2735 10.6541 6.38668 10.5694 6.47157 10.5694H17.9596C18.1294 10.5694 18.2708 10.5976 18.4406 10.6259C18.3557 10.7388 18.2425 10.9647 18.2143 11.0494C18.186 11.1341 18.1577 11.2471 18.1577 11.36C18.1577 11.6141 18.2708 11.8682 18.4406 12.0659H18.4689C18.6387 12.2635 18.8933 12.3765 19.1763 12.3765C19.2612 12.3765 19.5724 12.2918 19.629 12.2918C19.6573 12.2635 19.6856 12.2635 19.7139 12.2635V13.8729C19.7139 13.9859 19.629 14.0706 19.5159 14.0706H18.9216C18.9216 13.9859 18.9499 13.9012 18.9499 13.8447C18.9499 13.3647 18.7519 12.9412 18.4406 12.6024C18.1011 12.2918 17.6766 12.1224 17.2239 12.1224C16.7429 12.1224 16.3184 12.2918 16.0072 12.6024C15.6676 12.9412 15.4979 13.3647 15.4979 13.8447V14.0706ZM17.2239 12.4894C17.5918 12.4894 17.9313 12.6588 18.1577 12.8847C18.4123 13.1388 18.5538 13.4776 18.5538 13.8447C18.5538 14.2118 18.4123 14.5224 18.1577 14.7765C17.9313 15.0306 17.5918 15.1718 17.2239 15.1718C16.8561 15.1718 16.5165 15.0306 16.2619 14.7765C16.0355 14.5224 15.8657 14.2118 15.8657 13.8447C15.8657 13.4776 16.0355 13.1388 16.2619 12.8847C16.5165 12.6588 16.8561 12.4894 17.2239 12.4894ZM17.2239 13.2235C17.3654 13.2235 17.5352 13.3082 17.6483 13.4212C17.7332 13.5341 17.8181 13.6753 17.8181 13.8447C17.8181 13.9859 17.7332 14.1553 17.6483 14.2682C17.5352 14.3529 17.3654 14.4376 17.2239 14.4376C17.0541 14.4376 16.9127 14.3529 16.7995 14.2682C16.6863 14.1553 16.6014 13.9859 16.6014 13.8447C16.6014 13.6753 16.6863 13.5341 16.7995 13.4212C16.9127 13.3082 17.0541 13.2235 17.2239 13.2235ZM17.3937 13.6471C17.3654 13.5906 17.2805 13.5624 17.2239 13.5624C17.139 13.5624 17.0824 13.5906 17.0258 13.6471C16.9975 13.7035 16.9692 13.76 16.9692 13.8447C16.9692 13.9012 16.9975 13.9576 17.0258 14.0141C17.0824 14.0706 17.139 14.0988 17.2239 14.0988C17.2805 14.0988 17.3654 14.0706 17.3937 14.0141C17.4503 13.9576 17.4786 13.9012 17.4786 13.8447C17.4786 13.76 17.4503 13.7035 17.3937 13.6471ZM5.90566 13.7035H5.82077C5.651 13.7035 5.50952 13.6471 5.39634 13.5341C5.28315 13.4212 5.22656 13.28 5.22656 13.1388V11.5012C5.22656 11.36 5.28315 11.1906 5.39634 11.1059C5.50952 10.9929 5.651 10.9365 5.82077 10.9365H5.90566V13.7035ZM9.04647 12.4894C9.41432 12.4894 9.72557 12.6588 9.98023 12.8847C10.2349 13.1388 10.3764 13.4776 10.3764 13.8447C10.3764 14.2118 10.2349 14.5224 9.98023 14.7765C9.72557 15.0306 9.41432 15.1718 9.04647 15.1718C8.67863 15.1718 8.33908 15.0306 8.08442 14.7765C7.85806 14.5224 7.68828 14.2118 7.68828 13.8447C7.68828 13.4776 7.85806 13.1388 8.08442 12.8847C8.33908 12.6588 8.67863 12.4894 9.04647 12.4894ZM9.04647 13.2235C9.18795 13.2235 9.35772 13.3082 9.47091 13.4212C9.55579 13.5341 9.64068 13.6753 9.64068 13.8447C9.64068 13.9859 9.55579 14.1553 9.47091 14.2682C9.35772 14.3529 9.18795 14.4376 9.04647 14.4376C8.8767 14.4376 8.70692 14.3529 8.62204 14.2682C8.50886 14.1553 8.42397 13.9859 8.42397 13.8447C8.42397 13.6753 8.50886 13.5341 8.62204 13.4212C8.70692 13.3082 8.8767 13.2235 9.04647 13.2235ZM9.21625 13.6471C9.15965 13.5906 9.10306 13.5624 9.04647 13.5624C8.96159 13.5624 8.90499 13.5906 8.8484 13.6471C8.79181 13.7035 8.76352 13.76 8.76352 13.8447C8.76352 13.9012 8.79181 13.9576 8.8484 14.0141C8.90499 14.0706 8.96159 14.0988 9.04647 14.0988C9.10306 14.0988 9.15965 14.0706 9.21625 14.0141C9.27284 13.9576 9.30113 13.9012 9.30113 13.8447C9.30113 13.76 9.27284 13.7035 9.21625 13.6471ZM12.1307 10.1741V8H14.366C14.4226 8 14.5075 8.02824 14.5358 8.11294L15.6959 10.1741H12.1307ZM7.99953 10.1741L8.56545 8.16941C8.59374 8.05647 8.67863 8 8.76352 8H11.7346V10.1741H7.99953ZM10.9706 12.5176C10.8574 12.5176 10.7725 12.4329 10.7725 12.32C10.7725 12.2071 10.8574 12.1224 10.9706 12.1224H14.8188C14.9037 12.1224 14.9886 12.2071 14.9886 12.32C14.9886 12.4329 14.9037 12.5176 14.8188 12.5176H10.9706ZM18.8085 10.7671C18.9499 10.8518 19.0914 10.9647 19.2046 11.0776C19.431 11.3035 19.5724 11.5859 19.6573 11.8965C19.5159 11.8965 19.3744 11.9529 19.3178 11.9812H19.1763C19.0065 11.9812 18.8651 11.8965 18.7519 11.7835H18.7236C18.6104 11.6706 18.5538 11.5294 18.5538 11.36C18.5538 11.2753 18.5538 11.2188 18.5821 11.1624C18.6104 11.1059 18.7519 10.8235 18.8085 10.7671Z" fill="#7F2E29"/>
</g>
<defs>
<clipPath id="clip0_856_595">
<rect width="24.0513" height="24" fill="white" transform="translate(0.21582)"/>
</clipPath>
</defs>
</svg>
