<svg width="25" height="24" viewBox="0 0 25 24" fill="none" xmlns="http://www.w3.org/2000/svg">
<ellipse cx="12.2415" cy="12" rx="12.0256" ry="12" fill="#7F2E29" fill-opacity="0.13"/>
<g clip-path="url(#clip0_856_608)">
<path d="M14.2461 13.2767C13.886 12.9219 13.4364 12.9219 13.0785 13.2767C12.8055 13.5468 12.5325 13.8169 12.2641 14.0916C12.1907 14.1671 12.1288 14.1832 12.0393 14.1328C11.8627 14.0367 11.6746 13.9588 11.5049 13.8535C10.7134 13.3568 10.0505 12.7182 9.46324 11.9995C9.17191 11.6424 8.9127 11.2601 8.73148 10.8298C8.69477 10.7428 8.70166 10.6856 8.77277 10.6146C9.04575 10.3514 9.31184 10.0813 9.58024 9.81118C9.95415 9.43578 9.95415 8.99629 9.57794 8.61861C9.3646 8.40344 9.15127 8.19286 8.93793 7.97769C8.71771 7.75795 8.49979 7.53592 8.27728 7.31846C7.91713 6.96824 7.46751 6.96824 7.10966 7.32075C6.83439 7.59085 6.57058 7.86782 6.29072 8.13334C6.03151 8.37827 5.90075 8.67812 5.87322 9.02834C5.82964 9.5983 5.96957 10.1362 6.16685 10.6604C6.57058 11.7454 7.18536 12.709 7.93089 13.5926C8.93793 14.7875 10.14 15.7328 11.5461 16.4149C12.1793 16.7217 12.8353 16.9574 13.5488 16.9963C14.0397 17.0238 14.4663 16.9002 14.8081 16.5179C15.0421 16.257 15.3059 16.0189 15.5537 15.7694C15.9207 15.3986 15.923 14.95 15.5583 14.5837C15.1224 14.1465 14.6843 13.7116 14.2461 13.2767ZM13.808 11.4524L14.6544 11.3082C14.5214 10.5322 14.1544 9.82949 13.5969 9.27097C13.0074 8.6827 12.2619 8.31188 11.4406 8.19744L11.3213 9.04665C11.9568 9.13592 12.5348 9.42205 12.9913 9.87756C13.4226 10.3079 13.7047 10.8527 13.808 11.4524ZM15.1316 7.78084C14.1544 6.80573 12.9179 6.18999 11.553 6L11.4337 6.84922C12.6128 7.01402 13.6818 7.54736 14.526 8.38742C15.3266 9.18628 15.8519 10.1957 16.0423 11.3059L16.8887 11.1617C16.6662 9.87527 16.0583 8.70788 15.1316 7.78084Z" fill="#7F2E29"/>
</g>
<defs>
<clipPath id="clip0_856_608">
<rect width="13.0278" height="13" fill="white" transform="translate(5.22656 6)"/>
</clipPath>
</defs>
</svg>
