<svg width="22" height="22" viewBox="0 0 22 22" fill="none" xmlns="http://www.w3.org/2000/svg">
<g filter="url(#filter0_b_3473_7005)">
<rect width="22" height="22" rx="5" fill="#455A64" fill-opacity="0.15"/>
<g clip-path="url(#clip0_3473_7005)">
<path d="M15.3359 11.1296C15.316 11.0893 15.3057 11.045 15.3057 11C15.3057 10.9551 15.316 10.9108 15.3359 10.8705L15.7088 10.1075C15.9165 9.68271 15.752 9.17637 15.3343 8.95475L14.5841 8.5567C14.5443 8.53578 14.5099 8.506 14.4835 8.46966C14.4571 8.43333 14.4394 8.39141 14.4318 8.34715L14.2851 7.51065C14.2034 7.04491 13.7726 6.73195 13.3045 6.79818L12.4636 6.91712C12.4191 6.92355 12.3738 6.91967 12.3311 6.90579C12.2884 6.89191 12.2494 6.86839 12.2172 6.83706L11.6069 6.2466C11.267 5.91781 10.7346 5.91779 10.3948 6.2466L9.78437 6.83712C9.75219 6.86844 9.71323 6.89195 9.67052 6.90583C9.62781 6.91971 9.58248 6.9236 9.53803 6.91718L8.69715 6.79824C8.22889 6.73197 7.79823 7.04497 7.71653 7.51071L7.56982 8.34717C7.56219 8.39143 7.5445 8.43335 7.5181 8.46969C7.4917 8.50602 7.45731 8.53581 7.41757 8.55674L6.66738 8.95479C6.24969 9.17639 6.08516 9.68277 6.29281 10.1076L6.66576 10.8706C6.68561 10.9108 6.69594 10.9552 6.69594 11.0001C6.69594 11.045 6.68561 11.0893 6.66576 11.1296L6.29279 11.8926C6.08514 12.3174 6.24967 12.8237 6.66736 13.0453L7.41755 13.4434C7.45729 13.4643 7.49169 13.4941 7.51809 13.5304C7.54449 13.5668 7.56219 13.6087 7.56982 13.6529L7.71653 14.4894C7.79091 14.9134 8.15446 15.2108 8.57229 15.2107C8.61344 15.2107 8.6552 15.2078 8.69717 15.2019L9.53805 15.083C9.5825 15.0765 9.62783 15.0804 9.67055 15.0943C9.71326 15.1082 9.75222 15.1317 9.78439 15.163L10.3948 15.7535C10.5647 15.9179 10.7827 16.0001 11.0008 16.0001C11.2188 16 11.437 15.9178 11.6069 15.7535L12.2172 15.163C12.2831 15.0993 12.3729 15.0702 12.4636 15.083L13.3045 15.2019C13.7728 15.2681 14.2034 14.9552 14.2851 14.4894L14.4318 13.653C14.4395 13.6087 14.4571 13.5668 14.4835 13.5304C14.5099 13.4941 14.5443 13.4643 14.5841 13.4434L15.3343 13.0453C15.752 12.8237 15.9165 12.3174 15.7088 11.8925L15.3359 11.1296ZM9.84728 8.40463C10.4303 8.40463 10.9047 8.87898 10.9047 9.46203C10.9047 10.0451 10.4303 10.5194 9.84728 10.5194C9.26424 10.5194 8.78989 10.0451 8.78989 9.46203C8.78989 8.87898 9.26424 8.40463 9.84728 8.40463ZM9.30151 13.1071C9.2452 13.1635 9.17139 13.1916 9.0976 13.1916C9.02381 13.1916 8.94998 13.1635 8.8937 13.1071C8.78108 12.9945 8.78108 12.8119 8.8937 12.6993L12.7001 8.89291C12.8127 8.78029 12.9953 8.78029 13.1079 8.89291C13.2205 9.00553 13.2205 9.18812 13.1079 9.30074L9.30151 13.1071ZM12.1543 13.5955C11.5713 13.5955 11.0969 13.1211 11.0969 12.5381C11.0969 11.955 11.5713 11.4807 12.1543 11.4807C12.7373 11.4807 13.2117 11.955 13.2117 12.5381C13.2117 13.1211 12.7373 13.5955 12.1543 13.5955Z" fill="#263238"/>
<path d="M12.1548 12.0575C11.8898 12.0575 11.6742 12.2731 11.6742 12.5381C11.6742 12.8031 11.8898 13.0187 12.1548 13.0187C12.4198 13.0187 12.6355 12.8031 12.6355 12.5381C12.6355 12.2731 12.4198 12.0575 12.1548 12.0575ZM9.84781 8.98145C9.58279 8.98145 9.36719 9.19705 9.36719 9.46207C9.36719 9.72709 9.58279 9.94271 9.84781 9.94271C10.1128 9.94271 10.3285 9.72711 10.3285 9.46207C10.3284 9.19707 10.1128 8.98145 9.84781 8.98145Z" fill="#263238"/>
</g>
</g>
<defs>
<filter id="filter0_b_3473_7005" x="-20" y="-20" width="62" height="62" filterUnits="userSpaceOnUse" color-interpolation-filters="sRGB">
<feFlood flood-opacity="0" result="BackgroundImageFix"/>
<feGaussianBlur in="BackgroundImageFix" stdDeviation="10"/>
<feComposite in2="SourceAlpha" operator="in" result="effect1_backgroundBlur_3473_7005"/>
<feBlend mode="normal" in="SourceGraphic" in2="effect1_backgroundBlur_3473_7005" result="shape"/>
</filter>
<clipPath id="clip0_3473_7005">
<rect width="10" height="10" fill="white" transform="translate(6 6)"/>
</clipPath>
</defs>
</svg>
