<svg width="25" height="24" viewBox="0 0 25 24" fill="none" xmlns="http://www.w3.org/2000/svg">
<ellipse cx="12.7131" cy="12" rx="12.0256" ry="12" fill="#7F2E29" fill-opacity="0.13"/>
<g clip-path="url(#clip0_856_584)">
<path d="M16.221 9.03138H9.20601C8.96487 9.03138 8.76758 9.22825 8.76758 9.46888C8.76758 9.7095 8.96487 9.90638 9.20601 9.90638H16.221C16.4621 9.90638 16.6594 9.7095 16.6594 9.46888C16.6594 9.22825 16.4621 9.03138 16.221 9.03138ZM16.221 17.1251H9.20601C8.96487 17.1251 8.76758 17.322 8.76758 17.5626C8.76758 17.8033 8.96487 18.0001 9.20601 18.0001H16.221C16.4621 18.0001 16.6594 17.8033 16.6594 17.5626C16.6594 17.322 16.4621 17.1251 16.221 17.1251ZM16.8786 5.53138H15.5633C15.5052 5.53138 15.4494 5.55442 15.4083 5.59545C15.3672 5.63647 15.3441 5.69211 15.3441 5.75013C15.3441 5.80814 15.3672 5.86378 15.4083 5.90481C15.4494 5.94583 15.5052 5.96888 15.5633 5.96888H16.8786C16.9368 5.96888 16.9925 5.94583 17.0336 5.90481C17.0747 5.86378 17.0978 5.80814 17.0978 5.75013C17.0978 5.69211 17.0747 5.63647 17.0336 5.59545C16.9925 5.55442 16.9368 5.53138 16.8786 5.53138ZM14.9057 5.31263C14.9537 5.31263 15.0021 5.2971 15.0425 5.26472L16.1385 4.38972C16.1835 4.35336 16.2123 4.3007 16.2185 4.24326C16.2248 4.18581 16.208 4.12824 16.1718 4.08312C16.1356 4.03799 16.083 4.00897 16.0255 4.0024C15.968 3.99582 15.9102 4.01223 15.8647 4.04803L14.7687 4.92303C14.7332 4.95135 14.7074 4.98997 14.6948 5.03355C14.6823 5.07714 14.6837 5.12353 14.6987 5.16631C14.7138 5.20909 14.7418 5.24616 14.7788 5.27237C14.8159 5.29858 14.8602 5.31265 14.9057 5.31263ZM15.8647 7.45222C15.8872 7.47018 15.913 7.48353 15.9407 7.49154C15.9683 7.49954 15.9973 7.50203 16.0259 7.49886C16.0546 7.49569 16.0823 7.48692 16.1075 7.47307C16.1327 7.45921 16.155 7.44053 16.173 7.4181C16.191 7.39566 16.2043 7.36991 16.2124 7.34231C16.2204 7.31471 16.2229 7.28581 16.2197 7.25725C16.2165 7.22869 16.2077 7.20103 16.1939 7.17586C16.18 7.15068 16.1612 7.12849 16.1388 7.11053L15.0427 6.23553C14.9972 6.19973 14.9394 6.18332 14.8819 6.1899C14.8244 6.19647 14.7718 6.22549 14.7356 6.27062C14.6995 6.31574 14.6827 6.37331 14.6889 6.43076C14.6951 6.4882 14.7239 6.54086 14.7689 6.57722L15.8647 7.45222ZM12.7135 12.0939C11.9881 12.0939 11.3982 12.6825 11.3982 13.4064C11.3982 14.1302 11.9881 14.7189 12.7135 14.7189C13.4389 14.7189 14.0288 14.1302 14.0288 13.4064C14.0288 12.6825 13.4389 12.0939 12.7135 12.0939Z" fill="#7F2E29"/>
<path d="M16.221 10.3438H9.20605V16.6875H16.221V10.3438ZM12.7135 15.1562C11.7466 15.1562 10.9598 14.3712 10.9598 13.4062C10.9598 12.4413 11.7466 11.6562 12.7135 11.6562C13.6805 11.6562 14.4673 12.4413 14.4673 13.4062C14.4673 14.3712 13.6805 15.1562 12.7135 15.1562ZM14.0288 7.0625C14.0285 6.92724 13.9861 6.79542 13.9076 6.68515C13.8291 6.57489 13.7183 6.49159 13.5904 6.44672V5.96875H13.152C13.0938 5.96875 13.0381 5.9457 12.997 5.90468C12.9558 5.86366 12.9328 5.80802 12.9328 5.75C12.9328 5.69198 12.9558 5.63634 12.997 5.59532C13.0381 5.5543 13.0938 5.53125 13.152 5.53125H13.5904V4.875C13.5904 4.81698 13.5673 4.76134 13.5262 4.72032C13.4851 4.6793 13.4293 4.65625 13.3712 4.65625H12.0559C11.9977 4.65625 11.942 4.6793 11.9009 4.72032C11.8598 4.76134 11.8367 4.81698 11.8367 4.875V6.44672C11.7088 6.49162 11.598 6.57492 11.5195 6.68518C11.441 6.79544 11.3986 6.92725 11.3982 7.0625V7.28125H14.0288V7.0625ZM14.0288 7.71875H11.3982L9.90689 8.59375H15.5202L14.0288 7.71875Z" fill="#7F2E29"/>
</g>
<defs>
<clipPath id="clip0_856_584">
<rect width="14.0299" height="14" fill="white" transform="translate(5.69824 4)"/>
</clipPath>
</defs>
</svg>
