<svg width="25" height="24" viewBox="0 0 25 24" fill="none" xmlns="http://www.w3.org/2000/svg">
<ellipse cx="12.7151" cy="12" rx="12.0256" ry="12" fill="#7F2E29" fill-opacity="0.13"/>
<path d="M12.8059 11.7804C13.6017 11.7804 14.2908 11.4956 14.8538 10.9336C15.4169 10.3718 15.7023 9.68432 15.7023 8.89013C15.7023 8.09616 15.4169 7.40863 14.8537 6.84658C14.2906 6.28481 13.6016 6 12.8059 6C12.0099 6 11.321 6.28481 10.7579 6.84667C10.1949 7.40854 9.90937 8.09609 9.90937 8.89013C9.90937 9.68432 10.1949 10.3719 10.758 10.9337C11.3212 11.4955 12.0102 11.7804 12.8059 11.7804ZM17.8739 15.2273C17.8576 14.9935 17.8248 14.7384 17.7764 14.4691C17.7276 14.1977 17.6648 13.9412 17.5896 13.7068C17.5119 13.4644 17.4062 13.2251 17.2755 12.9958C17.1399 12.7577 16.9806 12.5504 16.8019 12.3799C16.615 12.2015 16.3862 12.058 16.1216 11.9533C15.8579 11.8493 15.5657 11.7965 15.2531 11.7965C15.1304 11.7965 15.0117 11.8468 14.7824 11.9958C14.6194 12.1017 14.4559 12.2068 14.292 12.3112C14.1344 12.4114 13.921 12.5052 13.6574 12.5902C13.4003 12.6732 13.1392 12.7154 12.8814 12.7154C12.6237 12.7154 12.3627 12.6732 12.1053 12.5902C11.842 12.5053 11.6286 12.4115 11.4712 12.3113C11.2887 12.195 11.1236 12.0888 10.9803 11.9956C10.7513 11.8467 10.6325 11.7964 10.5098 11.7964C10.1971 11.7964 9.90498 11.8493 9.64138 11.9535C9.37696 12.0579 9.14805 12.2014 8.96097 12.38C8.78235 12.5506 8.62299 12.7578 8.48756 12.9958C8.35702 13.2251 8.25132 13.4643 8.17351 13.7068C8.09835 13.9413 8.03552 14.1977 7.98671 14.4691C7.93835 14.7381 7.90552 14.9932 7.88926 15.2276C7.8731 15.4635 7.86508 15.6998 7.86524 15.9362C7.86524 16.5626 8.06479 17.0697 8.45829 17.4437C8.84694 17.8128 9.36117 18 9.98652 18H15.7769C16.4023 18 16.9163 17.8129 17.3051 17.4437C17.6987 17.07 17.8982 16.5628 17.8982 15.9361C17.8981 15.6944 17.89 15.4559 17.8739 15.2273Z" fill="#7F2E29"/>
</svg>
